<svg width="36" height="36" viewBox="0 0 36 36" fill="none" xmlns="http://www.w3.org/2000/svg">
<path d="M17.2946 2.82949C17.3678 2.82925 17.4411 2.82901 17.5165 2.82877C17.6707 2.82879 17.8249 2.82986 17.979 2.83191C18.2146 2.8347 18.4498 2.83336 18.6854 2.83155C18.8356 2.83208 18.9857 2.83285 19.1359 2.83388C19.206 2.83339 19.2761 2.8329 19.3484 2.83239C19.6486 2.83847 19.8948 2.84458 20.1429 3.02607C20.3562 3.27728 20.4463 3.49607 20.5408 3.80782C20.5586 3.8625 20.5764 3.91719 20.5947 3.97353C20.651 4.14725 20.7052 4.32149 20.7594 4.49584C20.7968 4.61265 20.8344 4.72943 20.872 4.84616C20.9412 5.06093 21.0095 5.2759 21.077 5.49118C21.0919 5.53788 21.1068 5.58457 21.1221 5.63269C21.1609 5.75689 21.197 5.88196 21.2329 6.00706C21.289 6.20846 21.289 6.20846 21.5068 6.28606C21.5923 6.30872 21.6777 6.33138 21.7658 6.35472C22.2571 6.4945 22.6993 6.6896 23.1519 6.92584C23.4448 7.0728 23.5936 7.12606 23.9059 7.03148C24.0867 6.94575 24.2622 6.85728 24.4385 6.76314C24.5431 6.70884 24.6477 6.65459 24.7523 6.60041C24.9157 6.51524 25.0788 6.42967 25.2414 6.343C26.3786 5.73887 26.3786 5.73887 26.8518 5.79047C27.1465 5.88156 27.3407 6.04795 27.5622 6.25804C27.6572 6.34752 27.6572 6.34752 27.7541 6.4388C27.9334 6.61042 28.1092 6.78527 28.284 6.96149C28.3933 7.07156 28.5033 7.18084 28.6134 7.29007C28.6839 7.36066 28.7544 7.43129 28.8248 7.50197C28.8878 7.5652 28.9509 7.62842 29.0159 7.69356C29.3315 8.04429 29.4303 8.27694 29.4149 8.74786C29.3747 9.04543 29.2546 9.27931 29.111 9.53993C29.0827 9.59429 29.0545 9.64864 29.0253 9.70465C28.9359 9.87635 28.8447 10.047 28.7531 10.2175C28.6614 10.3894 28.5702 10.5614 28.4801 10.7342C28.4243 10.8411 28.3675 10.9476 28.3097 11.0534C28.1581 11.3399 28.1581 11.3399 28.1366 11.6579C28.2193 11.8772 28.3188 12.0867 28.4235 12.2961C28.5641 12.5791 28.6765 12.808 28.7328 13.1207C28.8321 13.6341 28.8321 13.6341 29.1691 14.0121C29.5728 14.2077 30.0076 14.3127 30.4406 14.4231C30.6348 14.4764 30.8287 14.531 31.0223 14.5866C31.1423 14.6206 31.2628 14.6532 31.3836 14.684C31.7612 14.7858 31.9931 14.9123 32.2731 15.1877C32.3564 15.3543 32.3545 15.4604 32.3581 15.6463C32.3595 15.7123 32.3608 15.7783 32.3622 15.8462C32.3663 16.1488 32.3697 16.4513 32.3719 16.7539C32.3734 16.9133 32.3758 17.0726 32.3791 17.232C32.3838 17.462 32.3858 17.6919 32.3871 17.922C32.389 17.9928 32.391 18.0636 32.393 18.1366C32.3921 18.4694 32.375 18.7136 32.1702 18.9843C31.9103 19.2416 31.6222 19.3283 31.275 19.4188C31.1495 19.4556 31.0239 19.4925 30.8984 19.5294C30.7021 19.585 30.5056 19.6396 30.3087 19.6931C29.5689 19.8606 29.5689 19.8606 28.9672 20.275C28.8944 20.4562 28.8579 20.6202 28.8278 20.8127C28.792 20.9153 28.7536 21.0171 28.7124 21.1176C28.6937 21.1648 28.6749 21.212 28.6556 21.2607C28.637 21.3072 28.6184 21.3537 28.5993 21.4016C28.5818 21.4497 28.5643 21.4979 28.5463 21.5474C28.4151 21.8676 28.2781 22.0112 27.9488 22.1513C27.8908 22.1736 27.8329 22.196 27.7731 22.219C27.7033 22.2476 27.6336 22.2761 27.5617 22.3056C27.3555 22.3894 27.1487 22.4714 26.9415 22.5526C26.0707 22.8943 25.2081 23.2524 24.3498 23.6245C23.0506 24.1877 23.0506 24.1877 22.8512 24.1877C22.9424 23.9873 23.0392 23.8417 23.1937 23.6854C23.2337 23.6441 23.2737 23.6029 23.315 23.5604C23.3577 23.5165 23.4005 23.4727 23.4445 23.4275C24.8951 21.9027 26.0762 19.8751 26.1559 17.719C26.1595 17.6275 26.1632 17.5361 26.1669 17.4419C26.2195 15.448 25.547 13.5512 24.2575 12.0237C24.1991 11.9539 24.1407 11.8841 24.0806 11.8122C22.7704 10.2925 20.8517 9.24666 18.8434 9.07054C16.6092 8.93968 14.5191 9.63729 12.8202 11.1018C11.4054 12.366 10.4709 14.2201 10.2653 16.1018C10.1716 17.8787 10.4192 19.389 11.2579 20.9635C11.32 21.094 11.32 21.094 11.32 21.2346C9.26098 22.2976 9.26098 22.2976 8.50749 22.5002C8.29655 22.4299 8.29655 22.4299 8.22009 22.3149C8.19692 22.2656 8.17375 22.2163 8.14988 22.1654C8.1236 22.1098 8.09731 22.0542 8.07023 21.9969C8.02999 21.9089 8.02999 21.9089 7.98893 21.8191C7.96265 21.7639 7.93636 21.7088 7.90928 21.6519C7.88281 21.5952 7.85635 21.5384 7.82908 21.4799C7.78656 21.3895 7.78656 21.3895 7.74318 21.2974C7.66374 21.094 7.66374 21.094 7.6145 20.8467C7.5089 20.3687 7.5089 20.3687 7.18159 20.0237C6.77489 19.8307 6.33991 19.7221 5.90592 19.6086C5.71099 19.5539 5.51643 19.4981 5.32202 19.4416C5.20148 19.4069 5.08057 19.3735 4.9593 19.3415C4.57273 19.2357 4.27531 19.1236 4.05715 18.7646C3.98329 18.4644 3.98603 18.1721 3.98634 17.864C3.98604 17.7967 3.98573 17.7293 3.98542 17.6599C3.98502 17.5179 3.98498 17.3758 3.98529 17.2337C3.98551 17.0166 3.98386 16.7996 3.98208 16.5824C3.98192 16.4442 3.98187 16.306 3.98194 16.1677C3.9813 16.103 3.98065 16.0382 3.97998 15.9715C3.98244 15.6299 3.98959 15.3896 4.21842 15.1174C4.49956 14.8407 4.79822 14.739 5.16599 14.6241C5.25111 14.5966 5.25111 14.5966 5.33795 14.5686C5.45733 14.5302 5.57683 14.4922 5.69643 14.4545C5.87969 14.3967 6.06256 14.3377 6.2454 14.2786C6.36165 14.2414 6.47792 14.2042 6.59422 14.1671C6.64893 14.1495 6.70365 14.132 6.76002 14.1138C6.97481 14.0464 7.15595 13.9924 7.38249 13.9924C7.39998 13.9021 7.41747 13.8117 7.43549 13.7186C7.51696 13.3525 7.65015 13.0212 7.79997 12.6785C7.82439 12.6211 7.84882 12.5638 7.87399 12.5047C7.97904 12.26 8.08283 12.0284 8.21772 11.7982C8.32319 11.5354 8.25843 11.4401 8.15592 11.1799C8.08491 11.0321 8.01082 10.8858 7.93427 10.7407C7.89127 10.6587 7.84826 10.5766 7.80395 10.492C7.7587 10.4064 7.71343 10.3207 7.66813 10.2351C7.57937 10.0668 7.4909 9.89845 7.40254 9.73C7.3633 9.65573 7.32406 9.58145 7.28363 9.50493C6.87023 8.68073 6.87023 8.68073 7.03092 8.15648C7.3609 7.6787 7.82858 7.27765 8.23959 6.86833C8.3503 6.758 8.46063 6.64729 8.57093 6.53655C8.64168 6.46585 8.71245 6.39517 8.78324 6.32451C8.84676 6.26108 8.91027 6.19764 8.97571 6.13228C9.29467 5.83095 9.49355 5.80337 9.91717 5.81172C10.2545 5.85147 10.5162 5.98949 10.8102 6.15258C10.8703 6.1841 10.9304 6.21562 10.9923 6.2481C11.2786 6.399 11.5613 6.55595 11.8438 6.7137C11.8914 6.73999 11.9391 6.76627 11.9882 6.79335C12.0764 6.84236 12.1641 6.89239 12.2511 6.94359C12.5178 7.09332 12.6463 7.10987 12.9372 7.03148C13.0493 6.98945 13.1602 6.94414 13.2698 6.89607C13.3321 6.86902 13.3944 6.84196 13.4586 6.81409C13.5229 6.78577 13.5872 6.75744 13.6535 6.72826C13.7804 6.67278 13.9074 6.61739 14.0344 6.56209C14.1287 6.51879 14.1287 6.51879 14.2248 6.47461C14.4137 6.39867 14.4137 6.39867 14.6014 6.36447C14.8264 6.31542 14.9416 6.26961 15.1169 6.11742C15.3519 5.68726 15.4595 5.18995 15.5871 4.71996C15.6413 4.52518 15.6963 4.33077 15.7533 4.1368C15.7886 4.01648 15.8222 3.89564 15.8538 3.77431C15.9548 3.4246 16.0794 3.18051 16.3737 2.95782C16.6686 2.81023 16.9711 2.82452 17.2946 2.82949Z" fill="#383838"/>
<path d="M33.2578 21.7266C33.5735 21.9982 33.9103 22.3508 33.9609 22.7812C33.992 23.247 33.9386 23.6567 33.6496 24.039C33.5279 24.1731 33.4018 24.2995 33.271 24.4248C33.2241 24.4705 33.1773 24.5162 33.129 24.5633C32.4989 25.1646 31.7882 25.6238 31.0494 26.079C30.6222 26.3423 30.2017 26.6154 29.7817 26.8901C29.6777 26.9582 29.6777 26.9582 29.5716 27.0276C29.4346 27.1172 29.2977 27.2068 29.1607 27.2965C28.8892 27.4738 28.6171 27.6502 28.3447 27.8262C28.2971 27.857 28.2494 27.8878 28.2003 27.9195C28.1055 27.9807 28.0108 28.042 27.9161 28.1032C27.7194 28.2302 27.5228 28.3575 27.3262 28.4847C27.226 28.5495 27.1258 28.6143 27.0256 28.6791C26.7799 28.838 26.5343 28.9972 26.2892 29.1572C22.3382 31.7321 19.4888 32.9009 14.7739 31.9326C12.9446 31.5638 11.1104 31.4901 9.25049 31.4253C8.32599 31.3927 8.32599 31.3927 7.38281 31.3594C7.38281 28.8302 7.38281 26.3011 7.38281 23.6953C7.93969 23.5329 8.49656 23.3705 9.07031 23.2031C9.45242 23.0479 9.82379 22.8875 10.1953 22.7109C10.41 22.6105 10.6248 22.5106 10.8399 22.4111C10.9863 22.3433 11.1324 22.275 11.2783 22.206C13.2874 21.2704 14.943 21.9178 16.948 22.523C17.1376 22.5801 17.3272 22.637 17.5169 22.6938C19.1585 23.1858 19.1585 23.1858 19.8353 23.4058C19.9106 23.4303 19.986 23.4548 20.0637 23.48C20.4348 23.6288 20.664 23.8268 20.8477 24.1787C20.9321 24.7067 20.8145 25.0256 20.5087 25.4498C20.2272 25.7929 19.91 26.0422 19.46 26.1094C18.7966 26.1197 18.1677 25.9569 17.5254 25.8091C17.3501 25.7695 17.1748 25.7301 16.9995 25.6909C16.8912 25.6666 16.7829 25.642 16.6748 25.6172C15.4349 25.3355 14.2262 25.3876 13.0078 25.7344C12.9224 25.7579 12.8371 25.7815 12.7491 25.8058C12.2708 25.9378 12.2708 25.9378 11.9531 26.2969C11.9527 26.4822 11.9527 26.4822 12.0234 26.6484C12.2298 26.8207 12.2298 26.8207 12.498 26.7451C12.6214 26.7141 12.7444 26.6817 12.8672 26.6484C13.0007 26.6126 13.1343 26.5768 13.2678 26.5411C13.4028 26.5047 13.5375 26.4677 13.6722 26.4306C15.1378 26.0582 16.6035 26.4326 18.0376 26.7787C18.8807 26.9818 19.6684 27.0775 20.4609 26.6484C20.5378 26.6078 20.6147 26.5672 20.6938 26.5254C20.9009 26.352 21 26.1923 21.1174 25.9522C21.4708 25.5067 22.0854 25.318 22.5967 25.1147C22.6786 25.0818 22.7605 25.0488 22.8449 25.0148C23.6953 24.6742 24.5521 24.3503 25.4087 24.0258C26.17 23.7373 26.9305 23.4467 27.6899 23.1534C27.7568 23.1276 27.7568 23.1276 27.825 23.1013C28.3108 22.9136 28.7965 22.7257 29.2822 22.5378C30.6946 21.9915 30.6946 21.9915 31.3193 21.7557C31.4034 21.7239 31.4875 21.6922 31.5741 21.6594C32.15 21.4551 32.7105 21.4153 33.2578 21.7266Z" fill="#383838"/>
<path d="M3.50416 22.6854C3.59018 22.6853 3.59018 22.6853 3.67793 22.6853C3.79829 22.6854 3.91865 22.6861 4.03901 22.6873C4.22215 22.6889 4.40523 22.6887 4.58838 22.6883C4.70598 22.6887 4.82358 22.6892 4.94118 22.6898C4.99531 22.6897 5.04945 22.6896 5.10523 22.6896C5.5334 22.6951 5.89545 22.7223 6.23342 23.0122C6.49967 23.3499 6.4466 23.7629 6.44318 24.1731C6.44379 24.2637 6.44441 24.3543 6.44504 24.4476C6.44664 24.6953 6.44603 24.9429 6.44491 25.1907C6.44402 25.4503 6.44485 25.7099 6.4454 25.9696C6.44604 26.4056 6.4452 26.8415 6.44352 27.2775C6.44161 27.781 6.44223 28.2844 6.44416 28.7879C6.44576 29.2208 6.44598 29.6537 6.44506 30.0866C6.44452 30.3449 6.44444 30.6031 6.4456 30.8614C6.44681 31.1494 6.44514 31.4373 6.44318 31.7253C6.44389 31.8106 6.4446 31.8959 6.44533 31.9837C6.43722 32.6276 6.43722 32.6276 6.22785 32.8878C5.99487 33.0917 5.89269 33.126 5.59175 33.1285C5.52674 33.1292 5.46172 33.1298 5.39473 33.1305C5.28905 33.131 5.28905 33.131 5.18123 33.1315C5.10891 33.1319 5.03659 33.1323 4.96208 33.1327C4.80882 33.1333 4.65555 33.1338 4.50229 33.1341C4.26803 33.1347 4.03381 33.1369 3.79956 33.1391C3.65074 33.1396 3.50192 33.14 3.3531 33.1402C3.24806 33.1415 3.24806 33.1415 3.14089 33.1429C2.50463 33.1408 2.50463 33.1408 2.24925 32.9062C1.97194 32.5009 2.00809 32.0839 2.0099 31.6116C2.00942 31.5239 2.00894 31.4362 2.00844 31.3458C2.00738 31.1059 2.00726 30.8661 2.00766 30.6262C2.00788 30.4256 2.00745 30.2251 2.00703 30.0245C2.00604 29.5511 2.00615 29.0777 2.00695 28.6043C2.00776 28.1167 2.00677 27.6291 2.00488 27.1415C2.00332 26.7222 2.00286 26.3028 2.00327 25.8834C2.00351 25.6333 2.00334 25.3831 2.00213 25.133C2.00084 24.8539 2.00183 24.5749 2.00304 24.2959C2.00236 24.2135 2.00168 24.1311 2.00098 24.0462C2.00512 23.588 2.03481 23.289 2.31956 22.9219C2.65763 22.6766 3.10185 22.6806 3.50416 22.6854Z" fill="#383838"/>
<path d="M21.5283 12.9607C21.6106 12.9601 21.6106 12.9601 21.6945 12.9596C21.8101 12.9594 21.9257 12.96 22.0413 12.9615C22.2178 12.9634 22.3939 12.9615 22.5704 12.9593C22.683 12.9595 22.7956 12.96 22.9082 12.9607C22.9607 12.9599 23.0131 12.9592 23.0671 12.9585C23.3292 12.9644 23.4747 13.0011 23.6929 13.1489C23.8754 13.4178 23.8851 13.6382 23.8797 13.9524C23.8798 14.009 23.88 14.0656 23.8802 14.1239C23.8801 14.2431 23.8792 14.3623 23.8774 14.4815C23.875 14.6638 23.876 14.8458 23.8773 15.0281C23.8768 15.1442 23.8762 15.2602 23.8753 15.3763C23.8756 15.4306 23.876 15.485 23.8763 15.541C23.8709 15.7876 23.8549 15.9338 23.7077 16.1354C23.4822 16.2916 23.3295 16.2799 23.062 16.2417C22.8391 16.0797 22.7863 15.992 22.7379 15.7177C22.7347 15.6296 22.7314 15.5415 22.728 15.4507C22.724 15.3619 22.7201 15.2731 22.7159 15.1815C22.7132 15.0798 22.7132 15.0798 22.7104 14.9761C22.6535 15.0332 22.5966 15.0903 22.5379 15.1491C22.0021 15.6863 21.4662 16.2233 20.9301 16.7601C20.6544 17.0361 20.3788 17.3122 20.1034 17.5885C19.8378 17.8549 19.572 18.1211 19.306 18.3872C19.2044 18.4889 19.1029 18.5907 19.0014 18.6926C18.8596 18.8348 18.7177 18.9769 18.5756 19.1189C18.5334 19.1614 18.4912 19.2039 18.4477 19.2476C18.2263 19.4684 18.0966 19.5965 17.7886 19.6607C17.3605 19.651 17.0856 19.2681 16.8042 18.9839C16.7215 18.902 16.6387 18.8202 16.5559 18.7384C16.3325 18.5169 16.111 18.2938 15.8901 18.0698C15.5464 18.358 15.2236 18.6572 14.9088 18.9765C14.8646 19.021 14.8203 19.0655 14.7748 19.1113C14.6351 19.2518 14.4958 19.3925 14.3564 19.5332C14.1716 19.7199 13.9866 19.9064 13.8014 20.0927C13.759 20.1356 13.7167 20.1785 13.6731 20.2227C13.3049 20.5931 13.3049 20.5931 12.981 20.6231C12.7261 20.6011 12.7261 20.6011 12.5547 20.4868C12.4448 20.3198 12.4448 20.3198 12.3965 20.1265C12.4481 19.8827 12.4944 19.8206 12.6564 19.6413C12.7012 19.5918 12.7459 19.5422 12.792 19.4912C13.2054 19.0473 13.6318 18.6163 14.0586 18.1854C14.1785 18.064 14.298 17.9421 14.417 17.8198C14.5899 17.6422 14.7641 17.466 14.9387 17.2901C14.9915 17.2353 15.0444 17.1805 15.0988 17.1241C15.3329 16.8909 15.4851 16.7505 15.805 16.6512C16.0574 16.6651 16.1297 16.6923 16.3054 16.8682C16.3524 16.9138 16.3993 16.9594 16.4477 17.0064C16.5197 17.0803 16.5197 17.0803 16.5933 17.1558C16.6427 17.2041 16.6922 17.2524 16.7432 17.3021C16.894 17.4497 17.0427 17.599 17.1909 17.749C17.242 17.8005 17.2932 17.8519 17.3458 17.9049C17.4701 18.03 17.5942 18.1554 17.7183 18.2808C18.1932 17.8908 18.6223 17.4573 19.0558 17.0228C19.1369 16.9418 19.218 16.8608 19.2992 16.7797C19.4682 16.6108 19.637 16.4418 19.8058 16.2727C20.0224 16.0557 20.2393 15.8391 20.4563 15.6225C20.6234 15.4557 20.7903 15.2887 20.9572 15.1216C21.0371 15.0416 21.1171 14.9617 21.1972 14.8818C21.3086 14.7705 21.4198 14.6591 21.5309 14.5476C21.6259 14.4525 21.6259 14.4525 21.7228 14.3555C21.869 14.2149 21.869 14.2149 21.937 14.062C21.8641 14.0653 21.7913 14.0686 21.7162 14.0719C21.6199 14.0746 21.5236 14.0771 21.4272 14.0796C21.3553 14.0831 21.3553 14.0831 21.282 14.0868C21.0383 14.0915 20.9077 14.081 20.7101 13.9332C20.6011 13.7808 20.6011 13.7808 20.5615 13.5742C20.659 13.0433 21.0499 12.9542 21.5283 12.9607Z" fill="#383838"/>
</svg>
