<svg width="40" height="40" viewBox="0 0 40 40" fill="none" xmlns="http://www.w3.org/2000/svg">
<path d="M11.6651 6.23844C11.7387 6.23815 11.8123 6.23787 11.8881 6.23757C12.1348 6.23671 12.3815 6.23641 12.6282 6.23611C12.8051 6.23562 12.9819 6.2351 13.1588 6.23456C13.7398 6.23291 14.3209 6.2321 14.9019 6.23132C15.1022 6.23101 15.3024 6.23069 15.5027 6.23036C16.3359 6.22904 17.1692 6.2279 18.0024 6.22733C18.2185 6.22718 18.4346 6.22703 18.6506 6.22688C18.7312 6.22682 18.7312 6.22682 18.8133 6.22676C19.682 6.22612 20.5507 6.22414 21.4194 6.2216C22.3126 6.21901 23.2059 6.21763 24.0992 6.21736C24.6001 6.21718 25.1011 6.21648 25.602 6.21451C26.0738 6.21269 26.5455 6.21236 27.0173 6.21316C27.1898 6.2132 27.3623 6.21271 27.5348 6.21164C29.369 6.20084 30.8536 6.60414 32.2133 7.90918C33.7688 9.52824 33.8528 11.4751 33.8488 13.5961C33.8489 13.7934 33.849 13.9907 33.8492 14.188C33.8495 14.5996 33.8491 15.0112 33.8484 15.4228C33.8475 15.8978 33.8478 16.3729 33.8487 16.848C33.8495 17.3071 33.8494 17.7661 33.8489 18.2252C33.8488 18.4198 33.849 18.6144 33.8493 18.809C33.8497 19.0803 33.8491 19.3516 33.8482 19.6229C33.8486 19.7032 33.8489 19.7835 33.8492 19.8662C33.8488 19.9402 33.8483 20.0142 33.8479 20.0904C33.8478 20.1864 33.8478 20.1864 33.8477 20.2844C33.8169 20.5725 33.7369 20.7919 33.5351 21.0009C33.2472 21.1528 32.9826 21.1206 32.6754 21.0308C32.603 21.0032 32.5306 20.9756 32.456 20.9472C32.0241 20.793 31.6126 20.7233 31.1571 20.6786C30.874 20.6094 30.7957 20.5505 30.6249 20.3124C30.5776 20.0498 30.5825 19.7895 30.5847 19.5232C30.5839 19.4029 30.5839 19.4029 30.583 19.2802C30.5815 19.0146 30.5822 18.7491 30.5828 18.4835C30.582 18.2986 30.5811 18.1137 30.58 17.9288C30.5775 17.4412 30.5767 16.9536 30.5763 16.466C30.5757 15.6875 30.5729 14.909 30.5691 14.1305C30.5682 13.8593 30.5682 13.5881 30.5684 13.3169C30.5679 13.149 30.5673 12.981 30.5667 12.813C30.567 12.7384 30.5674 12.6639 30.5677 12.587C30.5624 11.691 30.4526 10.8515 29.8241 10.1757C28.9168 9.33003 27.7152 9.43025 26.5569 9.43285C26.398 9.43263 26.239 9.43236 26.0801 9.43202C25.6501 9.43131 25.2201 9.43158 24.7901 9.43208C24.3392 9.43247 23.8883 9.4321 23.4374 9.43186C22.6803 9.43158 21.9232 9.43195 21.1661 9.43269C20.292 9.43354 19.4178 9.43327 18.5437 9.43241C17.7919 9.4317 17.0402 9.4316 16.2884 9.43201C15.84 9.43225 15.3915 9.43229 14.9431 9.43177C14.5214 9.43132 14.0997 9.43163 13.678 9.43253C13.5236 9.43274 13.3692 9.43268 13.2149 9.43234C11.5739 9.40576 11.5739 9.40576 10.1757 10.1757C9.32139 11.0942 9.43015 12.3424 9.43281 13.5143C9.4326 13.6716 9.43232 13.8289 9.43198 13.9862C9.43127 14.4114 9.43154 14.8365 9.43204 15.2617C9.43243 15.7078 9.43207 16.1538 9.43182 16.5999C9.43154 17.3488 9.43191 18.0978 9.43265 18.8467C9.4335 19.7111 9.43323 20.5756 9.43237 21.44C9.43166 22.1837 9.43156 22.9274 9.43197 23.6712C9.43221 24.1147 9.43225 24.5582 9.43173 25.0017C9.43128 25.4188 9.43159 25.8359 9.43249 26.2529C9.4327 26.4055 9.43264 26.5581 9.4323 26.7107C9.40059 28.3901 9.40059 28.3901 10.1757 29.8242C10.9222 30.52 11.848 30.5706 12.8252 30.5655C12.9168 30.5657 13.0085 30.5658 13.103 30.566C13.3007 30.5663 13.4985 30.5662 13.6962 30.5659C14.0092 30.5654 14.3221 30.5661 14.635 30.5672C15.5242 30.5701 16.4134 30.5716 17.3027 30.5707C17.7951 30.5702 18.2874 30.5711 18.7798 30.5735C19.0399 30.5747 19.2999 30.575 19.5599 30.5739C19.8494 30.5728 20.1388 30.5741 20.4283 30.5759C20.5141 30.575 20.5998 30.5741 20.6882 30.5731C21.2693 30.5802 21.2693 30.5802 21.5725 30.8111C21.7135 31.0083 21.825 31.197 21.9286 31.416C22.1568 31.8586 22.4539 32.1823 22.8066 32.5308C22.993 32.7649 23.0339 32.9063 23.0468 33.2031C22.8731 33.6415 22.8731 33.6415 22.6562 33.7499C22.5047 33.7581 22.353 33.7612 22.2014 33.762C22.1045 33.7626 22.0076 33.7633 21.9078 33.764C21.7998 33.7643 21.6918 33.7647 21.5837 33.765C21.4704 33.7656 21.3571 33.7663 21.2438 33.7669C20.8706 33.769 20.4973 33.7702 20.1241 33.7713C19.9953 33.7717 19.8666 33.7721 19.7378 33.7726C19.2013 33.7743 18.6648 33.7757 18.1283 33.7766C17.3617 33.7779 16.5952 33.7804 15.8286 33.7849C15.2887 33.7879 14.7487 33.7895 14.2087 33.7899C13.8869 33.7902 13.5651 33.7911 13.2433 33.7936C11.0569 33.8101 9.37816 33.606 7.71963 32.0245C6.76255 31.0188 6.23811 29.7141 6.2384 28.3347C6.23812 28.2612 6.23783 28.1876 6.23753 28.1118C6.23667 27.8651 6.23637 27.6183 6.23607 27.3716C6.23558 27.1948 6.23506 27.0179 6.23452 26.8411C6.23287 26.26 6.23206 25.679 6.23128 25.0979C6.23097 24.8977 6.23065 24.6974 6.23032 24.4972C6.229 23.6639 6.22786 22.8307 6.22729 21.9974C6.22714 21.7813 6.22699 21.5653 6.22684 21.3492C6.2268 21.2955 6.22676 21.2418 6.22673 21.1865C6.22608 20.3178 6.2241 19.4491 6.22156 18.5805C6.21897 17.6872 6.2176 16.7939 6.21732 15.9007C6.21714 15.3997 6.21644 14.8988 6.21447 14.3978C6.21265 13.926 6.21232 13.4543 6.21312 12.9825C6.21316 12.81 6.21267 12.6375 6.2116 12.465C6.20614 11.5377 6.22722 10.7204 6.5624 9.84369C6.58388 9.78725 6.60537 9.73081 6.6275 9.67266C7.20881 8.27707 8.27625 7.29689 9.60928 6.64056C10.3033 6.36311 10.9225 6.23829 11.6651 6.23844Z" fill="#383838"/>
<path d="M31.2842 23.7207C31.4844 23.75 31.4844 23.75 31.5969 23.8653C31.7695 24.1446 31.8775 24.44 31.9931 24.7464C32.0464 24.8839 32.0998 25.0214 32.1532 25.1588C32.2361 25.3739 32.3187 25.5891 32.4004 25.8047C32.9221 27.1763 33.449 28.2226 34.8524 28.866C35.1337 28.9893 35.4182 29.1042 35.7031 29.2188C35.9808 29.3309 36.2584 29.4431 36.5359 29.5556C36.7278 29.6333 36.9198 29.7101 37.1121 29.7866C37.2004 29.8221 37.2888 29.8576 37.3798 29.8941C37.4594 29.9258 37.539 29.9575 37.621 29.9902C37.8125 30.0781 37.8125 30.0781 37.9688 30.2344C37.9785 30.4395 37.9785 30.4395 37.9688 30.625C37.2712 30.9955 36.5451 31.2732 35.8081 31.5543C34.4819 32.066 33.4268 32.6352 32.8262 33.9859C32.6261 34.45 32.4385 34.9191 32.251 35.3884C32.1878 35.5465 32.1244 35.7044 32.0608 35.8624C31.9998 36.0142 31.9393 36.1663 31.8795 36.3186C31.8378 36.4224 31.8378 36.4224 31.7953 36.5283C31.7711 36.5897 31.7468 36.651 31.7219 36.7142C31.6329 36.8903 31.5696 36.9971 31.4062 37.1094C31.2103 37.1137 31.2103 37.1137 31.0156 37.0312C30.8939 36.8342 30.8939 36.8342 30.7916 36.572C30.7342 36.4285 30.7342 36.4285 30.6757 36.2821C30.6562 36.2314 30.6368 36.1806 30.6167 36.1283C30.5565 35.9712 30.4944 35.8149 30.4318 35.6587C30.3498 35.4537 30.2684 35.2486 30.1877 35.0432C29.5818 33.5082 28.9761 32.4955 27.4219 31.7969C27.1942 31.7039 26.9648 31.6157 26.7349 31.5283C26.6752 31.5055 26.6155 31.4828 26.554 31.4593C26.3064 31.3651 26.0588 31.2712 25.8101 31.18C25.6262 31.1123 25.4432 31.0422 25.2603 30.9717C25.1756 30.9416 25.1756 30.9416 25.0892 30.911C24.9325 30.8493 24.9325 30.8493 24.6875 30.7031C24.6126 30.452 24.6126 30.452 24.6094 30.2344C24.8833 29.9997 25.1906 29.8797 25.5231 29.7516C25.6107 29.7171 25.6107 29.7171 25.7 29.6818C25.8864 29.6084 26.0731 29.5356 26.2598 29.4629C28.4035 28.6459 28.4035 28.6459 29.766 26.8589C29.9678 26.3854 30.1522 25.9051 30.3369 25.4248C30.4205 25.2092 30.5043 24.9936 30.5886 24.7782C30.6406 24.6451 30.6922 24.5118 30.7432 24.3784C30.7781 24.2887 30.7781 24.2887 30.8137 24.1972C30.8339 24.1446 30.8541 24.0921 30.8749 24.0379C30.9755 23.8263 31.0519 23.7564 31.2842 23.7207Z" fill="#383838"/>
<path d="M16.2889 13.2604C16.3711 13.2602 16.4533 13.26 16.5379 13.2598C16.6233 13.2604 16.7087 13.261 16.7967 13.2616C16.8821 13.261 16.9675 13.2604 17.0555 13.2598C17.1377 13.26 17.2199 13.2602 17.3045 13.2604C17.4169 13.2606 17.4169 13.2606 17.5316 13.2609C17.7506 13.2828 17.8631 13.3177 18.0467 13.4374C18.1322 13.5998 18.1322 13.5998 18.1988 13.8043C18.2247 13.8819 18.2505 13.9595 18.2772 14.0394C18.3043 14.1243 18.3313 14.2093 18.3592 14.2968C18.3882 14.3841 18.4172 14.4715 18.4471 14.5615C18.5457 14.8594 18.6425 15.158 18.7389 15.4567C18.7753 15.5693 18.8117 15.6818 18.8482 15.7943C18.9453 16.0941 19.0422 16.394 19.139 16.6939C19.2196 16.9432 19.3002 17.1925 19.3808 17.4417C20.0177 19.4106 20.6534 21.3799 21.2792 23.3524C21.3658 23.6248 21.4542 23.8966 21.5437 24.1681C21.5657 24.2356 21.5877 24.303 21.6103 24.3725C21.6516 24.4992 21.6934 24.6256 21.7358 24.7519C21.8411 25.0772 21.9121 25.3567 21.8748 25.703C21.8233 25.7803 21.7717 25.8577 21.7186 25.9374C21.4502 25.9909 21.1763 25.9772 20.9032 25.9764C20.8276 25.9787 20.752 25.9809 20.6741 25.9832C20.1269 25.9847 20.1269 25.9847 19.9272 25.7918C19.8996 25.7109 19.872 25.6301 19.8436 25.5468C19.8214 25.4862 19.7991 25.4257 19.7762 25.3634C19.6983 25.1474 19.6264 24.9301 19.5555 24.7118C19.5305 24.6366 19.5055 24.5614 19.4797 24.484C19.2967 23.9281 19.2967 23.9281 19.2967 23.7499C17.6467 23.7757 15.9967 23.8014 14.2967 23.828C14.0905 24.4725 13.8842 25.1171 13.6717 25.7811C13.447 26.0058 13.265 25.9601 12.9578 25.9626C12.8856 25.9623 12.8134 25.9621 12.7391 25.9618C12.6313 25.9637 12.6313 25.9637 12.5214 25.9656C12.4178 25.9657 12.4178 25.9657 12.3122 25.9658C12.2489 25.966 12.1857 25.9662 12.1205 25.9665C11.953 25.9374 11.953 25.9374 11.8084 25.8575C11.633 25.5559 11.7625 25.2075 11.8469 24.8883C11.9109 24.6703 11.9792 24.4541 12.0488 24.2379C12.0881 24.1135 12.0881 24.1135 12.1283 23.9866C12.2158 23.7106 12.3041 23.4348 12.3924 23.1591C12.4545 22.9639 12.5166 22.7687 12.5787 22.5735C13.0989 20.9392 13.6268 19.3073 14.1551 17.6757C14.1743 17.6164 14.1935 17.5572 14.2132 17.4962C14.5558 16.4384 14.5558 16.4384 14.7083 15.9724C14.7337 15.8946 14.7337 15.8946 14.7597 15.8152C14.793 15.7135 14.8263 15.6118 14.8596 15.5101C14.963 15.1932 15.0637 14.8755 15.163 14.5572C15.1876 14.4798 15.2122 14.4024 15.2375 14.3227C15.2819 14.1828 15.3254 14.0426 15.3678 13.9021C15.5097 13.4606 15.5097 13.4606 15.6978 13.3428C15.9021 13.2647 16.0703 13.2609 16.2889 13.2604ZM16.7967 16.0936C16.5329 16.7196 16.3194 17.3588 16.1119 18.0052C16.0773 18.1124 16.0427 18.2195 16.0081 18.3266C15.9363 18.5492 15.8646 18.7719 15.7931 18.9947C15.7013 19.2805 15.6091 19.5661 15.5167 19.8516C15.4455 20.0719 15.3745 20.2923 15.3036 20.5127C15.2696 20.6181 15.2356 20.7236 15.2015 20.8289C15.1542 20.9754 15.1072 21.122 15.0602 21.2686C15.0334 21.352 15.0066 21.4353 14.9789 21.5212C14.9145 21.7094 14.9145 21.7094 14.9217 21.8749C16.1592 21.8749 17.3967 21.8749 18.6717 21.8749C18.5411 21.2835 18.5411 21.2835 18.3724 20.7099C18.345 20.6264 18.3176 20.543 18.2894 20.457C18.2602 20.3691 18.2309 20.2812 18.2008 20.1906C18.1552 20.0518 18.1552 20.0518 18.1086 19.9102C18.0281 19.6658 17.9474 19.4214 17.8665 19.1771C17.7529 18.8339 17.6398 18.4904 17.5267 18.147C17.4666 17.9648 17.4065 17.7826 17.3462 17.6005C17.1811 17.1004 17.0229 16.599 16.8748 16.0936C16.8491 16.0936 16.8233 16.0936 16.7967 16.0936Z" fill="#383838"/>
<path d="M25.1953 13.3385C25.2646 13.3383 25.3339 13.3381 25.4053 13.3379C25.5141 13.3388 25.5141 13.3388 25.625 13.3397C25.6975 13.3391 25.77 13.3385 25.8447 13.3379C25.9487 13.3382 25.9487 13.3382 26.0547 13.3385C26.1184 13.3387 26.182 13.3389 26.2476 13.339C26.4063 13.3593 26.4063 13.3593 26.5625 13.5155C26.5822 13.7258 26.5822 13.7258 26.5824 13.9989C26.5826 14.049 26.5828 14.0991 26.5831 14.1507C26.5837 14.3194 26.5832 14.488 26.5827 14.6567C26.5829 14.7773 26.5832 14.8979 26.5836 15.0185C26.5843 15.3467 26.584 15.6748 26.5835 16.003C26.5831 16.3458 26.5835 16.6887 26.5837 17.0316C26.584 17.6074 26.5836 18.1833 26.5829 18.7591C26.582 19.4256 26.5823 20.0921 26.5832 20.7586C26.5839 21.33 26.584 21.9015 26.5836 22.4729C26.5833 22.8146 26.5833 23.1562 26.5838 23.4978C26.5843 23.819 26.584 24.1401 26.583 24.4612C26.5828 24.5793 26.5829 24.6974 26.5832 24.8155C26.5837 24.9763 26.5831 25.137 26.5824 25.2977C26.5823 25.3878 26.5822 25.4779 26.5822 25.5708C26.5625 25.7811 26.5625 25.7811 26.4063 25.9374C26.2476 25.9576 26.2476 25.9576 26.0547 25.9581C25.9854 25.9583 25.9161 25.9585 25.8447 25.9587C25.7722 25.9581 25.6997 25.9575 25.625 25.9569C25.5525 25.9575 25.48 25.9581 25.4053 25.9587C25.3014 25.9584 25.3014 25.9584 25.1953 25.9581C25.1317 25.958 25.068 25.9578 25.0025 25.9576C24.8438 25.9374 24.8438 25.9374 24.6875 25.7811C24.6679 25.5708 24.6679 25.5708 24.6677 25.2977C24.6673 25.2226 24.6673 25.2226 24.6669 25.1459C24.6663 24.9772 24.6668 24.8086 24.6673 24.6399C24.6671 24.5193 24.6668 24.3987 24.6665 24.2781C24.6658 23.9499 24.666 23.6218 24.6665 23.2936C24.6669 22.9508 24.6666 22.6079 24.6663 22.2651C24.666 21.6892 24.6664 21.1133 24.6671 20.5375C24.668 19.871 24.6677 19.2046 24.6669 18.5381C24.6662 17.9666 24.6661 17.3952 24.6665 16.8237C24.6667 16.4821 24.6667 16.1404 24.6662 15.7988C24.6658 15.4777 24.6661 15.1565 24.667 14.8354C24.6672 14.7173 24.6671 14.5992 24.6668 14.4811C24.6664 14.3203 24.6669 14.1596 24.6677 13.9989C24.6677 13.9088 24.6678 13.8187 24.6679 13.7258C24.7021 13.3599 24.8685 13.3394 25.1953 13.3385Z" fill="#383838"/>
</svg>
