<svg width="34" height="34" viewBox="0 0 34 34" fill="none" xmlns="http://www.w3.org/2000/svg">
<g clip-path="url(#clip0_268_1539)">
<path d="M5.85008 -0.00873913C5.93362 -0.00918317 5.93362 -0.00918317 6.01885 -0.00963618C6.08004 -0.00962394 6.14123 -0.0096117 6.20428 -0.00959909C6.30179 -0.00996532 6.30179 -0.00996532 6.40127 -0.0103389C6.62012 -0.011073 6.83896 -0.0113273 7.0578 -0.01158C7.21432 -0.011996 7.37083 -0.0124374 7.52735 -0.0129024C7.99785 -0.0141801 8.46836 -0.0148834 8.93887 -0.0154741C9.16058 -0.0157653 9.3823 -0.0161217 9.60402 -0.0164695C10.3414 -0.0175994 11.0788 -0.0185617 11.8161 -0.0190427C12.0075 -0.0191695 12.1988 -0.019297 12.3902 -0.0194269C12.4615 -0.0194751 12.4615 -0.0194751 12.5343 -0.0195242C13.3039 -0.0200749 14.0736 -0.0217565 14.8433 -0.0239147C15.634 -0.0261137 16.4247 -0.0273071 17.2154 -0.027519C17.6591 -0.0276626 18.1028 -0.0282695 18.5466 -0.0299403C18.9643 -0.0314877 19.382 -0.0317668 19.7998 -0.031085C19.9528 -0.0310522 20.1058 -0.0314711 20.2589 -0.0323837C21.3711 -0.0386428 22.1725 0.036863 23.0425 0.797049C23.6126 1.39669 23.8513 2.18275 23.8464 3.00038C23.8426 3.12098 23.8381 3.24156 23.8329 3.36211C23.8306 3.42926 23.8284 3.49641 23.8261 3.56559C23.8211 3.71164 23.8159 3.85767 23.8103 4.0037C23.7949 4.41094 23.7822 4.81827 23.7692 5.22559C23.7663 5.31235 23.7635 5.3991 23.7606 5.48849C23.74 6.12903 23.7251 6.76959 23.7133 7.41035C23.7125 7.45702 23.7116 7.50368 23.7107 7.55176C23.7019 8.0343 23.6937 8.51684 23.686 8.9994C23.682 9.24696 23.6778 9.49451 23.6735 9.74207C23.6722 9.81594 23.6722 9.81595 23.6709 9.89132C23.6586 10.584 23.6377 11.276 23.61 11.9683C23.5624 13.1616 23.5319 14.354 23.5328 15.5483C23.5328 15.5943 23.5328 15.6404 23.5327 15.6878C23.5345 17.8994 23.6252 19.8556 25.2544 21.5103C25.9731 22.2038 26.7669 22.7986 27.6245 23.3088C27.5062 23.5645 27.3538 23.7258 27.1514 23.923C27.091 23.9823 27.0305 24.0415 26.9683 24.1025C26.8987 24.1698 26.8987 24.1698 26.8277 24.2385C26.482 23.9497 26.1605 23.6459 25.8441 23.3256C25.7944 23.2757 25.7448 23.2258 25.6937 23.1743C25.5866 23.0665 25.4796 22.9587 25.3727 22.8508C25.2031 22.6797 25.0332 22.509 24.8633 22.3382C24.3803 21.8531 23.8977 21.3676 23.4157 20.8815C23.1202 20.5835 22.8242 20.286 22.528 19.9888C22.4156 19.8759 22.3034 19.7628 22.1914 19.6495C22.0344 19.4908 21.8768 19.3327 21.7191 19.1747C21.6735 19.1283 21.628 19.082 21.581 19.0342C21.0793 18.5345 20.5649 18.1367 19.8384 18.1042C19.372 18.1162 18.9897 18.2176 18.6376 18.5337C18.2687 18.9326 18.0727 19.3019 18.062 19.8556C18.1282 20.7671 18.7661 21.3157 19.3836 21.9165C19.5184 22.0478 19.6524 22.1798 19.7862 22.312C20.1665 22.6875 20.548 23.0618 20.9303 23.4352C21.1649 23.6646 21.3986 23.8949 21.6318 24.1258C21.7205 24.2133 21.8096 24.3004 21.899 24.3871C22.024 24.5082 22.1476 24.6304 22.271 24.753C22.308 24.7883 22.345 24.8235 22.3832 24.8599C22.6268 25.1054 22.7007 25.2884 22.7105 25.633C22.6508 25.8008 22.6508 25.8008 22.5528 25.9609C22.5158 26.0239 22.4788 26.0869 22.4407 26.1518C22.3982 26.2216 22.3558 26.2915 22.312 26.3635C21.0898 28.4005 20.5331 30.5956 20.4789 32.9618C20.4762 33.0632 20.4735 33.1646 20.4708 33.266C20.4643 33.5107 20.4583 33.7554 20.4527 34.0002C18.527 34.0079 16.6013 34.0138 14.6756 34.0174C14.4974 34.0177 14.3193 34.0181 14.1412 34.0184C14.0969 34.0185 14.0526 34.0186 14.007 34.0187C13.2912 34.0201 12.5755 34.0227 11.8598 34.0258C11.1247 34.0289 10.3896 34.0307 9.65451 34.0314C9.2419 34.0318 8.82931 34.0329 8.41671 34.0353C8.02797 34.0375 7.63927 34.0382 7.25052 34.0377C7.10822 34.0378 6.96592 34.0385 6.82362 34.0397C5.73522 34.049 4.9442 33.9295 4.12555 33.1519C3.61526 32.6154 3.3758 31.9823 3.37735 31.2512C3.37719 31.2014 3.37704 31.1515 3.37687 31.1001C3.37643 30.9321 3.37646 30.764 3.37649 30.596C3.37627 30.4747 3.37602 30.3533 3.37575 30.232C3.37508 29.8979 3.37484 29.5637 3.37466 29.2295C3.3744 28.8694 3.37377 28.5093 3.37319 28.1492C3.37187 27.2792 3.3712 26.4091 3.37061 25.5391C3.37032 25.1294 3.36997 24.7198 3.36962 24.3102C3.36849 22.9486 3.36753 21.5871 3.36704 20.2255C3.36692 19.8721 3.36679 19.5188 3.36666 19.1654C3.36664 19.1215 3.36663 19.0776 3.36661 19.0323C3.3661 17.6534 3.36467 16.2745 3.36258 14.8956C3.36023 13.3465 3.35879 11.7973 3.35857 10.2482C3.35842 9.42795 3.35784 8.60772 3.35615 7.78749C3.35471 7.08896 3.35417 6.39045 3.35482 5.69193C3.35512 5.33556 3.35499 4.97921 3.3537 4.62285C3.35253 4.29641 3.3526 3.96999 3.35363 3.64354C3.35379 3.52565 3.3535 3.40776 3.35271 3.28987C3.3466 2.31401 3.50015 1.52409 4.18314 0.786414C4.6219 0.367235 5.22589 -0.00719925 5.85008 -0.00873913ZM4.8472 1.85955C4.50056 2.34795 4.58157 2.76447 4.58157 3.38689C10.5422 3.38689 16.5028 3.38689 22.6441 3.38689C22.6441 2.70766 22.6135 2.09713 22.1128 1.59392C21.8025 1.36014 21.5127 1.18746 21.1165 1.18676C21.0622 1.1865 21.008 1.18625 20.9521 1.18599C20.8925 1.18604 20.833 1.1861 20.7716 1.18616C20.7083 1.18596 20.645 1.18577 20.5798 1.18556C20.3668 1.18498 20.1537 1.18489 19.9407 1.18479C19.7883 1.18448 19.6359 1.18415 19.4836 1.18379C19.0689 1.18291 18.6543 1.18249 18.2397 1.18219C17.9807 1.182 17.7218 1.18173 17.4629 1.18143C16.7459 1.18062 16.0289 1.17994 15.312 1.17971C15.2431 1.17969 15.2431 1.17969 15.1729 1.17967C15.1269 1.17965 15.0809 1.17964 15.0335 1.17962C14.9403 1.17959 14.8471 1.17956 14.7539 1.17953C14.6845 1.17951 14.6845 1.17951 14.6137 1.17949C13.8647 1.17923 13.1157 1.17807 12.3667 1.17652C11.5976 1.17495 10.8285 1.17414 10.0594 1.17404C9.62767 1.17397 9.1959 1.17358 8.76412 1.17239C8.35795 1.1713 7.95178 1.17115 7.5456 1.17174C7.39652 1.17179 7.24744 1.1715 7.09836 1.17084C6.89482 1.17 6.69132 1.17039 6.48777 1.17108C6.4288 1.17055 6.36983 1.17001 6.30907 1.16946C5.69463 1.17436 5.25992 1.40206 4.8472 1.85955ZM4.58157 4.58221C4.58157 12.4055 4.58157 20.2288 4.58157 28.2892C9.24927 28.2892 13.917 28.2892 18.7261 28.2892C18.7261 28.6837 18.7261 29.0781 18.7261 29.4845C14.0584 29.4845 9.39071 29.4845 4.58157 29.4845C4.43157 31.1197 4.43157 31.1197 5.04823 32.3691C5.11102 32.4204 5.11102 32.4204 5.17508 32.4728C5.21677 32.5084 5.25846 32.5441 5.30141 32.5807C5.64951 32.8023 5.99796 32.8239 6.40046 32.8208C6.45557 32.8209 6.51069 32.8211 6.56748 32.8212C6.75162 32.8214 6.93575 32.8207 7.11989 32.8199C7.25211 32.8199 7.38433 32.8199 7.51654 32.82C7.87516 32.82 8.23377 32.8193 8.59238 32.8183C8.96727 32.8175 9.34217 32.8174 9.71706 32.8173C10.4268 32.8168 11.1366 32.8158 11.8464 32.8144C12.6545 32.8129 13.4626 32.8122 14.2707 32.8115C15.9329 32.8102 17.5951 32.8078 19.2574 32.8049C19.261 32.7551 19.2647 32.7053 19.2684 32.6541C19.2852 32.4267 19.3022 32.1993 19.3193 31.9719C19.325 31.8936 19.3308 31.8153 19.3367 31.7347C19.3753 31.2222 19.4282 30.7256 19.5396 30.2233C19.5611 30.1219 19.5611 30.1219 19.5831 30.0184C19.9003 28.5691 20.4436 27.2806 21.1167 25.965C21.1832 25.8322 21.2496 25.6994 21.3159 25.5666C21.2486 25.4999 21.2486 25.4999 21.18 25.4319C20.7554 25.0115 20.3315 24.5905 19.908 24.1689C19.6903 23.9523 19.4724 23.7358 19.2541 23.5198C19.0431 23.311 18.8326 23.1016 18.6225 22.892C18.5425 22.8124 18.4624 22.733 18.3821 22.6538C17.96 22.2371 17.5684 21.8313 17.2652 21.3166C17.2268 21.2604 17.1885 21.2043 17.149 21.1464C16.7656 20.3989 16.8184 19.5036 17.0659 18.7267C17.2727 18.1303 17.7586 17.5735 18.3095 17.2676C19.2039 16.8635 20.1211 16.7938 21.0503 17.133C21.5864 17.3706 21.9885 17.767 22.4057 18.168C22.5466 18.3358 22.5466 18.3358 22.6441 18.3283C22.6441 13.7921 22.6441 9.25588 22.6441 4.58221C16.6834 4.58221 10.7228 4.58221 4.58157 4.58221Z" fill="#383838"/>
<path d="M25.4336 13.1484C25.7424 13.3337 25.9767 13.5516 26.2276 13.8091C26.3479 13.9299 26.4705 14.042 26.5999 14.1528C26.8682 14.3836 27.1262 14.6246 27.3843 14.8667C27.6658 15.1306 27.9478 15.3935 28.2351 15.6511C28.2866 15.6976 28.3382 15.7441 28.3913 15.792C28.5102 15.8979 28.6304 16.0023 28.7513 16.1059C29.7785 16.9966 30.5241 18.233 30.6245 19.6117C30.6423 20.0402 30.6383 20.4688 30.6359 20.8976C30.6358 21.041 30.6359 21.1844 30.636 21.3278C30.636 21.7145 30.6349 22.1012 30.6335 22.4879C30.6322 22.8931 30.6321 23.2982 30.6319 23.7033C30.6313 24.4692 30.6296 25.2352 30.6276 26.0012C30.6254 26.8737 30.6243 27.7462 30.6233 28.6187C30.6212 30.4125 30.6177 32.2062 30.6133 34C30.2188 34 29.8244 34 29.418 34C29.4176 33.8212 29.4172 33.6425 29.4168 33.4583C29.413 31.7738 29.4082 30.0893 29.4023 28.4047C29.3993 27.5387 29.3967 26.6727 29.395 25.8066C29.3934 25.0516 29.3912 24.2966 29.3882 23.5416C29.3866 23.142 29.3853 22.7424 29.3849 22.3428C29.3845 21.9663 29.3832 21.5898 29.3812 21.2132C29.3806 21.0754 29.3803 20.9376 29.3804 20.7998C29.3812 19.4569 29.1746 18.3485 28.2227 17.332C27.7795 16.8925 27.3152 16.4747 26.8421 16.0677C26.6262 15.8762 26.4162 15.6783 26.2056 15.481C25.6933 15.0011 25.1809 14.5221 24.6367 14.0781C24.7777 13.8213 24.9374 13.6303 25.1472 13.4265C25.2009 13.374 25.2546 13.3216 25.3099 13.2675C25.3507 13.2282 25.3915 13.1889 25.4336 13.1484Z" fill="#383838"/>
<path d="M18.081 5.63369C18.1382 5.63305 18.1954 5.63242 18.2543 5.63176C18.316 5.63148 18.3776 5.63119 18.4411 5.6309C18.5047 5.63052 18.5684 5.63015 18.6339 5.62976C18.7686 5.62913 18.9033 5.62869 19.038 5.62844C19.2435 5.62779 19.449 5.62573 19.6544 5.62364C19.7854 5.62321 19.9163 5.62286 20.0473 5.6226C20.1085 5.62178 20.1698 5.62096 20.2329 5.62012C20.6856 5.62168 20.9694 5.69619 21.2994 6.02623C21.5701 6.41722 21.6022 6.8085 21.6016 7.26875C21.6019 7.32121 21.6022 7.37367 21.6025 7.42772C21.6029 7.53811 21.6029 7.6485 21.6026 7.75889C21.6024 7.92618 21.604 8.0934 21.6056 8.26069C21.6106 9.47529 21.6106 9.47529 21.2683 9.90477C21.2293 9.93421 21.1902 9.96366 21.15 9.994C21.0915 10.0402 21.0915 10.0402 21.0317 10.0874C20.8345 10.2129 20.6625 10.2352 20.4349 10.2382C20.3494 10.2395 20.3494 10.2395 20.2622 10.2408C20.1701 10.2415 20.1701 10.2415 20.0761 10.2422C20.0126 10.2428 19.9492 10.2433 19.8838 10.2439C19.7493 10.2448 19.6149 10.2455 19.4805 10.246C19.2757 10.2472 19.071 10.2501 18.8663 10.253C18.7355 10.2537 18.6048 10.2542 18.474 10.2547C18.4132 10.2559 18.3523 10.257 18.2895 10.2582C17.813 10.2566 17.5228 10.1519 17.1781 9.80723C16.9398 9.42777 16.9127 9.03686 16.9132 8.60206C16.913 8.5496 16.9127 8.49714 16.9124 8.44309C16.912 8.3327 16.912 8.22232 16.9123 8.11193C16.9125 7.94463 16.9109 7.77741 16.9092 7.61012C16.9042 6.39552 16.9042 6.39552 17.2466 5.96605C17.2856 5.9366 17.3246 5.90715 17.3649 5.87681C17.4039 5.846 17.4429 5.81518 17.4831 5.78343C17.6811 5.65747 17.8527 5.63575 18.081 5.63369ZM18.1285 6.8397C18.1285 7.56287 18.1285 8.28603 18.1285 9.03111C18.8736 9.03111 19.6187 9.03111 20.3863 9.03111C20.3863 8.30795 20.3863 7.58478 20.3863 6.8397C19.6413 6.8397 18.8962 6.8397 18.1285 6.8397Z" fill="#383838"/>
<path d="M12.4346 22.6315C12.5198 22.6299 12.5198 22.6299 12.6066 22.6283C12.8666 22.6253 13.1265 22.6226 13.3864 22.6211C13.5231 22.62 13.6599 22.6181 13.7966 22.6156C13.9944 22.612 14.1922 22.6105 14.39 22.6095C14.4506 22.608 14.5111 22.6065 14.5735 22.605C14.9953 22.6064 15.2883 22.69 15.6053 22.9763C15.9074 23.3153 15.9109 23.6855 15.9086 24.1216C15.909 24.186 15.9094 24.2504 15.9098 24.3168C15.9103 24.4524 15.9101 24.5881 15.9092 24.7238C15.9083 24.9303 15.9106 25.1367 15.9131 25.3432C15.9132 25.4756 15.913 25.6079 15.9127 25.7402C15.9136 25.8014 15.9145 25.8626 15.9154 25.9256C15.9094 26.3441 15.8313 26.6504 15.5389 26.9607C15.1733 27.244 14.7931 27.265 14.3452 27.2593C14.2835 27.2594 14.2218 27.2595 14.1582 27.2596C14.0287 27.2595 13.8991 27.2587 13.7695 27.2573C13.5717 27.2554 13.3741 27.2559 13.1763 27.2568C13.0499 27.2564 12.9235 27.2558 12.7971 27.2551C12.7383 27.2553 12.6796 27.2555 12.6191 27.2557C12.2242 27.2497 11.931 27.1906 11.63 26.913C11.5983 26.8739 11.5665 26.8349 11.5338 26.7947C11.5012 26.7557 11.4686 26.7166 11.435 26.6764C11.3004 26.4836 11.2803 26.3126 11.2782 26.0846C11.2776 26.0288 11.2769 25.9729 11.2763 25.9153C11.276 25.8552 11.2757 25.795 11.2754 25.733C11.2751 25.6708 11.2747 25.6087 11.2743 25.5446C11.2737 25.4131 11.2732 25.2815 11.273 25.1499C11.2723 24.9492 11.2703 24.7486 11.2682 24.5479C11.2677 24.42 11.2674 24.2921 11.2671 24.1641C11.2663 24.1043 11.2655 24.0446 11.2646 23.983C11.2661 23.5831 11.3208 23.2906 11.6023 22.9854C11.6413 22.9537 11.6803 22.9219 11.7206 22.8892C11.7596 22.8566 11.7986 22.8239 11.8388 22.7903C12.0324 22.6553 12.2058 22.6354 12.4346 22.6315ZM12.4842 23.8396C12.4842 24.5628 12.4842 25.2859 12.4842 26.031C13.2074 26.031 13.9306 26.031 14.6756 26.031C14.6756 25.3079 14.6756 24.5847 14.6756 23.8396C13.9525 23.8396 13.2293 23.8396 12.4842 23.8396Z" fill="#383838"/>
<path d="M7.11219 22.6109C7.20707 22.6108 7.20707 22.6108 7.30386 22.6106C7.43697 22.6107 7.57008 22.6115 7.70318 22.6129C7.90635 22.6148 8.10939 22.6143 8.31256 22.6134C8.4423 22.6138 8.57205 22.6144 8.70179 22.6151C8.79239 22.6148 8.79239 22.6148 8.88481 22.6145C9.28455 22.6204 9.58071 22.6759 9.88569 22.9572C9.91745 22.9963 9.9492 23.0353 9.98193 23.0755C10.0308 23.1341 10.0308 23.1341 10.0808 23.1938C10.2153 23.3866 10.2354 23.5577 10.2375 23.7856C10.2381 23.8414 10.2388 23.8973 10.2394 23.9549C10.2397 24.0151 10.24 24.0752 10.2403 24.1372C10.2407 24.1994 10.241 24.2615 10.2414 24.3256C10.2421 24.4572 10.2425 24.5887 10.2428 24.7203C10.2434 24.921 10.2455 25.1216 10.2476 25.3223C10.248 25.4502 10.2483 25.5782 10.2486 25.7061C10.2494 25.7659 10.2502 25.8256 10.2511 25.8872C10.2497 26.2871 10.1949 26.5796 9.91344 26.8848C9.87441 26.9166 9.83538 26.9483 9.79516 26.981C9.73661 27.03 9.73661 27.03 9.67687 27.0799C9.48507 27.2137 9.31401 27.2346 9.08721 27.2377C9.00405 27.2389 9.00405 27.2389 8.91921 27.2402C8.85945 27.2407 8.79968 27.2412 8.73811 27.2417C8.67627 27.2423 8.61443 27.2428 8.55072 27.2434C8.41971 27.2443 8.2887 27.245 8.15768 27.2455C7.95844 27.2466 7.75927 27.2496 7.56004 27.2525C7.43255 27.2532 7.30505 27.2537 7.17756 27.2542C7.11847 27.2553 7.05937 27.2565 6.99849 27.2577C6.60746 27.2564 6.29151 27.2052 5.9768 26.9603C5.63414 26.596 5.59535 26.2248 5.60067 25.7421C5.60035 25.6778 5.60003 25.6135 5.59971 25.5472C5.59948 25.412 5.60009 25.2767 5.60148 25.1414C5.60326 24.9354 5.60149 24.7297 5.59937 24.5237C5.59959 24.3917 5.60002 24.2597 5.60067 24.1276C5.6 24.0667 5.59933 24.0057 5.59863 23.9429C5.60621 23.5225 5.69156 23.226 5.9768 22.9095C6.31452 22.609 6.67798 22.6056 7.11219 22.6109ZM6.84008 23.8392C6.84008 24.5624 6.84008 25.2855 6.84008 26.0306C7.56324 26.0306 8.28641 26.0306 9.03149 26.0306C9.03149 25.3074 9.03149 24.5843 9.03149 23.8392C8.30832 23.8392 7.58516 23.8392 6.84008 23.8392Z" fill="#383838"/>
<path d="M6.84642 11.2774C6.8992 11.2765 6.95197 11.2757 7.00635 11.2748C7.09112 11.274 7.09112 11.274 7.17761 11.2733C7.26581 11.2725 7.26581 11.2725 7.35578 11.2717C7.48014 11.2708 7.6045 11.27 7.72887 11.2695C7.85548 11.2688 7.98209 11.2674 8.10869 11.2654C8.29224 11.2626 8.47573 11.2615 8.6593 11.2608C8.71528 11.2597 8.77126 11.2585 8.82894 11.2573C9.25577 11.2589 9.61292 11.355 9.93252 11.6509C10.1731 11.9227 10.234 12.1437 10.2389 12.4966C10.2401 12.5777 10.2401 12.5777 10.2414 12.6605C10.2419 12.7185 10.2424 12.7765 10.2429 12.8362C10.2435 12.8965 10.244 12.9567 10.2446 13.0188C10.2455 13.1463 10.2462 13.2738 10.2467 13.4013C10.2475 13.5311 10.2488 13.6609 10.2508 13.7908C10.2536 13.9789 10.2547 14.167 10.2554 14.3552C10.2565 14.4127 10.2577 14.4701 10.2589 14.5293C10.2575 14.9194 10.1817 15.2133 9.96149 15.5391C9.70052 15.7874 9.49659 15.8787 9.13963 15.8819C9.0811 15.8825 9.02257 15.8831 8.96227 15.8838C8.86764 15.8842 8.86764 15.8842 8.7711 15.8846C8.706 15.885 8.6409 15.8854 8.57382 15.8858C8.436 15.8864 8.29818 15.8869 8.16036 15.8871C7.95005 15.8878 7.73979 15.8898 7.52949 15.8919C7.39551 15.8923 7.26153 15.8927 7.12755 15.8929C7.06486 15.8938 7.00218 15.8946 6.9376 15.8954C6.54039 15.8941 6.24038 15.8515 5.93431 15.5723C5.72615 15.305 5.63761 15.1207 5.63332 14.7847C5.63247 14.7264 5.63162 14.6681 5.63074 14.608C5.63025 14.5451 5.62976 14.4823 5.62926 14.4175C5.62872 14.3525 5.62818 14.2876 5.62763 14.2207C5.62671 14.0831 5.626 13.9456 5.62548 13.8081C5.62434 13.5985 5.62142 13.3889 5.61849 13.1794C5.61782 13.0456 5.61725 12.9118 5.6168 12.7781C5.61564 12.7157 5.61448 12.6534 5.61328 12.5892C5.6146 12.1863 5.67358 11.95 5.9107 11.6212C6.21711 11.3786 6.46136 11.2828 6.84642 11.2774ZM6.84039 12.4844C6.84039 13.2076 6.84039 13.9308 6.84039 14.6758C7.56356 14.6758 8.28672 14.6758 9.0318 14.6758C9.0318 13.9527 9.0318 13.2295 9.0318 12.4844C8.30863 12.4844 7.58547 12.4844 6.84039 12.4844Z" fill="#383838"/>
<path d="M12.4346 5.63149C12.5198 5.62989 12.5198 5.62989 12.6066 5.62826C12.8666 5.62529 13.1265 5.62258 13.3864 5.62105C13.5231 5.61996 13.6599 5.61815 13.7966 5.61561C13.9944 5.61195 14.1922 5.61051 14.39 5.60954C14.4506 5.60804 14.5111 5.60653 14.5735 5.60498C14.9953 5.60636 15.2883 5.68995 15.6053 5.97633C15.9074 6.31532 15.9109 6.68553 15.9086 7.12158C15.909 7.18599 15.9094 7.2504 15.9098 7.31676C15.9103 7.45244 15.9101 7.58812 15.9092 7.72379C15.9083 7.93034 15.9106 8.13669 15.9131 8.34322C15.9132 8.47556 15.913 8.6079 15.9127 8.74023C15.9136 8.8014 15.9145 8.86256 15.9154 8.92558C15.9094 9.34412 15.8313 9.65045 15.5389 9.96071C15.1733 10.244 14.7931 10.265 14.3452 10.2593C14.2835 10.2594 14.2218 10.2595 14.1582 10.2596C14.0287 10.2595 13.8991 10.2587 13.7695 10.2573C13.5717 10.2554 13.3741 10.2559 13.1763 10.2568C13.0499 10.2564 12.9235 10.2558 12.7971 10.2551C12.7383 10.2553 12.6796 10.2555 12.6191 10.2557C12.2242 10.2497 11.931 10.1906 11.63 9.91298C11.5983 9.87394 11.5665 9.83491 11.5338 9.79469C11.5012 9.75566 11.4686 9.71662 11.435 9.67641C11.3004 9.48359 11.2803 9.31255 11.2782 9.08463C11.2776 9.02877 11.2769 8.9729 11.2763 8.91534C11.276 8.85516 11.2757 8.79498 11.2754 8.73297C11.2751 8.67082 11.2747 8.60866 11.2743 8.54463C11.2737 8.41306 11.2732 8.28149 11.273 8.14992C11.2723 7.94923 11.2703 7.74858 11.2682 7.5479C11.2677 7.41998 11.2674 7.29205 11.2671 7.16412C11.2663 7.10434 11.2655 7.04457 11.2646 6.98298C11.2661 6.58309 11.3208 6.29057 11.6023 5.98541C11.6413 5.95365 11.6803 5.9219 11.7206 5.88917C11.7596 5.85656 11.7986 5.82395 11.8388 5.79034C12.0324 5.65528 12.2058 5.63541 12.4346 5.63149ZM12.4842 6.83961C12.4842 7.56278 12.4842 8.28594 12.4842 9.03102C13.2074 9.03102 13.9306 9.03102 14.6756 9.03102C14.6756 8.30786 14.6756 7.58469 14.6756 6.83961C13.9525 6.83961 13.2293 6.83961 12.4842 6.83961Z" fill="#383838"/>
<path d="M7.11219 5.61093C7.20707 5.61079 7.20707 5.61079 7.30386 5.61064C7.43697 5.61075 7.57008 5.61151 7.70318 5.61289C7.90635 5.61482 8.10939 5.61426 8.31256 5.6134C8.4423 5.61381 8.57205 5.61437 8.70179 5.61508C8.79239 5.61479 8.79239 5.61479 8.88481 5.61449C9.28455 5.6204 9.58071 5.67591 9.88569 5.95723C9.91745 5.99627 9.9492 6.0353 9.98193 6.07552C10.0308 6.13407 10.0308 6.13407 10.0808 6.1938C10.2153 6.38661 10.2354 6.55766 10.2375 6.78557C10.2381 6.84144 10.2388 6.89731 10.2394 6.95487C10.2397 7.01505 10.24 7.07523 10.2403 7.13724C10.2407 7.19939 10.241 7.26155 10.2414 7.32558C10.2421 7.45715 10.2425 7.58872 10.2428 7.72029C10.2434 7.92098 10.2455 8.12162 10.2476 8.32231C10.248 8.45023 10.2483 8.57816 10.2486 8.70609C10.2494 8.76587 10.2502 8.82564 10.2511 8.88723C10.2497 9.28712 10.1949 9.57964 9.91344 9.8848C9.87441 9.91656 9.83538 9.94831 9.79516 9.98103C9.73661 10.03 9.73661 10.03 9.67687 10.0799C9.48507 10.2137 9.31401 10.2346 9.08721 10.2377C9.00405 10.2389 9.00405 10.2389 8.91921 10.2402C8.85945 10.2407 8.79968 10.2412 8.73811 10.2417C8.67627 10.2423 8.61443 10.2428 8.55072 10.2434C8.41971 10.2443 8.2887 10.245 8.15768 10.2455C7.95844 10.2466 7.75927 10.2496 7.56004 10.2525C7.43255 10.2532 7.30505 10.2537 7.17756 10.2542C7.11847 10.2553 7.05937 10.2565 6.99849 10.2577C6.60746 10.2564 6.29151 10.2052 5.9768 9.96028C5.63414 9.59602 5.59535 9.22483 5.60067 8.74214C5.60035 8.67783 5.60003 8.61351 5.59971 8.54725C5.59948 8.41196 5.60009 8.27668 5.60148 8.14141C5.60326 7.93544 5.60149 7.72971 5.59937 7.52374C5.59959 7.39171 5.60002 7.25967 5.60067 7.12764C5.6 7.06668 5.59933 7.00573 5.59863 6.94292C5.60621 6.52247 5.69156 6.22598 5.9768 5.9095C6.31452 5.60901 6.67798 5.60556 7.11219 5.61093ZM6.84008 6.83919C6.84008 7.56235 6.84008 8.28552 6.84008 9.0306C7.56324 9.0306 8.28641 9.0306 9.03149 9.0306C9.03149 8.30743 9.03149 7.58427 9.03149 6.83919C8.30832 6.83919 7.58516 6.83919 6.84008 6.83919Z" fill="#383838"/>
<path d="M12.8303 11.2692C12.9186 11.2688 12.9186 11.2688 13.0086 11.2683C13.1329 11.2679 13.2571 11.2679 13.3814 11.2682C13.5705 11.2684 13.7596 11.2669 13.9488 11.2652C14.0699 11.265 14.1909 11.265 14.312 11.265C14.3681 11.2644 14.4242 11.2638 14.482 11.2632C14.9303 11.2667 15.2421 11.3498 15.5929 11.6461C15.898 12.0122 15.8914 12.3526 15.8909 12.81C15.8912 12.8735 15.8915 12.9369 15.8918 13.0023C15.8922 13.1362 15.8922 13.2701 15.8919 13.404C15.8917 13.6083 15.8933 13.8126 15.8949 14.0169C15.8951 14.1472 15.8951 14.2776 15.8951 14.4079C15.8957 14.4687 15.8963 14.5295 15.8969 14.5922C15.8941 14.9835 15.8469 15.2807 15.5721 15.582C15.3048 15.7901 15.1205 15.8787 14.7845 15.8829C14.7262 15.8838 14.6679 15.8847 14.6078 15.8855C14.5449 15.886 14.4821 15.8865 14.4173 15.887C14.3523 15.8876 14.2874 15.8881 14.2205 15.8886C14.0829 15.8896 13.9454 15.8903 13.8079 15.8908C13.5983 15.8919 13.3887 15.8948 13.1792 15.8978C13.0454 15.8985 12.9116 15.899 12.7779 15.8995C12.7155 15.9006 12.6532 15.9018 12.589 15.903C12.1861 15.9017 11.9496 15.843 11.621 15.6056C11.4016 15.3228 11.2816 15.0945 11.2782 14.7366C11.2776 14.6823 11.2769 14.628 11.2763 14.572C11.2759 14.4842 11.2759 14.4842 11.2754 14.3947C11.2751 14.3342 11.2747 14.2736 11.2743 14.2113C11.2737 14.0831 11.2732 13.955 11.273 13.8268C11.2723 13.6316 11.2703 13.4365 11.2682 13.2414C11.2677 13.1167 11.2674 12.992 11.2671 12.8673C11.2663 12.8094 11.2655 12.7514 11.2646 12.6916C11.2661 12.2909 11.3166 11.9588 11.5831 11.6406C12.0028 11.3196 12.3171 11.2686 12.8303 11.2692ZM12.4842 12.4845C12.4842 13.2076 12.4842 13.9308 12.4842 14.6759C13.2074 14.6759 13.9306 14.6759 14.6756 14.6759C14.6756 13.9527 14.6756 13.2296 14.6756 12.4845C13.9525 12.4845 13.2293 12.4845 12.4842 12.4845Z" fill="#383838"/>
<path d="M18.5 11.2603C18.56 11.26 18.62 11.2596 18.6818 11.2593C18.8081 11.2588 18.9344 11.2589 19.0607 11.2595C19.2528 11.2601 19.4447 11.2581 19.6368 11.256C19.7601 11.2559 19.8833 11.256 20.0066 11.2562C20.0634 11.2554 20.1202 11.2547 20.1787 11.2539C20.6168 11.2589 20.982 11.3635 21.3057 11.6707C21.3297 11.7078 21.3538 11.7448 21.3786 11.783C21.4038 11.8199 21.4291 11.8568 21.4551 11.8948C21.6082 12.2109 21.5935 12.5564 21.5954 12.9005C21.5958 12.9531 21.5962 13.0058 21.5966 13.06C21.5972 13.1712 21.5976 13.2824 21.5979 13.3936C21.5985 13.5621 21.6006 13.7305 21.6027 13.8989C21.6109 15.1257 21.6109 15.1257 21.2662 15.5495C21.2068 15.5937 21.2068 15.5937 21.1461 15.6387C21.1063 15.6695 21.0665 15.7004 21.0255 15.7321C20.8378 15.8588 20.7201 15.8801 20.4959 15.8829C20.436 15.8837 20.3762 15.8846 20.3145 15.8855C20.2496 15.886 20.1847 15.8865 20.1179 15.887C20.0512 15.8875 19.9845 15.888 19.9159 15.8886C19.7745 15.8895 19.6332 15.8902 19.4918 15.8907C19.2761 15.8919 19.0604 15.8948 18.8447 15.8977C18.7074 15.8984 18.5701 15.899 18.4328 15.8994C18.3685 15.9006 18.3041 15.9017 18.2378 15.9029C17.8562 15.9017 17.6335 15.8631 17.3319 15.6055C16.9515 15.2145 16.9131 14.7615 16.9159 14.2421C16.9157 14.1893 16.9156 14.1366 16.9155 14.0822C16.9154 13.9712 16.9156 13.8603 16.9162 13.7494C16.9169 13.5806 16.9162 13.4119 16.9153 13.2432C16.9154 13.1348 16.9156 13.0265 16.9159 12.9181C16.9156 12.8683 16.9153 12.8184 16.915 12.767C16.9186 12.3575 16.9783 12.0175 17.2116 11.6709C17.5988 11.2924 17.9827 11.2585 18.5 11.2603ZM18.1288 12.4844C18.1288 13.2076 18.1288 13.9308 18.1288 14.6758C18.8739 14.6758 19.619 14.6758 20.3866 14.6758C20.3866 13.9527 20.3866 13.2295 20.3866 12.4844C19.6415 12.4844 18.8965 12.4844 18.1288 12.4844Z" fill="#383838"/>
<path d="M12.382 16.9883C12.4418 16.9875 12.5017 16.9866 12.5633 16.9857C12.6602 16.985 12.6602 16.985 12.7589 16.9842C12.8588 16.9834 12.8588 16.9834 12.9607 16.9826C13.1016 16.9817 13.2426 16.981 13.3835 16.9805C13.5986 16.9793 13.8137 16.9764 14.0288 16.9735C14.1658 16.9728 14.3028 16.9722 14.4398 16.9718C14.504 16.9706 14.5681 16.9695 14.6342 16.9683C15.0149 16.9695 15.2381 17.0079 15.5384 17.2657C15.7778 17.531 15.8779 17.7251 15.8811 18.0814C15.8818 18.1386 15.8824 18.1958 15.883 18.2548C15.8833 18.3164 15.8836 18.378 15.8839 18.4415C15.8843 18.5052 15.8847 18.5688 15.8851 18.6344C15.8857 18.769 15.8861 18.9037 15.8864 19.0384C15.887 19.2439 15.8891 19.4494 15.8912 19.6549C15.8916 19.7858 15.8919 19.9168 15.8922 20.0477C15.893 20.109 15.8938 20.1702 15.8947 20.2333C15.8933 20.6373 15.8403 20.9301 15.5594 21.241C15.521 21.2727 15.4825 21.3045 15.4429 21.3372C15.3855 21.3861 15.3855 21.3861 15.327 21.436C15.1225 21.571 14.9161 21.5904 14.6752 21.5928C14.6237 21.5934 14.5723 21.5941 14.5193 21.5947C14.4642 21.595 14.4091 21.5953 14.3524 21.5956C14.2664 21.5961 14.2664 21.5961 14.1787 21.5967C14.0575 21.5974 13.9362 21.5978 13.815 21.598C13.6308 21.5987 13.4466 21.6007 13.2624 21.6028C13.1443 21.6033 13.0262 21.6036 12.9081 21.6039C12.8535 21.6047 12.799 21.6055 12.7428 21.6064C12.3536 21.6049 11.957 21.5622 11.6517 21.2935C11.3009 20.8949 11.2674 20.5354 11.2661 20.0285C11.2656 19.9684 11.2652 19.9082 11.2647 19.8462C11.2641 19.7191 11.2638 19.592 11.2638 19.4649C11.2635 19.2717 11.2611 19.0785 11.2586 18.8852C11.2582 18.7614 11.2579 18.6375 11.2578 18.5137C11.2568 18.4564 11.2559 18.3992 11.2549 18.3402C11.2578 17.9512 11.3347 17.6571 11.554 17.3321C11.8172 17.0817 12.0224 16.9928 12.382 16.9883ZM12.4837 18.1954C12.4837 18.9185 12.4837 19.6417 12.4837 20.3868C13.2069 20.3868 13.93 20.3868 14.6751 20.3868C14.6751 19.6636 14.6751 18.9405 14.6751 18.1954C13.9519 18.1954 13.2288 18.1954 12.4837 18.1954Z" fill="#383838"/>
<path d="M6.66297 16.9883C6.75244 16.987 6.75244 16.987 6.84372 16.9857C6.90839 16.9852 6.97307 16.9847 7.0397 16.9842C7.10621 16.9837 7.17272 16.9832 7.24125 16.9826C7.38232 16.9817 7.52338 16.981 7.66445 16.9805C7.87944 16.9793 8.09436 16.9764 8.30933 16.9735C8.44642 16.9728 8.58352 16.9722 8.72061 16.9718C8.78461 16.9706 8.84861 16.9695 8.91455 16.9683C9.32187 16.9696 9.56253 17.0247 9.89439 17.2657C10.1133 17.5479 10.2333 17.7765 10.2382 18.1336C10.2395 18.2147 10.2395 18.2147 10.2408 18.2975C10.2413 18.3558 10.2417 18.4141 10.2422 18.4742C10.2428 18.5346 10.2433 18.595 10.2439 18.6571C10.2448 18.785 10.2455 18.9129 10.246 19.0408C10.2472 19.2352 10.2501 19.4296 10.253 19.624C10.2537 19.7485 10.2542 19.873 10.2547 19.9974C10.2559 20.0551 10.257 20.1127 10.2582 20.1721C10.2566 20.6437 10.1408 21.0037 9.80308 21.3414C9.41933 21.5789 9.06508 21.6026 8.62671 21.6021C8.56941 21.6023 8.51212 21.6026 8.45309 21.6029C8.33237 21.6033 8.21165 21.6033 8.09093 21.6031C7.90716 21.6028 7.72346 21.6044 7.53969 21.6061C7.42197 21.6062 7.30424 21.6063 7.18652 21.6062C7.13207 21.6068 7.07761 21.6074 7.02151 21.6081C6.61992 21.6049 6.29121 21.5424 5.97902 21.2687C5.94803 21.2297 5.91704 21.1907 5.88511 21.1505C5.83709 21.0919 5.83709 21.0919 5.7881 21.0322C5.65543 20.8363 5.63576 20.6639 5.63369 20.4343C5.63305 20.3771 5.63242 20.3199 5.63176 20.261C5.63148 20.1993 5.63119 20.1377 5.6309 20.0742C5.63052 20.0106 5.63015 19.9469 5.62976 19.8814C5.62913 19.7467 5.62869 19.612 5.62844 19.4773C5.62779 19.2718 5.62573 19.0664 5.62364 18.8609C5.62321 18.7299 5.62286 18.599 5.6226 18.468C5.62178 18.4068 5.62096 18.3455 5.62012 18.2825C5.62147 17.8895 5.66554 17.5893 5.94555 17.2893C6.20329 17.0922 6.34097 16.9923 6.66297 16.9883ZM6.8397 18.1954C6.8397 18.9185 6.8397 19.6417 6.8397 20.3868C7.56287 20.3868 8.28603 20.3868 9.03111 20.3868C9.03111 19.6636 9.03111 18.9405 9.03111 18.1954C8.30795 18.1954 7.58478 18.1954 6.8397 18.1954Z" fill="#383838"/>
<path d="M13.0156 30.5464C13.4101 30.5464 13.8045 30.5464 14.2109 30.5464C14.2109 30.9408 14.2109 31.3353 14.2109 31.7417C13.8165 31.7417 13.422 31.7417 13.0156 31.7417C13.0156 31.3472 13.0156 30.9528 13.0156 30.5464Z" fill="#383838"/>
</g>
<defs>
<clipPath id="clip0_268_1539">
<rect width="34" height="34" fill="white"/>
</clipPath>
</defs>
</svg>
