<svg width="43" height="43" viewBox="0 0 43 43" fill="none" xmlns="http://www.w3.org/2000/svg">
<circle cx="21.5" cy="21.5" r="21.5" fill="#D9D9D9"/>
<g clip-path="url(#clip0_46_1018)">
<path d="M30.7171 23.06C30.998 22.7788 31.1558 22.3975 31.1558 22C31.1558 21.6025 30.998 21.2213 30.7171 20.94L25.0611 15.281C24.7797 14.9996 24.398 14.8416 24.0001 14.8416C23.6021 14.8416 23.2205 14.9996 22.9391 15.281C22.6577 15.5624 22.4996 15.9441 22.4996 16.342C22.4996 16.74 22.6577 17.1216 22.9391 17.403L26.0351 20.5H14.5001C14.1023 20.5 13.7207 20.6581 13.4394 20.9394C13.1581 21.2207 13.0001 21.6022 13.0001 22C13.0001 22.3979 13.1581 22.7794 13.4394 23.0607C13.7207 23.342 14.1023 23.5 14.5001 23.5H26.0351L22.9391 26.596C22.7997 26.7354 22.6892 26.9008 22.6138 27.0828C22.5384 27.2649 22.4996 27.46 22.4996 27.657C22.4996 27.8541 22.5384 28.0492 22.6138 28.2312C22.6892 28.4133 22.7997 28.5787 22.9391 28.718C23.0784 28.8574 23.2438 28.9679 23.4259 29.0433C23.6079 29.1187 23.803 29.1575 24.0001 29.1575C24.1971 29.1575 24.3922 29.1187 24.5743 29.0433C24.7563 28.9679 24.9217 28.8574 25.0611 28.718L30.7171 23.06Z" fill="black"/>
</g>
<defs>
<clipPath id="clip0_46_1018">
<rect width="24" height="24" fill="white" transform="matrix(0 1 -1 0 34 10)"/>
</clipPath>
</defs>
</svg>
