<svg width="45" height="45" viewBox="0 0 45 45" fill="none" xmlns="http://www.w3.org/2000/svg">
<path d="M23.4334 1.10962C23.5162 1.10892 23.599 1.10822 23.6843 1.1075C26.6376 1.08838 29.5788 1.67915 32.1933 3.08386C32.3285 3.15611 32.4651 3.22566 32.6019 3.29487C33.2957 3.6534 33.9181 4.10188 34.5406 4.57031C34.62 4.62968 34.6995 4.68905 34.7813 4.75022C35.9576 5.6713 37.0279 6.77118 37.8805 7.99805C37.9437 8.08812 38.0069 8.17819 38.072 8.27099C39.2757 10.0637 40.8621 12.7117 40.7809 14.9414C40.8288 14.9543 40.8767 14.9672 40.9261 14.9805C41.7764 15.2335 42.4395 15.6577 42.8902 16.4355C43.4702 17.6364 43.5474 19.2383 43.1573 20.5159C42.7959 21.4114 42.2709 22.0226 41.3961 22.4344C41.1321 22.5329 40.8853 22.5645 40.6051 22.5879C40.5966 22.6401 40.5881 22.6922 40.5794 22.746C40.4727 23.3413 40.2941 23.8797 40.0667 24.4391C40.0097 24.5801 40.0097 24.5801 39.9516 24.7239C39.2954 26.3119 38.5227 27.8531 37.7205 29.3716C36.6837 31.308 36.6837 31.308 36.0348 33.3984C36.0123 33.4904 35.9899 33.5824 35.9668 33.6772C35.3789 36.5631 36.275 39.5492 37.2866 42.2236C37.4687 42.7218 37.5934 43.0762 37.441 43.5938C37.2823 43.7906 37.17 43.8442 36.9222 43.8849C36.4545 43.9128 36.4545 43.9128 36.215 43.7183C35.995 43.459 35.8945 43.1933 35.7883 42.8759C35.7667 42.814 35.7452 42.7522 35.7231 42.6884C35.6536 42.4871 35.5859 42.2852 35.5184 42.0831C35.4951 42.0143 35.4718 41.9454 35.4478 41.8745C35.0429 40.6755 34.6991 39.475 34.4527 38.2324C34.4296 38.1209 34.4065 38.0095 34.3827 37.8946C34.103 36.247 34.1397 34.4073 34.5406 32.7832C34.5675 32.6719 34.5943 32.5607 34.622 32.4461C34.818 31.7431 35.0991 31.1013 35.4164 30.4462C35.4588 30.3583 35.5011 30.2703 35.5447 30.1797C35.9223 29.3987 36.3134 28.6248 36.7062 27.8514C37.4637 26.3595 38.2114 24.8793 38.7787 23.3027C38.8558 23.0919 38.9393 22.884 39.023 22.6758C36.5126 22.6688 34.0021 22.6663 31.4916 22.6692C30.326 22.6704 29.1604 22.6702 27.9947 22.6664C26.9788 22.6632 25.9629 22.6627 24.947 22.6656C24.409 22.667 23.8711 22.667 23.3331 22.6638C22.8267 22.6607 22.3204 22.6614 21.8141 22.6649C21.6282 22.6655 21.4424 22.6648 21.2566 22.6626C20.3057 22.6118 20.3057 22.6118 19.4489 22.9334C19.2914 23.1343 19.1854 23.3269 19.0719 23.5547C17.9567 24.8627 16.3734 25.2224 14.7652 25.5762C15.2487 26.2841 15.8165 27.0111 16.6714 27.248C17.4853 27.3823 18.3241 27.3385 19.1449 27.3076C19.4843 27.2966 19.8237 27.2948 20.1633 27.2921C20.8252 27.2856 21.4864 27.2692 22.148 27.2461C22.1733 27.1646 22.1986 27.0832 22.2246 26.9992C22.4401 26.39 22.8205 26.1284 23.371 25.8381C23.9603 25.5611 24.682 25.5584 25.3032 25.7375C25.9394 26.0292 26.4245 26.4942 26.7129 27.1362C26.9101 27.7586 26.9061 28.5024 26.6397 29.1028C26.2902 29.6957 25.8185 30.1629 25.1518 30.3727C24.4467 30.5107 23.7691 30.4796 23.1409 30.1194C22.6373 29.7485 22.2556 29.3643 22.148 28.7402C22.0741 28.7467 22.0002 28.7531 21.924 28.7598C20.9906 28.8373 20.0574 28.8901 19.1213 28.9215C19.0473 28.924 18.9734 28.9265 18.8972 28.9291C15.784 29.0229 15.784 29.0229 14.7189 28.0883C14.2618 27.6538 13.9018 27.1682 13.5425 26.6526C13.1369 26.0502 13.1369 26.0502 12.4974 25.7771C12.1369 25.7971 11.79 25.8809 11.4388 25.961C10.9338 26.0605 10.4205 26.0988 9.90866 26.1488C9.5115 26.1892 9.11525 26.2375 8.71887 26.2848C8.37723 26.3254 8.03559 26.3641 7.69329 26.3988C7.35683 26.4329 7.02122 26.4718 6.68568 26.5139C6.55931 26.529 6.43273 26.5424 6.30599 26.554C5.55751 26.6206 5.55751 26.6206 4.96756 27.0432C4.71581 27.4537 4.51425 27.8084 4.56992 28.3008C4.89177 28.6635 5.46297 28.7505 5.91196 28.8863C6.44255 29.0536 6.88673 29.2272 7.20663 29.707C7.34337 30.3526 7.11054 30.9152 6.85919 31.498C6.75454 31.7478 6.67924 31.9555 6.67963 32.2281C6.79994 32.5078 6.97771 32.6501 7.20663 32.8491C7.70545 33.3287 7.70545 33.3287 7.76144 33.728C7.76394 34.0787 7.6603 34.3325 7.47031 34.6289C7.53879 34.6928 7.53879 34.6928 7.60866 34.758C8.57592 35.6877 8.89252 36.5813 8.92239 37.9231C8.92358 38.0288 8.92477 38.1345 8.92599 38.2434C8.89028 39.4194 8.89028 39.4194 9.31052 40.4736C10.0276 40.9951 11.4386 40.7403 12.2573 40.6168C15.4181 40.0705 18.7963 38.838 21.2691 36.7383C21.3421 36.6832 21.4151 36.6282 21.4902 36.5714C22.1965 35.974 22.6298 35.1664 22.7523 34.2609C22.8046 33.9184 22.8258 33.781 23.0489 33.5083C23.3395 33.3762 23.5023 33.3458 23.818 33.3984C24.0507 33.5389 24.0507 33.5389 24.2574 33.75C24.4588 34.7247 24.165 35.6712 23.6374 36.4918C22.3866 38.2187 20.5609 39.3959 18.6324 40.2539C18.5744 40.2539 18.5164 40.2539 18.4566 40.2539C18.4642 40.3065 18.4717 40.3591 18.4794 40.4133C18.5635 41.0042 18.644 41.5955 18.7203 42.1875C18.7287 42.2524 18.737 42.3173 18.7457 42.3841C18.7648 42.5399 18.7812 42.696 18.7972 42.8522C18.806 42.9357 18.8149 43.0192 18.824 43.1052C18.8041 43.3888 18.7114 43.5423 18.5445 43.7695C18.2695 43.9071 17.9635 43.9187 17.6656 43.8574C17.3527 43.602 17.2658 43.4237 17.222 43.0256C17.2059 42.8875 17.2059 42.8875 17.1894 42.7466C17.1798 42.6509 17.1702 42.5552 17.1602 42.4567C17.1493 42.3613 17.1383 42.266 17.1269 42.1678C17.0816 41.762 17.0443 41.3657 17.0504 40.957C16.9551 40.9895 16.9551 40.9895 16.858 41.0227C14.8429 41.7045 12.8384 42.2836 10.6948 42.3029C10.6013 42.3054 10.5077 42.308 10.4114 42.3106C9.50507 42.3178 8.71998 42.118 8.05498 41.4761C7.25249 40.5503 7.35313 39.2175 7.34036 38.0671C7.32512 37.3822 7.30575 36.798 6.84409 36.2549C6.6962 36.1263 6.54738 35.9987 6.39639 35.8738C5.97443 35.5162 5.67533 35.2613 5.53671 34.7168C5.55574 34.3427 5.62715 34.0772 5.80038 33.75C5.76538 33.7137 5.73037 33.6775 5.6943 33.6401C5.3112 33.2226 5.0419 32.8314 4.99495 32.2545C5.02659 31.5972 5.35141 30.9975 5.6246 30.4102C5.55968 30.3972 5.49477 30.3843 5.42788 30.371C4.51105 30.1683 3.71714 29.8793 3.16573 29.0856C2.89632 28.5777 2.90955 27.9615 3.06342 27.4195C3.1719 27.1204 3.28499 26.8277 3.42734 26.543C3.36933 26.5267 3.31132 26.5103 3.25156 26.4935C2.47048 26.1193 2.05258 25.498 1.75742 24.6973C1.65373 24.1498 1.65593 23.6086 1.65536 23.0527C1.65493 22.9506 1.65449 22.8484 1.65404 22.7432C1.65276 22.4064 1.65216 22.0695 1.65167 21.7327C1.65129 21.5571 1.65092 21.3815 1.65053 21.2059C1.6495 20.7168 1.64883 20.2276 1.64853 19.7385C1.64814 19.1086 1.64659 18.4788 1.64404 17.8489C1.64214 17.3601 1.64126 16.8714 1.64114 16.3826C1.64105 16.0915 1.64041 15.8005 1.63896 15.5095C1.63745 15.1841 1.63763 14.8588 1.6382 14.5335C1.63739 14.4388 1.63658 14.3441 1.63574 14.2466C1.64103 13.2736 1.80104 12.3502 2.46054 11.6016C3.08401 11.0237 3.77824 10.7106 4.63755 10.7302C4.75604 10.738 4.87449 10.7465 4.99289 10.7556C5.05452 10.7599 5.11616 10.7642 5.17966 10.7686C5.62254 10.8006 6.06296 10.8434 6.50351 10.8984C6.51065 10.8424 6.51778 10.7863 6.52514 10.7285C6.61832 10.3495 6.7808 10.0139 6.94846 9.66248C7.00164 9.55092 7.00164 9.55092 7.05589 9.43711C7.80932 7.88907 8.94407 6.44673 10.2828 5.36133C10.3997 5.26429 10.3997 5.26429 10.519 5.16529C13.0501 3.13462 16.1598 1.9584 19.3355 1.40625C19.4481 1.38505 19.4481 1.38505 19.563 1.36342C20.8466 1.12814 22.1325 1.11536 23.4334 1.10962ZM10.5118 7.24445C9.50089 8.24324 8.26407 9.70792 7.99765 11.1621C8.95639 11.3215 9.91718 11.464 10.8803 11.5941C11.0552 11.6178 11.23 11.6417 11.4048 11.6657C11.5137 11.6802 11.6226 11.6947 11.7347 11.7097C11.8803 11.7293 11.8803 11.7293 12.0289 11.7493C12.1198 11.7585 12.2107 11.7678 12.3043 11.7773C12.3894 11.7914 12.4746 11.8054 12.5623 11.8198C12.99 11.7524 13.2016 11.4707 13.4922 11.1652C13.5535 11.103 13.6147 11.0408 13.6778 10.9767C13.8731 10.7778 14.0665 10.5773 14.2599 10.3766C14.4548 10.1766 14.6502 9.97694 14.8456 9.77746C14.9671 9.65322 15.0882 9.52862 15.2089 9.40361C15.2635 9.34731 15.3181 9.29101 15.3744 9.233C15.4224 9.18323 15.4703 9.13346 15.5198 9.08219C15.7947 8.82282 16.0553 8.86337 16.4208 8.85891C16.4825 8.85804 16.5443 8.85717 16.6079 8.85627C16.8124 8.85349 17.0169 8.85132 17.2214 8.84915C17.363 8.84734 17.5046 8.84549 17.6462 8.84361C18.0193 8.83876 18.3924 8.83441 18.7655 8.83018C19.146 8.82576 19.5266 8.82087 19.9072 8.81601C20.6541 8.80656 21.4011 8.79764 22.148 8.78906C22.1764 8.7354 22.2047 8.68174 22.2339 8.62646C22.2721 8.55572 22.3103 8.48498 22.3496 8.4121C22.4057 8.30713 22.4057 8.30713 22.4629 8.20005C22.751 7.73288 23.1838 7.41694 23.704 7.24857C24.5352 7.07753 25.1967 7.2098 25.905 7.65507C26.3553 7.98629 26.547 8.45079 26.7184 8.96485C26.7937 9.7325 26.7414 10.3526 26.2789 10.9863C25.7483 11.5619 25.2632 11.8005 24.4871 11.8615C23.7822 11.873 23.1955 11.6399 22.6754 11.1621C22.6014 11.0142 22.5316 10.8641 22.4657 10.7125C22.2964 10.4224 22.2127 10.3056 21.8921 10.1944C21.5621 10.1534 21.2375 10.1397 20.9056 10.1387C20.7822 10.1361 20.6589 10.1333 20.5356 10.1304C20.2767 10.1256 20.0181 10.1243 19.7592 10.1252C19.4966 10.1256 19.2353 10.1202 18.973 10.1089C17.3319 10.0131 17.3319 10.0131 15.8798 10.6662C15.4607 11.0578 15.0966 11.4854 14.7652 11.9531C15.022 12.2099 15.3321 12.221 15.6771 12.2882C16.9729 12.5607 18.3122 13.0778 19.1598 14.1504C19.1868 14.206 19.2139 14.2617 19.2418 14.319C19.4292 14.6961 19.4292 14.6961 19.7689 14.9185C19.9818 14.9424 20.1852 14.9439 20.3995 14.9381C20.4802 14.9387 20.561 14.9393 20.6442 14.9399C20.915 14.9411 21.1856 14.9372 21.4564 14.9333C21.6504 14.9331 21.8444 14.9333 22.0384 14.9337C22.5654 14.9339 23.0923 14.9297 23.6192 14.9248C24.1699 14.9204 24.7205 14.92 25.2711 14.9192C26.1953 14.9172 27.1195 14.9128 28.0438 14.9066C28.9957 14.9001 29.9475 14.8951 30.8994 14.8921C30.9875 14.8919 30.9875 14.8919 31.0773 14.8916C31.3717 14.8907 31.6662 14.8898 31.9606 14.8889C34.4027 14.8815 36.8447 14.8692 39.2867 14.8535C39.2173 14.5849 39.1473 14.3164 39.0774 14.0479C39.0578 13.9722 39.0382 13.8965 39.018 13.8185C38.8858 13.3125 38.7371 12.8267 38.5232 12.3486C38.4936 12.281 38.4641 12.2133 38.4336 12.1435C37.6582 10.4001 36.712 8.79258 35.37 7.42423C35.2368 7.28781 35.1062 7.14916 34.9756 7.01031C31.9892 3.87983 27.772 2.66931 23.5506 2.55304C18.8496 2.477 13.9605 3.98193 10.5118 7.24445ZM23.6422 8.96485C23.5011 9.24707 23.5126 9.5376 23.5543 9.84375C23.7213 10.1393 23.8545 10.2558 24.153 10.415C24.5302 10.4742 24.7196 10.3814 25.0484 10.1953C25.2847 9.98192 25.3089 9.86504 25.356 9.54712C25.2981 9.1269 25.1693 8.99786 24.8727 8.70117C24.3897 8.45972 24.036 8.65348 23.6422 8.96485ZM3.7789 12.4805C3.23484 13.0245 3.14403 13.516 3.13984 14.2577C3.1402 14.3526 3.14055 14.4476 3.14092 14.5454C3.14061 14.6465 3.1403 14.7476 3.13999 14.8517C3.13921 15.1855 3.13973 15.5192 3.14032 15.8529C3.1402 16.0852 3.14003 16.3175 3.13981 16.5497C3.13949 17.0364 3.13991 17.523 3.14075 18.0097C3.1417 18.5713 3.1414 19.1328 3.14043 19.6944C3.13953 20.2358 3.13963 20.7773 3.14014 21.3187C3.14026 21.5486 3.14012 21.7784 3.13971 22.0083C3.13926 22.3297 3.13994 22.6511 3.14092 22.9726C3.14056 23.0673 3.14021 23.1621 3.13984 23.2597C3.14379 24.1141 3.14379 24.1141 3.5372 24.8511C4.01364 25.2409 4.39685 25.3685 5.00937 25.3125C5.2124 25.2835 5.41542 25.2545 5.6246 25.2246C5.6246 20.961 5.6246 16.6975 5.6246 12.3047C4.59332 12.1533 4.59332 12.1533 3.7789 12.4805ZM7.11874 12.5684C7.11874 16.6579 7.11874 20.7475 7.11874 24.9609C8.09997 24.8933 8.09997 24.8933 9.07309 24.788C9.16662 24.7759 9.16662 24.7759 9.26204 24.7637C9.46308 24.7377 9.66403 24.7112 9.86498 24.6846C10.0079 24.6658 10.1507 24.6471 10.2936 24.6284C10.5911 24.5892 10.8885 24.5498 11.1859 24.5102C11.5632 24.46 11.9406 24.411 12.3181 24.3622C12.6126 24.324 12.9071 24.285 13.2015 24.2457C13.3405 24.2273 13.4794 24.2092 13.6185 24.1914C15.8889 23.8998 15.8889 23.8998 17.7535 22.6758C17.6685 22.6672 17.5836 22.6586 17.496 22.6497C16.5679 22.5431 15.7957 22.3675 15.0289 21.7969C14.9564 21.7479 14.8839 21.699 14.8092 21.6486C14.1031 20.9955 13.6806 20.0356 13.6017 19.0833C13.5764 18.0177 13.8246 17.094 14.5016 16.2598C14.5456 16.2048 14.5897 16.1499 14.6351 16.0933C15.449 15.1843 16.5977 14.9636 17.7535 14.8535C17.2073 14.1903 16.3999 13.8971 15.5819 13.7102C15.5174 13.6953 15.4529 13.6804 15.3864 13.665C14.617 13.4937 13.8393 13.3909 13.0582 13.2893C12.8998 13.2682 12.7414 13.247 12.583 13.2258C12.2546 13.1819 11.9261 13.1386 11.5975 13.0956C11.1769 13.0405 10.7564 12.9846 10.3359 12.9283C10.0104 12.8848 9.68479 12.8416 9.3592 12.7985C9.20402 12.7779 9.04886 12.7573 8.8937 12.7367C8.67783 12.708 8.4619 12.6797 8.24596 12.6515C8.18249 12.643 8.11903 12.6346 8.05364 12.6258C7.73617 12.5848 7.44067 12.5684 7.11874 12.5684ZM15.4684 17.3145C15.0549 17.9556 14.9339 18.6082 15.0632 19.3596C15.2362 19.9926 15.6372 20.5106 16.1886 20.8668C16.5793 21.0665 16.9229 21.1925 17.3595 21.1934C17.4413 21.1938 17.5231 21.1942 17.6074 21.1946C17.6975 21.1946 17.7876 21.1946 17.8804 21.1946C17.9759 21.1949 18.0715 21.1952 18.1699 21.1956C18.4918 21.1965 18.8136 21.1969 19.1354 21.1972C19.3655 21.1978 19.5956 21.1983 19.8257 21.1989C20.5174 21.2007 21.2091 21.2016 21.9008 21.2024C22.2265 21.2027 22.5523 21.2032 22.878 21.2037C23.961 21.2052 25.0439 21.2064 26.1268 21.2071C26.4078 21.2072 26.6888 21.2074 26.9699 21.2076C27.0397 21.2076 27.1096 21.2077 27.1815 21.2077C28.3129 21.2084 29.4443 21.2107 30.5756 21.2135C31.7373 21.2164 32.8989 21.218 34.0605 21.2183C34.7127 21.2185 35.3649 21.2193 36.0171 21.2215C36.6306 21.2236 37.2441 21.2239 37.8577 21.223C38.0829 21.223 38.3081 21.2235 38.5333 21.2247C38.8407 21.2263 39.1481 21.2257 39.4556 21.2245C39.5447 21.2255 39.6338 21.2264 39.7256 21.2274C40.3565 21.2217 40.8203 21.0885 41.3103 20.6828C41.3495 20.6353 41.3887 20.5879 41.429 20.5389C41.4696 20.4922 41.5102 20.4454 41.552 20.3972C41.8537 19.8868 41.8653 19.3449 41.863 18.7701C41.8644 18.6992 41.8658 18.6282 41.8673 18.5551C41.8678 17.9392 41.7463 17.3751 41.3357 16.8915C41.2973 16.8438 41.2588 16.7961 41.2193 16.7469C40.6656 16.3173 40.0481 16.3096 39.3785 16.3136C39.2359 16.3129 39.2359 16.3129 39.0904 16.3122C38.7727 16.3109 38.4551 16.3115 38.1375 16.3121C37.9093 16.3116 37.6812 16.311 37.4531 16.3103C36.8983 16.3088 36.3435 16.3087 35.7887 16.3092C35.3376 16.3095 34.8865 16.3094 34.4353 16.309C34.371 16.3089 34.3068 16.3088 34.2405 16.3088C34.1099 16.3086 33.9793 16.3085 33.8486 16.3083C32.6246 16.3071 31.4005 16.3076 30.1765 16.3086C29.0577 16.3095 27.939 16.3084 26.8203 16.3063C25.6704 16.3041 24.5205 16.3033 23.3705 16.3039C22.7254 16.3042 22.0803 16.304 21.4352 16.3024C20.8285 16.301 20.2218 16.3014 19.6151 16.3031C19.3927 16.3034 19.1703 16.3031 18.9478 16.3022C18.6437 16.301 18.3397 16.3021 18.0356 16.3036C17.9042 16.3023 17.9042 16.3023 17.7702 16.301C16.8529 16.3106 16.0783 16.6171 15.4684 17.3145ZM23.6422 27.5098C23.5015 27.7912 23.5104 28.0833 23.5543 28.3887C23.7119 28.6356 23.8196 28.785 24.0816 28.916C24.5185 28.949 24.7893 28.93 25.1363 28.6523C25.3412 28.3695 25.3532 28.1158 25.3121 27.7734C25.1121 27.4021 25.1121 27.4021 24.7848 27.1582C24.2692 27.1159 24.0197 27.1208 23.6422 27.5098Z" fill="black"/>
</svg>
