<svg width="34" height="34" viewBox="0 0 34 34" fill="none" xmlns="http://www.w3.org/2000/svg">
<path d="M8.69979 16.668C8.70076 16.7071 8.70173 16.7462 8.70272 16.7865C8.70773 16.967 8.71413 17.1474 8.72054 17.3279C8.72204 17.3894 8.72354 17.4509 8.72508 17.5143C8.74392 18.0023 8.79526 18.4631 9.12313 18.8428C9.33024 18.9971 9.56094 19.0633 9.80379 19.1458C10.2715 19.3176 10.2715 19.3176 10.3931 19.5608C10.4273 19.6587 10.4604 19.757 10.4928 19.8555C10.5242 19.9183 10.5556 19.9811 10.588 20.0459C10.8722 20.6262 10.8722 20.6262 10.7584 20.9719C10.717 21.0659 10.6728 21.1588 10.6256 21.25C10.4595 21.6006 10.3656 21.8626 10.4264 22.2461C10.5975 22.5915 10.7982 22.8462 11.0717 23.1148C11.1076 23.1507 11.1434 23.1866 11.1804 23.2235C11.2556 23.2986 11.331 23.3734 11.4067 23.448C11.5223 23.562 11.637 23.6769 11.7516 23.792C11.8252 23.8651 11.8987 23.9383 11.9724 24.0113C12.0065 24.0455 12.0406 24.0796 12.0757 24.1149C12.4035 24.4362 12.6302 24.5371 13.0821 24.5371C13.2875 24.503 13.4373 24.4302 13.6203 24.3339C13.9686 24.1561 14.2227 24.0692 14.6107 24.174C15.0682 24.3345 15.5394 24.516 15.7679 24.9688C15.8055 25.0784 15.8403 25.1891 15.8717 25.3008C16.0188 25.6447 16.1448 25.8896 16.4693 26.0977C16.731 26.1849 16.9822 26.1762 17.255 26.1776C17.3128 26.1779 17.3705 26.1783 17.43 26.1787C17.5522 26.1793 17.6744 26.1798 17.7966 26.18C17.9828 26.1807 18.169 26.1827 18.3553 26.1848C18.4741 26.1852 18.593 26.1856 18.7118 26.1859C18.7673 26.1867 18.8227 26.1875 18.8798 26.1883C19.2111 26.1871 19.4354 26.1469 19.7232 25.9648C19.96 25.7243 20.0504 25.484 20.159 25.168C20.2863 24.8402 20.4055 24.6438 20.7359 24.4956C20.863 24.4534 20.9902 24.4119 21.1178 24.3711C21.1713 24.3409 21.2248 24.3107 21.2799 24.2795C21.4558 24.1824 21.5815 24.1287 21.7818 24.1055C21.9866 24.1714 22.174 24.2524 22.3668 24.3471C22.712 24.5151 22.997 24.5858 23.3756 24.5039C23.6184 24.3802 23.7627 24.2504 23.9483 24.0515C24.0004 24.0036 24.0524 23.9556 24.106 23.9062C24.6126 23.9535 25.0685 24.5099 25.3779 24.8728C26.1509 25.8958 26.3305 27.0414 26.231 28.2891C26.0545 29.4035 25.3661 30.3545 24.4837 31.0325C23.7243 31.5589 22.9346 31.7627 22.024 31.7599C21.912 31.7604 21.912 31.7604 21.7977 31.7609C21.5481 31.7617 21.2985 31.7616 21.0488 31.7615C20.8696 31.7619 20.6903 31.7623 20.5111 31.7628C20.0751 31.7639 19.6391 31.7643 19.203 31.7644C18.8484 31.7644 18.4937 31.7647 18.1391 31.7651C17.1324 31.7663 16.1257 31.7669 15.1189 31.7668C15.0647 31.7668 15.0105 31.7668 14.9546 31.7668C14.9004 31.7668 14.8461 31.7668 14.7901 31.7668C13.9109 31.7667 13.0316 31.768 12.1524 31.7699C11.2483 31.7718 10.3443 31.7727 9.44028 31.7726C8.93322 31.7725 8.42617 31.7729 7.91912 31.7743C7.48731 31.7755 7.05551 31.7758 6.6237 31.7749C6.40369 31.7745 6.18371 31.7746 5.96369 31.7756C4.27226 31.7829 4.27226 31.7829 3.58651 31.4766C3.52591 31.4508 3.46531 31.425 3.40287 31.3984C2.41299 30.9598 1.65879 30.1058 1.23038 29.1269C0.84288 28.1202 0.8263 26.8905 1.26229 25.8984C1.28634 25.8404 1.3104 25.7824 1.33518 25.7226C1.75961 24.7874 2.52282 24.0607 3.4537 23.6406C3.49752 23.6406 3.54135 23.6406 3.58651 23.6406C3.5842 23.5715 3.58189 23.5023 3.5795 23.431C3.53433 21.4821 4.26382 19.7594 5.5953 18.3489C6.3217 17.6555 7.63741 16.668 8.69979 16.668Z" fill="#383838"/>
<path d="M17.082 8.69189C17.1772 8.69191 17.2724 8.69228 17.3676 8.69295C17.4426 8.69309 17.4426 8.69309 17.5191 8.69323C17.6795 8.69361 17.8399 8.69444 18.0002 8.69528C18.1087 8.69562 18.2172 8.69592 18.3257 8.69619C18.5921 8.69692 18.8586 8.69807 19.125 8.69943C19.2807 9.00147 19.4256 9.30019 19.54 9.62082C19.5623 9.68228 19.5846 9.74374 19.6075 9.80707C19.6562 9.96115 19.6562 9.96115 19.6562 10.094C19.7151 10.0981 19.774 10.1022 19.8347 10.1064C20.3659 10.1828 20.8732 10.4248 21.333 10.6916C21.5647 10.8101 21.689 10.8461 21.939 10.7663C22.0403 10.7198 22.1417 10.6732 22.2461 10.6252C22.5091 10.5156 22.772 10.4061 23.043 10.2932C23.5689 10.8191 24.0948 11.3451 24.6367 11.8869C24.5028 12.2888 24.4215 12.5165 24.2258 12.854C24.141 13.0511 24.0826 13.1945 24.1385 13.4069C24.2365 13.6425 24.3624 13.8593 24.4912 14.0791C24.6314 14.3202 24.7039 14.5534 24.7695 14.8254C24.8418 15.0946 24.8418 15.0946 25.0082 15.3079C25.1589 15.3898 25.1589 15.3898 25.4336 15.4729C25.6966 15.5824 25.9595 15.692 26.2305 15.8049C26.2305 16.5719 26.2305 17.3389 26.2305 18.1291C26.0483 18.2058 25.8661 18.2825 25.6785 18.3615C25.6213 18.3858 25.5642 18.4101 25.5054 18.4351C25.4374 18.4634 25.4374 18.4634 25.368 18.4923C25.3217 18.5118 25.2755 18.5312 25.2278 18.5513C25.1016 18.594 25.1016 18.594 24.9023 18.594C24.8949 18.6361 24.8874 18.6782 24.8798 18.7216C24.8038 19.0811 24.7176 19.3768 24.5381 19.6975C24.2004 20.2611 24.2004 20.2611 24.1323 20.8914C24.2423 21.2173 24.4034 21.5096 24.5935 21.7955C24.6367 21.9143 24.6367 21.9143 24.5971 22.0413C24.4069 22.3242 24.1587 22.5577 23.92 22.7994C23.8234 22.8978 23.7285 22.9976 23.6336 23.0975C23.5726 23.1595 23.5116 23.2214 23.4487 23.2852C23.3932 23.3423 23.3377 23.3994 23.2805 23.4582C23.1094 23.5744 23.1094 23.5744 22.9025 23.5653C22.6017 23.4753 22.3337 23.3304 22.0549 23.1879C21.7307 23.0654 21.5473 23.1589 21.2451 23.294C21.1429 23.3417 21.0408 23.3895 20.9387 23.4375C20.5127 23.6331 20.1248 23.7796 19.6562 23.8401C19.645 23.8803 19.6337 23.9205 19.622 23.962C19.3064 25.0532 19.3064 25.0532 19.125 25.2346C18.9576 25.2405 18.792 25.2422 18.6246 25.2411C18.5496 25.2409 18.5496 25.2409 18.473 25.2408C18.3127 25.2404 18.1523 25.2396 17.9919 25.2387C17.8835 25.2384 17.775 25.2381 17.6665 25.2378C17.4001 25.2371 17.1336 25.236 16.8672 25.2346C16.8141 25.1208 16.7613 25.0069 16.7087 24.893C16.6793 24.8295 16.6499 24.7661 16.6195 24.7008C16.4994 24.4208 16.4144 24.1341 16.3359 23.8401C16.251 23.8291 16.1661 23.8181 16.0786 23.8069C15.6569 23.7252 15.2836 23.5456 14.8972 23.3641C14.5351 23.182 14.5351 23.182 14.1445 23.1096C13.9702 23.1808 13.8117 23.254 13.6465 23.342C13.2056 23.5769 13.2056 23.5769 12.9895 23.5677C12.7553 23.487 12.6372 23.3588 12.4644 23.182C12.4324 23.1496 12.4005 23.1173 12.3676 23.084C12.2661 22.9811 12.1657 22.8773 12.0652 22.7734C11.9964 22.7033 11.9275 22.6332 11.8586 22.5632C11.6902 22.3918 11.5226 22.2197 11.3555 22.0471C11.4617 21.6983 11.5802 21.4049 11.7705 21.0925C11.8631 20.8795 11.9093 20.734 11.8461 20.5065C11.7319 20.2264 11.5904 19.9626 11.447 19.6967C11.2555 19.3406 11.1591 18.9927 11.0898 18.594C10.9803 18.5721 10.8707 18.5501 10.7578 18.5276C10.4291 18.3961 10.1004 18.2646 9.76172 18.1291C9.76172 17.3621 9.76172 16.5951 9.76172 15.8049C10.5586 15.4729 10.5586 15.4729 10.8533 15.3816C11.1239 15.2429 11.1697 15.0348 11.26 14.7549C11.272 14.7108 11.284 14.6668 11.2964 14.6215C11.3619 14.3818 11.4326 14.1783 11.564 13.9663C11.8353 13.5431 11.8353 13.5431 11.853 13.0592C11.7347 12.7357 11.5761 12.4373 11.3965 12.1438C11.3555 12.0197 11.3555 12.0197 11.3936 11.8928C11.5183 11.7101 11.6635 11.5641 11.8208 11.4086C11.8531 11.3765 11.8853 11.3445 11.9185 11.3115C12.0211 11.2097 12.124 11.1084 12.2271 11.0071C12.2969 10.9379 12.3666 10.8687 12.4364 10.7995C12.607 10.6304 12.778 10.4617 12.9492 10.2932C12.9854 10.31 13.0215 10.3268 13.0587 10.3441C13.2236 10.4198 13.3894 10.4934 13.5552 10.5671C13.612 10.5936 13.6689 10.62 13.7274 10.6473C14.0642 10.7982 14.0642 10.7982 14.4249 10.7863C14.4858 10.7551 14.5467 10.7238 14.6094 10.6916C14.6776 10.6609 14.7458 10.6302 14.8161 10.5985C14.8862 10.5649 14.9563 10.5312 15.0286 10.4966C15.8908 10.094 15.8908 10.094 16.3359 10.094C16.3472 10.0537 16.3585 10.0135 16.3702 9.97205C16.7369 8.704 16.7369 8.704 17.082 8.69189ZM14.9461 14.5546C14.2784 15.4666 14.0196 16.5041 14.1757 17.6215C14.3696 18.5878 14.8893 19.5257 15.7142 20.0943C16.7492 20.7102 17.7096 20.9499 18.9105 20.7421C20.0508 20.4208 20.8491 19.7199 21.4492 18.7268C21.5588 18.5098 21.6437 18.295 21.7148 18.0627C21.7371 17.994 21.7371 17.994 21.7597 17.9239C22.0182 16.9798 21.8401 15.9604 21.4119 15.0952C20.7898 14.0465 19.8874 13.4553 18.7266 13.1487C17.2696 12.9076 15.9033 13.4361 14.9461 14.5546Z" fill="#383838"/>
<path d="M28.811 2.23145C29.0777 2.2649 29.1371 2.33926 29.3062 2.54402C29.3577 2.60514 29.4091 2.66626 29.4621 2.72923C29.5134 2.79275 29.5647 2.85627 29.6175 2.92171C29.664 2.97838 29.7105 3.03504 29.7583 3.09343C29.8554 3.21206 29.9522 3.33097 30.0486 3.4501C30.2415 3.68411 30.4394 3.91325 30.6385 4.14192C31.0023 4.55972 31.3617 4.9809 31.7186 5.40461C31.8122 5.51542 31.9062 5.62584 32.0003 5.73619C32.1246 5.88194 32.2484 6.0281 32.3715 6.17484C32.4764 6.29983 32.582 6.42426 32.6885 6.54785C32.9964 6.91765 32.9964 6.91765 33.0374 7.20491C33.0042 7.37093 33.0042 7.37093 32.9378 7.43733C32.7905 7.44316 32.643 7.44443 32.4955 7.44382C32.4293 7.44368 32.4293 7.44368 32.3618 7.44353C32.2204 7.44316 32.079 7.44233 31.9376 7.44148C31.8419 7.44115 31.7462 7.44085 31.6505 7.44057C31.4156 7.43984 31.1806 7.43869 30.9456 7.43733C30.9463 7.55228 30.9463 7.55228 30.947 7.66955C30.951 8.39163 30.954 9.11371 30.9559 9.83579C30.957 10.207 30.9584 10.5783 30.9606 10.9495C30.9628 11.3077 30.964 11.6659 30.9645 12.0242C30.9649 12.1609 30.9656 12.2976 30.9667 12.4343C30.9681 12.6257 30.9683 12.8171 30.9682 13.0085C30.969 13.0651 30.9697 13.1216 30.9704 13.1799C30.9688 13.4878 30.953 13.6994 30.7464 13.9451C30.5485 14.082 30.3824 14.0952 30.145 14.0972C30.0783 14.0981 30.0116 14.0989 29.9428 14.0998C29.8712 14.1 29.7995 14.1001 29.7257 14.1003C29.6517 14.1007 29.5776 14.1011 29.5014 14.1016C29.3449 14.1023 29.1885 14.1026 29.032 14.1026C28.7927 14.1029 28.5534 14.1053 28.3141 14.1078C28.1621 14.1082 28.01 14.1084 27.858 14.1086C27.7865 14.1095 27.7149 14.1105 27.6412 14.1115C27.1446 14.1084 27.1446 14.1084 26.8844 13.9515C26.6489 13.6838 26.6867 13.4321 26.6881 13.0914C26.6881 13.0305 26.6881 12.9696 26.688 12.9069C26.6881 12.7049 26.6886 12.503 26.6891 12.3011C26.6893 12.1613 26.6894 12.0215 26.6894 11.8818C26.6897 11.5134 26.6903 11.1451 26.6911 10.7768C26.6917 10.4011 26.692 10.0254 26.6924 9.64975C26.6931 8.91228 26.6942 8.1748 26.6956 7.43733C26.636 7.43838 26.5763 7.43942 26.5148 7.44049C26.2938 7.44389 26.0728 7.44639 25.8518 7.44828C25.756 7.44928 25.6603 7.45064 25.5646 7.45236C25.4271 7.45477 25.2897 7.45591 25.1522 7.45679C25.0694 7.45783 24.9867 7.45887 24.9014 7.45995C24.8361 7.45249 24.7707 7.44502 24.7034 7.43733C24.5706 7.23811 24.5706 7.23811 24.5714 7.08844C24.6666 6.82388 24.8352 6.65116 25.023 6.44539C25.102 6.35661 25.1809 6.26781 25.2598 6.17899C25.3 6.13418 25.3402 6.08938 25.3815 6.04322C25.5621 5.84061 25.7389 5.63481 25.9153 5.42854C25.9485 5.38994 25.9816 5.35133 26.0157 5.31155C26.211 5.0833 26.4026 4.85255 26.5919 4.61922C26.8638 4.28433 27.1453 3.95854 27.4286 3.63334C27.7093 3.31101 27.9863 2.98583 28.2611 2.65845C28.5951 2.26128 28.5951 2.26128 28.811 2.23145Z" fill="#383838"/>
</svg>
