<svg width="34" height="34" viewBox="0 0 34 34" fill="none" xmlns="http://www.w3.org/2000/svg">
<path d="M12.625 0.563678C12.7075 0.563264 12.7899 0.56285 12.8748 0.562423C13.1035 0.561546 13.3321 0.561862 13.5608 0.562685C13.8075 0.563285 14.0541 0.562358 14.3008 0.561628C14.7839 0.560446 15.2671 0.560702 15.7503 0.561471C16.1429 0.562071 16.5356 0.562153 16.9283 0.561864C16.9842 0.561823 17.04 0.561782 17.0976 0.56174C17.2111 0.561655 17.3246 0.561569 17.4381 0.561482C18.5026 0.560724 19.5671 0.561596 20.6316 0.563023C21.5451 0.564209 22.4586 0.564003 23.372 0.562779C24.4326 0.561357 25.4932 0.560797 26.5538 0.561613C26.6669 0.561698 26.78 0.561781 26.8931 0.561864C26.9487 0.561905 27.0044 0.561946 27.0617 0.561988C27.4539 0.562217 27.8461 0.56183 28.2383 0.561205C28.7162 0.56046 29.1942 0.560662 29.6722 0.562076C29.9161 0.562775 30.16 0.563048 30.4038 0.56217C30.6682 0.561232 30.9325 0.562351 31.1968 0.563678C31.3126 0.56279 31.3126 0.56279 31.4306 0.561883C32.1183 0.5686 32.1183 0.5686 32.4073 0.863033C32.5964 1.1969 32.6315 1.52248 32.6318 1.90379C32.6322 1.95218 32.6325 2.00057 32.6328 2.05044C32.6336 2.21107 32.633 2.37166 32.6323 2.53228C32.6326 2.64806 32.6329 2.76384 32.6334 2.87962C32.6343 3.19299 32.6339 3.50634 32.6333 3.81971C32.6328 4.14812 32.6333 4.47653 32.6336 4.80494C32.6339 5.3563 32.6335 5.90765 32.6325 6.45901C32.6314 7.09598 32.6318 7.73293 32.6329 8.3699C32.6338 8.9174 32.6339 9.4649 32.6334 10.0124C32.6331 10.3391 32.633 10.6659 32.6337 10.9926C32.6343 11.2998 32.6339 11.6069 32.6327 11.914C32.6325 12.0266 32.6325 12.1392 32.633 12.2517C32.6335 12.4057 32.6328 12.5596 32.6318 12.7135C32.6318 12.7996 32.6317 12.8856 32.6316 12.9743C32.5947 13.3286 32.5047 13.5892 32.2372 13.8372C31.9695 14.0156 31.7793 14.0208 31.4652 14.0195C31.4154 14.0195 31.3657 14.0196 31.3144 14.0196C31.1469 14.0197 30.9794 14.0194 30.8119 14.019C30.6921 14.019 30.5724 14.019 30.4526 14.019C30.1268 14.0191 29.8009 14.0187 29.4751 14.0182C29.1349 14.0178 28.7946 14.0177 28.4544 14.0177C27.8097 14.0175 27.1651 14.0169 26.5205 14.0163C25.7867 14.0155 25.053 14.0151 24.3192 14.0148C22.8095 14.0141 21.2998 14.0129 19.7901 14.0115C19.7707 13.9089 19.7707 13.9089 19.7509 13.8042C19.7334 13.7136 19.7159 13.623 19.6983 13.5324C19.6899 13.4874 19.6814 13.4424 19.6727 13.3961C19.5604 12.8213 19.3267 12.3302 18.8454 11.9773C18.2771 11.6131 17.7383 11.5349 17.0724 11.5333C17.0095 11.5326 16.9466 11.5319 16.8817 11.5312C16.6759 11.5292 16.47 11.5281 16.2641 11.5269C16.1206 11.5257 15.977 11.5244 15.8334 11.523C15.4571 11.5196 15.0808 11.517 14.7045 11.5145C14.3199 11.5119 13.9353 11.5085 13.5507 11.5052C12.7972 11.4987 12.0437 11.4931 11.2901 11.488C11.2855 10.1517 11.282 8.81543 11.2798 7.47913C11.2788 6.85866 11.2774 6.2382 11.2751 5.61774C11.2731 5.07698 11.2718 4.53622 11.2714 3.99545C11.2711 3.70909 11.2705 3.42274 11.2691 3.13639C11.2677 2.86686 11.2673 2.59734 11.2676 2.32781C11.2676 2.22889 11.2672 2.12998 11.2664 2.03107C11.2654 1.89597 11.2658 1.76086 11.2662 1.62575C11.266 1.55016 11.2658 1.47456 11.2656 1.39667C11.3022 1.09608 11.4256 0.938302 11.6176 0.711577C11.9411 0.530341 12.2604 0.560883 12.625 0.563678ZM18.794 3.25366C18.7279 3.44809 18.7191 3.62862 18.7183 3.83298C18.7179 3.89581 18.7176 3.95864 18.7172 4.02338C18.7171 4.09186 18.717 4.16034 18.7169 4.2309C18.7166 4.30338 18.7163 4.37586 18.7159 4.45054C18.715 4.69048 18.7145 4.93042 18.7141 5.17036C18.7138 5.33711 18.7134 5.50385 18.713 5.6706C18.7124 5.97564 18.712 6.28068 18.7118 6.58572C18.7115 7.03396 18.7103 7.48218 18.7084 7.93042C18.7068 8.3193 18.7063 8.70819 18.7062 9.09708C18.706 9.26221 18.7054 9.42734 18.7045 9.59247C18.7034 9.82359 18.7035 10.0547 18.704 10.2858C18.7034 10.3539 18.7027 10.422 18.7021 10.4921C18.7044 10.8756 18.7413 11.1498 18.9269 11.488C19.041 11.5977 19.041 11.5977 19.1925 11.6208C19.4986 11.5903 19.7113 11.5049 19.9759 11.3506C20.0496 11.308 20.1233 11.2654 20.1993 11.2215C20.2787 11.1748 20.3582 11.128 20.4376 11.0813C20.5206 11.033 20.6037 10.9848 20.6868 10.9367C20.8579 10.8375 21.0287 10.738 21.1995 10.6382C21.5044 10.4601 21.8106 10.2843 22.1168 10.1083C22.9377 9.6362 23.7563 9.16004 24.5734 8.68136C24.7787 8.56141 24.9845 8.44223 25.1903 8.3231C25.3243 8.24504 25.4584 8.16696 25.5924 8.08886C25.686 8.03498 25.686 8.03498 25.7816 7.98001C25.8388 7.94651 25.896 7.91301 25.955 7.87849C26.0054 7.84928 26.0558 7.82008 26.1076 7.78999C26.2502 7.70093 26.2502 7.70093 26.3644 7.50366C26.3962 7.2593 26.3917 7.14545 26.2518 6.93951C26.0927 6.76668 25.9551 6.67206 25.7493 6.56074C25.647 6.50457 25.647 6.50457 25.5426 6.44727C25.47 6.40827 25.3974 6.36928 25.3226 6.3291C25.1707 6.24584 25.0189 6.16248 24.8671 6.07904C24.7932 6.03859 24.7193 5.99814 24.6431 5.95647C24.3853 5.8141 24.1312 5.66634 23.8783 5.51562C23.4155 5.2409 22.9501 4.97085 22.4837 4.70214C22.375 4.63946 22.375 4.63946 22.264 4.57551C22.0759 4.46717 21.8879 4.35885 21.6998 4.25055C21.3821 4.06755 21.0644 3.88443 20.7467 3.70126C20.6352 3.63693 20.5235 3.57263 20.4119 3.50834C20.344 3.46915 20.276 3.42996 20.206 3.38958C20.1463 3.35524 20.0867 3.32089 20.0253 3.2855C19.9094 3.218 19.7947 3.1483 19.6811 3.07681C19.3239 2.87435 19.0677 2.97221 18.794 3.25366Z" fill="black"/>
<path d="M3.15316 12.467C3.24634 12.4666 3.24634 12.4666 3.34141 12.4663C3.54888 12.4656 3.75634 12.4658 3.96382 12.4661C4.11284 12.4658 4.26187 12.4655 4.4109 12.4651C4.81523 12.4642 5.21956 12.4641 5.6239 12.4643C5.96155 12.4644 6.29919 12.4641 6.63684 12.4637C7.47894 12.463 8.32104 12.463 9.16314 12.4634C9.89384 12.4638 10.6245 12.463 11.3552 12.4618C12.1062 12.4605 12.8573 12.46 13.6083 12.4602C14.0296 12.4603 14.451 12.4601 14.8723 12.4592C15.2685 12.4584 15.6647 12.4585 16.0609 12.4594C16.2062 12.4595 16.3515 12.4594 16.4968 12.4588C16.6954 12.4581 16.8939 12.4586 17.0925 12.4595C17.1784 12.4588 17.1784 12.4588 17.2661 12.458C17.6819 12.4617 18.0583 12.5249 18.3962 12.7884C18.4258 12.825 18.4554 12.8616 18.4859 12.8994C18.5319 12.9533 18.5319 12.9533 18.5788 13.0083C18.7725 13.3415 18.8097 13.6928 18.8104 14.0715C18.8106 14.1151 18.8109 14.1588 18.8111 14.2038C18.8118 14.3489 18.8116 14.494 18.8113 14.639C18.8116 14.7436 18.8119 14.8481 18.8123 14.9526C18.8132 15.2357 18.8132 15.5187 18.8131 15.8018C18.813 16.0384 18.8133 16.2751 18.8136 16.5117C18.8144 17.0701 18.8144 17.6286 18.814 18.187C18.8136 18.7624 18.8144 19.3377 18.8158 19.9131C18.817 20.4078 18.8174 20.9025 18.8172 21.3972C18.8171 21.6924 18.8172 21.9875 18.8182 22.2827C18.819 22.5603 18.8189 22.8379 18.818 23.1155C18.8179 23.2171 18.818 23.3187 18.8186 23.4203C18.8216 24.0219 18.8083 24.5031 18.4735 25.0227C18.1981 25.298 17.9484 25.3795 17.5647 25.3878C17.4155 25.387 17.2663 25.385 17.1171 25.3822C17.0354 25.3815 16.9538 25.3807 16.8696 25.38C16.6923 25.3784 16.515 25.3765 16.3377 25.3741C16.0562 25.3705 15.7747 25.3691 15.4931 25.3682C15.3963 25.3679 15.2996 25.3675 15.2029 25.3672C15.1302 25.3669 15.1302 25.3669 15.056 25.3667C14.4012 25.3642 13.7464 25.36 13.0916 25.351C12.6491 25.3449 12.2068 25.342 11.7643 25.3426C11.5308 25.3427 11.2975 25.3414 11.064 25.3361C9.92109 25.3113 9.1524 25.3859 8.29641 26.1826C8.06942 26.3846 7.81884 26.5542 7.57039 26.7285C7.47077 26.8002 7.37124 26.872 7.27182 26.944C7.22253 26.9796 7.17323 27.0152 7.12244 27.0519C6.97208 27.1606 6.82181 27.2694 6.67157 27.3783C6.169 27.7422 5.66538 28.1047 5.15902 28.4633C5.08935 28.5129 5.08935 28.5129 5.01828 28.5634C4.95273 28.6096 4.95273 28.6096 4.88587 28.6569C4.84792 28.6837 4.80997 28.7106 4.77087 28.7382C4.62293 28.8374 4.46924 28.9278 4.31649 29.0195C4.31649 27.8142 4.31649 26.609 4.31649 25.3672C3.66288 25.3802 3.66288 25.3802 3.00937 25.3971C2.1947 25.4053 2.1947 25.4053 1.82131 25.1301C1.4608 24.7683 1.38653 24.3628 1.38529 23.8708C1.38509 23.8274 1.38489 23.7839 1.38469 23.7391C1.38411 23.5936 1.38401 23.4481 1.38391 23.3025C1.3836 23.1981 1.38327 23.0937 1.38291 22.9893C1.38204 22.7057 1.38161 22.4221 1.38132 22.1385C1.38112 21.9612 1.38085 21.7839 1.38055 21.6065C1.37965 21.0514 1.379 20.4963 1.37875 19.9411C1.37845 19.301 1.37729 18.6608 1.37536 18.0207C1.37392 17.5255 1.37326 17.0302 1.37317 16.535C1.3731 16.2395 1.37271 15.9439 1.37152 15.6483C1.37042 15.3701 1.37028 15.0918 1.37086 14.8136C1.37091 14.7118 1.37063 14.61 1.36997 14.5082C1.3625 13.2809 1.3625 13.2809 1.70191 12.8917C2.11828 12.4884 2.60163 12.4646 3.15316 12.467ZM10.9413 14.1572C10.6665 14.5114 10.4542 14.9107 10.2308 15.2983C10.1811 15.3839 10.1314 15.4694 10.0816 15.555C9.98018 15.7294 9.87894 15.904 9.77788 16.0787C9.59404 16.3965 9.40924 16.7136 9.22431 17.0307C9.14419 17.1681 9.06417 17.3056 8.98427 17.4431C8.94852 17.5045 8.91278 17.566 8.87595 17.6293C8.84488 17.6827 8.81381 17.7362 8.7818 17.7913C8.71345 17.9059 8.64052 18.0178 8.56649 18.1289C8.55255 18.3083 8.5463 18.4809 8.54614 18.6604C8.54559 18.7145 8.54503 18.7686 8.54447 18.8244C8.54286 19.0034 8.54228 19.1825 8.54184 19.3615C8.54125 19.4858 8.54064 19.6101 8.54003 19.7344C8.53893 19.995 8.53842 20.2556 8.53823 20.5162C8.53787 20.8505 8.53537 21.1848 8.53234 21.5191C8.53036 21.7758 8.52988 22.0324 8.52981 22.2892C8.52953 22.4124 8.5287 22.5357 8.52732 22.659C8.52554 22.8312 8.52585 23.0033 8.52669 23.1755C8.5257 23.2266 8.52471 23.2777 8.5237 23.3304C8.52215 23.4889 8.52215 23.4889 8.56649 23.707C8.75608 23.8707 8.91604 23.931 9.16447 23.933C9.21436 23.9339 9.26426 23.9347 9.31567 23.9356C9.36873 23.9354 9.42179 23.9352 9.47646 23.935C9.53206 23.9354 9.58765 23.9357 9.64494 23.9361C9.76237 23.9365 9.8798 23.9364 9.99724 23.9358C10.1754 23.9353 10.3533 23.9372 10.5314 23.9393C10.646 23.9394 10.7606 23.9394 10.8751 23.9392C10.9539 23.9403 10.9539 23.9403 11.0343 23.9414C11.4896 23.9358 11.8679 23.8041 12.2335 23.53C12.4801 23.2633 12.7021 22.9896 12.9078 22.6902C12.9404 22.6433 12.9729 22.5964 13.0065 22.5481C13.1212 22.3817 13.2347 22.2144 13.3477 22.0468C13.395 21.9768 13.4423 21.9067 13.491 21.8345C13.6193 21.6439 13.7467 21.4526 13.8735 21.261C13.9237 21.1852 13.9741 21.1095 14.0246 21.0339C14.5768 20.2251 14.5768 20.2251 14.6468 19.2788C14.5399 18.8385 14.1756 18.5123 13.8126 18.2617C13.5078 18.1384 13.2525 18.1132 12.9249 18.1159C12.8798 18.1161 12.8347 18.1163 12.7882 18.1165C12.6454 18.1172 12.5027 18.1189 12.3599 18.1206C12.2626 18.1212 12.1652 18.1218 12.0679 18.1224C11.8304 18.1238 11.593 18.1261 11.3555 18.1289C11.3703 18.0744 11.385 18.02 11.4001 17.9639C11.5301 17.4817 11.6589 16.9992 11.7861 16.5162C11.8515 16.2682 11.9188 16.0209 11.9882 15.774C12.1659 15.1462 12.1659 15.1462 12.0287 14.5253C11.9137 14.3498 11.7811 14.2128 11.6212 14.0781C11.5883 14.0452 11.5883 14.0452 11.5548 14.0117C11.2794 13.9746 11.1453 13.9575 10.9413 14.1572ZM5.60336 17.9308C5.45959 18.1375 5.48413 18.3571 5.48602 18.6001C5.48567 18.6548 5.48532 18.7096 5.48496 18.766C5.48409 18.9472 5.48467 19.1284 5.48534 19.3097C5.48521 19.4354 5.48501 19.5612 5.48476 19.687C5.48447 19.9507 5.4849 20.2144 5.48583 20.4782C5.48696 20.8165 5.48631 21.1548 5.48512 21.4931C5.4844 21.7529 5.48462 22.0126 5.48514 22.2724C5.48527 22.3972 5.48511 22.5219 5.48465 22.6467C5.48414 22.8209 5.48491 22.9951 5.48602 23.1694C5.48562 23.2211 5.48521 23.2729 5.4848 23.3262C5.48662 23.5991 5.48662 23.5991 5.6038 23.8387C5.75062 23.9312 5.85564 23.931 6.02852 23.9303C6.0899 23.9303 6.15128 23.9303 6.21451 23.9302C6.27846 23.9291 6.3424 23.9281 6.40828 23.927C6.47223 23.9272 6.53617 23.9274 6.60206 23.9276C6.97514 23.9331 6.97514 23.9331 7.30477 23.7734C7.32448 23.5875 7.33126 23.4162 7.32949 23.2301C7.32973 23.1739 7.32998 23.1178 7.33023 23.0599C7.33077 22.8737 7.32986 22.6875 7.32889 22.5013C7.32886 22.3723 7.32889 22.2433 7.32899 22.1142C7.32899 21.8436 7.32829 21.573 7.32709 21.3023C7.32559 20.9549 7.32555 20.6074 7.326 20.2599C7.32622 19.9934 7.32578 19.7269 7.32513 19.4604C7.32487 19.3323 7.32479 19.2041 7.3249 19.076C7.32492 18.8971 7.32409 18.7182 7.32301 18.5394C7.32317 18.486 7.32334 18.4327 7.32351 18.3777C7.33168 18.0896 7.33168 18.0896 7.17196 17.8632C6.93114 17.8332 6.68812 17.8417 6.44564 17.8425C6.37823 17.8414 6.31081 17.8404 6.24136 17.8393C6.17669 17.8392 6.11202 17.8392 6.04538 17.8391C5.98607 17.8389 5.92675 17.8387 5.86564 17.8385C5.71221 17.8527 5.71221 17.8527 5.60336 17.9308Z" fill="black"/>
<path d="M19.7891 16.9327C21.3223 16.9281 22.8554 16.9245 24.3886 16.9224C25.1005 16.9214 25.8123 16.92 26.5242 16.9177C27.1447 16.9157 27.7652 16.9144 28.3857 16.914C28.7142 16.9137 29.0427 16.9131 29.3712 16.9117C29.6806 16.9103 29.9899 16.9099 30.2992 16.9102C30.4126 16.9101 30.526 16.9097 30.6394 16.909C30.7946 16.908 30.9497 16.9082 31.1048 16.9088C31.2349 16.9085 31.2349 16.9085 31.3677 16.9082C31.7321 16.9451 32.0535 17.0575 32.2943 17.3478C32.3411 17.4017 32.3411 17.4017 32.389 17.4567C32.5863 17.7867 32.6222 18.1395 32.6229 18.5169C32.6231 18.5602 32.6234 18.6036 32.6236 18.6483C32.6243 18.7923 32.6241 18.9363 32.6238 19.0803C32.6241 19.184 32.6244 19.2878 32.6248 19.3916C32.6257 19.6726 32.6257 19.9536 32.6256 20.2346C32.6255 20.4696 32.6258 20.7045 32.6261 20.9395C32.6269 21.4941 32.6269 22.0487 32.6265 22.6033C32.6261 23.1746 32.6269 23.7458 32.6283 24.317C32.6295 24.8083 32.6299 25.2995 32.6297 25.7908C32.6296 26.0839 32.6297 26.3769 32.6307 26.6699C32.6315 26.9456 32.6314 27.2213 32.6305 27.497C32.6304 27.5978 32.6305 27.6987 32.6311 27.7995C32.6371 28.9961 32.6371 28.9961 32.28 29.442C32.2354 29.4776 32.1908 29.5132 32.1449 29.5499C32.0782 29.6054 32.0782 29.6054 32.0102 29.662C31.7404 29.836 31.4776 29.8234 31.1622 29.822C31.0847 29.8218 31.0072 29.8217 30.9273 29.8215C30.7801 29.8206 30.7801 29.8206 30.63 29.8197C30.3177 29.8183 30.0054 29.8169 29.6837 29.8155C29.6837 30.9989 29.6837 32.1822 29.6837 33.4015C29.3105 33.2522 29.3105 33.2522 29.1265 33.1094C29.0854 33.078 29.0444 33.0466 29.0021 33.0142C28.9586 32.9804 28.9151 32.9466 28.8702 32.9117C28.4961 32.6261 28.1186 32.3474 27.733 32.0775C27.3422 31.8035 26.9534 31.5272 26.5667 31.2474C26.5179 31.2121 26.4692 31.1768 26.4189 31.1405C26.2119 30.9907 26.0049 30.8407 25.7981 30.6906C25.6862 30.6094 25.5743 30.5283 25.4623 30.4472C25.3566 30.3706 25.251 30.294 25.1455 30.2172C25.0982 30.1829 25.0508 30.1486 25.002 30.1133C24.9603 30.083 24.9185 30.0527 24.8754 30.0214C24.6745 29.8827 24.5459 29.8734 24.3038 29.8728C24.1981 29.8722 24.1981 29.8722 24.0902 29.8717C24.0126 29.8716 23.9349 29.8715 23.8549 29.8715C23.7734 29.8711 23.6919 29.8708 23.6079 29.8704C23.4303 29.8697 23.2527 29.8691 23.0751 29.8687C22.7941 29.868 22.513 29.8667 22.232 29.8652C21.4327 29.8611 20.6335 29.8575 19.8342 29.8553C19.3929 29.8541 18.9517 29.8521 18.5105 29.8494C18.277 29.848 18.0436 29.847 17.8102 29.8469C17.5494 29.8467 17.2888 29.845 17.028 29.8432C16.9126 29.8435 16.9126 29.8435 16.7948 29.8438C16.3364 29.8391 15.9744 29.8141 15.6105 29.5092C15.5801 29.4719 15.5497 29.4347 15.5184 29.3963C15.4871 29.3596 15.4559 29.3229 15.4237 29.2851C15.2064 28.9385 15.1887 28.5898 15.1941 28.1912C15.1943 28.1387 15.1945 28.0862 15.1947 28.0321C15.1954 27.8656 15.1971 27.6992 15.1988 27.5328C15.1995 27.4195 15.2001 27.3061 15.2006 27.1927C15.2021 26.916 15.2044 26.6392 15.2071 26.3624C15.2881 26.3618 15.3691 26.3612 15.4526 26.3605C15.7558 26.3579 16.059 26.3535 16.3622 26.3486C16.493 26.3468 16.6237 26.3453 16.7545 26.3444C16.9434 26.343 17.1323 26.3399 17.3212 26.3365C17.4076 26.3363 17.4076 26.3363 17.4957 26.3362C18.0739 26.3226 18.5549 26.1475 18.9923 25.7647C19.0361 25.7647 19.0799 25.7647 19.1251 25.7647C19.1415 25.7291 19.1579 25.6935 19.1749 25.6568C19.2579 25.4991 19.2579 25.4991 19.3866 25.3331C19.7331 24.8184 19.7523 24.1366 19.7514 23.5367C19.7521 23.4647 19.7528 23.3927 19.7535 23.3185C19.7555 23.0835 19.7561 22.8485 19.7567 22.6136C19.7578 22.4494 19.759 22.2853 19.7603 22.1212C19.7635 21.6915 19.7655 21.2618 19.7672 20.8321C19.7692 20.3928 19.7723 19.9534 19.7753 19.514C19.781 18.6536 19.7855 17.7932 19.7891 16.9327ZM20.918 19.2569C20.8682 19.4894 20.8682 19.4894 20.918 19.7218C21.0528 19.8951 21.1318 19.977 21.3494 20.0206C21.412 20.0207 21.4746 20.0207 21.539 20.0207C21.6111 20.0213 21.6832 20.022 21.7574 20.0227C21.8361 20.022 21.9149 20.0214 21.996 20.0207C22.1207 20.0213 22.1207 20.0213 22.248 20.0218C22.4759 20.0225 22.7038 20.022 22.9317 20.0209C23.1702 20.02 23.4088 20.0204 23.6473 20.0206C24.0479 20.0208 24.4485 20.0199 24.8491 20.0184C25.3122 20.0166 25.7752 20.0165 26.2383 20.0173C26.6838 20.018 27.1294 20.0176 27.5749 20.0166C27.7645 20.0163 27.9541 20.0163 28.1437 20.0166C28.4084 20.017 28.6731 20.0157 28.9378 20.0142C29.0559 20.0147 29.0559 20.0147 29.1763 20.0151C29.2844 20.0142 29.2844 20.0142 29.3947 20.0131C29.4573 20.013 29.5199 20.0128 29.5844 20.0127C29.7821 19.9825 29.8726 19.9262 30.0157 19.7882C30.0774 19.5809 30.1 19.4482 30.0365 19.2403C29.9294 19.0976 29.8488 19.058 29.6837 18.9913C29.5167 18.9711 29.5167 18.9711 29.3338 18.9736C29.2629 18.973 29.1921 18.9724 29.1191 18.9718C29.0417 18.9719 28.9643 18.972 28.8846 18.972C28.8028 18.9716 28.7211 18.9711 28.6368 18.9707C28.4128 18.9696 28.1887 18.9692 27.9647 18.9691C27.8247 18.969 27.6846 18.9687 27.5446 18.9684C27.0559 18.9671 26.5673 18.9666 26.0787 18.9667C25.6234 18.9668 25.1681 18.9654 24.7128 18.9633C24.3217 18.9615 23.9305 18.9608 23.5394 18.9609C23.3059 18.961 23.0724 18.9606 22.8389 18.9592C22.5785 18.9576 22.3181 18.9582 22.0577 18.959C21.9805 18.9583 21.9032 18.9576 21.8236 18.9568C21.3105 18.9521 21.3105 18.9521 20.918 19.2569ZM20.918 21.8468C20.8627 22.0792 20.8627 22.0792 20.918 22.3116C21.0639 22.4915 21.1854 22.5677 21.4156 22.6016C21.6321 22.612 21.8471 22.6131 22.0638 22.6116C22.1464 22.6121 22.2289 22.6125 22.3139 22.613C22.5398 22.614 22.7655 22.6138 22.9914 22.6129C23.2279 22.6123 23.4644 22.6129 23.7009 22.6133C24.098 22.6138 24.4951 22.6131 24.8921 22.6119C25.3511 22.6104 25.81 22.6109 26.269 22.6124C26.6633 22.6136 27.0575 22.6137 27.4518 22.613C27.6872 22.6126 27.9226 22.6126 28.158 22.6135C28.4203 22.6144 28.6826 22.6131 28.9449 22.6116C29.0619 22.6124 29.0619 22.6124 29.1813 22.6132C29.2527 22.6125 29.3241 22.6117 29.3977 22.611C29.4597 22.6109 29.5217 22.6108 29.5856 22.6107C29.8005 22.567 29.8793 22.4798 30.0157 22.3116C30.0822 22.1217 30.0977 22.0251 30.0323 21.8343C29.9469 21.6946 29.9469 21.6946 29.7501 21.5812C29.5888 21.5608 29.5888 21.5608 29.4057 21.5634C29.3343 21.5628 29.263 21.5623 29.1896 21.5617C29.1113 21.5617 29.0331 21.5618 28.9525 21.5619C28.8701 21.5614 28.7877 21.561 28.7028 21.5605C28.4766 21.5595 28.2505 21.559 28.0244 21.5589C27.8356 21.5588 27.6468 21.5583 27.4581 21.5579C27.0126 21.5568 26.5672 21.5564 26.1217 21.5565C25.6623 21.5566 25.2029 21.5552 24.7435 21.5531C24.349 21.5514 23.9545 21.5507 23.56 21.5508C23.3244 21.5508 23.0888 21.5504 22.8533 21.549C22.5905 21.5475 22.3277 21.5481 22.0649 21.5489C21.9479 21.5478 21.9479 21.5478 21.8286 21.5466C21.3126 21.5412 21.3126 21.5412 20.918 21.8468ZM20.918 24.4366C20.8627 24.669 20.8627 24.669 20.918 24.9015C21.0639 25.0813 21.1854 25.1576 21.4156 25.1914C21.6321 25.2018 21.8471 25.203 22.0638 25.2015C22.1464 25.2019 22.2289 25.2024 22.3139 25.2029C22.5398 25.2038 22.7655 25.2036 22.9914 25.2028C23.2279 25.2021 23.4644 25.2027 23.7009 25.2031C24.098 25.2036 24.4951 25.203 24.8921 25.2017C25.3511 25.2003 25.81 25.2007 26.269 25.2022C26.6633 25.2034 27.0575 25.2036 27.4518 25.2029C27.6872 25.2025 27.9226 25.2024 28.158 25.2033C28.4203 25.2042 28.6826 25.2029 28.9449 25.2015C29.0619 25.2023 29.0619 25.2023 29.1813 25.2031C29.2527 25.2023 29.3241 25.2016 29.3977 25.2008C29.4597 25.2007 29.5217 25.2006 29.5856 25.2005C29.8004 25.1569 29.8791 25.0692 30.0157 24.9015C30.0874 24.742 30.0874 24.742 30.0821 24.5694C29.9658 24.3229 29.9658 24.3229 29.7501 24.171C29.6381 24.1643 29.5258 24.1617 29.4136 24.1612C29.3068 24.1605 29.3068 24.1605 29.1978 24.1598C29.1193 24.1596 29.0409 24.1594 28.96 24.1592C28.8776 24.1588 28.7952 24.1584 28.7103 24.1579C28.4839 24.1568 28.2575 24.1561 28.0311 24.1555C27.8897 24.1552 27.7483 24.1548 27.6069 24.1544C27.1644 24.1531 26.7219 24.1521 26.2795 24.1516C25.7686 24.1509 25.2578 24.1492 24.747 24.1465C24.3523 24.1445 23.9575 24.1435 23.5627 24.1433C23.3269 24.1431 23.0911 24.1426 22.8553 24.1409C22.5922 24.1391 22.3291 24.1393 22.0659 24.1398C21.9879 24.1389 21.9098 24.1381 21.8293 24.1372C21.3129 24.131 21.3129 24.131 20.918 24.4366ZM17.797 26.9601C17.7352 27.1673 17.7127 27.3 17.7762 27.5079C17.8855 27.6537 17.9583 27.6913 18.129 27.7569C18.3485 27.777 18.3485 27.777 18.5978 27.7738C18.6686 27.7741 18.6686 27.7741 18.7409 27.7744C18.8991 27.775 19.0574 27.7745 19.2156 27.7741C19.3291 27.7743 19.4425 27.7745 19.5559 27.7748C19.8641 27.7754 20.1722 27.7752 20.4804 27.7748C20.8027 27.7744 21.125 27.7748 21.4473 27.775C21.9886 27.7752 22.5299 27.7749 23.0711 27.7743C23.6972 27.7735 24.3232 27.7738 24.9492 27.7745C25.4864 27.7751 26.0237 27.7752 26.5609 27.7748C26.8819 27.7746 27.2028 27.7746 27.5238 27.775C27.8256 27.7754 28.1273 27.7752 28.4291 27.7744C28.5399 27.7742 28.6507 27.7743 28.7615 27.7746C28.9127 27.7749 29.0637 27.7745 29.2149 27.7738C29.2995 27.7738 29.3841 27.7737 29.4713 27.7736C29.6725 27.7578 29.7833 27.7348 29.9493 27.6241C30.0759 27.4553 30.0825 27.3681 30.0738 27.1551C30.0042 26.9214 29.96 26.8785 29.7501 26.7608C29.5287 26.7308 29.5287 26.7308 29.2762 26.7355C29.2046 26.7351 29.2046 26.7351 29.1315 26.7346C28.9714 26.7338 28.8113 26.7344 28.6513 26.7351C28.5365 26.7348 28.4218 26.7344 28.307 26.734C27.9953 26.7331 27.6836 26.7335 27.3718 26.7341C27.0458 26.7346 26.7198 26.7341 26.3938 26.7338C25.8462 26.7334 25.2987 26.7339 24.7512 26.7349C24.1179 26.736 23.4847 26.7356 22.8514 26.7345C22.308 26.7336 21.7645 26.7335 21.2211 26.734C20.8964 26.7343 20.5717 26.7343 20.247 26.7337C19.9418 26.7331 19.6366 26.7335 19.3313 26.7347C19.2192 26.7349 19.1071 26.7349 18.995 26.7344C18.8421 26.7339 18.6893 26.7345 18.5364 26.7355C18.408 26.7357 18.408 26.7357 18.277 26.7358C18.0486 26.7625 17.9556 26.7964 17.797 26.9601Z" fill="black"/>
</svg>
