<svg width="43" height="43" viewBox="0 0 43 43" fill="none" xmlns="http://www.w3.org/2000/svg">
<g clip-path="url(#clip0_996_1082)">
<path d="M23.2368 6.54562C23.838 6.97709 24.4728 7.35368 25.1114 7.72665C25.2149 7.78723 25.2149 7.78723 25.3205 7.84902C28.234 9.53612 31.5321 10.7896 34.9251 10.9377C35.0268 10.9423 35.0268 10.9423 35.1306 10.9469C35.2604 10.952 35.3903 10.956 35.5202 10.9586C35.9913 10.9753 36.3308 11.0753 36.6868 11.3895C36.7262 11.4366 36.7656 11.4837 36.8062 11.5322C36.8465 11.5786 36.8868 11.6251 36.9283 11.6729C37.2037 12.1001 37.2274 12.5284 37.212 13.0229C37.2106 13.0881 37.2092 13.1532 37.2078 13.2203C37.2028 13.4328 37.1962 13.6451 37.1894 13.8575C37.1873 13.9306 37.1851 14.0036 37.1829 14.0788C37.0027 20.0807 35.5326 26.0957 31.6622 30.8224C31.601 30.8973 31.601 30.8973 31.5385 30.9738C30.8689 31.7884 30.191 32.6114 29.3821 33.2914C29.2288 33.424 29.0891 33.5634 28.9484 33.7093C28.5657 34.0972 28.1413 34.4314 27.7149 34.7696C27.596 34.8654 27.596 34.8654 27.4748 34.9632C26.1662 35.9972 24.7542 36.8852 23.2924 37.6852C23.1673 37.7539 23.0424 37.8232 22.9181 37.8933C21.7385 38.5585 21.7385 38.5585 21.0801 38.381C20.6122 38.1911 20.1762 37.9563 19.7364 37.7091C19.6413 37.6565 19.6413 37.6565 19.5442 37.6028C17.5528 36.4985 15.6784 35.1992 14.0156 33.6393C13.787 33.4233 13.787 33.4233 13.5216 33.2579C13.5216 33.2025 13.5216 33.147 13.5216 33.0899C13.4718 33.0678 13.4221 33.0456 13.3708 33.0228C13.1781 32.9179 13.0596 32.8121 12.9097 32.653C12.8587 32.5989 12.8077 32.5449 12.7551 32.4893C12.7015 32.4311 12.6478 32.373 12.5925 32.3131C12.5365 32.2527 12.4805 32.1924 12.4228 32.1302C11.916 31.5779 11.447 31.0052 11.002 30.4024C10.9621 30.3487 10.9222 30.295 10.8811 30.2396C7.3348 25.4305 5.99637 19.7635 5.80549 13.868C5.80282 13.7968 5.80014 13.7256 5.79738 13.6522C5.79006 13.4479 5.78468 13.2437 5.7799 13.0393C5.77757 12.9791 5.77523 12.919 5.77283 12.857C5.7643 12.3121 5.89266 11.8616 6.24116 11.4377C6.81487 10.9707 7.32698 10.9595 8.04157 10.9286C11.0879 10.7499 13.9538 9.81168 16.6449 8.39435C16.7969 8.31459 16.9497 8.23671 17.1027 8.15904C18.153 7.61984 19.1606 6.99353 20.1183 6.30343C21.3351 5.4291 22.1058 5.73205 23.2368 6.54562ZM19.9044 14.4454C19.791 14.4961 19.791 14.4961 19.6754 14.5478C18.7013 15.0308 18.1267 15.7113 17.7208 16.713C17.6052 17.0598 17.5559 17.342 17.5298 17.707C17.4587 18.6378 17.4587 18.6378 17.2425 18.9038C17.0699 19.0226 17.0699 19.0226 16.8895 19.1249C16.5057 19.3589 16.2724 19.7565 16.0988 20.1616C15.9912 20.6216 15.9466 21.0711 15.9449 21.543C15.9441 21.7003 15.9441 21.7003 15.9433 21.8608C15.9431 21.9738 15.9431 22.0868 15.943 22.1999C15.9427 22.3175 15.9424 22.4352 15.9421 22.5528C15.9416 22.7988 15.9415 23.0448 15.9415 23.2908C15.9415 23.604 15.9404 23.9171 15.939 24.2302C15.938 24.4731 15.9379 24.716 15.9379 24.9589C15.9378 25.0743 15.9374 25.1896 15.9368 25.3049C15.9319 26.2604 15.9296 27.2937 16.6057 28.0433C17.3361 28.7273 18.0997 28.8999 19.0851 28.9029C19.1717 28.9033 19.1717 28.9033 19.26 28.9038C19.4491 28.9046 19.6382 28.9047 19.8273 28.9048C19.96 28.9051 20.0927 28.9054 20.2254 28.9057C20.5031 28.9062 20.7807 28.9063 21.0584 28.9063C21.4122 28.9063 21.7659 28.9074 22.1197 28.9089C22.3938 28.9098 22.6678 28.91 22.9418 28.9099C23.0721 28.91 23.2025 28.9104 23.3328 28.911C24.8693 28.9319 24.8693 28.9319 26.1957 28.2421C26.8601 27.5326 27.0519 26.7843 27.0552 25.8244C27.0558 25.7195 27.0563 25.6147 27.0569 25.5066C27.057 25.3936 27.0571 25.2806 27.0571 25.1675C27.0574 25.0499 27.0577 24.9322 27.058 24.8146C27.0585 24.5685 27.0587 24.3225 27.0586 24.0765C27.0586 23.7634 27.0597 23.4503 27.0612 23.1371C27.0621 22.8942 27.0623 22.6514 27.0622 22.4085C27.0623 22.2931 27.0627 22.1778 27.0634 22.0624C27.0686 21.0505 27.0539 20.0151 26.3059 19.2473C26.0854 19.0548 25.859 18.8911 25.6153 18.7286C25.5689 18.561 25.5689 18.561 25.5474 18.3559C25.5386 18.2811 25.5298 18.2064 25.5207 18.1293C25.5121 18.0499 25.5035 17.9705 25.4946 17.8888C25.3337 16.6198 24.956 15.7769 23.9714 14.9345C23.2313 14.378 22.4246 14.1604 21.5106 14.1672C21.4441 14.1677 21.3776 14.1682 21.3091 14.1686C20.805 14.1791 20.368 14.2365 19.9044 14.4454Z" fill="black"/>
<path d="M41.8599 16.098C42.1591 16.1243 42.1591 16.1243 42.298 16.2313C42.4248 16.3939 42.4624 16.5045 42.5032 16.7056C42.5167 16.7703 42.5302 16.8351 42.5441 16.9017C42.5574 16.9708 42.5706 17.0399 42.5842 17.1111C42.6056 17.2181 42.6056 17.2181 42.6275 17.3273C43.6872 22.7557 42.6263 28.6647 39.5346 33.2833C39.4042 33.4727 39.2706 33.6588 39.1356 33.845C39.0738 33.9313 39.012 34.0175 38.9483 34.1064C38.7632 34.359 38.5733 34.6066 38.3798 34.8528C38.3178 34.932 38.2559 35.0113 38.1921 35.0929C37.1482 36.3762 35.9275 37.6474 34.5791 38.6111C34.4169 38.7272 34.257 38.8461 34.0969 38.9651C29.5486 42.3028 23.7284 43.587 18.1726 42.7926C14.9159 42.2753 11.5153 41.0505 8.93468 38.9486C8.7925 38.8333 8.7925 38.8333 8.56532 38.7161C8.33996 38.7573 8.33996 38.7573 8.1454 38.884C8.0582 38.9271 8.0582 38.9271 7.96923 38.971C7.85896 39.0286 7.74873 39.0864 7.63854 39.1442C6.93158 39.4689 5.83737 39.4135 5.11147 39.1675C4.20131 38.7695 3.47017 38.0491 3.10634 37.1204C2.7921 36.1776 2.8882 35.2582 3.27431 34.3489C3.73783 33.4891 4.44958 32.8989 5.37392 32.5852C6.32097 32.3512 7.32638 32.4497 8.1687 32.951C8.33866 33.0727 8.49369 33.2016 8.64931 33.3411C8.70106 33.3842 8.75281 33.4272 8.80612 33.4716C9.43471 34.0355 9.75484 34.8597 9.82509 35.6926C9.83185 36.3217 9.71514 36.8527 9.4757 37.433C9.39064 37.6297 9.39064 37.6297 9.40517 37.8762C9.52178 37.9918 9.52178 37.9918 9.68271 38.0918C9.7733 38.1523 9.7733 38.1523 9.86573 38.214C9.932 38.2567 9.99827 38.2994 10.0665 38.3434C10.1349 38.388 10.2032 38.4326 10.2736 38.4785C14.9135 41.4688 20.4001 42.5164 25.8189 41.3931C29.3783 40.5968 32.46 38.9162 35.1884 36.5325C35.2654 36.4658 35.3425 36.3991 35.422 36.3304C35.791 36.0058 36.1361 35.6761 36.4521 35.2996C36.578 35.1499 36.7073 35.003 36.8379 34.8574C40.4185 30.8437 42.0731 25.4944 41.8113 20.1671C41.7536 19.2537 41.6209 18.3626 41.4228 17.4691C41.334 17.0517 41.2998 16.7158 41.4032 16.2922C41.5712 16.1243 41.5712 16.1243 41.8599 16.098Z" fill="black"/>
<path d="M32.6694 3.10691C32.9607 2.96706 33.224 2.79988 33.4928 2.62138C34.216 2.21988 35.1518 2.24772 35.9487 2.39994C36.746 2.67799 37.4144 3.35351 37.7836 4.09832C38.0806 4.8173 38.0931 5.77958 37.8239 6.50828C37.4284 7.33255 36.8644 7.90608 36.0182 8.26145C35.2216 8.52405 34.4043 8.49187 33.6322 8.16763C32.8368 7.7617 32.2831 7.13583 31.9712 6.29635C31.8024 5.56538 31.845 4.7403 32.0815 4.03074C32.0267 4.01093 31.9719 3.99112 31.9155 3.97071C31.6512 3.85836 31.4068 3.7264 31.1556 3.58779C26.5158 1.04501 20.9577 0.515446 15.8851 1.93839C14.4786 2.35315 13.134 2.92146 11.8412 3.61082C11.7867 3.63947 11.7323 3.66812 11.6761 3.69763C10.2908 4.43005 9.05885 5.33785 7.89398 6.3823C7.80584 6.46006 7.7177 6.53781 7.62956 6.61556C6.05973 8.01268 4.81688 9.68405 3.77874 11.5054C3.74567 11.5625 3.71259 11.6197 3.67852 11.6786C1.47438 15.5183 0.812999 20.0187 1.37207 24.3658C1.51057 25.5013 1.51057 25.5013 1.29595 25.7932C1.01097 25.8955 0.79524 25.8444 0.503352 25.7827C-1.04826 21.7626 0.263409 16.2823 1.93109 12.5132C3.07808 9.96849 4.81806 7.40162 6.97605 5.59462C7.14707 5.45095 7.3099 5.30024 7.47406 5.14878C13.7748 -0.423296 23.183 -1.48872 32.6694 3.10691Z" fill="black"/>
<path d="M23.4097 15.6136C24.0005 16.109 24.3369 16.6382 24.5234 17.3845C24.5234 17.7448 24.5234 18.1051 24.5234 18.4763C22.528 18.4763 20.5325 18.4763 18.4766 18.4763C18.4766 17.4488 18.5437 16.6563 19.2767 15.9102C20.4073 14.8796 22.1366 14.7237 23.4097 15.6136Z" fill="black"/>
<path d="M22.0043 21.1643C22.3012 21.3515 22.4608 21.5137 22.5922 21.8362C22.6145 22.035 22.6145 22.035 22.6132 22.2456C22.6136 22.3147 22.614 22.3838 22.6145 22.4549C22.5922 22.6761 22.5922 22.6761 22.5021 22.9112C22.4151 23.2113 22.4317 23.3687 22.4997 23.6707C22.5191 23.7616 22.5386 23.8524 22.5587 23.946C22.5909 24.0865 22.5909 24.0865 22.6237 24.2298C22.665 24.416 22.7059 24.6024 22.7464 24.7888C22.7744 24.912 22.7744 24.912 22.8029 25.0376C22.8645 25.399 22.8884 25.6831 22.7391 26.0217C22.3628 26.3178 21.9648 26.2641 21.5004 26.2559C21.3627 26.2583 21.3627 26.2583 21.2222 26.2608C20.5737 26.2568 20.5737 26.2568 20.2564 26.0479C19.9832 25.3238 20.3219 24.3866 20.476 23.6532C20.4913 23.5751 20.5066 23.497 20.5224 23.4165C20.5368 23.3467 20.5513 23.277 20.5661 23.2051C20.5785 22.9766 20.521 22.8717 20.4086 22.6761C20.3501 22.264 20.3669 21.9278 20.5398 21.5475C20.9839 21.0806 21.4068 21.0198 22.0043 21.1643Z" fill="black"/>
</g>
<defs>
<clipPath id="clip0_996_1082">
<rect width="43" height="43" fill="white"/>
</clipPath>
</defs>
</svg>
