<svg width="34" height="34" viewBox="0 0 34 34" fill="none" xmlns="http://www.w3.org/2000/svg">
<g clip-path="url(#clip0_268_1495)">
<path d="M10.1442 8.14849C10.2083 8.14764 10.2724 8.14679 10.3384 8.14592C10.4075 8.14577 10.4766 8.14562 10.5478 8.14547C10.6545 8.14481 10.6545 8.14481 10.7634 8.14413C10.914 8.14346 11.0646 8.14315 11.2152 8.14317C11.4455 8.14288 11.6757 8.14047 11.906 8.13795C12.0523 8.13756 12.1986 8.13729 12.3449 8.13717C12.4137 8.13621 12.4826 8.13526 12.5535 8.13428C13.032 8.13731 13.032 8.13731 13.29 8.2942C13.531 8.56454 13.4906 8.82623 13.4908 9.17195C13.4912 9.26729 13.4912 9.26729 13.4916 9.36455C13.4925 9.57887 13.4929 9.79318 13.4933 10.0075C13.4939 10.1606 13.4944 10.3137 13.495 10.4669C13.4967 10.9709 13.4977 11.4749 13.4987 11.9789C13.4991 12.1522 13.4994 12.3254 13.4998 12.4987C13.5012 13.2193 13.5025 13.94 13.5032 14.6606C13.5034 14.8476 13.5036 15.0347 13.5038 15.2217C13.5038 15.2682 13.5039 15.3147 13.5039 15.3626C13.5048 16.1157 13.507 16.8689 13.5098 17.622C13.5126 18.3951 13.5141 19.1681 13.5145 19.9412C13.5147 20.3753 13.5155 20.8094 13.5177 21.2435C13.5197 21.6519 13.5201 22.0602 13.5193 22.4686C13.5193 22.6186 13.5198 22.7685 13.521 22.9185C13.5225 23.1231 13.522 23.3276 13.5209 23.5322C13.5223 23.6214 13.5223 23.6214 13.5237 23.7124C13.5201 23.994 13.5024 24.1815 13.3245 24.4067C13.1038 24.6116 12.9548 24.6446 12.6648 24.6472C12.6076 24.6479 12.5504 24.6485 12.4915 24.6492C12.4298 24.6494 12.3682 24.6497 12.3047 24.65C12.2092 24.6506 12.2092 24.6506 12.1119 24.6512C11.9772 24.6518 11.8425 24.6522 11.7078 24.6525C11.5023 24.6531 11.2968 24.6552 11.0913 24.6573C10.9604 24.6577 10.8294 24.6581 10.6985 24.6583C10.6372 24.6591 10.576 24.66 10.5129 24.6608C10.1707 24.6596 9.91862 24.6404 9.62898 24.4373C9.38479 24.1352 9.40167 23.8507 9.40446 23.4802C9.40415 23.4169 9.40384 23.3537 9.40352 23.2886C9.40272 23.0765 9.40335 22.8645 9.40398 22.6525C9.40371 22.5006 9.40335 22.3486 9.40292 22.1967C9.40201 21.7838 9.40237 21.371 9.403 20.9582C9.4035 20.5264 9.40303 20.0947 9.40272 19.663C9.40233 18.8915 9.40295 18.12 9.40397 17.3484C9.40486 16.649 9.4047 15.9495 9.40378 15.2501C9.40272 14.4377 9.40232 13.6254 9.40291 12.813C9.40322 12.383 9.40326 11.953 9.4026 11.5231C9.40203 11.1188 9.40243 10.7146 9.40358 10.3104C9.40384 10.1619 9.40377 10.0134 9.40333 9.86494C9.40279 9.66252 9.40346 9.46014 9.40446 9.25772C9.40402 9.19871 9.40357 9.1397 9.40311 9.0789C9.40611 8.76549 9.42258 8.55326 9.62898 8.30059C9.84176 8.15874 9.89933 8.15069 10.1442 8.14849Z" fill="#383838"/>
<path d="M22.6215 5.49917C22.6855 5.4981 22.7496 5.49704 22.8156 5.49594C23.1087 5.49299 23.4018 5.49026 23.695 5.48873C23.8496 5.48763 24.0043 5.48582 24.1589 5.48328C24.3817 5.47965 24.6045 5.47819 24.8273 5.47722C24.9309 5.47496 24.9309 5.47496 25.0365 5.47266C25.5162 5.47406 25.5162 5.47406 25.775 5.66771C25.9765 5.95446 25.9735 6.17013 25.9733 6.51341C25.9733 6.56158 25.9734 6.60974 25.9735 6.65937C25.9736 6.82119 25.9732 6.983 25.9728 7.14482C25.9728 7.26065 25.9728 7.37648 25.9729 7.49231C25.9729 7.80717 25.9725 8.12202 25.972 8.43688C25.9716 8.76578 25.9716 9.09468 25.9715 9.42357C25.9713 10.0466 25.9708 10.6696 25.9701 11.2926C25.9693 12.0017 25.969 12.7109 25.9686 13.4201C25.9679 14.8791 25.9668 16.3381 25.9653 17.7971C25.9049 17.7769 25.9049 17.7769 25.8432 17.7562C25.7899 17.7384 25.7367 17.7206 25.6818 17.7022C25.6292 17.6846 25.5766 17.667 25.5223 17.6488C25.3143 17.5804 25.1049 17.5177 24.8945 17.4568C24.7812 17.4237 24.7812 17.4237 24.6657 17.3899C24.1916 17.27 23.7368 17.2556 23.2509 17.2576C23.1884 17.2573 23.1258 17.2571 23.0613 17.2568C22.9994 17.2569 22.9375 17.257 22.8738 17.2571C22.8187 17.2571 22.7635 17.2572 22.7068 17.2573C22.5364 17.2648 22.3705 17.2803 22.2012 17.2996C22.1206 17.3088 22.1206 17.3088 22.0384 17.3181C21.9975 17.3228 21.9566 17.3275 21.9145 17.3323C21.9083 15.8488 21.9036 14.3653 21.9008 12.8818C21.8994 12.193 21.8975 11.5042 21.8945 10.8154C21.8918 10.2151 21.8901 9.61482 21.8895 9.01452C21.8892 8.69661 21.8884 8.37871 21.8864 8.06081C21.8846 7.76162 21.8841 7.46246 21.8845 7.16327C21.8844 7.05344 21.8839 6.9436 21.8829 6.83377C21.8815 6.6838 21.8819 6.53393 21.8826 6.38396C21.8823 6.30004 21.8821 6.21612 21.8818 6.12965C21.9204 5.87116 21.9982 5.76228 22.1801 5.57838C22.3397 5.4986 22.4432 5.50186 22.6215 5.49917Z" fill="#383838"/>
<path d="M3.9535 12.9367C4.01602 12.9356 4.07854 12.9345 4.14295 12.9334C4.42934 12.9305 4.71572 12.9278 5.00212 12.9262C5.1531 12.9251 5.30407 12.9233 5.45503 12.9208C5.67275 12.9171 5.89039 12.9157 6.10814 12.9147C6.17539 12.9132 6.24264 12.9117 6.31192 12.9102C6.61185 12.9111 6.83728 12.9127 7.08043 13.1011C7.32542 13.3815 7.31286 13.6063 7.31381 13.9718C7.31419 14.0592 7.31457 14.1466 7.31496 14.2367C7.31504 14.3334 7.31512 14.4302 7.31519 14.527C7.31549 14.629 7.31583 14.731 7.31619 14.833C7.31706 15.11 7.31748 15.387 7.31778 15.664C7.31797 15.8372 7.31825 16.0103 7.31854 16.1834C7.31945 16.7253 7.32009 17.2672 7.32035 17.8091C7.32065 18.4343 7.32181 19.0594 7.32374 19.6846C7.32517 20.1681 7.32584 20.6516 7.32593 21.1351C7.326 21.4238 7.32639 21.7124 7.32758 22.0011C7.32867 22.2727 7.32882 22.5443 7.32823 22.8159C7.32818 22.9154 7.32847 23.0149 7.32913 23.1144C7.33502 24.0628 7.33502 24.0628 7.10527 24.4378C6.77692 24.6828 6.43594 24.6661 6.04277 24.6634C5.97942 24.6636 5.91608 24.6638 5.85081 24.664C5.71731 24.6642 5.5838 24.6638 5.4503 24.663C5.24655 24.6619 5.0429 24.6629 4.83915 24.6642C4.70911 24.6641 4.57906 24.6638 4.44902 24.6634C4.35811 24.664 4.35811 24.664 4.26536 24.6647C3.92406 24.6609 3.67955 24.6326 3.38652 24.4378C3.22659 24.1979 3.23674 24.0888 3.23595 23.8034C3.23564 23.759 3.23534 23.7146 3.23503 23.6688C3.23419 23.5197 3.2343 23.3706 3.23441 23.2215C3.23401 23.1147 3.23356 23.0079 3.23306 22.9011C3.23188 22.6108 3.23158 22.3205 3.23149 22.0301C3.23136 21.7879 3.23088 21.5456 3.23041 21.3034C3.22932 20.7318 3.229 20.1603 3.22909 19.5888C3.22917 18.999 3.22777 18.4092 3.22567 17.8195C3.22394 17.3133 3.22323 16.8072 3.22331 16.301C3.22334 15.9986 3.22296 15.6962 3.22156 15.3938C3.22028 15.1094 3.22026 14.825 3.22123 14.5406C3.22137 14.4362 3.22105 14.3319 3.22025 14.2275C3.21923 14.0849 3.21984 13.9425 3.22087 13.8C3.2208 13.7202 3.22072 13.6405 3.22065 13.5583C3.26028 13.3061 3.34239 13.1964 3.51933 13.0159C3.67714 12.937 3.77734 12.9394 3.9535 12.9367Z" fill="#383838"/>
<path d="M16.3854 10.8039C16.4495 10.8028 16.5136 10.8018 16.5796 10.8007C16.6487 10.8003 16.7178 10.8 16.789 10.7996C16.8601 10.799 16.9313 10.7984 17.0046 10.7978C17.1552 10.7968 17.3058 10.7962 17.4564 10.796C17.6867 10.7952 17.9169 10.7919 18.1472 10.7886C18.2935 10.7879 18.4398 10.7875 18.5861 10.7871C18.6549 10.7858 18.7238 10.7845 18.7947 10.7832C19.2739 10.7862 19.2739 10.7862 19.5312 10.9843C19.6885 11.2023 19.7301 11.3081 19.7337 11.5717C19.7352 11.6606 19.7352 11.6606 19.7366 11.7514C19.7373 11.8166 19.738 11.8818 19.7388 11.949C19.7397 12.0176 19.7407 12.0862 19.7417 12.1568C19.7501 12.7896 19.7546 13.4224 19.7582 14.0552C19.7605 14.4805 19.7641 14.9057 19.7705 15.331C19.7766 15.7419 19.7799 16.1528 19.781 16.5637C19.782 16.7204 19.7839 16.877 19.787 17.0335C19.791 17.253 19.7913 17.4721 19.7906 17.6916C19.7927 17.7562 19.7947 17.8207 19.7968 17.8873C19.7926 18.1637 19.7839 18.3279 19.5906 18.5351C19.4396 18.6526 19.2849 18.756 19.1241 18.8594C18.0914 19.8356 17.3147 21.2946 17.2586 22.7348C17.2558 22.9109 17.2556 23.0868 17.2564 23.2629C17.2562 23.3218 17.2559 23.3807 17.2556 23.4413C17.2562 23.8434 17.2839 24.2375 17.3311 24.6367C17.1609 24.6403 16.9908 24.643 16.8206 24.645C16.7727 24.6461 16.7248 24.6473 16.6755 24.6484C16.3989 24.6509 16.1776 24.6449 15.9366 24.5039C15.7084 24.2782 15.6404 24.1149 15.6357 23.7934C15.6364 23.7445 15.637 23.6955 15.6377 23.6451C15.6371 23.5661 15.6371 23.5661 15.6366 23.4855C15.6357 23.3093 15.6367 23.1331 15.6376 22.9569C15.6374 22.8304 15.637 22.704 15.6366 22.5776C15.6356 22.2343 15.6364 21.891 15.6375 21.5477C15.6384 21.1886 15.638 20.8295 15.6377 20.4703C15.6375 19.8672 15.6384 19.2641 15.64 18.6609C15.6417 17.9635 15.6419 17.2661 15.6411 16.5687C15.6404 15.8979 15.6408 15.2272 15.6417 14.5565C15.6421 14.2709 15.6421 13.9854 15.6418 13.6999C15.6415 13.3637 15.6421 13.0275 15.6436 12.6913C15.6439 12.5679 15.644 12.4444 15.6436 12.321C15.6432 12.1526 15.6441 11.9842 15.6452 11.8158C15.6448 11.7669 15.6444 11.718 15.644 11.6676C15.6476 11.375 15.6891 11.1889 15.8702 10.957C16.0826 10.8154 16.1409 10.8069 16.3854 10.8039Z" fill="#383838"/>
<path d="M23.2299 19.6359C23.2824 19.6362 23.3348 19.6366 23.3888 19.637C24.3685 19.6573 25.2251 20.0505 25.929 20.731C26.6289 21.5073 26.953 22.4386 26.9155 23.4814C26.8292 24.4212 26.4735 25.3175 25.7658 25.9652C24.8813 26.6889 23.9142 26.9903 22.7775 26.8949C21.7764 26.7174 20.9469 26.2702 20.3177 25.4581C19.7033 24.5399 19.4964 23.4809 19.7042 22.3956C19.9793 21.4559 20.533 20.6355 21.383 20.1214C21.985 19.8046 22.5505 19.6307 23.2299 19.6359Z" fill="#383838"/>
<path d="M1.11986 0.845215C1.16643 0.845557 1.21299 0.8459 1.26097 0.846252C1.30754 0.84591 1.35411 0.845568 1.40208 0.845215C1.5266 0.862854 1.5266 0.862854 1.65941 0.995666C1.6759 1.17354 1.6759 1.17354 1.67575 1.40507C1.6759 1.44771 1.67606 1.49036 1.67622 1.5343C1.67657 1.67858 1.67597 1.82283 1.67538 1.96711C1.67544 2.07104 1.67555 2.17497 1.67572 2.27889C1.67602 2.56555 1.67549 2.8522 1.67482 3.13886C1.67425 3.44758 1.67444 3.75629 1.67454 4.06501C1.67461 4.60025 1.6742 5.13548 1.67345 5.67071C1.67237 6.44458 1.67203 7.21844 1.67186 7.99231C1.67157 9.24774 1.67068 10.5032 1.66943 11.7586C1.66821 12.9784 1.66727 14.1982 1.6667 15.418C1.66667 15.4932 1.66663 15.5683 1.6666 15.6457C1.66643 16.0227 1.66626 16.3996 1.66609 16.7766C1.66471 19.9056 1.66237 23.0346 1.65941 26.1636C1.78454 26.1627 1.78454 26.1627 1.9122 26.1618C3.89266 26.1474 5.8731 26.1364 7.8536 26.1297C8.09739 26.1289 8.34118 26.128 8.58497 26.1272C8.6335 26.127 8.68203 26.1268 8.73204 26.1266C9.51779 26.1237 10.3035 26.1185 11.0892 26.1124C11.8955 26.1062 12.7018 26.1025 13.5082 26.1012C14.0057 26.1002 14.5031 26.0974 15.0006 26.092C15.3822 26.088 15.7637 26.0876 16.1453 26.0885C16.3017 26.0883 16.4582 26.087 16.6147 26.0845C17.7981 26.0662 17.7981 26.0662 18.1247 26.3095C18.2489 26.4811 18.3273 26.6274 18.3938 26.8277C18.4157 26.8934 18.4376 26.9592 18.4602 27.0269C16.2567 27.0315 14.0532 27.035 11.8498 27.0371C11.5898 27.0373 11.3297 27.0376 11.0697 27.0379C11.018 27.0379 10.9662 27.038 10.9129 27.038C10.0742 27.0389 9.2355 27.0405 8.39681 27.0423C7.53656 27.0441 6.6763 27.0453 5.81604 27.0457C5.285 27.0459 4.75397 27.0468 4.22294 27.0484C3.81608 27.0496 3.40922 27.0497 3.00236 27.0494C2.8352 27.0495 2.66805 27.0499 2.5009 27.0507C2.27328 27.0516 2.0457 27.0514 1.81809 27.0509C1.75143 27.0515 1.68476 27.052 1.61608 27.0526C1.55518 27.0522 1.49427 27.0518 1.43152 27.0514C1.3527 27.0515 1.3527 27.0515 1.27228 27.0517C1.0805 27.0187 0.995383 26.9707 0.862534 26.8277C0.82939 26.6375 0.82939 26.6375 0.829478 26.4001C0.829132 26.3563 0.828785 26.3125 0.828429 26.2674C0.827588 26.1195 0.828652 25.9718 0.829697 25.8239C0.829486 25.7173 0.829159 25.6107 0.828726 25.5041C0.827871 25.2102 0.828682 24.9164 0.829757 24.6226C0.830628 24.306 0.829973 23.9895 0.829507 23.6729C0.828836 23.0525 0.829588 22.4321 0.830815 21.8117C0.832192 21.0898 0.832185 20.3679 0.83212 19.6461C0.832054 18.3585 0.833272 17.0709 0.835199 15.7833C0.837071 14.5327 0.838011 13.282 0.837923 12.0314C0.837915 11.9158 0.837915 11.9158 0.837907 11.7979C0.837902 11.721 0.837896 11.6441 0.837891 11.5649C0.837799 10.1429 0.838581 8.72081 0.83977 7.29875C0.840172 6.79503 0.840312 6.29132 0.840372 5.78761C0.840463 5.17418 0.841053 4.56075 0.842276 3.94732C0.842891 3.63407 0.843293 3.32083 0.843127 3.00758C0.842982 2.72123 0.843445 2.43488 0.844408 2.14853C0.84465 2.04455 0.844665 1.94056 0.844439 1.83658C0.844167 1.696 0.8447 1.55545 0.845449 1.41488C0.845543 1.33657 0.845636 1.25825 0.845733 1.17757C0.865105 0.967825 0.900453 0.876297 1.11986 0.845215Z" fill="#383838"/>
<path d="M26.3466 18.8504C26.4896 18.9595 26.6257 19.0734 26.7614 19.1915C26.8198 19.2358 26.8198 19.2358 26.8794 19.281C27.8473 20.0338 28.3925 21.2946 28.5933 22.475C28.7365 23.7043 28.5236 24.8294 27.936 25.9193C27.8108 26.1701 27.7684 26.3462 27.8239 26.629C27.9556 26.8297 28.1186 26.9918 28.2887 27.1603C28.3477 27.2201 28.4067 27.2799 28.4675 27.3416C28.6282 27.5036 28.79 27.6644 28.9528 27.8243C28.8651 28.019 28.7704 28.1555 28.6182 28.3047C28.5604 28.3619 28.5604 28.3619 28.5015 28.4202C28.4614 28.4591 28.4213 28.4981 28.3801 28.5382C28.3395 28.5782 28.2989 28.6181 28.2571 28.6593C28.1573 28.7576 28.057 28.8554 27.9567 28.9532C27.7558 28.8635 27.6193 28.7639 27.4664 28.6064C27.4057 28.5446 27.4057 28.5446 27.3438 28.4815C27.3022 28.4386 27.2607 28.3956 27.2179 28.3514C27.1349 28.2661 27.0517 28.1809 26.9684 28.0959C26.9318 28.0581 26.8953 28.0204 26.8576 27.9815C26.7089 27.8412 26.6293 27.8244 26.4218 27.8043C26.1052 27.8288 25.8975 27.9321 25.62 28.0775C24.3136 28.7276 22.8359 28.8003 21.4541 28.3387C20.0582 27.8344 19.0203 26.8397 18.3733 25.5177C17.7873 24.2431 17.744 22.7656 18.1994 21.4428C18.7484 20.0386 19.6683 19.0267 21.0256 18.3697C22.7789 17.6043 24.7657 17.7807 26.3466 18.8504ZM20.1208 20.254C20.0796 20.2931 20.0384 20.3322 19.996 20.3725C19.2064 21.1763 18.8899 22.3316 18.8976 23.4273C18.9344 24.6138 19.4283 25.6548 20.2851 26.4714C21.1951 27.2903 22.2931 27.6673 23.508 27.6453C24.6916 27.575 25.7619 27.0306 26.5622 26.1642C27.3058 25.2795 27.675 24.1864 27.6478 23.0363C27.5324 21.7426 26.9419 20.6509 25.9619 19.8006C24.157 18.4766 21.6815 18.6235 20.1208 20.254Z" fill="#383838"/>
<path d="M30.0156 28.3555C30.137 28.441 30.137 28.441 30.2618 28.5554C30.3082 28.5977 30.3547 28.6401 30.4025 28.6837C30.6428 28.9112 30.88 29.1414 31.1147 29.3747C31.1665 29.4262 31.2184 29.4776 31.2718 29.5306C31.3804 29.6387 31.4889 29.7468 31.5974 29.8549C31.7632 30.0201 31.9296 30.1845 32.0961 30.3489C32.2021 30.4544 32.3079 30.5599 32.4138 30.6655C32.4634 30.7143 32.513 30.763 32.5641 30.8133C32.9242 31.175 33.1651 31.4771 33.1658 32.0079C33.1565 32.3491 33.1093 32.5473 32.8711 32.8047C32.579 33.0621 32.416 33.1483 32.0286 33.1575C31.9275 33.1613 31.9275 33.1613 31.8244 33.1651C31.2556 33.0903 30.8891 32.6431 30.5059 32.2543C30.4463 32.1946 30.3867 32.1348 30.3252 32.0733C30.1999 31.9475 30.0747 31.8215 29.9499 31.6952C29.7898 31.5332 29.6291 31.3718 29.4682 31.2106C29.3145 31.0565 29.161 30.9021 29.0076 30.7477C28.921 30.6607 28.921 30.6607 28.8326 30.5718C28.7796 30.5182 28.7266 30.4646 28.672 30.4093C28.6252 30.362 28.5783 30.3147 28.5301 30.266C28.3835 30.1069 28.357 30.0253 28.3223 29.8082C28.3702 29.437 28.5612 29.2764 28.8203 29.0196C28.8992 28.9383 28.8992 28.9383 28.9796 28.8554C29.5305 28.2929 29.5305 28.2929 30.0156 28.3555Z" fill="#383838"/>
<path d="M22.6155 0.842773C22.9614 0.850123 23.2992 0.889725 23.6406 0.942383C23.6899 0.949076 23.7392 0.955769 23.7899 0.962665C24.0044 0.99923 24.1474 1.04031 24.3091 1.18855C24.4083 1.51845 24.3495 1.82173 24.3005 2.15845C24.2924 2.22701 24.2842 2.29558 24.2758 2.36623C24.1885 3.00702 24.1885 3.00702 23.9062 3.25415C23.6949 3.28865 23.573 3.28892 23.3833 3.18774C23.2618 2.97172 23.2966 2.76846 23.3086 2.52368C22.8136 2.89262 22.3218 3.26562 21.8311 3.64014C21.3976 3.97074 20.9638 4.30067 20.5278 4.62793C20.4865 4.65903 20.4451 4.69013 20.4025 4.72217C20.2869 4.80879 20.1709 4.89485 20.0547 4.98071C19.9914 5.02804 19.9914 5.02804 19.9267 5.07633C19.6052 5.31274 19.6052 5.31274 19.457 5.31274C19.3651 5.18226 19.2769 5.04908 19.1914 4.91431C19.1256 4.82531 19.0593 4.73667 18.9922 4.64868C19.4958 4.2124 20.0183 3.81092 20.5566 3.41859C20.9926 3.10007 21.42 2.77171 21.8443 2.43776C22.1281 2.21486 22.4157 2.00071 22.7109 1.79321C22.637 1.76445 22.563 1.73569 22.4868 1.70605C22.2461 1.59399 22.2461 1.59399 22.1133 1.39478C22.145 1.00584 22.2131 0.844616 22.6155 0.842773Z" fill="#383838"/>
<path d="M12.1771 2.70609C12.4877 2.9723 12.7144 3.23968 12.767 3.65471C12.7869 4.04139 12.709 4.33173 12.4843 4.64847C12.1981 4.95741 11.9136 5.10043 11.4965 5.13407C11.075 5.12216 10.7251 4.93962 10.4257 4.64847C10.2111 4.31121 10.1117 3.95776 10.1914 3.56366C10.3018 3.2005 10.4243 2.90432 10.7663 2.70791C11.259 2.48043 11.6902 2.45361 12.1771 2.70609Z" fill="#383838"/>
<path d="M18.2023 4.95905C18.5519 5.14462 18.7758 5.4101 18.9509 5.76033C19.0332 6.18822 18.9957 6.63384 18.7491 7.00286C18.5134 7.27441 18.2803 7.41189 17.9237 7.47133C17.4632 7.495 17.1502 7.43349 16.7839 7.14838C16.483 6.86296 16.4151 6.59129 16.3818 6.19197C16.3888 5.81913 16.5258 5.5277 16.7823 5.25891C17.1883 4.89858 17.6707 4.78614 18.2023 4.95905Z" fill="#383838"/>
<path d="M5.93059 6.95232C6.22849 7.20865 6.48292 7.45419 6.52332 7.86411C6.53481 8.29298 6.49781 8.61261 6.24187 8.96526C5.94865 9.25848 5.66175 9.34915 5.25408 9.3886C4.88654 9.37667 4.59415 9.2367 4.32932 8.98393C4.0131 8.62772 3.96347 8.35666 3.97031 7.88408C3.99756 7.52614 4.14775 7.32499 4.40325 7.08928C4.87218 6.71707 5.39705 6.68051 5.93059 6.95232Z" fill="#383838"/>
<path d="M9.5625 4.58203C9.71606 4.73114 9.82895 4.87593 9.94019 5.05933C9.9692 5.10684 9.99822 5.15434 10.0281 5.20329C10.0606 5.25735 10.0606 5.25735 10.0938 5.3125C9.51834 5.73393 8.93124 6.13659 8.33813 6.53271C8.26974 6.57851 8.20134 6.62431 8.13087 6.67149C7.79499 6.89498 7.45924 7.11064 7.10547 7.30469C6.95207 7.08555 6.79867 6.86641 6.64062 6.64062C6.90143 6.35893 7.18248 6.15568 7.50391 5.94751C7.60958 5.87809 7.71524 5.80866 7.82089 5.73921C7.87668 5.70271 7.93247 5.66622 7.98996 5.62861C8.30781 5.41989 8.62374 5.20828 8.93994 4.99707C9.05978 4.91716 9.17962 4.83727 9.29947 4.75739C9.35028 4.72351 9.4011 4.68963 9.45345 4.65473C9.48944 4.63074 9.52542 4.60675 9.5625 4.58203Z" fill="#383838"/>
<path d="M13.4805 4.11719C14.3293 4.40871 15.1698 4.71544 16.0039 5.04688C15.9154 5.3125 15.8268 5.57812 15.7383 5.84375C15.3977 5.80625 15.0995 5.72674 14.7801 5.60121C14.7352 5.58393 14.6903 5.56665 14.6441 5.54885C14.5501 5.51253 14.4563 5.47597 14.3625 5.43917C14.2185 5.38277 14.0742 5.32742 13.9297 5.27216C13.8382 5.23664 13.7468 5.20107 13.6553 5.16542C13.5905 5.14062 13.5905 5.14062 13.5243 5.11531C13.2225 4.99575 13.2225 4.99575 13.1484 4.84766C13.2146 4.6749 13.2146 4.6749 13.3103 4.47412C13.3417 4.40752 13.3731 4.34092 13.4055 4.27231C13.4302 4.22112 13.455 4.16993 13.4805 4.11719Z" fill="#383838"/>
</g>
<defs>
<clipPath id="clip0_268_1495">
<rect width="34" height="34" fill="white"/>
</clipPath>
</defs>
</svg>
