<svg width="50" height="50" viewBox="0 0 50 50" fill="none" xmlns="http://www.w3.org/2000/svg">
<g clip-path="url(#clip0_1_645)">
<path d="M14.8779 7.43896C12.905 7.43896 11.0129 8.22271 9.61779 9.61779C8.22271 11.0129 7.43896 12.905 7.43896 14.8779V34.7152C7.43896 36.6882 8.22271 38.5803 9.61779 39.9754C11.0129 41.3705 12.905 42.1542 14.8779 42.1542H25.3446L25.8703 40.0589C25.9033 39.93 25.9389 39.8018 25.9769 39.6746H14.8779C13.5627 39.6746 12.3012 39.1521 11.3712 38.222C10.4411 37.292 9.91863 36.0305 9.91863 34.7152V17.3576H39.6746V24.6577L39.93 24.4023C40.5896 23.7427 41.3458 23.2369 42.1542 22.8922V14.8779C42.1542 12.905 41.3705 11.0129 39.9754 9.61779C38.5803 8.22271 36.6882 7.43896 34.7152 7.43896H14.8779ZM9.91863 14.8779C9.91863 13.5627 10.4411 12.3012 11.3712 11.3712C12.3012 10.4411 13.5627 9.91863 14.8779 9.91863H34.7152C36.0305 9.91863 37.292 10.4411 38.222 11.3712C39.1521 12.3012 39.6746 13.5627 39.6746 14.8779H9.91863ZM22.5748 20.1993C22.6903 20.3145 22.7819 20.4513 22.8444 20.6019C22.9069 20.7525 22.9391 20.914 22.9391 21.0771C22.9391 21.2402 22.9069 21.4017 22.8444 21.5523C22.7819 21.7029 22.6903 21.8397 22.5748 21.9549L17.251 27.2763L22.5748 32.5976C22.8076 32.8304 22.9384 33.1462 22.9384 33.4754C22.9384 33.8046 22.8076 34.1204 22.5748 34.3532C22.342 34.586 22.0263 34.7168 21.697 34.7168C21.3678 34.7168 21.052 34.586 20.8192 34.3532L14.6201 28.1541C14.5046 28.0389 14.413 27.9021 14.3505 27.7514C14.288 27.6008 14.2558 27.4393 14.2558 27.2763C14.2558 27.1132 14.288 26.9517 14.3505 26.8011C14.413 26.6504 14.5046 26.5136 14.6201 26.3985L20.8192 20.1993C20.9344 20.0838 21.0712 19.9922 21.2218 19.9297C21.3725 19.8672 21.5339 19.8351 21.697 19.8351C21.8601 19.8351 22.0216 19.8672 22.1722 19.9297C22.3228 19.9922 22.4596 20.0838 22.5748 20.1993ZM28.774 20.1993C28.5412 19.9665 28.2254 19.8357 27.8962 19.8357C27.5669 19.8357 27.2512 19.9665 27.0184 20.1993C26.7856 20.4321 26.6548 20.7479 26.6548 21.0771C26.6548 21.4063 26.7856 21.7221 27.0184 21.9549L32.3422 27.2763L27.0184 32.5976C26.9031 32.7129 26.8117 32.8497 26.7493 33.0003C26.6869 33.151 26.6548 33.3124 26.6548 33.4754C26.6548 33.6384 26.6869 33.7999 26.7493 33.9505C26.8117 34.1011 26.9031 34.2379 27.0184 34.3532C27.1336 34.4685 27.2705 34.5599 27.4211 34.6223C27.5717 34.6847 27.7331 34.7168 27.8962 34.7168C28.0592 34.7168 28.2206 34.6847 28.3712 34.6223C28.5218 34.5599 28.6587 34.4685 28.774 34.3532L34.9731 28.1541C35.0886 28.0389 35.1802 27.9021 35.2427 27.7514C35.3052 27.6008 35.3374 27.4393 35.3374 27.2763C35.3374 27.1132 35.3052 26.9517 35.2427 26.8011C35.1802 26.6504 35.0886 26.5136 34.9731 26.3985L28.774 20.1993ZM29.7063 38.1297L41.6831 26.153C42.1139 25.7225 42.6253 25.3811 43.188 25.1482C43.7508 24.9154 44.3539 24.7956 44.9629 24.7959C45.572 24.7961 46.175 24.9163 46.7376 25.1495C47.3002 25.3828 47.8113 25.7246 48.2418 26.1554C48.6723 26.5863 49.0137 27.0976 49.2465 27.6604C49.4794 28.2232 49.5991 28.8263 49.5989 29.4353C49.5987 30.0443 49.4785 30.6474 49.2452 31.2099C49.0119 31.7725 48.6701 32.2837 48.2393 32.7141L36.2625 44.6884C35.5646 45.3862 34.6905 45.8815 33.7333 46.1217L30.0188 47.0491C29.6494 47.1411 29.2625 47.1361 28.8957 47.0344C28.5289 46.9327 28.1946 46.7379 27.9253 46.4689C27.656 46.1999 27.4609 45.8658 27.3589 45.499C27.2569 45.1323 27.2515 44.7454 27.3432 44.376L28.2731 40.6615C28.5133 39.7043 29.0086 38.8301 29.7063 38.1322" fill="#282828"/>
</g>
<defs>
<clipPath id="clip0_1_645">
<rect width="49.5932" height="49.5932" fill="white"/>
</clipPath>
</defs>
</svg>
