<svg width="31" height="31" viewBox="0 0 31 31" fill="none" xmlns="http://www.w3.org/2000/svg">
<g clip-path="url(#clip0_295_2054)">
<path d="M5.44922 0.363281C12.0827 0.363281 18.7162 0.363281 25.5508 0.363281C25.5708 1.60207 25.5907 2.84086 25.6113 4.11719C25.8211 3.84745 25.8211 3.84745 26.0352 3.57227C26.27 3.49267 26.3785 3.47869 26.6066 3.57227C26.751 3.75709 26.7249 3.88749 26.7012 4.11719C26.6109 4.26601 26.5284 4.38397 26.4174 4.51453C26.391 4.54711 26.3647 4.5797 26.3375 4.61327C26.2845 4.67856 26.2309 4.74335 26.1766 4.80762C26.1218 4.87315 26.0681 4.9397 26.0156 5.00712C25.8707 5.19116 25.807 5.26313 25.5773 5.33569C25.3691 5.32812 25.3691 5.32812 25.2216 5.23352C25.1025 5.04781 25.1039 4.93972 25.127 4.72266C25.1469 4.66271 25.1669 4.60277 25.1875 4.54102C25.1554 4.42069 25.1554 4.42069 25.1005 4.29883C25.0321 4.13692 25.0059 4.0551 25.0059 3.875C18.8119 3.875 12.618 3.875 6.23633 3.875C6.23633 8.25072 6.23633 12.6264 6.23633 17.1348C8.63398 17.1254 8.63398 17.1254 11.0801 17.1158C11.8368 17.1136 11.8368 17.1136 12.6089 17.1113C13.0616 17.1091 13.0616 17.1091 13.5142 17.1066C13.7157 17.1055 13.9171 17.1049 14.1186 17.1047C14.3758 17.1043 14.633 17.1031 14.8903 17.1012C14.9845 17.1007 15.0787 17.1004 15.173 17.1006C15.6401 17.1009 16.0383 17.0903 16.4688 16.8926C16.5287 16.8926 16.5886 16.8926 16.6504 16.8926C16.8639 17.4261 17.0771 17.9598 17.2898 18.4936C17.3886 18.7415 17.4875 18.9893 17.5867 19.237C17.6824 19.476 17.7777 19.7151 17.8729 19.9543C17.9093 20.0456 17.9458 20.1368 17.9824 20.2281C18.0336 20.3557 18.0844 20.4834 18.1351 20.6112C18.1641 20.6839 18.1932 20.7567 18.2231 20.8316C18.2852 21.0098 18.2852 21.0098 18.2852 21.1914C18.044 21.2917 17.8028 21.3918 17.5616 21.4918C17.4797 21.5258 17.3979 21.5598 17.316 21.5938C17.1976 21.6431 17.0792 21.6922 16.9607 21.7413C16.8897 21.7708 16.8186 21.8003 16.7455 21.8307C16.5135 21.9243 16.2791 22.0118 16.0449 22.0996C20.6005 22.1196 25.156 22.1396 29.8496 22.1602C29.8496 19.263 29.8496 16.3658 29.8496 13.3809C29.5699 13.3609 29.2902 13.3409 29.002 13.3203C28.5106 13.2434 28.5106 13.2434 28.3284 13.0933C28.2536 12.9011 28.2737 12.7888 28.3359 12.5938C28.4263 12.489 28.4263 12.489 28.5781 12.4121C28.764 12.406 28.9431 12.4313 29.1268 12.4575C29.1762 12.4636 29.2256 12.4697 29.2764 12.476C29.4773 12.5017 29.6568 12.5295 29.8496 12.5938C29.8496 12.0743 29.8496 11.5548 29.8496 11.0195C29.6898 11.0395 29.5299 11.0595 29.3652 11.0801C29.2581 11.0864 29.1509 11.0906 29.0436 11.0914C28.9939 11.0923 28.9441 11.0931 28.8929 11.094C28.7598 11.0801 28.7598 11.0801 28.5781 10.959C28.4849 10.5992 28.4849 10.5992 28.584 10.4051C28.7421 10.2513 28.8645 10.2443 29.0814 10.2173C29.1486 10.2082 29.2158 10.1992 29.2851 10.1898C29.4726 10.1731 29.6613 10.1719 29.8496 10.1719C29.8496 9.49254 29.8496 8.8132 29.8496 8.11328C29.7497 8.11328 29.6498 8.11328 29.5469 8.11328C29.5263 8.18347 29.5263 8.18347 29.5053 8.25508C29.3598 8.54963 29.0381 8.60453 28.7446 8.71497C28.6818 8.7406 28.619 8.76624 28.5542 8.79266C28.0922 8.97118 28.0922 8.97118 27.8125 8.92262C27.6699 8.83984 27.6699 8.83984 27.5829 8.7301C27.5399 8.56293 27.5577 8.45871 27.6094 8.29492C27.6493 8.25496 27.6893 8.215 27.7305 8.17383C27.3708 8.15385 27.0112 8.13387 26.6406 8.11328C26.3379 7.40186 26.3379 7.40186 26.3379 7.26562C27.7565 7.26562 29.1751 7.26562 30.6367 7.26562C30.6367 13.4196 30.6367 19.5736 30.6367 25.9141C20.6465 25.9141 10.6562 25.9141 0.363281 25.9141C0.363281 19.7601 0.363281 13.6061 0.363281 7.26562C2.04164 7.26562 3.72 7.26562 5.44922 7.26562C5.44922 4.98785 5.44922 2.71008 5.44922 0.363281ZM7.32617 1.81641C7.23004 2.00868 7.27728 2.15823 7.32617 2.36133C7.49745 2.44697 7.62126 2.44119 7.81055 2.42188C7.94173 2.33105 7.94173 2.33105 7.99219 2.17969C7.94906 1.98462 7.94906 1.98462 7.87109 1.81641C7.59267 1.7484 7.59267 1.7484 7.32617 1.81641ZM9.87671 1.82019C9.76746 2.00834 9.81999 2.15716 9.86914 2.36133C10.0404 2.44697 10.1642 2.44119 10.3535 2.42188C10.4836 2.32754 10.4836 2.32754 10.5352 2.17969C10.4854 1.98972 10.4321 1.89496 10.293 1.75586C10.1235 1.73414 10.0264 1.73539 9.87671 1.82019ZM12.4121 1.81641C12.316 2.00868 12.3632 2.15823 12.4121 2.36133C12.5834 2.44697 12.7072 2.44119 12.8965 2.42188C13.0277 2.33105 13.0277 2.33105 13.0781 2.17969C13.035 1.98462 13.035 1.98462 12.957 1.81641C12.6786 1.7484 12.6786 1.7484 12.4121 1.81641ZM1.15039 8.11328C1.15039 12.7487 1.15039 17.3842 1.15039 22.1602C5.9457 22.1602 10.741 22.1602 15.6816 22.1602C15.1566 20.76 14.5977 19.3727 14.0469 17.9824C11.2096 17.9824 8.37242 17.9824 5.44922 17.9824C5.44922 14.7256 5.44922 11.4688 5.44922 8.11328C4.03061 8.11328 2.61199 8.11328 1.15039 8.11328ZM14.9551 23.5527C14.8084 23.7957 14.7645 23.9179 14.8075 24.1998C14.8994 24.4116 14.9451 24.5148 15.1367 24.6426C15.3963 24.7131 15.6047 24.7349 15.8557 24.6312C16.0319 24.4809 16.1367 24.3568 16.219 24.1393C16.2301 23.9007 16.1615 23.7596 16.0449 23.5527C15.8616 23.3938 15.7393 23.3202 15.5 23.2803C15.2607 23.3202 15.1384 23.3938 14.9551 23.5527Z" fill="#383838"/>
<path d="M23.0688 6.47852C23.2494 6.69011 23.3438 6.92656 23.4439 7.18261C23.4716 7.2521 23.4716 7.2521 23.4998 7.323C23.5608 7.47655 23.6213 7.6303 23.6818 7.78406C23.7247 7.89233 23.7677 8.0006 23.8106 8.10885C23.9242 8.39513 24.0373 8.6816 24.1503 8.9681C24.2628 9.25302 24.3757 9.53778 24.4886 9.82255C24.9661 11.0279 25.4413 12.2343 25.9145 13.4414C25.7105 13.5094 25.6193 13.494 25.4098 13.4586C25.3437 13.4477 25.2775 13.4368 25.2094 13.4256C25.1377 13.4136 25.066 13.4015 24.9921 13.3891C24.8396 13.3651 24.687 13.3412 24.5344 13.3174C24.2943 13.2797 24.0544 13.2411 23.8147 13.2004C22.5482 12.9626 22.5482 12.9626 21.3735 13.3809C21.3735 13.5809 21.4749 13.7454 21.5551 13.9258C21.0194 14.1602 20.4765 14.3527 19.9203 14.5312C19.9203 14.7489 19.99 14.8336 20.102 15.0156C20.102 15.0556 20.102 15.0955 20.102 15.1367C20.531 14.9889 20.9599 14.841 21.3889 14.693C21.588 14.6243 21.7872 14.5556 21.9865 14.487C22.2157 14.408 22.4449 14.3289 22.674 14.2498C22.7453 14.2253 22.8166 14.2007 22.89 14.1754C22.99 14.1409 22.99 14.1409 23.092 14.1057C23.1505 14.0855 23.209 14.0653 23.2692 14.0446C23.3792 14.0052 23.4884 13.9634 23.5966 13.9195C23.8167 13.8331 23.9835 13.8462 24.2192 13.8652C24.4232 13.9877 24.4661 14.1869 24.5219 14.4102C24.548 14.7949 24.548 14.7949 24.4008 15.0156C24.2721 15.0875 24.2721 15.0875 24.1586 15.1367C24.1861 15.1604 24.2136 15.1842 24.2419 15.2086C24.4215 15.409 24.4696 15.6071 24.4803 15.8708C24.4614 16.1055 24.4614 16.1055 24.3781 16.219C24.3456 16.2415 24.3132 16.264 24.2797 16.2871C24.2398 16.3271 24.1998 16.367 24.1586 16.4082C24.1761 16.4404 24.1936 16.4725 24.2116 16.5056C24.2341 16.5484 24.2566 16.5912 24.2797 16.6353C24.3022 16.6774 24.3247 16.7195 24.3478 16.763C24.4008 16.8926 24.4008 16.8926 24.4008 17.1348C24.5207 17.1348 24.6406 17.1348 24.7641 17.1348C24.7641 16.0958 24.7641 15.0568 24.7641 13.9863C25.0238 14.0263 25.2836 14.0662 25.5512 14.1074C25.5512 15.3862 25.5512 16.6649 25.5512 17.9824C25.1316 17.9824 24.712 17.9824 24.2797 17.9824C24.2997 18.0424 24.3197 18.1023 24.3403 18.1641C24.3543 18.329 24.3482 18.482 24.3403 18.6484C24.3003 18.6884 24.2603 18.7284 24.2192 18.7695C24.2351 18.9605 24.2849 19.0817 24.3781 19.2501C24.4776 19.4717 24.4819 19.5709 24.4008 19.7988C24.2835 19.8972 24.2835 19.8972 24.0981 19.9805C24.0541 20.0018 24.01 20.0231 23.9647 20.045C23.6115 20.2044 23.2741 20.3084 22.8871 20.2227C22.5836 20.0561 22.4061 19.8181 22.2817 19.4961C22.2817 19.4561 22.2817 19.4162 22.2817 19.375C22.237 19.389 22.1924 19.4029 22.1464 19.4173C21.3023 19.6813 20.4575 19.9429 19.61 20.1962C19.5405 20.2171 19.471 20.2381 19.3994 20.2597C19.3351 20.2788 19.2709 20.2978 19.2047 20.3175C19.1483 20.3343 19.0919 20.3511 19.0339 20.3685C18.891 20.4043 18.891 20.4043 18.7094 20.4043C18.5398 19.9738 18.3703 19.5432 18.2009 19.1126C18.1222 18.9125 18.0435 18.7125 17.9647 18.5125C17.8739 18.2819 17.7831 18.0511 17.6924 17.8204C17.6645 17.7497 17.6366 17.679 17.6079 17.6061C17.444 17.1888 17.286 16.7699 17.1352 16.3477C17.329 16.1234 17.523 15.8994 17.7175 15.6757C17.8323 15.5436 17.9463 15.411 18.059 15.277C18.3617 14.9217 18.7066 14.6378 19.0727 14.3496C19.0927 14.3296 19.1126 14.3096 19.1332 14.2891C19.087 14.2728 19.0408 14.2566 18.9932 14.2399C18.7691 14.1408 18.6819 14.0558 18.577 13.835C18.5278 13.6836 18.5278 13.6836 18.5278 13.502C18.4832 13.5201 18.4386 13.5383 18.3927 13.5571C18.3336 13.5801 18.2745 13.6031 18.2137 13.6268C18.1554 13.65 18.0971 13.6732 18.037 13.6971C17.8452 13.7486 17.7444 13.7532 17.559 13.6836C17.4892 13.5904 17.4892 13.5904 17.4417 13.4641C17.4227 13.4156 17.4038 13.367 17.3842 13.317C17.362 13.2582 17.3397 13.1993 17.3168 13.1387C17.2852 13.0627 17.2532 12.9869 17.221 12.9111C17.1873 12.8306 17.1537 12.75 17.12 12.6694C17.0955 12.6115 17.0955 12.6115 17.0704 12.5524C16.9833 12.3382 16.9211 12.1597 16.9535 11.9277C17.1689 11.7516 17.4137 11.6929 17.6801 11.625C17.6663 11.5906 17.6525 11.5562 17.6382 11.5207C17.4328 10.9688 17.4328 10.9688 17.559 10.6562C17.9297 10.4154 18.3655 10.2686 18.7782 10.1158C18.893 10.0722 19.0077 10.0285 19.1225 9.98468C19.3004 9.91708 19.4784 9.84991 19.6569 9.78389C19.8313 9.71922 20.0048 9.65278 20.1784 9.58604C20.2312 9.56697 20.2841 9.54791 20.3386 9.52826C20.7264 9.37671 20.9429 9.16965 21.1918 8.83984C21.2463 8.77212 21.3008 8.70446 21.3555 8.63692C21.407 8.57096 21.4584 8.50489 21.5097 8.43872C21.5672 8.36508 21.6246 8.29145 21.6821 8.21782C21.7111 8.18061 21.74 8.1434 21.7699 8.10506C21.9135 7.92074 22.0578 7.73697 22.2022 7.55322C22.2297 7.51823 22.2572 7.48324 22.2855 7.44719C22.967 6.58031 22.967 6.58031 23.0688 6.47852Z" fill="#383838"/>
<path d="M8.16126 7.37736C8.22245 7.37693 8.28365 7.3765 8.3467 7.37605C8.41411 7.37589 8.48151 7.37573 8.55096 7.37556C8.62175 7.37516 8.69254 7.37476 8.76548 7.37435C9.00064 7.37315 9.23579 7.37245 9.47094 7.37185C9.55194 7.3716 9.63293 7.37135 9.71393 7.3711C10.0946 7.36995 10.4753 7.36908 10.8559 7.36858C11.295 7.36799 11.734 7.3664 12.1731 7.36395C12.5126 7.36212 12.8521 7.36123 13.1917 7.36102C13.3943 7.36088 13.597 7.36022 13.7997 7.35882C14.0261 7.35734 14.2525 7.3574 14.4789 7.35782C14.5457 7.35704 14.6125 7.35627 14.6813 7.35547C15.0676 7.35809 15.3154 7.38349 15.6214 7.62846C15.8622 7.9484 15.8989 8.19626 15.8949 8.5893C15.8954 8.64134 15.8958 8.69338 15.8962 8.74699C15.8973 8.91791 15.8966 9.08876 15.8958 9.25968C15.8959 9.37902 15.8962 9.49836 15.8965 9.6177C15.8968 9.86734 15.8963 10.117 15.8952 10.3666C15.8938 10.6862 15.8946 11.0057 15.896 11.3253C15.8969 11.5716 15.8966 11.8178 15.896 12.0641C15.8959 12.1819 15.896 12.2997 15.8966 12.4175C15.8972 12.5823 15.8963 12.747 15.8949 12.9118C15.8954 12.9602 15.8959 13.0086 15.8964 13.0585C15.8917 13.3747 15.8282 13.5522 15.6214 13.8042C15.3751 14.0212 15.2359 14.1143 14.91 14.1159C14.8494 14.1163 14.7887 14.1168 14.7261 14.1172C14.6593 14.1174 14.5925 14.1175 14.5236 14.1177C14.4534 14.1181 14.3832 14.1185 14.3109 14.1189C14.0777 14.1201 13.8445 14.1208 13.6113 14.1214C13.5318 14.1217 13.4523 14.1219 13.3703 14.1222C12.9928 14.1233 12.6154 14.1242 12.2379 14.1247C11.8025 14.1253 11.3671 14.1269 10.9317 14.1293C10.595 14.1311 10.2583 14.132 9.92161 14.1322C9.72061 14.1324 9.51963 14.133 9.31864 14.1344C9.09412 14.1359 8.86964 14.1359 8.64512 14.1354C8.54578 14.1366 8.54578 14.1366 8.44444 14.1378C8.05814 14.1351 7.82132 14.0969 7.50814 13.8648C7.22215 13.5035 7.19631 13.2267 7.19565 12.7782C7.19534 12.7299 7.19504 12.6817 7.19473 12.6319C7.19385 12.4724 7.19344 12.3129 7.1931 12.1534C7.19275 12.0422 7.19241 11.9311 7.19206 11.8199C7.19142 11.5868 7.19107 11.3537 7.19086 11.1206C7.19052 10.8227 7.18907 10.5248 7.18735 10.2269C7.18622 9.99716 7.1859 9.76747 7.18581 9.53777C7.18563 9.42799 7.18514 9.3182 7.18435 9.20842C7.18331 9.0544 7.18343 8.90042 7.18382 8.74639C7.18326 8.70152 7.1827 8.65665 7.18213 8.61042C7.18482 8.27006 7.23556 7.91317 7.47495 7.6546C7.71156 7.45344 7.85678 7.37884 8.16126 7.37736ZM10.1722 9.20268C10.1722 10.2217 10.1722 11.2407 10.1722 12.2906C10.8651 11.9468 10.8651 11.9468 11.5345 11.5678C11.6208 11.5163 11.7071 11.4648 11.7935 11.4134C11.8358 11.3881 11.8781 11.3628 11.9216 11.3368C12.1256 11.216 12.3313 11.0985 12.5373 10.9812C12.6067 10.9418 12.6761 10.9023 12.7476 10.8616C12.7968 10.8336 12.8461 10.8057 12.8968 10.7769C12.6512 10.5658 12.3929 10.4151 12.1097 10.2623C12.0132 10.2095 11.9168 10.1567 11.8204 10.1038C11.7441 10.0619 11.7441 10.0619 11.6663 10.0192C11.3201 9.82707 10.9777 9.6284 10.6349 9.43032C10.5833 9.40063 10.5317 9.37093 10.4785 9.34033C10.4325 9.31374 10.3865 9.28716 10.339 9.25977C10.244 9.19791 10.244 9.19791 10.1722 9.20268Z" fill="#383838"/>
<path d="M12.5938 26.5801C14.5119 26.5801 16.43 26.5801 18.4063 26.5801C18.4063 27.1196 18.4063 27.659 18.4063 28.2148C18.7803 28.2053 18.7803 28.2053 19.1542 28.193C19.5772 28.1877 19.9519 28.2688 20.2746 28.5577C20.841 29.1499 20.707 29.83 20.707 30.6367C17.2704 30.6367 13.8338 30.6367 10.293 30.6367C10.293 29.0315 10.293 29.0315 10.6974 28.5876C11.0902 28.2175 11.4938 28.1978 12.011 28.2073C12.2033 28.2098 12.3956 28.2123 12.5938 28.2148C12.5938 27.6754 12.5938 27.1359 12.5938 26.5801Z" fill="#383838"/>
<path d="M24.5212 4.72266C24.7023 4.93467 24.7966 5.17194 24.8968 5.4286C24.9154 5.47531 24.934 5.52203 24.9531 5.57016C25.0149 5.72562 25.0761 5.88128 25.1373 6.03695C25.1809 6.14711 25.2246 6.25726 25.2683 6.3674C25.3853 6.66245 25.5018 6.95767 25.6183 7.25294C25.8104 7.73967 26.0031 8.22612 26.1957 8.71264C26.2679 8.89481 26.3399 9.07701 26.4119 9.2592C26.6759 9.92628 26.9415 10.5926 27.2107 11.2576C27.2597 11.3784 27.3085 11.4993 27.3574 11.6202C27.5332 12.0554 27.5332 12.0554 27.7102 12.4901C27.7883 12.6813 27.8657 12.8727 27.943 13.0642C27.9657 13.1192 27.9885 13.1742 28.0119 13.2308C28.0417 13.3053 28.0417 13.3053 28.0722 13.3813C28.0896 13.424 28.107 13.4667 28.125 13.5106C28.154 13.623 28.154 13.623 28.0934 13.8047C27.7376 14.0061 27.4006 14.0842 27.0019 13.9963C26.7134 13.826 26.5905 13.4675 26.4728 13.1684C26.4502 13.1116 26.4502 13.1116 26.4272 13.0536C26.3775 12.9283 26.3285 12.8028 26.2794 12.6772C26.244 12.5877 26.2086 12.4981 26.1731 12.4086C26.0781 12.1683 25.9836 11.9278 25.8892 11.6873C25.7317 11.2864 25.5734 10.8858 25.4152 10.4852C25.3552 10.333 25.2952 10.1808 25.2352 10.0285C25.0001 9.43235 24.7622 8.83733 24.5209 8.24364C24.4729 8.12564 24.4251 8.0076 24.3772 7.88955C24.2001 7.45227 24.2001 7.45227 24.0215 7.01555C23.9411 6.8196 23.8615 6.62333 23.7821 6.42696C23.7585 6.37033 23.735 6.31371 23.7107 6.25536C23.5697 5.90375 23.4806 5.60414 23.6054 5.22974C23.8428 4.9644 24.1877 4.83381 24.5212 4.72266Z" fill="#383838"/>
<path d="M28.0938 5.38832C28.2111 5.45265 28.2111 5.45265 28.2754 5.56996C28.317 5.76673 28.317 5.76673 28.2754 5.99379C28.1349 6.16438 27.9697 6.28895 27.791 6.41761C27.749 6.4493 27.707 6.48099 27.6638 6.51364C27.4655 6.65219 27.352 6.71949 27.1061 6.72413C26.915 6.64858 26.8476 6.6046 26.7617 6.41761C26.77 6.17632 26.7978 6.07972 26.9675 5.90391C27.027 5.85864 27.0864 5.81337 27.1477 5.76673C27.2069 5.72084 27.266 5.67495 27.327 5.62767C27.607 5.42241 27.7421 5.35692 28.0938 5.38832Z" fill="#383838"/>
</g>
<defs>
<clipPath id="clip0_295_2054">
<rect width="31" height="31" fill="white"/>
</clipPath>
</defs>
</svg>
