<svg width="28" height="28" viewBox="0 0 28 28" fill="none" xmlns="http://www.w3.org/2000/svg">
<g clip-path="url(#clip0_1189_6443)">
<path d="M12.9825 0.853352C13.0613 0.92086 13.1395 0.989093 13.217 1.05818C13.2896 1.11991 13.3623 1.18158 13.4351 1.24318C13.4852 1.28679 13.5354 1.3304 13.587 1.37533C13.6045 1.323 13.6219 1.27067 13.6399 1.21675C14.634 0.291425 15.7527 -0.0542152 17.0961 -0.0190177C18.5916 0.0489486 19.911 0.784215 20.9155 1.87542C22.0444 3.15586 22.3479 4.73183 22.2558 6.39687C22.0947 7.97937 21.0427 9.32106 19.8518 10.3055C19.7015 10.4258 19.5484 10.542 19.3942 10.6572C19.289 10.7363 19.1851 10.8167 19.0812 10.8975C18.601 11.2699 18.1102 11.6243 17.6124 11.9727C16.8733 12.4919 16.1524 13.0342 15.4371 13.5856C15.4011 13.6133 15.3651 13.641 15.328 13.6695C14.8885 14.008 14.4637 14.3612 14.045 14.7251C13.8929 14.8569 13.74 14.9877 13.587 15.1185C13.3775 15.0204 13.2175 14.884 13.0452 14.732C12.374 14.1495 11.6839 13.6049 10.9593 13.0903C10.7984 12.9757 10.6385 12.8597 10.4786 12.7438C10.1301 12.4911 9.77993 12.2408 9.42773 11.9933C8.60713 11.4156 7.78376 10.8332 7.04477 10.1521C6.93608 10.0525 6.82481 9.95737 6.71213 9.8624C5.5991 8.8857 4.88091 7.49107 4.77124 6.01592C4.68701 4.48587 5.1618 3.00424 6.18685 1.85105C7.86064 0.00280856 10.8863 -0.804487 12.9825 0.853352ZM12.7413 4.81112C12.7413 5.33442 12.7413 5.85772 12.7413 6.39687C12.218 6.39687 11.6947 6.39687 11.1555 6.39687C11.1555 6.92017 11.1555 7.44347 11.1555 7.98262C11.6788 7.98262 12.2021 7.98262 12.7413 7.98262C12.7413 8.50592 12.7413 9.02922 12.7413 9.56837C13.2471 9.56837 13.753 9.56837 14.2742 9.56837C14.2742 9.04508 14.2742 8.52178 14.2742 7.98262C14.7975 7.98262 15.3208 7.98262 15.8599 7.98262C15.8599 7.45933 15.8599 6.93603 15.8599 6.39687C15.3366 6.39687 14.8133 6.39687 14.2742 6.39687C14.2742 5.87357 14.2742 5.35028 14.2742 4.81112C13.7683 4.81112 13.2625 4.81112 12.7413 4.81112Z" fill="#006060"/>
<path d="M26.272 7.24422C26.5925 7.4231 26.6998 7.72536 26.8041 8.05877C27.1195 9.17825 27.0842 10.3412 27.0817 11.4934C27.0814 11.6259 27.0813 11.7585 27.0812 11.8911C27.0801 12.9513 27.0691 14.0092 26.9955 15.0673C26.9924 15.1129 26.9893 15.1586 26.9861 15.2056C26.9527 15.6782 26.9005 16.1461 26.8285 16.6144C26.8222 16.6555 26.8159 16.6966 26.8095 16.7389C26.6184 17.9132 25.8571 18.8946 25.0703 19.7465C25.0041 19.8188 24.9384 19.8916 24.8746 19.9661C24.6226 20.2602 24.3534 20.5355 24.079 20.8086C24.0025 20.8849 23.9263 20.9614 23.8501 21.0379C23.6018 21.2864 23.35 21.5275 23.0833 21.7562C22.9687 21.8558 22.8626 21.9621 22.7569 22.071C22.6149 22.215 22.4716 22.3529 22.3175 22.4839C22.0419 22.7203 21.7902 22.9808 21.5352 23.2389C21.3778 23.3983 21.2198 23.5564 21.0572 23.7104C20.0659 24.6636 19.3942 25.719 19.0833 27.0661C17.4959 27.0661 15.9086 27.0661 14.2732 27.0661C14.2689 25.4246 14.2689 25.4246 14.2678 24.6084C14.2673 24.1686 14.2665 23.7288 14.2652 23.289C14.2641 22.9405 14.2635 22.5921 14.2632 22.2437C14.2631 22.0595 14.2628 21.8754 14.262 21.6913C14.2551 19.9886 14.3737 18.5539 15.6151 17.2617C16.9216 16.0052 19.291 14.624 21.1414 14.5651C21.4568 14.5757 21.737 14.6022 21.9905 14.803C22.1703 15.0111 22.218 15.2154 22.2019 15.4868C22.0621 16.3924 21.3711 17.0561 20.6703 17.5762C20.4308 17.7516 20.1895 17.9244 19.948 18.0968C19.7485 18.2393 19.5496 18.3827 19.3509 18.5262C19.3122 18.554 19.2736 18.5819 19.2338 18.6106C18.8887 18.8599 18.5459 19.1125 18.2041 19.3663C17.9897 19.5251 17.7739 19.6789 17.5504 19.8245C17.5832 20.0108 17.6574 20.1258 17.7703 20.2763C17.8201 20.3432 17.8201 20.3432 17.8709 20.4115C17.9058 20.4577 17.9406 20.5038 17.9766 20.5513C18.0116 20.5983 18.0467 20.6452 18.0828 20.6936C18.1693 20.8094 18.2561 20.9249 18.3433 21.0402C18.7227 20.8092 19.0788 20.5592 19.4325 20.291C19.699 20.089 19.9681 19.8911 20.2396 19.6957C20.2789 19.6673 20.3183 19.6389 20.3588 19.6097C20.5633 19.4625 20.7681 19.3157 20.9732 19.1694C22.3924 18.1544 23.5677 16.9414 23.9462 15.173C24.0121 14.757 24.0483 14.3373 24.0866 13.9181C24.1175 13.5812 24.1517 13.2445 24.1858 12.9079C24.1924 12.8422 24.199 12.7766 24.2058 12.7089C24.6518 8.32871 24.6518 8.32871 25.6774 7.37306C25.8879 7.23854 26.0193 7.2228 26.272 7.24422Z" fill="#006060"/>
<path d="M1.16438 7.24522C1.59379 7.43308 1.80237 7.9002 1.97419 8.31361C2.64182 10.0341 2.79661 11.9843 2.969 13.8073C2.99916 14.1245 3.03072 14.4415 3.06605 14.7581C3.07166 14.8115 3.07166 14.8115 3.07739 14.866C3.2316 16.2079 4.09266 17.6453 5.13147 18.4861C5.24947 18.5752 5.36874 18.6622 5.48886 18.7485C5.5326 18.7803 5.57634 18.8122 5.62141 18.8449C5.75649 18.9431 5.89189 19.0407 6.02735 19.1384C6.10858 19.1972 6.1898 19.256 6.271 19.3149C6.46702 19.4569 6.66336 19.5984 6.8598 19.7398C6.98125 19.8273 7.10259 19.9149 7.22389 20.0027C7.70486 20.3505 8.1868 20.6969 8.67027 21.0413C9.21536 20.4872 9.21536 20.4872 9.51601 19.8255C9.38902 19.7286 9.26143 19.6377 9.12948 19.548C9.04641 19.4905 8.96341 19.4329 8.88047 19.3752C8.83708 19.345 8.79369 19.3149 8.74899 19.2838C8.5363 19.1341 8.32743 18.9794 8.11856 18.8245C7.7854 18.5777 7.4508 18.3332 7.11425 18.0911C6.74876 17.8277 6.38351 17.5643 6.02735 17.2883C5.98913 17.2589 5.9509 17.2296 5.91152 17.1993C5.37299 16.7599 4.96953 16.1615 4.84134 15.4725C4.82419 15.1948 4.9182 15.0213 5.0759 14.804C5.44411 14.5278 5.90402 14.5549 6.3445 14.5925C7.22836 14.7238 8.04653 15.1322 8.82885 15.544C8.86072 15.5605 8.89259 15.577 8.92543 15.594C9.43977 15.8621 9.92433 16.1763 10.408 16.4954C10.4384 16.5154 10.4689 16.5353 10.5003 16.5558C11.6162 17.2878 12.3612 18.1889 12.6875 19.5084C12.7282 19.7213 12.7469 19.9219 12.7467 20.1386C12.7468 20.2306 12.7468 20.2306 12.7469 20.3245C12.7468 20.3911 12.7466 20.4577 12.7464 20.5263C12.7464 20.5977 12.7464 20.6691 12.7464 20.7404C12.7464 20.9336 12.7461 21.1268 12.7457 21.32C12.7454 21.5221 12.7454 21.7242 12.7453 21.9263C12.7451 22.3087 12.7447 22.6912 12.7442 23.0736C12.7435 23.5906 12.7432 24.1076 12.7429 24.6246C12.7424 25.4388 12.7413 26.2529 12.7404 27.0671C11.153 27.0671 9.56569 27.0671 7.93025 27.0671C7.87792 26.788 7.8256 26.5089 7.77168 26.2214C7.712 26.0622 7.6606 25.9333 7.58007 25.7886C7.56169 25.7539 7.54331 25.7192 7.52437 25.6835C7.02113 24.7567 6.30337 23.9947 5.55924 23.258C5.45818 23.1579 5.35755 23.0574 5.25698 22.9569C4.96661 22.6673 4.67635 22.381 4.36391 22.115C4.22722 21.9976 4.10412 21.8678 3.97909 21.7383C3.88072 21.6427 3.78077 21.554 3.6766 21.4649C3.39458 21.2198 3.131 20.9562 2.86694 20.6921C2.78049 20.6058 2.69363 20.5199 2.60674 20.434C2.30044 20.1293 2.01309 19.8198 1.74438 19.481C1.63224 19.3399 1.51596 19.2028 1.39894 19.0657C0.552549 18.0264 0.221619 16.9536 0.127038 15.6398C0.120614 15.5567 0.114145 15.4737 0.107629 15.3907C0.0885434 15.1423 0.0702374 14.894 0.054358 14.6454C0.0498971 14.576 0.0454362 14.5066 0.0408402 14.4351C0.0066154 13.8787 -0.00785284 13.3242 -0.0092372 12.7669C-0.00938665 12.725 -0.0095361 12.6831 -0.00969008 12.64C-0.0104732 12.4185 -0.0109669 12.197 -0.0111987 11.9755C-0.0114303 11.7958 -0.0121651 11.6162 -0.0133668 11.4365C-0.03559 8.04365 -0.03559 8.04365 0.678747 7.30468C0.851337 7.21592 0.972897 7.22211 1.16438 7.24522Z" fill="#006060"/>
</g>
<defs>
<clipPath id="clip0_1189_6443">
<rect width="27.0635" height="27.0635" fill="white"/>
</clipPath>
</defs>
</svg>
