<svg width="47" height="47" viewBox="0 0 47 47" fill="none" xmlns="http://www.w3.org/2000/svg">
<g clip-path="url(#clip0_458_2084)">
<path d="M19.4606 2.93768C19.5244 2.96453 19.5882 2.99137 19.654 3.01903C21.0173 3.60448 22.2817 4.35525 23.4079 5.3244C23.6554 5.20711 23.8722 5.07862 24.091 4.91418C27.3606 2.50272 31.2622 1.44507 35.3074 1.97991C38.8204 2.51147 42.1102 4.39897 44.2458 7.25213C44.3269 7.35863 44.3269 7.35863 44.4097 7.46728C45.7469 9.29488 46.5092 11.3692 46.9079 13.5861C46.9317 13.7104 46.9317 13.7104 46.9559 13.8372C47.0048 14.1722 47.0178 14.5015 47.0216 14.8394C47.0225 14.9062 47.0233 14.9731 47.0243 15.042C47.0406 16.5802 47.0046 18.0508 46.6325 19.5529C46.6158 19.6224 46.5991 19.6919 46.5819 19.7634C45.5068 24.1129 42.5933 27.8448 39.6068 31.0655C39.48 31.2028 39.354 31.3409 39.2281 31.479C38.5795 32.1897 37.9114 32.8782 37.2299 33.5574C37.0612 33.7255 36.893 33.8942 36.7249 34.0629C36.2397 34.5484 35.7553 35.0287 35.2324 35.474C34.9146 35.748 34.6131 36.0399 34.3088 36.3288C33.6791 36.9239 33.0441 37.5121 32.404 38.0959C32.3084 38.1837 32.2129 38.2715 32.1175 38.3594C31.6666 38.7745 31.214 39.1867 30.7509 39.5883C30.535 39.7771 30.322 39.9691 30.1091 40.1613C29.7767 40.4612 29.4417 40.7575 29.104 41.0513C28.8918 41.238 28.683 41.4283 28.4739 41.6186C28.1561 41.9058 27.8319 42.1813 27.4986 42.4505C27.1495 42.7328 26.8135 43.0242 26.4831 43.3283C24.4462 45.1966 24.4462 45.1966 23.3161 45.1642C22.5415 45.0736 22.0059 44.6086 21.44 44.1143C21.385 44.0667 21.33 44.0191 21.2733 43.9701C21.1569 43.8692 21.0405 43.7681 20.9242 43.667C20.746 43.512 20.5672 43.3577 20.3883 43.2035C19.8834 42.7679 19.3802 42.3313 18.8869 41.8825C18.5886 41.6116 18.2832 41.3544 17.9689 41.1022C17.4398 40.6744 16.9465 40.2129 16.4503 39.7479C16.0216 39.346 15.5779 38.9632 15.1304 38.5825C14.5485 38.0866 13.9735 37.5858 13.4123 37.0666C13.1731 36.8453 12.9319 36.6274 12.6849 36.4148C12.2592 36.046 11.851 35.6585 11.4401 35.2733C11.1198 34.9734 10.7978 34.6759 10.4703 34.3838C7.79742 31.9898 7.79742 31.9898 6.67577 30.6611C6.50706 30.4649 6.33208 30.2751 6.15598 30.0856C4.0027 27.7646 2.07321 25.0348 1.00946 22.0314C0.986164 21.9659 0.962867 21.9004 0.938865 21.833C0.384223 20.2455 -0.00886973 18.5566 -0.0189514 16.8686C-0.0194747 16.7981 -0.0199979 16.7277 -0.020537 16.6551C-0.0213989 16.5066 -0.0220021 16.358 -0.0223579 16.2094C-0.0232395 15.988 -0.0260888 15.7668 -0.0289917 15.5454C-0.053927 11.8686 1.45054 8.4371 4.0016 5.81655C6.13759 3.69161 9.10905 2.22716 12.1169 1.92791C12.2172 1.91679 12.3176 1.90567 12.421 1.89421C14.8035 1.67998 17.2518 2.00661 19.4606 2.93768ZM20.654 13.5861C20.654 15.4643 20.654 17.3424 20.654 19.2775C18.7758 19.2775 16.8977 19.2775 14.9626 19.2775C14.9626 21.1254 14.9626 22.9733 14.9626 24.8771C16.8407 24.8771 18.7189 24.8771 20.654 24.8771C20.654 26.7553 20.654 28.6335 20.654 30.5685C22.5322 30.5685 24.4103 30.5685 26.3454 30.5685C26.3454 28.6904 26.3454 26.8122 26.3454 24.8771C28.2236 24.8771 30.1017 24.8771 32.0368 24.8771C32.0368 23.0293 32.0368 21.1814 32.0368 19.2775C30.1586 19.2775 28.2805 19.2775 26.3454 19.2775C26.3454 17.3994 26.3454 15.5212 26.3454 13.5861C24.4672 13.5861 22.5891 13.5861 20.654 13.5861Z" fill="#383838"/>
</g>
<defs>
<clipPath id="clip0_458_2084">
<rect width="47" height="47" fill="white"/>
</clipPath>
</defs>
</svg>
