<svg width="34" height="34" viewBox="0 0 34 34" fill="none" xmlns="http://www.w3.org/2000/svg">
<g clip-path="url(#clip0_268_1562)">
<path d="M17.9535 0.238073C18.0601 0.273767 18.1668 0.30945 18.2734 0.345124C18.3289 0.36391 18.3843 0.382697 18.4415 0.402052C22.4794 1.76568 26.6553 2.66017 30.8774 3.21896C30.9212 3.22477 30.965 3.23057 31.0102 3.23655C31.1048 3.24857 31.1994 3.25982 31.2942 3.2705C31.6688 3.3133 31.6688 3.3133 31.7419 3.3864C31.7488 3.54813 31.7514 3.708 31.7512 3.86978C31.7515 3.94661 31.7515 3.94661 31.7518 4.025C31.7524 4.19803 31.7525 4.37107 31.7526 4.5441C31.7529 4.66769 31.7532 4.79127 31.7536 4.91486C31.7545 5.25206 31.7549 5.58927 31.7552 5.92647C31.7554 6.13769 31.7556 6.34891 31.7559 6.56013C31.7568 7.22243 31.7575 7.88472 31.7577 8.54702C31.758 9.30852 31.7592 10.07 31.7611 10.8315C31.7626 11.4214 31.7632 12.0113 31.7633 12.6013C31.7634 12.9528 31.7638 13.3043 31.765 13.6558C31.7822 19.0196 30.3182 23.9705 26.5998 27.9707C26.4576 28.1253 26.3202 28.2821 26.1845 28.4423C25.9991 28.6558 25.7998 28.8395 25.584 29.0218C25.4069 29.1749 25.2382 29.3358 25.0681 29.4965C24.6 29.9308 24.093 30.3086 23.5739 30.6794C23.535 30.7073 23.4961 30.7353 23.4561 30.7641C22.128 31.71 20.6577 32.4177 19.1792 33.0921C18.8906 33.2237 18.6036 33.3582 18.3172 33.4944C18.1741 33.5618 18.031 33.6293 17.8879 33.6967C17.8234 33.7277 17.759 33.7587 17.6925 33.7907C17.6329 33.8185 17.5732 33.8463 17.5117 33.8749C17.4606 33.8992 17.4094 33.9234 17.3567 33.9484C16.9529 34.0796 16.6593 33.959 16.2946 33.7784C16.2224 33.7438 16.2224 33.7438 16.1486 33.7085C15.992 33.6333 15.836 33.5571 15.6799 33.4809C15.5171 33.4023 15.3541 33.324 15.1912 33.2457C15.0828 33.1936 14.9745 33.1415 14.8662 33.0892C14.4945 32.9101 14.1203 32.7384 13.7433 32.5706C11.7863 31.6985 10.0195 30.5111 8.46289 29.0421C8.32597 28.9148 8.18456 28.7929 8.04315 28.6706C7.81868 28.4722 7.62086 28.2631 7.42786 28.0343C7.28769 27.8708 7.14045 27.7153 6.9931 27.5583C4.35836 24.6637 2.78372 20.7888 2.32391 16.9333C2.31567 16.8661 2.31567 16.8662 2.30725 16.7977C2.24087 16.1802 2.24867 15.5635 2.24997 14.9434C2.24999 14.817 2.24998 14.6906 2.24994 14.5642C2.24992 14.2231 2.25031 13.8819 2.25077 13.5407C2.25119 13.1835 2.25123 12.8262 2.25131 12.469C2.25151 11.7933 2.25206 11.1177 2.25272 10.442C2.25347 9.67242 2.25383 8.90285 2.25416 8.13327C2.25486 6.55098 2.25603 4.96869 2.25751 3.3864C2.36233 3.36509 2.46718 3.34387 2.57204 3.3227C2.65961 3.30496 2.65961 3.30496 2.74896 3.28686C2.99215 3.23999 3.23623 3.20521 3.48161 3.17214C3.58865 3.15725 3.69569 3.14231 3.80272 3.12733C3.88639 3.11566 3.88639 3.11566 3.97174 3.10376C7.79969 2.5656 11.6181 1.75572 15.2809 0.506033C15.3321 0.488594 15.3833 0.471155 15.4361 0.453187C15.6697 0.373119 15.9025 0.291324 16.1344 0.206313C16.2145 0.177931 16.2946 0.149548 16.3771 0.120306C16.4451 0.0952727 16.5131 0.0702395 16.5831 0.0444477C17.0598 -0.0537188 17.5034 0.0820976 17.9535 0.238073ZM13.6794 8.30047C13.6385 8.34233 13.5975 8.38418 13.5554 8.42731C12.7098 9.35397 12.4701 10.5301 12.4799 11.7494C12.4802 11.8202 12.4805 11.8909 12.4808 11.9638C12.4816 12.1372 12.4827 12.3107 12.4841 12.4841C12.4264 12.4882 12.4264 12.4882 12.3676 12.4925C11.7349 12.5485 11.1566 12.8008 10.722 13.2768C10.4063 13.7212 10.2187 14.2191 10.2169 14.7625C10.2166 14.834 10.2162 14.9055 10.2158 14.9791C10.2157 15.0573 10.2156 15.1354 10.2156 15.2158C10.2152 15.2984 10.2149 15.3809 10.2146 15.4659C10.2138 15.6922 10.2133 15.9184 10.213 16.1447C10.2128 16.2863 10.2125 16.4279 10.2122 16.5695C10.2113 17.0131 10.2106 17.4567 10.2104 17.9004C10.2101 18.4113 10.2089 18.9221 10.207 19.433C10.2056 19.8287 10.2049 20.2243 10.2048 20.6199C10.2047 20.8559 10.2044 21.0918 10.2032 21.3277C10.2019 21.5914 10.2022 21.855 10.2026 22.1187C10.202 22.196 10.2014 22.2733 10.2007 22.3529C10.2048 23.156 10.3841 23.7264 10.9515 24.3007C11.4304 24.7444 11.9027 24.9095 12.5556 24.9114C12.6366 24.9117 12.7177 24.9121 12.8012 24.9125C12.8906 24.9126 12.9799 24.9127 13.0692 24.9127C13.1637 24.913 13.2582 24.9134 13.3527 24.9137C13.609 24.9146 13.8653 24.915 14.1216 24.9153C14.282 24.9155 14.4423 24.9158 14.6027 24.9161C15.105 24.917 15.6074 24.9176 16.1097 24.9179C16.6884 24.9182 17.2671 24.9194 17.8458 24.9213C18.2939 24.9227 18.7419 24.9234 19.19 24.9235C19.4573 24.9235 19.7245 24.9239 19.9918 24.9251C20.2434 24.9262 20.4951 24.9264 20.7467 24.9258C20.8386 24.9257 20.9306 24.926 21.0225 24.9267C21.8119 24.932 22.4469 24.8531 23.0427 24.3044C23.4832 23.8692 23.7494 23.4362 23.782 22.8036C23.7823 22.7417 23.7826 22.6798 23.7829 22.616C23.7834 22.5445 23.7839 22.4731 23.7843 22.3994C23.7845 22.3217 23.7847 22.2439 23.7849 22.1638C23.7855 22.0401 23.7855 22.0401 23.7862 21.914C23.7875 21.6412 23.7883 21.3684 23.789 21.0956C23.7892 21.0014 23.7895 20.9071 23.7898 20.8129C23.791 20.3699 23.792 19.927 23.7925 19.484C23.7932 18.9742 23.7949 18.4645 23.7976 17.9548C23.7996 17.5597 23.8006 17.1647 23.8008 16.7697C23.801 16.5343 23.8016 16.2988 23.8032 16.0634C23.8051 15.8002 23.8048 15.5371 23.8043 15.2739C23.8052 15.1969 23.806 15.12 23.8069 15.0407C23.8023 14.318 23.616 13.6795 23.1091 13.1481C22.7236 12.8027 22.3219 12.5644 21.7994 12.5123C21.746 12.5069 21.6927 12.5014 21.6377 12.4958C21.5973 12.4919 21.5569 12.4881 21.5153 12.4841C21.5164 12.443 21.5174 12.402 21.5185 12.3597C21.5555 10.6759 21.3353 9.34778 20.1332 8.08465C19.5654 7.53844 18.9394 7.21761 18.195 6.97234C18.147 6.95591 18.099 6.93947 18.0495 6.92254C16.4505 6.47193 14.7894 7.1582 13.6794 8.30047Z" fill="#383838"/>
<path d="M12.417 14.6758C15.4411 14.6758 18.4653 14.6758 21.5811 14.6758C21.5811 17.3274 21.5811 19.979 21.5811 22.7109C18.5569 22.7109 15.5328 22.7109 12.417 22.7109C12.417 20.0593 12.417 17.4077 12.417 14.6758Z" fill="#383838"/>
<path d="M18.2776 9.38441C18.766 9.72358 19.1045 10.1813 19.2568 10.7577C19.3515 11.3258 19.3232 11.9083 19.3232 12.4842C17.7893 12.4842 16.2553 12.4842 14.6748 12.4842C14.6748 10.4022 14.6748 10.4022 15.3806 9.64563C16.1927 8.89013 17.3381 8.83404 18.2776 9.38441Z" fill="#383838"/>
</g>
<defs>
<clipPath id="clip0_268_1562">
<rect width="34" height="34" fill="white"/>
</clipPath>
</defs>
</svg>
