<svg width="27" height="27" viewBox="0 0 27 27" fill="none" xmlns="http://www.w3.org/2000/svg">
<path d="M3.53445 14.7656C3.56469 14.7742 3.59492 14.7827 3.62607 14.7915C3.74389 14.818 3.84643 14.8256 3.96695 14.8267C4.01072 14.8272 4.0545 14.8277 4.0996 14.8283C4.14717 14.8286 4.19473 14.8289 4.24374 14.8292C4.31939 14.83 4.31939 14.83 4.39658 14.8308C4.56321 14.8324 4.72984 14.8337 4.89648 14.835C5.01205 14.8361 5.12761 14.8372 5.24318 14.8384C5.5473 14.8413 5.85142 14.8439 6.15555 14.8464C6.4659 14.8491 6.77625 14.852 7.08661 14.8549C7.69552 14.8606 8.30444 14.8659 8.91336 14.8711C8.9161 14.9057 8.91885 14.9402 8.92168 14.9758C8.93443 15.1344 8.94758 15.293 8.96074 15.4516C8.96505 15.506 8.96936 15.5603 8.9738 15.6163C9.05883 16.629 9.4225 17.5659 10.0735 18.3516C10.111 18.397 10.1484 18.4424 10.187 18.4892C11.0469 19.4866 12.2738 20.0786 13.583 20.1888C14.8861 20.274 16.1251 19.8502 17.1399 19.0371C17.1804 19.0053 17.221 18.9735 17.2627 18.9407C18.2572 18.1131 18.8132 16.8243 18.9329 15.5566C18.9422 15.4382 18.9514 15.3198 18.9604 15.2013C18.9652 15.1395 18.9699 15.0777 18.9748 15.014C18.9801 14.9433 18.9801 14.9433 18.9856 14.8711C19.0499 14.8706 19.1142 14.87 19.1804 14.8694C19.7857 14.8643 20.3909 14.8589 20.9962 14.8532C21.3073 14.8503 21.6185 14.8475 21.9297 14.8449C22.2299 14.8424 22.5301 14.8396 22.8303 14.8367C22.9449 14.8356 23.0596 14.8346 23.1742 14.8337C23.3346 14.8324 23.4949 14.8308 23.6552 14.8292C23.7028 14.8289 23.7504 14.8286 23.7994 14.8283C23.865 14.8275 23.865 14.8275 23.932 14.8267C23.9699 14.8264 24.0079 14.826 24.0469 14.8257C24.1581 14.8181 24.2575 14.7958 24.3645 14.7656C24.3711 15.0462 24.3758 15.3267 24.379 15.6073C24.3803 15.7027 24.3821 15.7981 24.3844 15.8935C24.3876 16.0308 24.3891 16.1681 24.3903 16.3054C24.3916 16.3479 24.393 16.3904 24.3944 16.4341C24.3945 16.6463 24.3795 16.7467 24.2606 16.9284C24.044 17.0705 23.8823 17.069 23.6285 17.0649C23.5831 17.0653 23.5376 17.0658 23.4908 17.0662C23.3459 17.0674 23.201 17.0669 23.0561 17.0662C22.9117 17.066 22.7674 17.0661 22.623 17.0672C22.5334 17.0679 22.4437 17.0678 22.3541 17.0667C22.0254 17.0683 21.7367 17.1175 21.467 17.3219C21.2627 17.5736 21.1444 17.8345 21.0324 18.1373C21.0063 18.205 21.0063 18.205 20.9797 18.274C20.9457 18.3628 20.912 18.4518 20.8787 18.5409C20.8478 18.6237 20.8165 18.7064 20.7845 18.7888C20.6769 19.0679 20.612 19.2754 20.7097 19.5689C20.9133 20.0248 21.2547 20.3321 21.6092 20.6719C21.701 20.7611 21.7927 20.8506 21.8843 20.9401C21.941 20.9954 21.9979 21.0504 22.0549 21.1053C22.2066 21.2518 22.2943 21.3391 22.3343 21.5486C22.2624 22.0335 21.602 22.4931 21.2633 22.8308C21.1568 22.937 21.0505 23.0435 20.9443 23.1501C20.8767 23.2177 20.809 23.2853 20.7413 23.3529C20.6937 23.4007 20.6937 23.4007 20.6451 23.4494C20.3737 23.7193 20.3737 23.7193 20.1392 23.7568C19.6158 23.6893 19.1622 23.0078 18.8157 22.6434C18.415 22.2275 18.415 22.2275 17.8696 22.0921C17.5598 22.1123 17.2922 22.2206 17.0114 22.3462C16.9677 22.3653 16.924 22.3844 16.8789 22.404C16.7546 22.4587 16.6308 22.5144 16.5071 22.5703C16.4495 22.5958 16.3918 22.6213 16.3324 22.6476C16.0382 22.7846 15.8648 22.913 15.7119 23.2071C15.6439 23.4231 15.6497 23.6257 15.6508 23.8508C15.65 23.9472 15.6491 24.0437 15.6482 24.1402C15.6473 24.2916 15.6469 24.4429 15.6473 24.5943C15.6474 24.7409 15.6459 24.8874 15.6442 25.034C15.6447 25.0791 15.6453 25.1242 15.6458 25.1707C15.6424 25.3814 15.6248 25.4995 15.5159 25.6838C15.2573 25.8419 15.0167 25.8238 14.7191 25.8203C14.658 25.8204 14.597 25.8205 14.5341 25.8207C14.4052 25.8206 14.2763 25.8199 14.1474 25.8186C13.9502 25.8168 13.7531 25.8175 13.5558 25.8185C13.4305 25.8182 13.3052 25.8176 13.1799 25.817C13.121 25.8172 13.062 25.8175 13.0013 25.8178C12.7683 25.8142 12.5956 25.8075 12.3829 25.7081C12.2478 25.5195 12.2529 25.3459 12.2566 25.1224C12.2562 25.0781 12.2558 25.0339 12.2554 24.9884C12.2541 24.847 12.2546 24.7057 12.2554 24.5643C12.2556 24.4239 12.2554 24.2835 12.2543 24.1431C12.2537 24.0559 12.2538 23.9687 12.2548 23.8815C12.2531 23.5195 12.1752 23.2022 11.9831 22.8931C11.8413 22.7571 11.7129 22.6984 11.5303 22.6263C11.4642 22.5999 11.3982 22.5734 11.3321 22.5468C11.2984 22.5335 11.2647 22.5201 11.2299 22.5064C11.13 22.4656 11.0321 22.4217 10.9342 22.3763C10.3665 22.1088 10.3665 22.1088 9.75505 22.1237C9.32651 22.3081 8.99765 22.6918 8.68161 23.0233C8.64007 23.0663 8.59853 23.1093 8.55573 23.1537C8.47207 23.2406 8.38925 23.3284 8.30735 23.417C8.01992 23.7153 8.01992 23.7153 7.77689 23.7813C7.59273 23.7298 7.53423 23.6899 7.3969 23.5657C7.35987 23.5323 7.32285 23.4989 7.2847 23.4645C7.00705 23.2078 6.73513 22.9457 6.46538 22.6807C6.39195 22.609 6.31809 22.5377 6.24383 22.4668C6.13564 22.3634 6.02888 22.2587 5.92233 22.1536C5.88905 22.1223 5.85577 22.091 5.82148 22.0588C5.66236 21.899 5.57032 21.7884 5.56107 21.5576C5.59049 21.3614 5.60425 21.2913 5.74023 21.1547C5.79086 21.1025 5.79086 21.1025 5.84251 21.0493C5.88136 21.0117 5.92021 20.9742 5.96023 20.9355C6.0037 20.8926 6.04718 20.8496 6.09197 20.8054C6.28599 20.6149 6.48109 20.4256 6.67812 20.2383C6.9691 19.9539 7.2049 19.721 7.23317 19.2964C7.23039 18.9061 7.0112 18.5388 6.85046 18.1919C6.78351 18.0421 6.72698 17.8886 6.66885 17.7352C6.53845 17.4212 6.40564 17.2684 6.08664 17.1333C5.85766 17.0728 5.64676 17.0722 5.41105 17.0734C5.31451 17.0726 5.21797 17.0717 5.12143 17.0708C4.97017 17.0699 4.81894 17.0695 4.66767 17.0698C4.52103 17.07 4.37446 17.0685 4.22783 17.0668C4.18261 17.0673 4.1374 17.0679 4.09082 17.0684C3.88224 17.065 3.77886 17.0594 3.61105 16.9283C3.50763 16.714 3.50783 16.5403 3.51385 16.3054C3.51415 16.2613 3.51445 16.2172 3.51476 16.1718C3.51593 16.0315 3.51858 15.8913 3.52127 15.7511C3.52233 15.6558 3.52329 15.5604 3.52415 15.4651C3.52647 15.2319 3.53011 14.9988 3.53445 14.7656Z" fill="#000A4C" fill-opacity="0.78"/>
<path d="M9.49219 14.8711C12.4332 14.8711 15.3742 14.8711 18.4043 14.8711C18.4043 16.204 18.0837 17.3561 17.1527 18.3439C16.2307 19.2167 15.0912 19.6948 13.8164 19.6699C12.537 19.6149 11.4483 19.0798 10.5634 18.1571C9.74112 17.2084 9.49219 16.1063 9.49219 14.8711Z" fill="#000A4C" fill-opacity="0.78"/>
<path d="M15.5659 2.03022C15.5975 2.05612 15.6292 2.08202 15.6617 2.1087C15.7172 2.14786 15.7727 2.18702 15.8298 2.22736C16.3341 2.72039 16.5064 3.38417 16.5209 4.06946C16.5277 4.99392 16.3609 5.90948 15.7031 6.61461C15.0893 7.14921 14.4038 7.32598 13.6051 7.27667C12.9528 7.17553 12.3767 6.88542 11.9748 6.35156C11.3655 5.43233 11.2277 4.39392 11.443 3.3216C11.6378 2.65791 12.0128 2.1752 12.6132 1.83164C13.4827 1.41014 14.7794 1.42873 15.5659 2.03022Z" fill="#000A4C" fill-opacity="0.78"/>
<path d="M10.9164 9.07031C11.0435 9.23072 11.1413 9.39598 11.2371 9.57664C11.2685 9.63552 11.2999 9.6944 11.3322 9.75506C11.3661 9.81905 11.4 9.88303 11.4339 9.94702C11.4693 10.0136 11.5047 10.0801 11.5401 10.1466C11.5948 10.2492 11.6494 10.3517 11.704 10.4543C11.8809 10.7868 12.0593 11.1185 12.2381 11.45C12.2987 11.5625 12.3593 11.675 12.42 11.7876C12.4813 11.9014 12.5426 12.0151 12.6039 12.1289C12.7336 12.3695 12.8632 12.6101 12.9928 12.8507C13.0361 12.9309 13.0361 12.9309 13.0802 13.0127C13.3094 13.4382 13.5366 13.8646 13.7641 14.291C12.7547 14.291 11.7454 14.291 10.7055 14.291C10.6794 13.6123 10.6794 13.6123 10.6527 12.9199C10.6179 12.8503 10.5831 12.7807 10.5473 12.709C10.4418 12.7067 10.3363 12.7068 10.2309 12.709C10.1328 12.8071 10.1654 12.97 10.1614 13.1014C10.1594 13.1634 10.1574 13.2253 10.1554 13.2892C10.1531 13.3685 10.1508 13.4479 10.1485 13.5297C10.1408 13.7809 10.1332 14.0322 10.1254 14.291C9.4815 14.291 8.83762 14.291 8.17422 14.291C8.15721 12.7343 8.20511 11.4063 9.28164 10.1777C9.31291 10.1414 9.34418 10.1051 9.3764 10.0677C9.79305 9.61725 10.3502 9.29486 10.9164 9.07031Z" fill="#000A4C" fill-opacity="0.78"/>
<path d="M16.9277 9.07031C17.3879 9.23736 17.7606 9.44791 18.1406 9.75586C18.1858 9.79168 18.2309 9.82751 18.2774 9.86442C19.0617 10.5241 19.5882 11.542 19.6808 12.5655C19.6949 12.8508 19.6893 13.1353 19.6831 13.4209C19.6788 13.708 19.6744 13.9952 19.6699 14.291C19.0434 14.291 18.417 14.291 17.7715 14.291C17.7484 13.5593 17.7484 13.5593 17.7415 13.3286C17.7395 13.2689 17.7375 13.2093 17.7354 13.1478C17.7335 13.0864 17.7316 13.0251 17.7296 12.962C17.7283 12.8169 17.7283 12.8169 17.666 12.709C17.5702 12.6597 17.5702 12.6597 17.4551 12.6562C17.3855 12.7085 17.3159 12.7607 17.2441 12.8145C17.2267 13.3017 17.2093 13.789 17.1914 14.291C16.1821 14.291 15.1727 14.291 14.1328 14.291C14.3931 13.7705 14.6542 13.2537 14.9304 12.7419C14.9647 12.6783 14.9989 12.6147 15.0331 12.551C15.1203 12.3889 15.2076 12.2269 15.295 12.0648C15.3751 11.9162 15.455 11.7675 15.535 11.6189C15.6562 11.3937 15.7774 11.1685 15.8988 10.9434C16.0122 10.733 16.1254 10.5225 16.2384 10.3119C16.2899 10.2158 16.3415 10.1198 16.3931 10.0238C16.4581 9.9026 16.5231 9.78139 16.5881 9.66015C16.6172 9.60588 16.6464 9.55161 16.6764 9.49569C16.7021 9.4478 16.7278 9.39992 16.7542 9.35058C16.8223 9.22852 16.8223 9.22852 16.9277 9.07031Z" fill="#000A4C" fill-opacity="0.78"/>
<path d="M20.1124 10.5377C20.1575 10.5375 20.2026 10.5373 20.2491 10.5371C20.3452 10.5369 20.4413 10.5367 20.5375 10.5368C20.6823 10.5366 20.827 10.5357 20.9718 10.5347C21.9227 10.5314 22.8113 10.5941 23.5335 11.2885C24.1169 11.9376 24.3644 12.6833 24.3831 13.5425C24.3844 13.581 24.3858 13.6195 24.3872 13.6591C24.3878 13.8548 24.37 13.9638 24.2632 14.1298C24.0733 14.315 23.9472 14.2971 23.6864 14.2967C23.6493 14.2967 23.6123 14.2967 23.5741 14.2967C23.4514 14.2966 23.3287 14.2962 23.206 14.2958C23.121 14.2957 23.0361 14.2956 22.9511 14.2956C22.7272 14.2954 22.5034 14.2949 22.2795 14.2943C22.0512 14.2937 21.8229 14.2935 21.5945 14.2932C21.1463 14.2927 20.6982 14.2918 20.25 14.2907C20.2493 14.2138 20.2493 14.2138 20.2485 14.1355C20.2464 13.9407 20.2429 13.746 20.2391 13.5513C20.2376 13.468 20.2365 13.3846 20.2357 13.3012C20.2281 12.5083 20.1142 11.7819 19.7832 11.0535C19.7178 10.9046 19.6666 10.7541 19.6172 10.5993C19.7266 10.4898 19.9616 10.5379 20.1124 10.5377Z" fill="#000A4C" fill-opacity="0.78"/>
<path d="M6.57786 10.5412C6.62525 10.5412 6.67265 10.5413 6.72148 10.5414C6.87136 10.5417 7.02124 10.5423 7.17112 10.543C7.27336 10.5433 7.37561 10.5435 7.47785 10.5437C7.72717 10.5443 7.97649 10.5452 8.22581 10.5463C8.22581 10.7775 8.178 10.8799 8.08079 11.0868C7.7064 11.9216 7.64865 12.7659 7.61607 13.6708C7.61265 13.7609 7.61265 13.7609 7.60917 13.8527C7.60365 13.9986 7.59826 14.1445 7.593 14.2904C7.10159 14.2953 6.6102 14.2991 6.11877 14.3014C5.89059 14.3025 5.66241 14.304 5.43424 14.3064C5.21404 14.3087 4.99385 14.3099 4.77364 14.3105C4.68962 14.3109 4.6056 14.3116 4.52159 14.3128C4.40391 14.3143 4.2863 14.3145 4.16861 14.3144C4.10163 14.3149 4.03465 14.3153 3.96563 14.3158C3.76614 14.286 3.70675 14.2367 3.58519 14.0795C3.38479 13.6787 3.51179 12.8973 3.63648 12.4847C3.90981 11.751 4.33868 11.1501 5.06175 10.81C5.56716 10.5909 6.03284 10.5379 6.57786 10.5412Z" fill="#000A4C" fill-opacity="0.78"/>
<path d="M6.98422 5.10772C7.51591 5.08895 7.97493 5.18377 8.38868 5.53228C8.80052 5.97718 8.83162 6.50766 8.8223 7.08279C8.80149 7.5951 8.64518 8.06982 8.28033 8.43802C7.86987 8.8117 7.48512 8.88645 6.93581 8.87596C6.50105 8.83816 6.18828 8.67055 5.89431 8.34986C5.48119 7.80149 5.39609 7.16948 5.4609 6.50251C5.524 6.05492 5.66335 5.73137 6.01275 5.43216C6.3272 5.23165 6.61313 5.13106 6.98422 5.10772Z" fill="#000A4C" fill-opacity="0.78"/>
<path d="M21.882 5.44112C22.1965 5.71891 22.3822 6.07593 22.4251 6.49494C22.4596 7.16763 22.4232 7.80505 21.9757 8.34604C21.6169 8.71558 21.2824 8.86045 20.7655 8.87998C20.3126 8.87062 19.9386 8.77077 19.5988 8.4614C19.1393 7.94828 19.0132 7.28338 19.0486 6.61199C19.1158 6.09027 19.2556 5.73971 19.667 5.40466C20.2992 4.95744 21.2619 4.99661 21.882 5.44112Z" fill="#000A4C" fill-opacity="0.78"/>
<path d="M13.1328 8.80664C13.6723 8.80664 14.2118 8.80664 14.7676 8.80664C14.6571 9.08279 14.5179 9.27307 14.3391 9.50702C14.1417 9.79333 14.0915 10.0429 14.1348 10.3887C14.2036 10.6778 14.2888 10.9614 14.3754 11.2456C14.4212 11.3962 14.4662 11.547 14.5107 11.698C14.5309 11.7643 14.551 11.8306 14.5718 11.8989C14.6301 12.1738 14.5662 12.3427 14.4361 12.5848C14.4125 12.6291 14.3889 12.6735 14.3646 12.7192C14.3275 12.7875 14.3275 12.7875 14.2897 12.8573C14.2648 12.9039 14.2398 12.9505 14.2142 12.9985C14.1529 13.1131 14.0912 13.2275 14.0293 13.3418C13.9771 13.3418 13.9249 13.3418 13.8711 13.3418C13.7715 13.1758 13.6744 13.0085 13.5778 12.8408C13.5496 12.7941 13.5215 12.7473 13.4926 12.6991C13.2468 12.2678 13.2468 12.2678 13.3085 11.9877C13.3201 11.9473 13.3318 11.9069 13.3438 11.8652C13.3586 11.8091 13.3735 11.753 13.3888 11.6952C13.4526 11.4606 13.5199 11.2272 13.5883 10.994C13.6177 10.8933 13.6464 10.7925 13.6752 10.6917C13.6925 10.6322 13.7099 10.5728 13.7277 10.5115C13.8221 10.074 13.7237 9.80992 13.502 9.43945C13.4055 9.29703 13.3068 9.15733 13.2043 9.01923C13.1328 8.91211 13.1328 8.91211 13.1328 8.80664Z" fill="#000A4C" fill-opacity="0.78"/>
</svg>
