<svg width="24" height="24" viewBox="0 0 24 24" fill="none" xmlns="http://www.w3.org/2000/svg">
<path d="M10.115 21.8124C10.721 22.3124 11.353 22.7694 12 23.2154C12.6484 22.7753 13.2773 22.3072 13.885 21.8124C14.898 20.9806 15.8513 20.0787 16.738 19.1134C18.782 16.8784 21 13.6384 21 10.0014C21 8.81951 20.7672 7.64918 20.3149 6.55725C19.8626 5.46532 19.1997 4.47317 18.364 3.63744C17.5282 2.80172 16.5361 2.13878 15.4442 1.68649C14.3522 1.2342 13.1819 1.0014 12 1.0014C10.8181 1.0014 9.64778 1.2342 8.55585 1.68649C7.46392 2.13878 6.47177 2.80172 5.63604 3.63744C4.80031 4.47317 4.13738 5.46532 3.68508 6.55725C3.23279 7.64918 3 8.81951 3 10.0014C3 13.6384 5.218 16.8774 7.262 19.1134C8.14862 20.0791 9.10196 20.9803 10.115 21.8124ZM12 13.2514C11.138 13.2514 10.3114 12.909 9.7019 12.2995C9.09241 11.69 8.75 10.8634 8.75 10.0014C8.75 9.13945 9.09241 8.3128 9.7019 7.70331C10.3114 7.09381 11.138 6.7514 12 6.7514C12.862 6.7514 13.6886 7.09381 14.2981 7.70331C14.9076 8.3128 15.25 9.13945 15.25 10.0014C15.25 10.8634 14.9076 11.69 14.2981 12.2995C13.6886 12.909 12.862 13.2514 12 13.2514Z" fill="#FF0004"/>
</svg>
