<svg width="35" height="35" viewBox="0 0 35 35" fill="none" xmlns="http://www.w3.org/2000/svg">
<path d="M19.3192 4.9C19.4083 4.90019 19.4974 4.90038 19.5893 4.90057C21.3588 4.91959 21.3588 4.91959 21.8741 5.26316C21.8106 5.29136 21.7471 5.31956 21.6816 5.34861C21.007 5.65892 20.564 5.95301 20.272 6.66453C20.2352 6.76666 20.1992 6.86907 20.1652 6.97215C20.1111 6.97056 20.0571 6.96897 20.0015 6.96734C17.6841 6.93026 15.5579 7.60453 13.8654 9.23682C12.5405 10.555 11.6196 12.3972 11.5519 14.2866C11.5483 14.3654 11.5448 14.4442 11.5412 14.5253C11.4956 16.4435 12.0906 18.3455 13.3292 19.8237C13.3869 19.8926 13.4447 19.9615 13.5041 20.0325C14.7525 21.477 16.5673 22.392 18.4562 22.6264C20.7397 22.7811 22.8127 22.2366 24.5703 20.7381C24.8237 20.5143 25.0615 20.2759 25.2921 20.0288C25.3252 20.056 25.3584 20.0832 25.3925 20.1113C26.0227 20.6094 26.5433 20.6798 27.3429 20.7124C26.8938 21.795 25.6709 22.6112 24.7312 23.2291C24.6315 23.2949 24.5328 23.362 24.4344 23.4297C23.4945 24.043 22.3458 24.3711 21.2589 24.6089C21.1455 24.6341 21.1455 24.6341 21.0298 24.6599C18.5984 25.0973 15.923 24.521 13.8822 23.1407C13.7092 23.0198 13.5386 22.896 13.3685 22.7712C13.2238 22.6685 13.0729 22.578 12.9191 22.4897C12.8563 22.5533 12.7936 22.6168 12.7289 22.6823C12.6442 22.7676 12.5595 22.853 12.4747 22.9383C12.4337 22.98 12.3926 23.0216 12.3503 23.0645C12.1402 23.2757 11.9276 23.4793 11.7014 23.6732C11.3492 23.9772 11.0247 24.3084 10.6974 24.6388C10.6346 24.7018 10.5719 24.7649 10.5073 24.8298C10.354 24.9839 10.2009 25.1381 10.048 25.2925C10.0924 25.3657 10.1368 25.4389 10.1825 25.5144C10.3518 25.8115 10.3648 25.9759 10.3214 26.3178C10.1366 26.6356 9.91104 26.8843 9.6517 27.14C9.61393 27.1778 9.57616 27.2155 9.53725 27.2544C9.45767 27.3338 9.37792 27.413 9.29802 27.492C9.17733 27.6115 9.05719 27.7315 8.93713 27.8515C8.30384 28.4828 8.30384 28.4828 7.99612 28.7449C7.58555 29.0952 7.21418 29.4889 6.83508 29.8725C5.9496 30.7685 5.9496 30.7685 5.51842 31.1351C5.27569 31.3486 5.05655 31.5877 4.8361 31.8238C4.53089 32.1391 4.28565 32.2621 3.83581 32.2694C3.23886 32.1698 2.75582 31.4798 2.34569 31.0696C2.24649 30.9706 2.14675 30.8721 2.04698 30.7736C1.15625 29.8888 1.15625 29.8888 1.03601 29.4688C1.03667 29.381 1.03667 29.381 1.03735 29.2915C1.0355 29.233 1.03364 29.1745 1.03174 29.1142C1.12936 28.797 1.34301 28.6036 1.5714 28.3686C1.60177 28.3373 1.63214 28.306 1.66343 28.2738C1.87629 28.0551 2.09143 27.8389 2.30762 27.6235C2.4214 27.5101 2.53482 27.3963 2.6482 27.2825C3.25269 26.6777 3.25269 26.6777 3.55196 26.4228C3.96345 26.0714 4.33587 25.677 4.71593 25.2925C5.60933 24.3885 5.60933 24.3885 6.03839 24.0234C6.26575 23.8261 6.46956 23.6045 6.67806 23.3877C6.96352 23.1222 7.18362 23.0757 7.5646 23.082C7.82155 23.1191 7.98927 23.2334 8.20226 23.3784C8.24033 23.3395 8.2784 23.3007 8.31762 23.2606C8.39587 23.1815 8.39587 23.1815 8.4757 23.1007C8.55184 23.0234 8.55184 23.0234 8.62951 22.9445C8.76861 22.8103 8.90777 22.6852 9.05462 22.5602C9.48708 22.185 9.88408 21.7721 10.2872 21.3661C10.3703 21.2826 10.4535 21.1992 10.5366 21.1157C10.7385 20.9131 10.9402 20.7103 11.1417 20.5073C11.102 20.4347 11.102 20.4347 11.0615 20.3605C10.9513 20.1589 10.8414 19.9571 10.7316 19.7553C10.706 19.7087 10.6805 19.662 10.6542 19.6139C9.41647 17.3304 9.07964 14.6196 9.79799 12.1103C10.3278 10.3645 11.2004 8.93066 12.5089 7.65574C12.5423 7.61846 12.5757 7.58119 12.6101 7.54279C13.3507 6.74331 14.3237 6.1796 15.3116 5.74168C15.3758 5.7129 15.3758 5.7129 15.4413 5.68353C16.6775 5.1372 17.969 4.89424 19.3192 4.9Z" fill="#383838"/>
<path d="M32.5338 7.21612C32.621 7.21476 32.7082 7.21339 32.798 7.21199C32.9241 7.21205 32.9241 7.21205 33.0526 7.21212C33.1293 7.21199 33.2059 7.21187 33.2849 7.21173C33.54 7.25337 33.6532 7.34123 33.8369 7.51947C33.936 7.71762 33.9146 7.89005 33.9153 8.11151C33.9156 8.15884 33.9158 8.20617 33.9161 8.25494C33.9168 8.41431 33.9171 8.57369 33.9174 8.73306C33.9178 8.84702 33.9182 8.96098 33.9187 9.07494C33.9199 9.3851 33.9206 9.69527 33.9212 10.0054C33.9215 10.1991 33.922 10.3928 33.9224 10.5865C33.9237 11.1922 33.9247 11.7979 33.9252 12.4036C33.9259 13.1033 33.9277 13.803 33.9305 14.5027C33.9325 15.0432 33.9335 15.5837 33.9338 16.1242C33.9339 16.4472 33.9345 16.7702 33.9363 17.0931C33.9378 17.397 33.9381 17.7008 33.9374 18.0046C33.9374 18.1161 33.9378 18.2277 33.9388 18.3392C33.94 18.4915 33.9395 18.6436 33.9386 18.7959C33.9388 18.8811 33.9389 18.9663 33.9391 19.0541C33.899 19.3184 33.8177 19.4307 33.6318 19.6191C33.3209 19.7746 32.8965 19.7093 32.5552 19.7131C32.4679 19.7156 32.3807 19.7182 32.2908 19.7208C31.5703 19.7276 31.5703 19.7276 31.3193 19.5278C31.0905 19.247 31.0938 19.0394 31.0929 18.6874C31.0927 18.6411 31.0925 18.5949 31.0923 18.5472C31.0917 18.3918 31.0916 18.2364 31.0915 18.081C31.0912 17.9698 31.0908 17.8585 31.0905 17.7472C31.0896 17.4447 31.0891 17.1421 31.0888 16.8396C31.0886 16.6506 31.0884 16.4617 31.088 16.2727C31.0871 15.6817 31.0865 15.0907 31.0862 14.4996C31.0859 13.8171 31.0847 13.1345 31.0827 12.4519C31.0812 11.9245 31.0805 11.3971 31.0804 10.8696C31.0804 10.5545 31.08 10.2394 31.0787 9.92432C31.0776 9.62795 31.0775 9.33159 31.0781 9.03522C31.0781 8.92645 31.0778 8.81769 31.0772 8.70892C31.0763 8.56041 31.0767 8.41194 31.0774 8.26343C31.0773 8.18033 31.0772 8.09723 31.0771 8.01161C31.1116 7.71467 31.2207 7.53772 31.43 7.32906C31.7569 7.14931 32.1702 7.21411 32.5338 7.21612Z" fill="#383838"/>
<path d="M33.2866 2.95245C33.5743 3.18937 33.6943 3.46135 33.7566 3.82403C33.7896 4.18385 33.7079 4.46616 33.5088 4.76825C33.1957 5.09026 32.9419 5.15238 32.5048 5.18107C32.4484 5.18583 32.392 5.19059 32.3339 5.19549C32.2542 5.19919 32.2542 5.19919 32.1728 5.20297C31.8857 5.29969 31.7053 5.50704 31.4922 5.71673C31.4004 5.80482 31.3085 5.89285 31.2166 5.98082C31.1731 6.02282 31.1296 6.06482 31.0847 6.1081C30.9109 6.27414 30.7302 6.43121 30.5482 6.58805C30.2115 6.88001 29.8829 7.18159 29.5528 7.48099C29.4935 7.53466 29.4341 7.58832 29.373 7.64361C29.3197 7.69199 29.2664 7.74037 29.2115 7.79021C29.0526 7.92987 29.0526 7.92987 28.8662 8.05938C28.6705 8.24067 28.6618 8.34298 28.6382 8.60492C28.5786 9.05397 28.464 9.29641 28.1127 9.59186C27.7368 9.78702 27.4297 9.81606 27.0275 9.70721C26.6922 9.58235 26.5274 9.37083 26.3182 9.09198C26.1006 8.84297 25.8503 8.80973 25.5369 8.74724C25.4804 8.73539 25.4238 8.72355 25.3655 8.71134C25.246 8.68645 25.1263 8.66194 25.0066 8.63778C24.8239 8.60084 24.6414 8.56273 24.4589 8.52441C24.3426 8.50035 24.2263 8.47636 24.1099 8.45244C24.0555 8.44112 24.0011 8.42981 23.945 8.41814C23.5624 8.33924 23.5624 8.33924 23.1737 8.34002C23.0573 8.42802 22.9433 8.51922 22.8319 8.61346C22.667 8.67455 22.566 8.68292 22.3908 8.65725C22.0304 8.60692 21.7754 8.63616 21.4797 8.85058C21.2411 9.04127 21.0136 9.24466 20.7858 9.44803C20.5644 9.63982 20.3296 9.81202 20.0933 9.98492C19.668 10.2989 19.2538 10.6245 18.8462 10.9612C18.5399 11.2111 18.5399 11.2111 18.3885 11.2111C18.4007 11.2508 18.4129 11.2904 18.4254 11.3313C18.4846 11.6193 18.3969 11.9025 18.2492 12.1508C18.0564 12.4002 17.8648 12.546 17.5682 12.6467C17.1605 12.6946 16.819 12.6843 16.4745 12.4416C16.1759 12.1444 15.9892 11.9054 15.9746 11.4717C15.9791 11.1293 16.0733 10.8754 16.2694 10.5959C16.4546 10.4197 16.5745 10.3347 16.8163 10.2541C16.9502 10.2668 17.084 10.2796 17.2179 10.2925C17.7738 10.2944 18.0709 10.0287 18.4679 9.67871C18.6505 9.52156 18.8411 9.3755 19.032 9.22868C19.189 9.10793 19.3446 8.98556 19.5002 8.86313C19.7201 8.69145 19.9437 8.52703 20.1715 8.36593C20.2278 8.32506 20.2841 8.2842 20.3421 8.24209C20.4493 8.16439 20.5578 8.0883 20.6676 8.01418C20.9681 7.79324 21.0837 7.64141 21.1462 7.26844C21.1519 7.20602 21.1576 7.14361 21.1635 7.0793C21.2105 6.78334 21.3669 6.60322 21.6014 6.42596C21.9787 6.21175 22.3209 6.18858 22.7382 6.29405C22.9982 6.39602 23.2121 6.54189 23.3788 6.76776C23.404 6.88118 23.427 6.99512 23.4471 7.10956C23.5182 7.12057 23.5182 7.12057 23.5907 7.1318C24.251 7.23761 24.9025 7.37852 25.5552 7.52332C25.6398 7.54143 25.7245 7.55953 25.8117 7.57819C25.8877 7.59486 25.9638 7.61153 26.0421 7.62871C26.3589 7.67097 26.5718 7.61159 26.8395 7.44708C27.0817 7.31703 27.2461 7.308 27.5188 7.32745C27.7888 7.33937 27.7888 7.33937 28.0256 7.22598C28.1469 7.10087 28.2572 6.96969 28.369 6.83612C28.4543 6.75747 28.5413 6.68058 28.6296 6.60541C28.9573 6.32256 29.2782 6.03247 29.5995 5.74237C30.2466 5.15803 30.2466 5.15803 30.5736 4.87079C30.6171 4.83193 30.6607 4.79306 30.7055 4.75303C30.83 4.64862 30.83 4.64862 30.9501 4.57198C31.1418 4.44558 31.232 4.34024 31.286 4.11776C31.3067 3.97312 31.3261 3.82829 31.3443 3.68331C31.4043 3.32048 31.5714 3.13715 31.8553 2.91827C32.306 2.66475 32.8467 2.66133 33.2866 2.95245Z" fill="#383838"/>
<path d="M22.167 10.8484C22.3057 10.8472 22.4442 10.8442 22.5829 10.8412C22.6706 10.8406 22.7583 10.84 22.8487 10.8394C22.9693 10.838 22.9693 10.838 23.0923 10.8364C23.3558 10.8751 23.4669 10.9544 23.6527 11.142C23.7184 11.3389 23.73 11.4633 23.7307 11.6679C23.7311 11.7338 23.7315 11.7997 23.7319 11.8677C23.7319 11.9399 23.732 12.0121 23.7321 12.0866C23.7326 12.2008 23.7326 12.2008 23.7331 12.3173C23.7341 12.5698 23.7346 12.8223 23.735 13.0747C23.7354 13.2499 23.7358 13.425 23.7362 13.6002C23.7368 13.9206 23.7372 14.2411 23.7374 14.5615C23.7377 15.033 23.7389 15.5044 23.7409 15.9759C23.7426 16.3844 23.7431 16.7929 23.7432 17.2015C23.7434 17.3752 23.744 17.5489 23.7449 17.7226C23.746 17.9655 23.7459 18.2083 23.7455 18.4512C23.7464 18.5591 23.7464 18.5591 23.7474 18.6693C23.7439 19.2796 23.7439 19.2796 23.516 19.5502C23.1815 19.79 22.7161 19.7093 22.324 19.7083C22.2401 19.7094 22.1561 19.7105 22.0696 19.7116C21.9887 19.7117 21.9078 19.7117 21.8244 19.7117C21.7506 19.7119 21.6768 19.7122 21.6008 19.7124C21.3663 19.6831 21.2414 19.6259 21.0551 19.4818C20.9267 19.2755 20.901 19.1178 20.9001 18.8768C20.8992 18.7769 20.8992 18.7769 20.8983 18.6749C20.8984 18.6023 20.8984 18.5297 20.8985 18.4549C20.898 18.378 20.8976 18.3012 20.8971 18.222C20.8958 17.9677 20.8955 17.7134 20.8954 17.4591C20.8949 17.2825 20.8945 17.1059 20.894 16.9294C20.8932 16.5591 20.8929 16.1889 20.893 15.8186C20.8931 15.3909 20.8917 14.9633 20.8895 14.5356C20.8875 14.1238 20.887 13.712 20.8871 13.3002C20.8869 13.1252 20.8863 12.9501 20.8853 12.775C20.8839 12.5304 20.8843 12.2858 20.8851 12.0411C20.8844 11.9686 20.8836 11.8961 20.8828 11.8214C20.887 11.3302 20.887 11.3302 21.0486 11.0644C21.3708 10.7775 21.7542 10.8508 22.167 10.8484Z" fill="#383838"/>
<path d="M27.3986 12.6972C27.4799 12.6958 27.5612 12.6944 27.645 12.6929C27.7234 12.6926 27.8019 12.6922 27.8828 12.6919C27.9546 12.6912 28.0264 12.6906 28.1003 12.6899C28.3352 12.7186 28.4555 12.7745 28.6419 12.9194C28.868 13.2108 28.8763 13.4787 28.8735 13.8342C28.8739 13.8911 28.8743 13.9479 28.8746 14.0065C28.8755 14.1938 28.8749 14.3812 28.8742 14.5686C28.8744 14.6991 28.8746 14.8296 28.8748 14.9601C28.8751 15.2334 28.8747 15.5066 28.8737 15.7799C28.8726 16.13 28.8732 16.4801 28.8745 16.8302C28.8752 17.0996 28.875 17.369 28.8744 17.6384C28.8743 17.7675 28.8745 17.8966 28.8749 18.0256C28.8755 18.2061 28.8747 18.3866 28.8735 18.567C28.8742 18.6469 28.8742 18.6469 28.8748 18.7283C28.8703 19.1107 28.7891 19.3352 28.5195 19.6039C28.1926 19.7837 27.7793 19.7189 27.4157 19.7169C27.3285 19.7182 27.2413 19.7196 27.1515 19.721C27.0255 19.7209 27.0255 19.7209 26.8969 19.7209C26.8202 19.721 26.7436 19.7211 26.6646 19.7213C26.4095 19.6796 26.2963 19.5918 26.1126 19.4135C26.0015 19.1912 26.0323 18.9463 26.0311 18.7019C26.0305 18.6425 26.03 18.583 26.0294 18.5217C26.0277 18.3244 26.0266 18.127 26.0256 17.9296C26.0252 17.8623 26.0248 17.795 26.0245 17.7256C26.0226 17.3693 26.0213 17.013 26.0203 16.6567C26.0192 16.2884 26.0161 15.9202 26.0126 15.552C26.0103 15.269 26.0096 14.986 26.0092 14.7031C26.0087 14.5673 26.0077 14.4316 26.006 14.2958C26.0039 14.1058 26.0039 13.9159 26.0044 13.7259C26.0033 13.6698 26.0021 13.6137 26.001 13.5559C26.0042 13.2625 26.0179 13.1571 26.2091 12.9203C26.5765 12.6346 26.9471 12.6992 27.3986 12.6972Z" fill="#383838"/>
<path d="M17.0402 15.4968C17.1789 15.4956 17.3174 15.4926 17.456 15.4896C17.5438 15.489 17.6315 15.4885 17.7219 15.4879C17.8425 15.4864 17.8425 15.4864 17.9655 15.4849C18.2276 15.5234 18.3387 15.6068 18.5259 15.7904C18.6081 15.9549 18.6042 16.061 18.6064 16.2447C18.6077 16.3436 18.6077 16.3436 18.609 16.4446C18.6095 16.5161 18.61 16.5876 18.6105 16.6612C18.6111 16.7346 18.6116 16.8079 18.6122 16.8835C18.6132 17.0389 18.6139 17.1943 18.6144 17.3498C18.6156 17.5875 18.6186 17.8251 18.6216 18.0627C18.6223 18.2136 18.6229 18.3645 18.6234 18.5155C18.6246 18.5865 18.6258 18.6576 18.627 18.7308C18.6255 19.2253 18.6255 19.2253 18.4643 19.491C18.1234 19.7942 17.6789 19.7078 17.2442 19.7125C17.1569 19.7151 17.0697 19.7177 16.9798 19.7203C16.2593 19.7271 16.2593 19.7271 16.0083 19.5272C15.8171 19.2927 15.7831 19.1278 15.7794 18.8346C15.7785 18.773 15.7777 18.7114 15.7768 18.6479C15.7763 18.5815 15.7758 18.515 15.7752 18.4466C15.7747 18.378 15.7741 18.3095 15.7736 18.2389C15.7726 18.0938 15.7719 17.9487 15.7713 17.8036C15.7702 17.5822 15.7672 17.3608 15.7642 17.1393C15.7635 16.9983 15.7629 16.8573 15.7624 16.7162C15.7612 16.6502 15.76 16.5842 15.7588 16.5161C15.7601 16.1164 15.7989 15.8901 16.065 15.5853C16.3522 15.4417 16.7242 15.4987 17.0402 15.4968Z" fill="#383838"/>
</svg>
