<svg width="37" height="37" viewBox="0 0 37 37" fill="none" xmlns="http://www.w3.org/2000/svg">
<path d="M23.7025 3.17981C23.7497 3.19769 23.7968 3.21556 23.8454 3.23397C26.2686 4.17523 28.0698 6.02029 29.1122 8.37891C30.0757 10.616 30.0788 13.2099 29.1998 15.472C29.0118 15.9353 28.8164 16.3854 28.5669 16.8191C28.3472 17.2077 28.2699 17.5653 28.3597 18.0087C28.4741 18.354 28.6603 18.5963 28.9056 18.8615C28.9772 18.8361 29.0487 18.8108 29.1224 18.7847C29.4214 18.7029 29.6947 18.6829 29.9896 18.7892C30.1249 18.888 30.1249 18.888 30.2617 19.0126C30.3121 19.0584 30.3625 19.1041 30.4144 19.1513C30.6572 19.379 30.8963 19.61 31.1329 19.844C31.1861 19.8964 31.2393 19.9488 31.2941 20.0027C31.8449 20.5456 32.3936 21.0907 32.942 21.6361C33.2018 21.8942 33.4622 22.1517 33.7233 22.4085C34.04 22.7201 34.3554 23.0328 34.67 23.3465C34.7895 23.4653 34.9095 23.5836 35.0299 23.7015C35.1985 23.8668 35.3654 24.0336 35.5321 24.2009C35.5815 24.2486 35.6309 24.2963 35.6818 24.3454C36.1237 24.795 36.3508 25.3203 36.3806 25.9525C36.3451 26.6134 36.1242 27.0434 35.6633 27.5206C35.1821 27.9375 34.6691 28.017 34.0444 27.9943C33.1839 27.8894 32.6204 27.2119 32.0369 26.6294C31.9849 26.5778 31.9329 26.5261 31.8793 26.4729C31.7093 26.304 31.5396 26.1348 31.37 25.9655C31.3117 25.9074 31.2534 25.8493 31.1934 25.7895C30.8856 25.4828 30.5781 25.176 30.2707 24.8689C29.9534 24.552 29.6353 24.2357 29.3172 23.9196C29.0722 23.6759 28.8277 23.4318 28.5833 23.1875C28.4662 23.0706 28.3489 22.954 28.2315 22.8374C28.0677 22.6749 27.9046 22.5117 27.7416 22.3482C27.6931 22.3003 27.6445 22.2524 27.5944 22.203C27.2849 21.8907 27.1137 21.6662 27.0809 21.2146C27.0988 20.9597 27.151 20.7606 27.2435 20.5236C26.8454 20.1699 26.4844 19.9596 25.9427 19.9454C25.4253 20.0079 24.9676 20.2835 24.5113 20.519C23.3699 21.1017 23.3699 21.1017 22.763 21.1017C22.763 20.3147 22.763 19.5277 22.763 18.7169C23.0969 18.5738 23.4308 18.4307 23.7748 18.2833C24.8057 17.6975 25.6353 16.9467 26.304 15.9708C26.3454 15.9108 26.3868 15.8508 26.4294 15.789C27.4446 14.2086 27.6933 12.247 27.3087 10.4317C26.8907 8.65298 25.828 7.06493 24.2806 6.07044C22.5931 5.06712 20.5944 4.67126 18.6673 5.1374C16.7313 5.66217 15.1698 6.89973 14.1674 8.62486C13.2476 10.3589 13.0677 12.3419 13.641 14.2175C13.9735 15.2227 14.4949 16.1577 15.2474 16.9103C15.21 17.1979 15.0789 17.4267 14.9053 17.6547C14.6119 17.8747 14.2772 17.8398 13.9221 17.8444C13.6167 17.8506 13.3697 17.9054 13.0794 17.9943C11.3785 16.1033 10.8754 13.5995 10.9837 11.129C11.1106 9.58393 11.6737 7.98287 12.5736 6.72083C12.6513 6.611 12.6513 6.611 12.7305 6.49895C14.2673 4.38704 16.5056 3.08132 19.0775 2.67395C20.616 2.43399 22.2513 2.62792 23.7025 3.17981Z" fill="#383838"/>
<path d="M18.7416 18.1026C18.8045 18.102 18.8675 18.1013 18.9323 18.1006C19.0001 18.1014 19.0678 18.1022 19.1376 18.103C19.2423 18.1029 19.2423 18.1029 19.349 18.1027C19.4965 18.1028 19.644 18.1037 19.7915 18.1052C20.0175 18.1073 20.2434 18.1067 20.4695 18.1057C20.6127 18.1062 20.7559 18.1068 20.8991 18.1076C20.9669 18.1074 21.0346 18.1071 21.1044 18.1069C21.1988 18.1083 21.1988 18.1083 21.2952 18.1097C21.3505 18.1101 21.4059 18.1105 21.4629 18.1109C21.6497 18.1469 21.7057 18.2096 21.825 18.3557C21.8463 18.5692 21.8542 18.7675 21.8525 18.9811C21.853 19.0781 21.853 19.0781 21.8536 19.1771C21.8544 19.3946 21.8537 19.6121 21.8531 19.8297C21.8534 19.9853 21.8537 20.1409 21.8542 20.2965C21.8552 20.7197 21.8548 21.143 21.8541 21.5663C21.8536 22.0086 21.8541 22.4509 21.8544 22.8932C21.8548 23.6361 21.8543 24.3789 21.8533 25.1218C21.8521 25.9815 21.8525 26.8412 21.8537 27.7009C21.8546 28.4381 21.8548 29.1753 21.8542 29.9125C21.8539 30.3532 21.8538 30.7939 21.8546 31.2346C21.8552 31.6489 21.8547 32.0631 21.8535 32.4774C21.8532 32.6297 21.8533 32.782 21.8538 32.9344C21.8544 33.1417 21.8536 33.3491 21.8525 33.5564C21.8533 33.6476 21.8533 33.6476 21.854 33.7407C21.8498 34.1515 21.8498 34.1515 21.7238 34.3056C21.5755 34.425 21.4919 34.4265 21.3029 34.4279C21.2417 34.4288 21.1804 34.4297 21.1173 34.4306C21.0513 34.4304 20.9854 34.4302 20.9175 34.43C20.8495 34.4304 20.7815 34.4308 20.7115 34.4311C20.5677 34.4316 20.4239 34.4315 20.2801 34.4309C20.0601 34.4303 19.8402 34.4324 19.6202 34.4347C19.4805 34.4348 19.3408 34.4347 19.2011 34.4345C19.1353 34.4353 19.0695 34.4361 19.0018 34.437C18.9403 34.4363 18.8788 34.4356 18.8154 34.4349C18.7346 34.4349 18.7346 34.4349 18.6521 34.4349C18.4261 34.3808 18.3521 34.2951 18.2117 34.1096C18.1835 33.8914 18.173 33.6996 18.1755 33.4814C18.1751 33.4174 18.1747 33.3533 18.1743 33.2873C18.1733 33.0721 18.1744 32.857 18.1755 32.6418C18.1752 32.4878 18.1748 32.3337 18.1743 32.1796C18.1733 31.7608 18.1741 31.342 18.1753 30.9232C18.1763 30.4854 18.1758 30.0476 18.1756 29.6097C18.1754 28.8744 18.1763 28.1391 18.178 27.4038C18.1799 26.553 18.1801 25.7023 18.1792 24.8516C18.1784 24.034 18.1789 23.2164 18.1799 22.3988C18.1803 22.0505 18.1803 21.7022 18.18 21.3539C18.1796 20.9439 18.1804 20.5339 18.1819 20.1239C18.1823 19.9732 18.1824 19.8226 18.182 19.6719C18.1816 19.4666 18.1825 19.2614 18.1837 19.0561C18.1833 18.9961 18.1828 18.9362 18.1824 18.8744C18.1851 18.6332 18.1942 18.4594 18.3128 18.2464C18.4621 18.1077 18.5395 18.1027 18.7416 18.1026Z" fill="#383838"/>
<path d="M21.1871 11.7613C21.7065 12.1768 21.9845 12.606 22.0636 13.273C22.0918 13.9169 21.9268 14.4353 21.4897 14.9139C20.978 15.3804 20.4643 15.4994 19.7833 15.4822C19.5916 15.4656 19.41 15.4347 19.2224 15.3927C18.7725 15.9434 18.3231 16.4943 17.8855 17.0548C17.596 17.4255 17.3017 17.792 17.0048 18.1568C16.9653 18.2057 16.9258 18.2545 16.8852 18.3049C16.7123 18.5185 16.5385 18.7303 16.3555 18.9354C16.3015 18.9974 16.2474 19.0595 16.1918 19.1234C16.1449 19.175 16.0981 19.2266 16.0498 19.2798C15.9465 19.4451 15.9465 19.4451 16.0238 19.664C16.0539 19.733 16.084 19.802 16.115 19.8731C16.3371 20.4037 16.3377 20.9483 16.1376 21.4856C15.8752 22.0613 15.521 22.3549 14.9587 22.6192C14.4371 22.7931 13.8241 22.7717 13.3282 22.5334C12.8253 22.2404 12.4734 21.8434 12.2668 21.2959C12.1981 20.9578 12.1252 20.5538 12.2849 20.2345C12.2298 20.2196 12.1746 20.2047 12.1178 20.1893C11.6681 20.0216 11.2611 19.7715 10.8436 19.5367C10.357 19.2555 10.357 19.2555 9.82788 19.0782C9.64823 19.2014 9.64823 19.2014 9.46655 19.3673C8.8864 19.6523 8.28603 19.6538 7.65991 19.5118C7.58767 19.6038 7.58767 19.6038 7.51397 19.6976C5.87134 21.7882 5.87134 21.7882 5.7718 21.9148C5.70608 21.9985 5.64042 22.0822 5.57483 22.166C5.40167 22.387 5.22728 22.6068 5.05101 22.8253C5.01445 22.871 4.97788 22.9166 4.94021 22.9636C4.87013 23.0511 4.79967 23.1382 4.72878 23.225C4.49741 23.5056 4.49741 23.5056 4.40796 23.8478C4.47529 23.9946 4.54779 24.1393 4.62476 24.2813C4.82135 24.9275 4.6659 25.5205 4.35828 26.1015C3.95249 26.5951 3.45057 26.8876 2.81586 26.9755C2.25807 27.0021 1.73227 26.7947 1.30054 26.4493C0.845623 26.0223 0.646218 25.5545 0.623047 24.9317C0.650817 24.2653 0.871648 23.8357 1.33554 23.3546C1.81134 22.9431 2.29302 22.8755 2.9076 22.8911C3.09929 22.9076 3.2809 22.9385 3.46851 22.9806C3.54924 22.8778 3.62996 22.7751 3.71069 22.6723C3.78216 22.5814 3.85364 22.4904 3.92512 22.3995C4.10447 22.1713 4.28374 21.943 4.46272 21.7145C4.76759 21.3255 5.07326 20.9373 5.38256 20.5518C5.45511 20.4611 5.52738 20.3703 5.59935 20.2792C5.78229 20.0482 5.96862 19.8228 6.16463 19.6027C6.56183 19.1869 6.56183 19.1869 6.72413 18.6638C6.66756 18.495 6.59616 18.3625 6.50366 18.211C6.33385 17.6729 6.41099 17.1251 6.64819 16.6212C6.95897 16.0839 7.37392 15.7438 7.97607 15.5824C8.63424 15.4661 9.2005 15.601 9.75562 15.9708C10.1395 16.2945 10.3514 16.7187 10.4783 17.1993C10.4897 17.4103 10.4897 17.4103 10.4856 17.6205C10.4846 17.6908 10.4835 17.7612 10.4824 17.8337C10.481 17.8867 10.4797 17.9397 10.4783 17.9942C10.7552 18.1449 11.0323 18.2954 11.3093 18.4459C11.3872 18.4883 11.4651 18.5307 11.5453 18.5743C11.9572 18.7978 12.37 19.0165 12.7908 19.2228C12.9026 19.1378 12.9026 19.1378 13.0166 19.0511C13.4093 18.7527 13.74 18.7072 14.2161 18.7558C14.7433 18.8065 14.7433 18.8065 15.2293 18.6369C15.4647 18.409 15.6308 18.1326 15.8013 17.8548C15.9692 17.5955 16.1699 17.3636 16.3679 17.1271C16.4475 17.0298 16.5269 16.9324 16.6062 16.8349C16.6449 16.7872 16.6836 16.7396 16.7235 16.6905C16.9353 16.4279 17.1432 16.1622 17.3501 15.8956C17.5056 15.6958 17.6634 15.4993 17.829 15.3077C17.8894 15.2374 17.9498 15.167 18.012 15.0946C18.066 15.0333 18.12 14.972 18.1757 14.9088C18.2989 14.7548 18.2989 14.7548 18.2708 14.5972C18.251 14.5497 18.2311 14.5022 18.2107 14.4532C18.1927 14.3984 18.1747 14.3437 18.1562 14.2872C18.1369 14.2287 18.1176 14.1702 18.0978 14.11C17.904 13.4528 17.9897 12.9706 18.283 12.3575C18.5551 11.9042 18.953 11.6768 19.4392 11.4903C20.0876 11.3367 20.6114 11.4452 21.1871 11.7613ZM19.4392 12.7188C19.1877 12.9567 19.0926 13.1707 19.0663 13.5095C19.087 13.7759 19.1934 13.9648 19.3669 14.1642C19.6244 14.3557 19.8174 14.3967 20.1302 14.3764C20.4275 14.3299 20.6048 14.246 20.8123 14.0196C20.9597 13.7529 20.9938 13.5268 20.9568 13.2247C20.8058 12.9497 20.6572 12.7255 20.3787 12.5743C19.9893 12.4734 19.7748 12.4951 19.4392 12.7188ZM7.70508 16.9961C7.55355 17.2583 7.4912 17.474 7.51538 17.7774C7.60616 18.046 7.75138 18.2376 7.96704 18.4233C8.23129 18.5254 8.46706 18.5484 8.7439 18.5001C9.09759 18.3266 9.26098 18.1477 9.39429 17.7774C9.43634 17.4891 9.4092 17.371 9.26782 17.1135C9.06209 16.8563 8.92817 16.7283 8.61292 16.6302C8.2357 16.6154 7.97995 16.7429 7.70508 16.9961ZM13.5134 20.0899C13.3393 20.3371 13.2788 20.52 13.3011 20.8171C13.3599 21.1511 13.5135 21.3547 13.7844 21.5578C14.1519 21.6701 14.4265 21.6559 14.7645 21.4901C15.0408 21.2459 15.1541 21.0322 15.2072 20.6681C15.1582 20.3325 14.9868 20.1292 14.7645 19.8822C14.3172 19.6645 13.875 19.7628 13.5134 20.0899ZM1.95093 24.2813C1.75557 24.5712 1.68346 24.8011 1.73413 25.1485C1.8851 25.4235 2.03375 25.6477 2.31226 25.7989C2.60128 25.8739 2.76538 25.8898 3.04846 25.7899C3.30902 25.6162 3.48507 25.4638 3.58453 25.159C3.64964 24.8256 3.60607 24.5989 3.41798 24.3158C3.21044 24.0802 2.9808 24.0058 2.6781 23.9607C2.38706 24.0022 2.1786 24.0951 1.95093 24.2813Z" fill="#383838"/>
<path d="M7.65304 21.8118C7.71621 21.8115 7.77938 21.8113 7.84446 21.811C7.97804 21.8107 8.11161 21.8105 8.24519 21.8105C8.44947 21.8103 8.65371 21.809 8.85799 21.8077C8.98779 21.8074 9.1176 21.8073 9.2474 21.8072C9.30846 21.8067 9.36951 21.8062 9.43242 21.8057C9.48957 21.8059 9.54672 21.8061 9.60561 21.8063C9.68069 21.8062 9.68069 21.8062 9.75729 21.806C9.92818 21.8274 10.043 21.8786 10.1894 21.9684C10.2933 22.1762 10.2715 22.3548 10.2723 22.587C10.2726 22.6363 10.2728 22.6855 10.2731 22.7363C10.2739 22.9021 10.2742 23.0679 10.2745 23.2338C10.2749 23.3523 10.2754 23.4709 10.2759 23.5895C10.2771 23.9121 10.2779 24.2348 10.2785 24.5574C10.2789 24.7588 10.2793 24.9602 10.2798 25.1616C10.2811 25.7913 10.2822 26.421 10.2828 27.0507C10.2835 27.7785 10.2854 28.5063 10.2883 29.2341C10.2905 29.796 10.2916 30.358 10.2918 30.92C10.292 31.2559 10.2926 31.5919 10.2944 31.9278C10.2961 32.2437 10.2964 32.5595 10.2957 32.8753C10.2956 32.9914 10.2961 33.1075 10.2971 33.2236C10.2984 33.3818 10.2979 33.5399 10.2969 33.6981C10.2971 33.7867 10.2973 33.8753 10.2974 33.9666C10.2617 34.1813 10.2617 34.1813 10.1242 34.3182C9.95654 34.4066 9.85424 34.4259 9.66575 34.4273C9.57603 34.4287 9.57603 34.4287 9.4845 34.4301C9.38852 34.4298 9.38852 34.4298 9.29059 34.4294C9.22432 34.4298 9.15804 34.4302 9.08976 34.4306C8.94981 34.4311 8.80986 34.431 8.66991 34.4303C8.45577 34.4297 8.24176 34.4318 8.02764 34.4341C7.89157 34.4342 7.75551 34.4342 7.61945 34.434C7.55546 34.4348 7.49146 34.4356 7.42553 34.4364C7.36572 34.4357 7.30591 34.4351 7.24429 34.4344C7.19188 34.4344 7.13948 34.4343 7.08548 34.4343C6.86742 34.381 6.7874 34.2838 6.64838 34.109C6.61241 33.8867 6.61241 33.8867 6.61265 33.6203C6.6123 33.5712 6.61195 33.5222 6.61159 33.4716C6.61077 33.3072 6.61202 33.1429 6.61327 32.9785C6.61311 32.8606 6.61283 32.7427 6.61244 32.6248C6.61174 32.3047 6.61284 31.9846 6.61431 31.6645C6.61558 31.3298 6.61533 30.995 6.61527 30.6602C6.6154 30.0981 6.61666 29.536 6.61863 28.9739C6.62091 28.3236 6.62167 27.6733 6.62156 27.0229C6.62147 26.3978 6.62221 25.7726 6.62341 25.1475C6.62392 24.8812 6.62419 24.6149 6.62426 24.3487C6.62441 24.0353 6.62529 23.722 6.62674 23.4086C6.62717 23.2934 6.62734 23.1783 6.62726 23.0631C6.62719 22.9062 6.628 22.7494 6.62905 22.5925C6.6293 22.5046 6.62954 22.4167 6.62979 22.3262C6.64838 22.113 6.64838 22.113 6.79291 21.8962C7.07937 21.8007 7.35436 21.8121 7.65304 21.8118Z" fill="#383838"/>
<path d="M12.5747 24.3534C12.7173 24.3258 12.7173 24.3258 12.8939 24.3253C12.96 24.3246 13.0261 24.3239 13.0942 24.3232C13.1657 24.3237 13.2372 24.3241 13.3109 24.3246C13.3841 24.3244 13.4574 24.3242 13.5328 24.3239C13.6878 24.3238 13.8429 24.3242 13.9979 24.3251C14.2358 24.3263 14.4737 24.3251 14.7116 24.3237C14.862 24.3239 15.0123 24.3241 15.1627 24.3246C15.2342 24.3241 15.3057 24.3237 15.3794 24.3232C15.4785 24.3243 15.4785 24.3243 15.5796 24.3253C15.6379 24.3255 15.6962 24.3257 15.7563 24.3258C15.8034 24.3349 15.8504 24.344 15.8989 24.3534C16.0607 24.5961 16.0618 24.6759 16.0628 24.9597C16.0634 25.0405 16.064 25.1214 16.0646 25.2047C16.0646 25.2934 16.0645 25.3822 16.0644 25.4736C16.0649 25.5671 16.0654 25.6605 16.0659 25.7567C16.0672 26.0131 16.0675 26.2694 16.0676 26.5258C16.0677 26.7397 16.0683 26.9536 16.0688 27.1675C16.07 27.672 16.0703 28.1765 16.0702 28.681C16.0701 29.2018 16.0717 29.7226 16.0739 30.2434C16.0758 30.6903 16.0766 31.1372 16.0765 31.5841C16.0765 31.8512 16.0769 32.1182 16.0784 32.3852C16.0801 32.6828 16.0794 32.9804 16.0785 33.278C16.0794 33.3668 16.0802 33.4555 16.081 33.547C16.0804 33.6278 16.0798 33.7087 16.0792 33.792C16.0792 33.8624 16.0793 33.9328 16.0794 34.0053C16.0434 34.1815 16.0434 34.1815 15.9059 34.3125C15.7373 34.408 15.6399 34.4261 15.4475 34.4275C15.3578 34.4289 15.3578 34.4289 15.2663 34.4303C15.1703 34.4299 15.1703 34.4299 15.0724 34.4296C15.0061 34.43 14.9398 34.4304 14.8715 34.4308C14.7316 34.4312 14.5916 34.4311 14.4517 34.4305C14.2375 34.4299 14.0235 34.432 13.8094 34.4343C13.6733 34.4344 13.5373 34.4344 13.4012 34.4341C13.3372 34.4349 13.2732 34.4358 13.2073 34.4366C13.1475 34.4359 13.0877 34.4352 13.0261 34.4345C12.9737 34.4345 12.9212 34.4345 12.8673 34.4345C12.6525 34.382 12.5695 34.2784 12.4301 34.1092C12.3942 33.9253 12.3942 33.9253 12.3944 33.7138C12.3938 33.6334 12.3932 33.5531 12.3926 33.4703C12.3934 33.3825 12.3942 33.2947 12.395 33.2042C12.3948 33.1115 12.3945 33.0187 12.3942 32.9232C12.3935 32.6691 12.3946 32.415 12.3961 32.1608C12.3973 31.8949 12.3971 31.629 12.397 31.3631C12.3972 30.9167 12.3984 30.4702 12.4004 30.0238C12.4027 29.5075 12.4034 28.9912 12.4033 28.4748C12.4032 27.9782 12.404 27.4816 12.4052 26.9851C12.4057 26.7737 12.406 26.5622 12.406 26.3508C12.4062 26.0558 12.4076 25.7608 12.4092 25.4658C12.4091 25.3779 12.409 25.2899 12.409 25.1993C12.4096 25.1191 12.4102 25.039 12.4108 24.9564C12.4112 24.8518 12.4112 24.8518 12.4116 24.745C12.4301 24.5702 12.4301 24.5702 12.5747 24.3534Z" fill="#383838"/>
<path d="M1.39769 28.5167C1.46063 28.516 1.52357 28.5154 1.58843 28.5146C1.65618 28.5151 1.72393 28.5155 1.79374 28.516C1.86349 28.5158 1.93325 28.5156 2.00512 28.5153C2.15261 28.5152 2.3001 28.5156 2.44759 28.5165C2.67361 28.5177 2.89955 28.5165 3.12557 28.5151C3.26878 28.5153 3.412 28.5156 3.55521 28.516C3.62296 28.5155 3.69072 28.5151 3.76052 28.5146C3.82347 28.5153 3.88641 28.516 3.95126 28.5167C4.00661 28.5169 4.06196 28.5171 4.11899 28.5172C4.26432 28.5448 4.26432 28.5448 4.39046 28.623C4.5298 28.836 4.50926 29.02 4.51031 29.2725C4.51081 29.3242 4.51131 29.3759 4.51182 29.4292C4.51314 29.6003 4.51286 29.7713 4.51245 29.9424C4.51278 30.0613 4.51316 30.1802 4.5136 30.2991C4.51424 30.5483 4.51407 30.7976 4.51335 31.0468C4.51252 31.3662 4.51398 31.6856 4.51609 32.005C4.51741 32.2505 4.51739 32.4961 4.51698 32.7417C4.51697 32.8594 4.51741 32.9772 4.5183 33.0949C4.51938 33.2596 4.51861 33.4242 4.51737 33.589C4.51736 33.6827 4.51735 33.7764 4.51733 33.8729C4.48111 34.1092 4.48111 34.1092 4.3535 34.284C4.17681 34.4091 4.09856 34.4345 3.88521 34.4345C3.82539 34.4352 3.76558 34.4359 3.70396 34.4366C3.63997 34.4358 3.57598 34.435 3.51005 34.4341C3.44377 34.4342 3.3775 34.4343 3.30922 34.4345C3.16926 34.4343 3.02931 34.4335 2.88937 34.432C2.67523 34.4299 2.46123 34.4305 2.24709 34.4315C2.11103 34.431 1.97496 34.4304 1.8389 34.4296C1.77491 34.4298 1.71092 34.43 1.64499 34.4303C1.58518 34.4293 1.52537 34.4284 1.46374 34.4275C1.41134 34.4271 1.35893 34.4267 1.30494 34.4263C1.10001 34.3875 1.00969 34.336 0.867834 34.1815C0.831614 33.9511 0.831614 33.9511 0.831577 33.6628C0.830992 33.584 0.830992 33.584 0.830394 33.5036C0.82949 33.3298 0.830685 33.1561 0.831983 32.9823C0.831972 32.8616 0.831864 32.741 0.831664 32.6203C0.831564 32.3673 0.832473 32.1144 0.834118 31.8614C0.836169 31.537 0.835971 31.2126 0.835051 30.8882C0.834548 30.6389 0.835111 30.3897 0.836009 30.1405C0.836335 30.0209 0.836359 29.9012 0.836076 29.7816C0.835866 29.6145 0.837057 29.4474 0.838634 29.2803C0.839025 29.1851 0.839415 29.09 0.839818 28.9919C0.867834 28.7616 0.867834 28.7616 0.958491 28.6225C1.11584 28.5255 1.21321 28.5173 1.39769 28.5167Z" fill="#383838"/>
</svg>
