<svg width="31" height="31" viewBox="0 0 31 31" fill="none" xmlns="http://www.w3.org/2000/svg">
<path d="M1.57382 2.96701C1.82091 3.07683 1.9122 3.16113 2.03649 3.40104C2.17648 3.80151 2.1431 4.23187 2.14058 4.65057C2.14066 4.74864 2.14082 4.84671 2.14105 4.94478C2.14146 5.21361 2.14073 5.48242 2.13982 5.75125C2.13904 6.04139 2.1393 6.33153 2.13944 6.62167C2.13954 7.12415 2.13897 7.62661 2.13795 8.12909C2.13647 8.85557 2.136 9.58206 2.13577 10.3085C2.13537 11.4873 2.13416 12.666 2.13244 13.8447C2.13078 14.9896 2.12949 16.1345 2.12872 17.2795C2.12867 17.35 2.12862 17.4206 2.12857 17.4934C2.12834 17.8475 2.12811 18.2016 2.12788 18.5557C2.126 21.4929 2.1228 24.4302 2.11874 27.3674C2.17738 27.3673 2.23603 27.3672 2.29645 27.3671C5.77041 27.3617 9.24437 27.3576 12.7183 27.355C13.1352 27.3547 13.5522 27.3544 13.9691 27.3541C14.0313 27.3541 14.0313 27.3541 14.0948 27.354C15.4397 27.353 16.7847 27.3512 18.1296 27.3489C19.5508 27.3466 20.972 27.3451 22.3932 27.3446C23.2447 27.3443 24.0962 27.3432 24.9477 27.3413C25.5312 27.34 26.1147 27.3396 26.6982 27.3399C27.0351 27.3401 27.372 27.3398 27.7089 27.3385C28.0172 27.3374 28.3255 27.3373 28.6338 27.3381C28.7455 27.3382 28.8571 27.3379 28.9688 27.3372C29.1204 27.3362 29.272 27.3367 29.4236 27.3376C29.4671 27.337 29.5105 27.3363 29.5553 27.3357C29.8847 27.3401 30.0686 27.4273 30.3336 27.6096C30.5141 27.8717 30.5539 28.0819 30.5152 28.3967C30.4273 28.6377 30.3386 28.7805 30.1167 28.9159C29.8767 29.016 29.6715 29.0275 29.4161 29.0252C29.3427 29.0256 29.3427 29.0256 29.2678 29.0261C29.1035 29.0268 28.9391 29.0262 28.7748 29.0256C28.6559 29.0259 28.537 29.0262 28.4181 29.0266C28.0912 29.0275 27.7642 29.0273 27.4372 29.0268C27.0847 29.0265 26.7322 29.0273 26.3797 29.0279C25.689 29.0289 24.9983 29.029 24.3076 29.0287C23.7464 29.0284 23.1851 29.0285 22.6238 29.0288C22.544 29.0289 22.4642 29.0289 22.382 29.029C22.2605 29.029 22.139 29.0291 22.0175 29.0292C20.8879 29.0298 19.7583 29.0301 18.6288 29.0296C18.5862 29.0296 18.5436 29.0296 18.4997 29.0296C18.1539 29.0294 17.808 29.0293 17.4622 29.0291C16.1131 29.0285 14.764 29.029 13.4148 29.0304C11.8993 29.032 10.3837 29.0328 8.86816 29.0323C8.06562 29.0321 7.26309 29.0323 6.46056 29.0333C5.7774 29.0342 5.09424 29.0343 4.41108 29.0332C4.0624 29.0327 3.71374 29.0326 3.36506 29.0335C3.046 29.0343 2.72696 29.034 2.4079 29.0329C2.29235 29.0326 2.1768 29.0328 2.06126 29.0334C1.90437 29.0342 1.74756 29.0335 1.59068 29.0325C1.54566 29.0331 1.50064 29.0336 1.45425 29.0343C1.11801 29.0295 0.930753 28.956 0.665615 28.76C0.485054 28.4955 0.461209 28.2805 0.460948 27.9644C0.460666 27.9221 0.460383 27.8797 0.460093 27.8361C0.459369 27.6943 0.459938 27.5525 0.460502 27.4107C0.460249 27.308 0.459918 27.2053 0.459514 27.1026C0.458637 26.8204 0.458896 26.5382 0.459342 26.256C0.459628 25.9517 0.458872 25.6473 0.458251 25.343C0.457209 24.7468 0.45716 24.1506 0.457477 23.5543C0.457722 23.0699 0.457635 22.5854 0.457311 22.1009C0.457265 22.032 0.45722 21.9631 0.457173 21.8921C0.457081 21.7521 0.456987 21.6121 0.456894 21.4721C0.456062 20.159 0.456392 18.8459 0.457087 17.5327C0.457688 16.3308 0.456904 15.1289 0.455456 13.927C0.453981 12.6934 0.453397 11.4598 0.4538 10.2262C0.454012 9.53337 0.453875 8.84059 0.452816 8.1478C0.451927 7.5581 0.451884 6.96841 0.452942 6.37872C0.453458 6.07775 0.453583 5.77679 0.45266 5.47582C0.451826 5.20042 0.452105 4.92504 0.45328 4.64964C0.453509 4.54991 0.453327 4.45017 0.452698 4.35043C0.451904 4.21501 0.452598 4.07967 0.453667 3.94426C0.453673 3.869 0.45368 3.79374 0.453686 3.7162C0.4978 3.4187 0.632504 3.22893 0.858608 3.03513C1.10225 2.93767 1.31508 2.92731 1.57382 2.96701Z" fill="#383838"/>
<path d="M26.6632 5.84993C26.7463 5.84735 26.7463 5.84735 26.8311 5.84473C27.2174 5.90717 27.4293 6.16889 27.6508 6.47054C27.7034 6.54113 27.7561 6.61169 27.8088 6.68221C27.8357 6.7185 27.8626 6.75478 27.8903 6.79216C28.0243 6.9712 28.163 7.14651 28.3017 7.32198C28.3578 7.39316 28.4138 7.46435 28.4699 7.53555C28.5117 7.58856 28.5117 7.58856 28.5543 7.64266C28.721 7.8543 28.8874 8.06619 29.0537 8.27816C29.1979 8.46197 29.3427 8.6454 29.4881 8.82832C29.5181 8.86629 29.5482 8.90426 29.5792 8.94338C29.6366 9.01571 29.694 9.08793 29.7516 9.16002C30.1535 9.66798 30.1535 9.66798 30.1484 9.96712C30.0844 10.1976 30.0498 10.2361 29.8494 10.3531C29.7108 10.3737 29.7108 10.3737 29.5609 10.3708C29.507 10.3703 29.4532 10.3697 29.3977 10.3691C29.3141 10.3668 29.3141 10.3668 29.2288 10.3645C29.1722 10.3636 29.1155 10.3628 29.0571 10.362C28.9176 10.3598 28.778 10.3569 28.6385 10.3531C28.6387 10.4277 28.6388 10.5023 28.639 10.5792C28.6429 12.3499 28.6459 14.1206 28.6478 15.8912C28.648 16.1091 28.6482 16.327 28.6485 16.5449C28.6485 16.5883 28.6486 16.6316 28.6486 16.6763C28.6494 17.3789 28.6508 18.0815 28.6525 18.7841C28.6542 19.5049 28.6552 20.2257 28.6556 20.9465C28.6558 21.3514 28.6564 21.7563 28.6577 22.1612C28.6589 22.5421 28.6593 22.923 28.659 23.304C28.6591 23.4439 28.6595 23.5839 28.6602 23.7239C28.6611 23.9147 28.6608 24.1055 28.6603 24.2963C28.6609 24.3519 28.6614 24.4076 28.6619 24.4649C28.6599 24.7525 28.6515 24.9576 28.4569 25.1871C28.3006 25.2251 28.3006 25.2251 28.1112 25.2253C28.0403 25.2261 27.9694 25.2268 27.8963 25.2276C27.7813 25.2264 27.7813 25.2264 27.6641 25.2252C27.5855 25.2253 27.5069 25.2255 27.4259 25.2256C27.2595 25.2258 27.0932 25.2249 26.9269 25.2232C26.7137 25.2212 26.5006 25.2215 26.2874 25.2227C26.0841 25.2235 25.8807 25.2224 25.6774 25.2214C25.5624 25.2218 25.5624 25.2218 25.4452 25.2223C25.3742 25.2213 25.3033 25.2204 25.2303 25.2194C25.1365 25.2188 25.1365 25.2188 25.0408 25.2183C24.8846 25.1871 24.8846 25.1871 24.7854 25.1005C24.658 24.8601 24.6786 24.6298 24.6811 24.3618C24.681 24.302 24.6808 24.2422 24.6806 24.1806C24.6803 23.9797 24.6813 23.7788 24.6823 23.5779C24.6824 23.4341 24.6824 23.2903 24.6823 23.1465C24.6822 22.7962 24.683 22.446 24.6842 22.0957C24.6854 21.6881 24.6857 21.2805 24.6859 20.8729C24.6863 20.1461 24.6875 19.4192 24.6893 18.6923C24.6909 17.9863 24.6922 17.2802 24.693 16.5741C24.693 16.5306 24.6931 16.487 24.6931 16.4422C24.6934 16.2239 24.6936 16.0055 24.6938 15.7872C24.6957 13.9758 24.6989 12.1645 24.703 10.3531C24.6471 10.355 24.6471 10.355 24.5901 10.3569C24.4208 10.362 24.2516 10.3651 24.0824 10.3682C24.0237 10.3703 23.9651 10.3723 23.9047 10.3744C23.4713 10.3804 23.4713 10.3804 23.2717 10.2438C23.1486 10.0452 23.1564 9.91645 23.1893 9.68709C23.2983 9.50332 23.2983 9.50332 23.4504 9.32002C23.5064 9.25112 23.5623 9.18222 23.6183 9.11331C23.6475 9.07817 23.6767 9.04303 23.7067 9.00682C23.8492 8.83387 23.9862 8.65665 24.124 8.47993C24.18 8.40871 24.236 8.33752 24.2921 8.26637C24.4318 8.0891 24.5713 7.91169 24.7107 7.7342C24.7659 7.664 24.821 7.5938 24.8762 7.52362C25.0197 7.34112 25.163 7.1585 25.3061 6.97572C25.3356 6.93803 25.3651 6.90033 25.3956 6.86149C25.4515 6.7901 25.5074 6.71867 25.5633 6.64721C25.6394 6.55014 25.7161 6.45357 25.7928 6.35701C25.8186 6.32368 25.8444 6.29036 25.8709 6.25602C26.1134 5.95051 26.2754 5.85536 26.6632 5.84993Z" fill="#383838"/>
<path d="M21.252 2.05833C21.4168 2.28348 21.4854 2.5106 21.5552 2.77872C21.566 2.81952 21.5767 2.86032 21.5878 2.90236C21.623 3.03644 21.6575 3.17069 21.6919 3.30498C21.7162 3.3987 21.7405 3.49242 21.7648 3.58614C21.8156 3.78225 21.8661 3.97846 21.9163 4.17473C21.9805 4.42584 22.0459 4.67664 22.1115 4.92738C22.162 5.12074 22.2118 5.31426 22.2614 5.50784C22.2852 5.60038 22.3093 5.69286 22.3336 5.78527C22.3675 5.91463 22.4004 6.04419 22.4332 6.17384C22.4616 6.2842 22.4616 6.2842 22.4906 6.39679C22.5248 6.60799 22.5166 6.75637 22.4629 6.96262C22.3607 7.07993 22.3607 7.07993 22.2207 7.14426C21.8738 7.1196 21.5741 6.97492 21.2595 6.83775C21.2063 6.81492 21.1531 6.79209 21.0982 6.76857C20.9677 6.71251 20.8373 6.6561 20.707 6.59934C20.6901 6.63552 20.6731 6.67169 20.6557 6.70896C20.5514 6.90723 20.4032 7.06726 20.2567 7.23508C20.2241 7.27264 20.1916 7.31019 20.158 7.34888C20.0589 7.4627 19.9593 7.57605 19.8594 7.68919C19.8318 7.72046 19.8042 7.75174 19.7757 7.78397C19.0918 8.55428 18.3721 9.29595 17.5586 9.92942C17.4882 9.98688 17.418 10.0445 17.3479 10.1023C14.4892 12.4484 10.8735 13.7479 7.20508 14.0466C7.14388 14.0517 7.14388 14.0517 7.08144 14.057C6.47653 14.1058 5.874 14.1144 5.26758 14.1072C5.35661 13.9291 5.47322 13.9213 5.65853 13.8541C5.72883 13.8282 5.79914 13.8023 5.87157 13.7756C5.90936 13.7618 5.94715 13.7481 5.98609 13.7339C7.96097 13.0129 9.87382 12.1484 11.6855 11.0798C11.7353 11.0505 11.785 11.0213 11.8362 10.9911C12.765 10.441 13.6548 9.84385 14.4925 9.16235C14.5861 9.0864 14.6804 9.01144 14.7749 8.93655C15.6912 8.18984 16.5901 7.3383 17.2559 6.35715C17.2811 6.32021 17.3064 6.28326 17.3324 6.2452C17.4113 6.12921 17.489 6.0126 17.5662 5.89548C17.5899 5.85959 17.6136 5.82369 17.638 5.7867C17.7447 5.61946 17.8008 5.5303 17.8008 5.32786C17.7323 5.29937 17.6637 5.27088 17.5931 5.24153C17.5034 5.20348 17.4137 5.1654 17.324 5.1273C17.2788 5.1086 17.2336 5.08991 17.187 5.07065C17.1437 5.05211 17.1004 5.03358 17.0558 5.01448C17.0158 4.99768 16.9759 4.98087 16.9347 4.96356C16.832 4.90403 16.832 4.90403 16.7109 4.72239C16.6958 4.52183 16.6958 4.52183 16.7715 4.29856C16.8848 4.21206 16.8848 4.21206 17.0319 4.12922C17.0868 4.0979 17.1417 4.06657 17.1982 4.0343C17.2572 4.00163 17.3162 3.96895 17.377 3.93528C17.4352 3.90241 17.4935 3.86953 17.5535 3.83566C17.7452 3.728 17.9375 3.62151 18.13 3.51524C18.2007 3.47609 18.2715 3.43693 18.3422 3.39776C18.4523 3.33678 18.5624 3.2758 18.6725 3.21487C18.9397 3.06706 19.2066 2.91876 19.4734 2.77023C19.5483 2.72851 19.6233 2.68681 19.6982 2.6451C19.8411 2.56556 19.984 2.48597 20.1269 2.40637C20.1915 2.37042 20.2561 2.33447 20.3227 2.29744C20.3795 2.2658 20.4363 2.23417 20.4949 2.20158C20.5449 2.17429 20.5949 2.14699 20.6465 2.11887C20.6893 2.09513 20.7321 2.07139 20.7762 2.04693C20.9543 1.96911 21.0703 2.00035 21.252 2.05833Z" fill="#383838"/>
<path d="M18.4367 13.1141C18.5391 13.1129 18.5391 13.1129 18.6437 13.1118C18.7175 13.1119 18.7913 13.1121 18.8673 13.1123C18.9431 13.112 19.0188 13.1117 19.0969 13.1113C19.2573 13.1109 19.4176 13.1109 19.578 13.1115C19.7833 13.1122 19.9886 13.111 20.1939 13.1092C20.3899 13.1079 20.586 13.1083 20.7821 13.1085C20.8926 13.1075 20.8926 13.1075 21.0053 13.1064C21.1081 13.1073 21.1081 13.1073 21.2129 13.1082C21.3032 13.1082 21.3032 13.1082 21.3954 13.1082C21.6068 13.1486 21.6663 13.2098 21.7965 13.3807C21.8201 13.5454 21.829 13.6855 21.8268 13.85C21.8273 13.9213 21.8273 13.9213 21.8278 13.9941C21.8287 14.1535 21.8278 14.313 21.8268 14.4725C21.8271 14.5868 21.8274 14.701 21.8278 14.8153C21.8287 15.1258 21.828 15.4362 21.827 15.7467C21.8262 16.0713 21.8266 16.3959 21.8268 16.7205C21.8269 17.2656 21.8261 17.8107 21.8247 18.3558C21.8231 18.9865 21.823 19.6171 21.8237 20.2479C21.8244 20.854 21.824 21.4602 21.8231 22.0663C21.8228 22.3246 21.8228 22.5828 21.8231 22.841C21.8234 23.1449 21.8228 23.4488 21.8214 23.7527C21.8211 23.8644 21.8211 23.9761 21.8214 24.0878C21.8217 24.24 21.821 24.3921 21.8199 24.5442C21.8203 24.5887 21.8207 24.6333 21.821 24.6792C21.8188 24.856 21.8169 24.9765 21.714 25.124C21.5652 25.2191 21.4437 25.21 21.2682 25.2099C21.1971 25.2103 21.126 25.2107 21.0527 25.2111C20.9375 25.2102 20.9375 25.2102 20.8199 25.2094C20.7412 25.2094 20.6624 25.2094 20.5813 25.2095C20.4147 25.2095 20.2481 25.2088 20.0815 25.2077C19.8678 25.2064 19.6541 25.2063 19.4404 25.2067C19.2367 25.207 19.0331 25.2063 18.8294 25.2056C18.7525 25.2056 18.6756 25.2057 18.5963 25.2058C18.5254 25.2052 18.4544 25.2046 18.3814 25.204C18.3187 25.2037 18.2561 25.2034 18.1915 25.2032C18.0426 25.1874 18.0426 25.1874 17.9215 25.0663C17.9094 24.911 17.9049 24.7623 17.9057 24.607C17.9055 24.5591 17.9052 24.5111 17.905 24.4617C17.9044 24.3002 17.9046 24.1387 17.9048 23.9772C17.9046 23.8617 17.9043 23.7463 17.9039 23.6308C17.9031 23.3166 17.9031 23.0023 17.9032 22.6881C17.9033 22.4261 17.903 22.1642 17.9027 21.9022C17.902 21.2843 17.902 20.6665 17.9024 20.0486C17.9027 19.4105 17.902 18.7723 17.9007 18.1341C17.8996 17.5869 17.8993 17.0396 17.8995 16.4924C17.8996 16.1653 17.8994 15.8382 17.8986 15.511C17.8978 15.2034 17.8979 14.8959 17.8987 14.5883C17.8989 14.4752 17.8987 14.3621 17.8982 14.2491C17.8976 14.0951 17.898 13.9411 17.8988 13.7871C17.8984 13.742 17.8979 13.697 17.8975 13.6505C17.9006 13.35 17.9006 13.35 18.0043 13.2016C18.1496 13.1089 18.2652 13.115 18.4367 13.1141Z" fill="#383838"/>
<path d="M11.6637 15.9539C11.7322 15.9533 11.8007 15.9527 11.8712 15.9521C11.9817 15.9532 11.9817 15.9532 12.0945 15.9542C12.1703 15.9541 12.2461 15.954 12.3243 15.9539C12.4846 15.954 12.6448 15.9546 12.8051 15.956C13.0104 15.9577 13.2158 15.9576 13.4211 15.9568C13.6172 15.9563 13.8132 15.9572 14.0093 15.958C14.0831 15.9578 14.1569 15.9576 14.2329 15.9575C14.3012 15.9582 14.3695 15.959 14.4399 15.9598C14.5 15.9601 14.5602 15.9604 14.6222 15.9608C14.8046 15.9891 14.8463 16.019 14.9551 16.1659C14.9778 16.3269 14.9778 16.3269 14.9777 16.5248C14.9782 16.5998 14.9786 16.6747 14.979 16.752C14.9786 16.8352 14.9781 16.9184 14.9776 17.0016C14.9778 17.0891 14.978 17.1767 14.9783 17.2642C14.9789 17.502 14.9783 17.7398 14.9775 17.9776C14.9768 18.2262 14.977 18.4747 14.9772 18.7233C14.9772 19.1408 14.9765 19.5582 14.9754 19.9756C14.9741 20.4586 14.9739 20.9417 14.9743 21.4247C14.9747 21.8889 14.9743 22.3531 14.9736 22.8173C14.9734 23.0151 14.9733 23.2129 14.9734 23.4107C14.9735 23.6434 14.9731 23.8762 14.9721 24.1089C14.9718 24.1945 14.9718 24.28 14.972 24.3656C14.9722 24.4821 14.9715 24.5986 14.9709 24.715C14.9707 24.813 14.9707 24.813 14.9705 24.9129C14.9551 25.0663 14.9551 25.0663 14.834 25.1874C14.685 25.2032 14.685 25.2032 14.4952 25.204C14.3888 25.2049 14.3888 25.2049 14.2803 25.2058C14.2033 25.2057 14.1264 25.2056 14.0471 25.2056C13.9684 25.2058 13.8897 25.2061 13.8087 25.2064C13.642 25.2068 13.4753 25.2068 13.3086 25.2065C13.0949 25.2061 12.8813 25.2072 12.6677 25.2086C12.464 25.2097 12.2603 25.2094 12.0566 25.2094C11.9798 25.2099 11.903 25.2105 11.8238 25.2111C11.7527 25.2107 11.6816 25.2103 11.6083 25.2099C11.5456 25.21 11.483 25.21 11.4184 25.21C11.2617 25.1874 11.2617 25.1874 11.1626 25.1172C11.046 24.9597 11.057 24.8471 11.0566 24.6522C11.056 24.5785 11.0554 24.5047 11.0548 24.4287C11.055 24.3468 11.0553 24.2649 11.0556 24.183C11.0553 24.0969 11.0548 24.0108 11.0544 23.9247C11.0533 23.6906 11.0533 23.4566 11.0537 23.2225C11.0539 23.0272 11.0535 22.8319 11.0531 22.6366C11.0523 22.1758 11.0524 21.7151 11.0531 21.2544C11.0538 20.7789 11.0529 20.3035 11.0513 19.828C11.0499 19.4199 11.0495 19.0118 11.0499 18.6038C11.0501 18.36 11.05 18.1162 11.0489 17.8724C11.048 17.6431 11.0482 17.4139 11.0494 17.1846C11.0496 17.1005 11.0494 17.0163 11.0488 16.9322C11.048 16.8173 11.0488 16.7025 11.0497 16.5876C11.0497 16.5233 11.0498 16.4591 11.0498 16.3928C11.1139 16.0405 11.3325 15.9539 11.6637 15.9539Z" fill="#383838"/>
<path d="M4.80686 18.8196C4.90931 18.8184 4.90931 18.8184 5.01384 18.8172C5.125 18.8166 5.125 18.8166 5.2384 18.8159C5.31426 18.8154 5.39011 18.8149 5.46827 18.8144C5.62901 18.8136 5.78974 18.8129 5.95048 18.8124C6.15626 18.8118 6.362 18.8097 6.56777 18.8073C6.76417 18.8053 6.96057 18.805 7.15698 18.8045C7.23084 18.8035 7.3047 18.8024 7.3808 18.8013C7.48383 18.8016 7.48383 18.8016 7.58894 18.8019C7.64934 18.8015 7.70975 18.8011 7.77199 18.8008C7.93132 18.8303 7.93132 18.8303 8.07191 18.918C8.22512 19.151 8.20686 19.362 8.20388 19.6353C8.20437 19.7207 8.20437 19.7207 8.20487 19.8078C8.20563 19.996 8.20463 20.1842 8.20354 20.3724C8.20355 20.5031 8.20364 20.6339 8.20381 20.7646C8.20389 21.0387 8.20313 21.3127 8.20175 21.5867C8.20003 21.9381 8.2002 22.2895 8.20097 22.641C8.20139 22.9109 8.20092 23.1809 8.20017 23.4509C8.19989 23.5805 8.19987 23.7101 8.20011 23.8397C8.20029 24.0207 8.19929 24.2017 8.19797 24.3828C8.19824 24.4364 8.19851 24.4901 8.19879 24.5454C8.19625 24.7548 8.1907 24.908 8.10276 25.0999C7.94743 25.2229 7.84337 25.2185 7.6462 25.2191C7.57528 25.2198 7.50436 25.2206 7.4313 25.2214C7.35466 25.2209 7.27803 25.2204 7.19908 25.2199C7.12048 25.2201 7.04187 25.2204 6.96089 25.2206C6.79455 25.221 6.62824 25.2204 6.4619 25.2193C6.24871 25.2179 6.03559 25.2187 5.8224 25.2202C5.61906 25.2213 5.41573 25.2205 5.21238 25.2199C5.13575 25.2204 5.05912 25.2209 4.98017 25.2214C4.90925 25.2206 4.83833 25.2199 4.76526 25.2191C4.70275 25.2189 4.64024 25.2187 4.57584 25.2185C4.4196 25.1877 4.4196 25.1877 4.30858 25.0995C4.20092 24.8648 4.21319 24.6436 4.21541 24.3883C4.21508 24.3038 4.21508 24.3038 4.21475 24.2176C4.21425 24.0314 4.21508 23.8452 4.21596 23.6589C4.21599 23.5295 4.21596 23.4001 4.21587 23.2708C4.21588 22.9996 4.21651 22.7284 4.2176 22.4572C4.21898 22.1095 4.21901 21.7617 4.2186 21.414C4.2184 21.1468 4.2188 20.8796 4.2194 20.6124C4.21963 20.4842 4.2197 20.3559 4.2196 20.2277C4.21958 20.0485 4.22034 19.8694 4.22133 19.6903C4.22118 19.6372 4.22103 19.5841 4.22087 19.5294C4.22152 19.456 4.22152 19.456 4.22217 19.3812C4.2223 19.3389 4.22242 19.2966 4.22255 19.2529C4.24092 19.11 4.28386 19.0134 4.35905 18.8909C4.51582 18.8125 4.6313 18.8213 4.80686 18.8196Z" fill="#383838"/>
</svg>
