<svg width="43" height="43" viewBox="0 0 43 43" fill="none" xmlns="http://www.w3.org/2000/svg">
<g clip-path="url(#clip0_996_1041)">
<path d="M26.6235 5.87891C26.9822 5.98853 27.2923 6.1296 27.6209 6.30933C31.9425 8.55034 37.7564 8.65928 42.3942 7.51869C42.5955 7.47108 42.7975 7.43016 43.0005 7.39062C42.9532 7.83982 42.8754 8.2482 42.7449 8.68242C42.7275 8.74093 42.71 8.79945 42.6921 8.85973C42.6342 9.05365 42.5756 9.24733 42.5169 9.44102C42.4752 9.58043 42.4335 9.71985 42.3919 9.85928C42.2794 10.2356 42.1662 10.6117 42.0529 10.9878C41.8616 11.6225 41.6709 12.2572 41.4805 12.8921C41.4314 13.0558 41.3822 13.2194 41.3331 13.3831C40.9925 14.5177 40.6609 15.6546 40.3375 16.7942C40.2084 17.2481 40.0781 17.7017 39.9479 18.1552C39.8243 18.5866 39.7029 19.0185 39.583 19.451C39.5081 19.7191 39.431 19.9866 39.3534 20.254C39.3181 20.3775 39.2836 20.5012 39.2501 20.6252C38.9659 21.6744 38.9659 21.6744 38.542 21.946C38.3748 22.0258 38.3748 22.0258 38.2134 22.0879C38.0661 22.1554 38.0661 22.1554 37.9158 22.2244C33.8548 23.7565 28.824 23.8539 24.8229 22.0731C24.2608 21.8069 23.7516 21.4656 23.2642 21.0801C23.197 21.0328 23.1299 20.9855 23.0608 20.9367C22.8521 20.6335 22.951 20.3338 23.0122 19.9883C23.1102 19.5412 23.2221 19.0979 23.3347 18.6544C23.3682 18.5211 23.4016 18.3877 23.435 18.2544C23.525 17.8955 23.6156 17.5367 23.7063 17.1779C23.8011 16.8027 23.8954 16.4274 23.9897 16.052C24.2038 15.2003 24.4189 14.3488 24.6343 13.4973C24.6909 13.2733 24.7476 13.0494 24.8042 12.8254C25.1094 11.6183 25.415 10.4112 25.7217 9.20445C25.7367 9.14516 25.7518 9.08586 25.7673 9.02477C25.839 8.74264 25.9108 8.46053 25.9826 8.17843C26.0953 7.73517 26.2078 7.29188 26.3168 6.84768C26.3407 6.75052 26.3407 6.75052 26.3651 6.6514C26.4042 6.49168 26.4429 6.33186 26.4815 6.17203C26.5396 5.96289 26.5396 5.96289 26.6235 5.87891Z" fill="black"/>
<path d="M22.0039 23.6836C22.1105 23.7362 22.217 23.789 22.3235 23.8418C22.3829 23.8712 22.4422 23.9005 22.5033 23.9308C22.7415 24.0534 22.9672 24.1944 23.1954 24.3345C25.4105 25.6295 28.1195 26.1117 30.6543 26.2031C30.7944 26.2083 30.7944 26.2083 30.9374 26.2136C33.3789 26.2572 35.7391 25.803 38.0449 25.0273C37.9872 25.5993 37.82 26.1332 37.6562 26.6828C37.6241 26.7914 37.5921 26.9 37.5601 27.0086C37.4728 27.3046 37.3849 27.6005 37.297 27.8963C37.204 28.2098 37.1114 28.5233 37.0187 28.8369C36.8589 29.3776 36.6987 29.9183 36.5384 30.4589C36.2933 31.285 36.049 32.1113 35.8048 32.9377C35.6237 33.5505 35.4424 34.1632 35.2612 34.7759C35.1951 34.9991 35.1291 35.2224 35.063 35.4456C34.958 35.8007 34.8529 36.1557 34.7476 36.5107C34.7091 36.6408 34.6706 36.7708 34.6322 36.9009C34.5449 37.1958 34.4573 37.4906 34.3685 37.7851C34.2964 38.0245 34.2267 38.2646 34.1582 38.5051C34.1224 38.627 34.0867 38.7488 34.0508 38.8707C34.0353 38.9268 34.0198 38.9829 34.0039 39.0407C33.902 39.3813 33.7939 39.5707 33.4999 39.7728C33.3056 39.8681 33.3056 39.8681 33.1003 39.9503C32.9935 39.9992 32.9935 39.9992 32.8846 40.0491C32.6749 40.1428 32.4637 40.2287 32.25 40.3125C32.1951 40.335 32.1403 40.3576 32.0838 40.3808C31.7263 40.5254 31.3629 40.6356 30.9902 40.7324C30.9215 40.7505 30.8527 40.7685 30.7818 40.7871C26.7891 41.806 22.2981 41.4606 18.6741 39.4241C18.4001 39.2585 18.144 39.0777 17.8887 38.8848C18.178 37.6894 18.502 36.5034 18.8246 35.3166C18.9035 35.0261 18.9823 34.7355 19.0611 34.4449C19.1939 33.9556 19.3268 33.4663 19.4597 32.9769C19.5943 32.4814 19.7289 31.9857 19.8633 31.4901C21.2972 26.2031 21.2972 26.2031 22.0039 23.6836Z" fill="black"/>
<path d="M24.5234 3.69445C24.471 4.3882 24.3023 5.04447 24.1288 5.71565C24.0962 5.8432 24.0637 5.97077 24.0312 6.09834C23.9613 6.37284 23.8911 6.64725 23.8206 6.92161C23.6503 7.58463 23.4815 8.24806 23.3126 8.91144C23.2529 9.14602 23.1931 9.38058 23.1333 9.61515C22.6808 11.3906 22.2368 13.1682 21.7931 14.9459C21.7103 15.2779 21.6274 15.6098 21.5445 15.9418C21.3336 16.7864 21.1228 17.631 20.9121 18.4757C20.5978 18.5675 20.448 18.5365 20.1402 18.4173C20.0548 18.3851 19.9694 18.3528 19.8814 18.3196C19.7902 18.2845 19.699 18.2494 19.6051 18.2132C18.7059 17.8795 17.8172 17.5917 16.8809 17.3839C16.8012 17.3662 16.7215 17.3484 16.6394 17.3302C12.6895 16.4715 8.86157 16.5419 4.95508 17.5519C5.00581 16.9778 5.11372 16.4406 5.25723 15.883C5.27954 15.7948 5.30185 15.7066 5.32484 15.6158C5.39869 15.3249 5.47339 15.0343 5.54822 14.7436C5.57402 14.6428 5.59981 14.542 5.62639 14.4382C6.1639 12.3395 6.73359 10.25 7.32009 8.16445C7.47558 7.60959 7.62612 7.05377 7.77103 6.49605C7.8569 6.16644 7.94499 5.83744 8.03342 5.50851C8.07313 5.35848 8.11179 5.20818 8.14928 5.05758C8.4907 3.68882 8.4907 3.68882 9.19383 3.22548C9.26393 3.18624 9.33403 3.14699 9.40625 3.10656C9.46509 3.07164 9.52393 3.03673 9.58455 3.00076C9.74806 2.91002 9.91261 2.83098 10.0834 2.75487C10.1441 2.72724 10.2049 2.69962 10.2675 2.67115C11.4194 2.1632 12.6122 1.91435 13.8574 1.76281C14.0065 1.74462 14.0065 1.74462 14.1586 1.72606C17.56 1.41472 21.4913 2.10085 24.5234 3.69445Z" fill="black"/>
<path d="M19.5684 21.5828C19.5147 22.0972 19.4137 22.5841 19.2867 23.085C19.2565 23.206 19.2565 23.206 19.2257 23.3295C19.159 23.5965 19.0917 23.8634 19.0244 24.1302C18.9771 24.3193 18.9297 24.5085 18.8824 24.6976C18.7561 25.202 18.6294 25.7062 18.5025 26.2104C18.3982 26.6252 18.2941 27.04 18.1901 27.4548C17.8665 28.7451 17.5418 30.0351 17.2168 31.325C17.1769 31.4835 17.1369 31.642 17.097 31.8005C16.8821 32.6535 16.6666 33.5063 16.4504 34.3589C16.4247 34.4607 16.3989 34.5625 16.3724 34.6674C16.3022 34.9445 16.2317 35.2216 16.1611 35.4986C16.1412 35.5774 16.1212 35.6561 16.1007 35.7372C16.0737 35.8426 16.0737 35.8426 16.0462 35.9501C16.0232 36.0405 16.0232 36.0405 15.9997 36.1328C15.957 36.2801 15.957 36.2801 15.873 36.448C15.3649 36.2847 14.8689 36.1015 14.3726 35.9052C12.6114 35.2103 10.851 34.6822 8.98633 34.3484C8.92657 34.3373 8.86681 34.3261 8.80524 34.3146C5.84169 33.7829 2.73987 34.2534 0 35.4402C0.0520612 34.7334 0.228455 34.0646 0.406471 33.3813C0.43994 33.2513 0.473364 33.1213 0.506747 32.9912C0.596721 32.6413 0.687344 32.2916 0.778101 31.9419C0.853751 31.65 0.929017 31.3581 1.00428 31.0662C1.25634 30.0884 1.50982 29.1109 1.76367 28.1336C1.80111 27.9894 1.83854 27.8453 1.87598 27.7011C2.23982 26.3001 2.60467 24.8994 2.97095 23.499C2.99695 23.3996 3.02295 23.3001 3.04975 23.1976C3.09928 23.0084 3.14909 22.8193 3.1992 22.6303C3.25442 22.4189 3.30794 22.2076 3.3601 21.9955C3.38894 21.881 3.41778 21.7665 3.44662 21.652C3.47212 21.5485 3.49763 21.445 3.52391 21.3383C3.60847 21.0874 3.65391 20.9802 3.86361 20.8266C3.96224 20.7834 4.06086 20.7402 4.16248 20.6957C4.21736 20.6709 4.27224 20.6461 4.32878 20.6205C4.50762 20.5428 4.688 20.4741 4.87109 20.407C4.93215 20.3838 4.99321 20.3606 5.05612 20.3367C9.335 18.7461 15.6998 19.0038 19.5684 21.5828Z" fill="black"/>
</g>
<defs>
<clipPath id="clip0_996_1041">
<rect width="43" height="43" fill="white"/>
</clipPath>
</defs>
</svg>
