<svg width="27" height="27" viewBox="0 0 27 27" fill="none" xmlns="http://www.w3.org/2000/svg">
<g clip-path="url(#clip0_1189_6474)">
<path d="M14.2564 0.189905C14.341 0.21825 14.4257 0.246587 14.5104 0.274916C14.5545 0.289835 14.5985 0.304753 14.6439 0.320124C17.8505 1.403 21.1666 2.11333 24.5195 2.55708C24.5543 2.56169 24.589 2.5663 24.6249 2.57105C24.7 2.5806 24.7752 2.58953 24.8504 2.59801C25.1479 2.63199 25.1479 2.63199 25.206 2.69005C25.2115 2.81848 25.2135 2.94543 25.2134 3.07391C25.2136 3.13492 25.2136 3.13492 25.2138 3.19717C25.2143 3.33458 25.2144 3.47199 25.2145 3.6094C25.2147 3.70754 25.215 3.80568 25.2152 3.90382C25.2159 4.1716 25.2163 4.43938 25.2165 4.70716C25.2167 4.8749 25.2169 5.04263 25.2171 5.21036C25.2178 5.7363 25.2183 6.26225 25.2186 6.78819C25.2188 7.39291 25.2197 7.99762 25.2212 8.60233C25.2224 9.0708 25.2229 9.53927 25.223 10.0077C25.223 10.2869 25.2233 10.566 25.2243 10.8451C25.238 15.1046 24.0754 19.0363 21.1225 22.2129C21.0096 22.3356 20.9005 22.4602 20.7927 22.5874C20.6455 22.7569 20.4872 22.9028 20.3159 23.0476C20.1752 23.1691 20.0413 23.2969 19.9062 23.4245C19.5344 23.7694 19.1318 24.0694 18.7196 24.3639C18.6887 24.3861 18.6579 24.4083 18.6261 24.4312C17.5714 25.1824 16.4038 25.7443 15.2297 26.2798C15.0006 26.3844 14.7726 26.4912 14.5452 26.5993C14.4315 26.6529 14.3179 26.7064 14.2042 26.76C14.1531 26.7846 14.1019 26.8092 14.0491 26.8346C14.0017 26.8567 13.9544 26.8788 13.9056 26.9015C13.8649 26.9208 13.8243 26.9401 13.7824 26.9599C13.4618 27.064 13.2286 26.9683 12.939 26.8249C12.8816 26.7974 12.8816 26.7974 12.8231 26.7694C12.6987 26.7097 12.5748 26.6492 12.4508 26.5886C12.3215 26.5262 12.1922 26.464 12.0628 26.4019C11.9767 26.3605 11.8907 26.3191 11.8047 26.2775C11.5095 26.1353 11.2124 25.999 10.913 25.8658C9.35889 25.1731 7.95585 24.2302 6.7197 23.0637C6.61097 22.9626 6.49867 22.8658 6.38638 22.7687C6.20812 22.6111 6.05103 22.4451 5.89776 22.2634C5.78645 22.1336 5.66953 22.01 5.55251 21.8854C3.46022 19.5867 2.20976 16.5096 1.84463 13.4479C1.83808 13.3946 1.83808 13.3946 1.8314 13.3402C1.77868 12.8498 1.78488 12.3601 1.78591 11.8676C1.78592 11.7673 1.78591 11.6669 1.78588 11.5666C1.78587 11.2956 1.78618 11.0247 1.78655 10.7538C1.78688 10.4701 1.78691 10.1864 1.78697 9.90268C1.78713 9.36613 1.78756 8.82958 1.78809 8.29302C1.78869 7.68189 1.78897 7.07075 1.78924 6.45962C1.78979 5.2031 1.79072 3.94657 1.79189 2.69005C1.87514 2.67313 1.9584 2.65628 2.04167 2.63946C2.11121 2.62538 2.11121 2.62538 2.18217 2.611C2.37528 2.57378 2.56912 2.54616 2.76398 2.5199C2.84898 2.50807 2.93398 2.49621 3.01897 2.48431C3.08541 2.47505 3.08541 2.47505 3.1532 2.4656C6.19304 2.03824 9.2253 1.39509 12.134 0.402697C12.1747 0.388848 12.2153 0.375 12.2572 0.360731C12.4428 0.297148 12.6276 0.232193 12.8118 0.164684C12.8754 0.142145 12.939 0.119606 13.0045 0.0963843C13.0585 0.076505 13.1125 0.0566257 13.1681 0.036144C13.5467 -0.0418117 13.8989 0.0660425 14.2564 0.189905ZM10.8622 6.59239C10.8297 6.62564 10.7972 6.65888 10.7637 6.69313C10.0922 7.429 9.90188 8.36301 9.90969 9.33129C9.90993 9.38747 9.91017 9.44365 9.91041 9.50154C9.91103 9.63925 9.91189 9.77695 9.91299 9.91466C9.86722 9.91796 9.86722 9.91796 9.82052 9.92133C9.3181 9.96585 8.85879 10.1662 8.51367 10.5442C8.263 10.8971 8.11399 11.2924 8.11261 11.724C8.11231 11.7808 8.11201 11.8376 8.1117 11.8961C8.11164 11.9581 8.11158 12.0201 8.11152 12.084C8.11126 12.1495 8.111 12.2151 8.11073 12.2826C8.11009 12.4623 8.1097 12.642 8.10946 12.8216C8.10931 12.9341 8.10909 13.0465 8.10885 13.159C8.10813 13.5113 8.10762 13.8636 8.10742 14.2159C8.10718 14.6216 8.10626 15.0273 8.10473 15.433C8.10359 15.7471 8.10306 16.0613 8.10299 16.3755C8.10293 16.5628 8.10263 16.7502 8.10168 16.9375C8.10064 17.1469 8.10088 17.3563 8.10122 17.5657C8.10074 17.6271 8.10025 17.6885 8.09975 17.7517C8.103 18.3894 8.24536 18.8424 8.69598 19.2985C9.07626 19.6508 9.45132 19.7819 9.96977 19.7834C10.0341 19.7837 10.0985 19.784 10.1649 19.7843C10.2358 19.7844 10.3067 19.7844 10.3776 19.7845C10.4527 19.7847 10.5277 19.785 10.6028 19.7853C10.8063 19.786 11.0098 19.7863 11.2134 19.7865C11.3407 19.7867 11.4681 19.7869 11.5954 19.7872C11.9943 19.7879 12.3933 19.7884 12.7922 19.7886C13.2517 19.7888 13.7113 19.7897 14.1708 19.7913C14.5266 19.7924 14.8825 19.7929 15.2383 19.793C15.4505 19.7931 15.6627 19.7934 15.875 19.7943C16.0748 19.7952 16.2747 19.7953 16.4745 19.7948C16.5475 19.7948 16.6205 19.795 16.6935 19.7956C17.3204 19.7998 17.8247 19.7372 18.2978 19.3014C18.6476 18.9558 18.859 18.612 18.8849 18.1096C18.8851 18.0605 18.8854 18.0113 18.8856 17.9606C18.886 17.9039 18.8863 17.8471 18.8867 17.7886C18.8869 17.7269 18.887 17.6651 18.8872 17.6015C18.8877 17.5033 18.8877 17.5033 18.8882 17.4031C18.8893 17.1865 18.8899 16.9699 18.8904 16.7532C18.8906 16.6784 18.8908 16.6036 18.891 16.5287C18.8921 16.177 18.8928 15.8252 18.8932 15.4734C18.8938 15.0686 18.8951 14.6638 18.8973 14.259C18.8989 13.9453 18.8996 13.6317 18.8998 13.318C18.8999 13.131 18.9004 12.944 18.9017 12.7571C18.9032 12.5481 18.903 12.3391 18.9026 12.1301C18.9033 12.069 18.904 12.0079 18.9047 11.9449C18.901 11.371 18.753 10.864 18.3505 10.442C18.0444 10.1677 17.7254 9.97842 17.3104 9.93711C17.2681 9.93278 17.2257 9.92845 17.1821 9.92399C17.15 9.92091 17.1179 9.91783 17.0849 9.91466C17.0857 9.88206 17.0865 9.84946 17.0874 9.81587C17.1168 8.47875 16.9419 7.42408 15.9873 6.42101C15.5364 5.98726 15.0393 5.73248 14.4481 5.53771C14.41 5.52465 14.3719 5.5116 14.3326 5.49816C13.0628 5.14032 11.7437 5.6853 10.8622 6.59239Z" fill="black" fill-opacity="0.78"/>
<path d="M9.85938 11.6543C12.2609 11.6543 14.6624 11.6543 17.1367 11.6543C17.1367 13.76 17.1367 15.8657 17.1367 18.0352C14.7352 18.0352 12.3337 18.0352 9.85938 18.0352C9.85938 15.9295 9.85938 13.8238 9.85938 11.6543Z" fill="black" fill-opacity="0.78"/>
<path d="M14.5134 7.45303C14.9012 7.72237 15.1701 8.08586 15.291 8.54356C15.3662 8.99471 15.3438 9.45729 15.3438 9.91465C14.1256 9.91465 12.9074 9.91465 11.6523 9.91465C11.6523 8.2613 11.6523 8.2613 12.2129 7.66047C12.8577 7.06051 13.7673 7.01597 14.5134 7.45303Z" fill="black" fill-opacity="0.78"/>
</g>
<defs>
<clipPath id="clip0_1189_6474">
<rect width="27" height="27" fill="white"/>
</clipPath>
</defs>
</svg>
