<svg width="43" height="43" viewBox="0 0 43 43" fill="none" xmlns="http://www.w3.org/2000/svg">
<g clip-path="url(#clip0_1285_3313)">
<path d="M8.40773 -0.04314C8.60304 -0.0435958 8.79836 -0.0441943 8.99368 -0.0449238C9.52153 -0.0464488 10.0494 -0.0458642 10.5772 -0.0447965C11.0748 -0.0440293 11.5725 -0.0446165 12.0701 -0.0451079C13.1157 -0.0460634 14.1613 -0.0449683 15.207 -0.0431594C16.102 -0.0416587 16.9971 -0.0419195 17.8922 -0.043468C18.9344 -0.0452702 19.9765 -0.0459712 21.0187 -0.044942C21.5694 -0.0444198 22.12 -0.0443443 22.6707 -0.0454582C23.1886 -0.0464326 23.7064 -0.0457482 24.2242 -0.043814C24.4136 -0.043372 24.6031 -0.0434937 24.7925 -0.0442382C25.766 -0.04771 26.6358 -0.0472222 27.5463 0.336266C27.6104 0.362382 27.6744 0.388498 27.7404 0.415406C28.8733 0.902856 29.6909 1.90586 30.1675 3.01351C30.4526 3.77921 30.5201 4.50088 30.5015 5.31234C30.4963 5.63799 30.4911 5.96364 30.4858 6.29916C29.6266 6.29916 28.7675 6.29916 27.8823 6.29916C27.8613 5.42782 27.8613 5.42782 27.8572 5.15868C27.8321 4.44446 27.6636 3.69992 27.1264 3.19173C26.4141 2.70059 25.6889 2.57783 24.8376 2.58251C24.7631 2.58225 24.6886 2.58199 24.6119 2.58172C24.3643 2.58106 24.1168 2.58158 23.8692 2.58211C23.6909 2.58188 23.5126 2.58158 23.3343 2.58122C22.8514 2.58045 22.3685 2.58075 21.8856 2.58128C21.3795 2.58171 20.8734 2.58131 20.3672 2.58105C19.5173 2.58074 18.6673 2.58115 17.8174 2.58195C16.8358 2.58286 15.8543 2.58256 14.8727 2.58164C14.0289 2.58088 13.1852 2.58077 12.3414 2.58121C11.8379 2.58147 11.3344 2.58151 10.8309 2.58095C10.3574 2.58046 9.88387 2.5808 9.41036 2.58177C9.23696 2.58199 9.06356 2.58193 8.89015 2.58156C8.65271 2.5811 8.4153 2.58168 8.17786 2.58251C8.10991 2.58214 8.04196 2.58177 7.97195 2.58138C7.14578 2.58697 6.4241 2.71341 5.79437 3.27572C5.08447 4.07074 5.09756 5.00949 5.10117 6.02849C5.10097 6.14398 5.10071 6.25946 5.10037 6.37494C5.09967 6.69029 5.10002 7.00563 5.10054 7.32098C5.10092 7.66185 5.10033 8.00272 5.09987 8.34358C5.09912 9.01055 5.09928 9.67752 5.09977 10.3445C5.10015 10.8867 5.1002 11.4289 5.10002 11.9711C5.09999 12.0484 5.09997 12.1256 5.09994 12.2053C5.09989 12.3622 5.09983 12.5192 5.09978 12.6762C5.0993 14.147 5.09985 15.6178 5.10075 17.0887C5.1015 18.3499 5.10137 19.6111 5.1006 20.8723C5.0997 22.338 5.09934 23.8037 5.09986 25.2694C5.09991 25.4257 5.09997 25.5821 5.10002 25.7385C5.10006 25.8539 5.10006 25.8539 5.1001 25.9717C5.10024 26.513 5.1 27.0544 5.0996 27.5958C5.09913 28.2558 5.09926 28.9158 5.10015 29.5758C5.10059 29.9124 5.10077 30.2489 5.10021 30.5855C5.09971 30.8939 5.09999 31.2023 5.10088 31.5108C5.10115 31.6744 5.10061 31.8381 5.10003 32.0017C5.10412 32.9231 5.16019 33.7237 5.79437 34.4339C6.48197 35.0479 7.28373 35.1319 8.17616 35.1277C8.25059 35.128 8.32502 35.1283 8.4017 35.1287C8.6486 35.1295 8.89549 35.1292 9.14239 35.1289C9.32043 35.1292 9.49846 35.1297 9.6765 35.1302C10.1584 35.1313 10.6402 35.1313 11.1221 35.1311C11.5251 35.131 11.9281 35.1314 12.3311 35.1318C13.2822 35.1328 14.2333 35.1328 15.1845 35.1323C16.1641 35.1318 17.1437 35.1328 18.1233 35.1346C18.9658 35.1361 19.8084 35.1366 20.651 35.1363C21.1536 35.1362 21.6561 35.1364 22.1587 35.1376C22.6314 35.1386 23.1042 35.1385 23.5769 35.1374C23.7499 35.1372 23.9228 35.1374 24.0957 35.1381C25.6736 35.1867 25.6736 35.1867 27.0818 34.573C27.5549 34.0613 27.7968 33.5093 27.8248 32.8212C27.8281 32.747 27.8313 32.6728 27.8345 32.5964C27.84 32.4562 27.84 32.4562 27.8455 32.3133C27.8576 32.0154 27.8698 31.7174 27.8823 31.4105C28.7414 31.4105 29.6006 31.4105 30.4858 31.4105C30.4934 32.3523 30.4996 33.2942 30.5032 34.2361C30.5049 34.6735 30.5073 35.111 30.5111 35.5485C30.5148 35.9716 30.5168 36.3947 30.5177 36.8178C30.5183 36.9783 30.5195 37.1387 30.5213 37.2992C30.5401 39.0154 30.2555 40.4125 29.0269 41.6979C28.072 42.6088 26.9555 43.013 25.6525 43.0127C25.5307 43.0131 25.5307 43.0132 25.4064 43.0136C25.1341 43.0146 24.8617 43.0149 24.5893 43.0152C24.3941 43.0157 24.1989 43.0163 24.0037 43.0169C23.3623 43.0186 22.7209 43.0195 22.0795 43.0203C21.8585 43.0207 21.6375 43.021 21.4165 43.0214C20.4971 43.0228 19.5776 43.024 18.6582 43.0246C18.4197 43.0248 18.1813 43.025 17.9429 43.0251C17.8837 43.0252 17.8244 43.0252 17.7634 43.0252C16.8045 43.0259 15.8456 43.0281 14.8867 43.0308C13.901 43.0336 12.9152 43.0351 11.9294 43.0354C11.3765 43.0356 10.8235 43.0363 10.2706 43.0384C9.75 43.0404 9.22943 43.0407 8.70884 43.0399C8.51834 43.0398 8.32784 43.0403 8.13734 43.0415C6.46875 43.0511 5.14338 42.8384 3.87848 41.6408C2.76522 40.465 2.4671 39.167 2.47632 37.5964C2.47593 37.4514 2.4754 37.3064 2.47473 37.1615C2.47334 36.7658 2.47402 36.3701 2.47506 35.9744C2.47583 35.5467 2.47465 35.1189 2.47373 34.6911C2.47224 33.8542 2.47256 33.0172 2.47353 32.1803C2.47429 31.4999 2.47439 30.8194 2.47403 30.139C2.47397 30.0421 2.47392 29.9451 2.47387 29.8452C2.47376 29.6482 2.47365 29.4512 2.47354 29.2542C2.47259 27.4083 2.47369 25.5625 2.47549 23.7166C2.47699 22.1339 2.47673 20.5513 2.47518 18.9687C2.47338 17.1293 2.47268 15.2899 2.47371 13.4504C2.47382 13.2542 2.47392 13.0579 2.47403 12.8616C2.47408 12.7651 2.47413 12.6685 2.47418 12.569C2.47447 11.8897 2.47398 11.2104 2.47319 10.531C2.47225 9.70279 2.47251 8.87453 2.4743 8.04627C2.47518 7.62396 2.47553 7.20166 2.47441 6.77935C2.47341 6.39226 2.47397 6.0052 2.47575 5.61811C2.47612 5.47858 2.47594 5.33905 2.47512 5.19953C2.46703 3.70643 2.83199 2.46512 3.87848 1.35983C5.22908 0.0810809 6.64112 -0.0500834 8.40773 -0.04314ZM13.4894 38.25C13.2364 38.649 13.145 38.9078 13.224 39.39C13.3289 39.7797 13.5408 40.0104 13.8516 40.2551C14.2073 40.4511 14.5249 40.4909 14.9268 40.4943C15.0416 40.4955 15.0416 40.4955 15.1588 40.4968C15.2815 40.4973 15.2815 40.4973 15.4066 40.4979C15.5345 40.4986 15.5345 40.4986 15.6649 40.4993C15.8451 40.5001 16.0252 40.5006 16.2054 40.501C16.4792 40.5018 16.7531 40.5044 17.027 40.507C17.2025 40.5076 17.378 40.508 17.5535 40.5084C17.6346 40.5094 17.7157 40.5104 17.7993 40.5115C18.3742 40.5096 18.9494 40.454 19.413 40.0845C19.4502 40.0351 19.4874 39.9858 19.5258 39.9349C19.5843 39.8608 19.5843 39.8608 19.6439 39.7853C19.8489 39.4632 19.8502 39.1729 19.8198 38.8011C19.6608 38.3144 19.4423 38.0341 18.9799 37.7933C18.7244 37.7133 18.4904 37.6975 18.2233 37.6944C18.1398 37.6934 18.0562 37.6923 17.9701 37.6912C17.8803 37.6906 17.7904 37.6899 17.6978 37.6893C17.5583 37.6883 17.5583 37.6883 17.416 37.6872C17.2192 37.6861 17.0224 37.6852 16.8256 37.6845C16.5257 37.6831 16.2258 37.6794 15.926 37.6757C15.7345 37.6748 15.543 37.6741 15.3515 37.6736C15.2624 37.6721 15.1732 37.6706 15.0813 37.6691C14.4325 37.671 13.9516 37.7757 13.4894 38.25Z" fill="black"/>
<path d="M36.4488 10.0784C36.4915 10.1147 36.5342 10.1511 36.5781 10.1885C38.2872 11.6517 39.5499 13.6156 40.1441 15.7893C40.1688 15.8754 40.1688 15.8754 40.194 15.9633C40.6755 17.701 40.7235 19.9253 40.2281 21.6682C40.2096 21.7352 40.1911 21.8021 40.172 21.8711C39.391 24.6139 37.7098 27.0319 35.273 28.5549C35.2216 28.5875 35.1701 28.62 35.1171 28.6535C33.5722 29.6151 31.7283 30.256 29.898 30.3186C29.8449 30.3208 29.7918 30.323 29.7371 30.3252C27.2573 30.4146 24.7159 29.8519 22.6754 28.387C22.5924 28.3288 22.5095 28.2707 22.4241 28.2108C19.8665 26.338 18.2549 23.6736 17.7512 20.5452C17.3321 17.5535 18.0711 14.5281 19.8461 12.0835C21.7137 9.67964 24.3836 7.90667 27.452 7.51128C30.7012 7.18835 33.9382 7.90429 36.4488 10.0784ZM33.5723 13.8682C33.513 13.8857 33.4537 13.9033 33.3926 13.9213C32.5781 14.309 31.9594 15.0501 31.3336 15.6811C31.2217 15.7934 31.1096 15.9056 30.9976 16.0178C30.7045 16.3115 30.4119 16.6058 30.1195 16.9001C29.8203 17.201 29.5206 17.5015 29.2209 17.802C28.6343 18.3904 28.0482 18.9793 27.4625 19.5686C27.1388 19.4187 26.9211 19.2128 26.6764 18.9581C26.5887 18.8687 26.501 18.7793 26.4133 18.6899C26.2768 18.5497 26.1404 18.4093 26.0043 18.2686C25.0339 17.2309 25.0339 17.2309 23.7094 16.8549C23.1322 16.8625 22.7715 16.9764 22.3447 17.3653C21.9056 17.8301 21.7011 18.2591 21.6308 18.8915C21.6824 19.9899 22.6809 20.7638 23.3968 21.4858C23.4726 21.5624 23.5485 21.6389 23.6267 21.7178C23.7862 21.8786 23.946 22.0392 24.1059 22.1997C24.3094 22.4042 24.5119 22.6096 24.7143 22.8153C24.9095 23.0132 25.1059 23.21 25.3022 23.407C25.4099 23.5169 25.4099 23.5169 25.5199 23.6291C26.0836 24.1908 26.603 24.5684 27.4202 24.6146C28.756 24.5708 29.8348 23.0063 30.711 22.1321C30.7811 22.0622 30.8513 21.9923 30.9236 21.9202C31.2939 21.5511 31.664 21.1818 32.034 20.8122C32.4152 20.4315 32.7972 20.0515 33.1794 19.6717C33.4743 19.3783 33.7687 19.0843 34.063 18.7902C34.2036 18.6499 34.3444 18.5097 34.4855 18.3698C34.6824 18.1742 34.8785 17.978 35.0745 17.7815C35.1324 17.7243 35.1904 17.6671 35.2501 17.6082C35.7705 17.0833 36.1124 16.5759 36.1444 15.8208C36.1368 15.2531 35.9235 14.8075 35.5637 14.3737C35.0375 13.8687 34.2747 13.6484 33.5723 13.8682Z" fill="black"/>
</g>
<defs>
<clipPath id="clip0_1285_3313">
<rect width="43" height="43" fill="white"/>
</clipPath>
</defs>
</svg>
