<svg width="47" height="47" viewBox="0 0 47 47" fill="none" xmlns="http://www.w3.org/2000/svg">
<path d="M23.3164 24.877C23.3164 31.9655 23.3164 39.0541 23.3164 46.3574C22.353 46.3039 21.398 46.2505 20.439 46.1552C20.3681 46.1482 20.2972 46.1412 20.2241 46.1339C20.1507 46.1267 20.0774 46.1194 20.0018 46.1119C19.8433 46.0965 19.6848 46.0811 19.5263 46.0658C19.1017 46.0246 18.6772 45.9829 18.2526 45.9412C17.8068 45.8975 17.361 45.8541 16.9152 45.8107C16.0735 45.7287 15.2319 45.6464 14.3902 45.564C13.2511 45.4524 12.112 45.3414 10.9728 45.2303C9.1817 45.0557 7.39066 44.8803 5.59961 44.7051C5.59961 39.6462 5.59961 34.5872 5.59961 29.375C5.88524 29.2798 6.11256 29.26 6.4126 29.2427C6.52482 29.236 6.63704 29.2293 6.75266 29.2224C6.87722 29.2154 7.00179 29.2083 7.12636 29.2013C7.2574 29.1936 7.38844 29.1859 7.51948 29.1782C7.80182 29.1616 8.08417 29.1452 8.36654 29.1289C8.8133 29.1032 9.26001 29.0767 9.70672 29.05C10.9771 28.9743 12.2474 28.8992 13.5179 28.8257C14.2195 28.7852 14.921 28.7438 15.6224 28.7015C15.9935 28.6791 16.3646 28.6572 16.7358 28.6363C17.0851 28.6167 17.4344 28.596 17.7837 28.5744C17.9116 28.5667 18.0395 28.5594 18.1674 28.5525C19.3434 28.4912 19.3434 28.4912 20.2948 27.847C20.3606 27.7809 20.4264 27.7147 20.4942 27.6466C20.5629 27.5757 20.6316 27.5049 20.7023 27.4318C20.7746 27.3589 20.8468 27.2859 20.9212 27.2108C21.1506 26.9787 21.3787 26.7455 21.6067 26.5121C21.8369 26.278 22.0674 26.0441 22.2981 25.8105C22.4413 25.6652 22.5843 25.5196 22.7268 25.3737C22.7909 25.3085 22.855 25.2432 22.921 25.1759C22.9776 25.1181 23.0342 25.0602 23.0924 25.0006C23.2246 24.877 23.2246 24.877 23.3164 24.877ZM7.52734 38.6465C7.39476 38.9117 7.40095 39.0868 7.43555 39.3809C7.64484 39.7071 7.78274 39.8132 8.16288 39.9039C8.49772 39.9508 8.8313 39.9837 9.16821 40.012C9.28335 40.0238 9.39849 40.0356 9.51711 40.0478C10.0669 40.1002 10.5619 40.1346 11.1074 40.0234C11.3497 39.8354 11.3497 39.8354 11.4746 39.5645C11.4746 39.2383 11.4317 39.0758 11.2299 38.8192C10.9582 38.6002 10.7793 38.5827 10.4336 38.5504C10.3209 38.5391 10.2082 38.5279 10.0921 38.5163C9.97465 38.5063 9.85721 38.4962 9.73621 38.4858C9.61912 38.4744 9.50203 38.4629 9.38139 38.4511C8.40429 38.3074 8.40429 38.3074 7.52734 38.6465ZM7.61914 41.7791C7.40345 42.0891 7.37263 42.2241 7.43555 42.5938C7.57445 42.8333 7.65435 42.9414 7.91911 43.0327C7.99947 43.0444 8.07982 43.056 8.16262 43.0681C8.29784 43.0883 8.29784 43.0883 8.43579 43.109C8.90588 43.1676 9.37579 43.2208 9.84737 43.2661C9.9508 43.2762 10.0542 43.2864 10.1608 43.2968C10.3775 43.3179 10.5943 43.3388 10.8111 43.3595C11.1429 43.3913 11.4746 43.4243 11.8063 43.4574C12.0177 43.4778 12.2292 43.4982 12.4406 43.5185C12.5395 43.5285 12.6384 43.5384 12.7403 43.5486C12.8787 43.5616 12.8787 43.5616 13.0199 43.5747C13.1006 43.5825 13.1813 43.5903 13.2645 43.5984C13.6277 43.6065 13.874 43.5754 14.1597 43.3453C14.3647 43.0898 14.3647 43.0898 14.4121 42.7773C14.2837 42.5205 14.1562 42.3378 13.9531 42.1348C13.7422 42.0879 13.7422 42.0879 13.4931 42.0663C13.3964 42.0558 13.2997 42.0454 13.2 42.0347C13.0945 42.0241 12.989 42.0136 12.8802 42.0028C12.7715 41.9914 12.6627 41.98 12.5506 41.9683C12.2545 41.9375 11.9583 41.9076 11.6621 41.8781C11.4715 41.8591 11.281 41.8396 11.0906 41.8201C10.7702 41.7873 10.4499 41.755 10.1294 41.7231C9.94622 41.7048 9.76301 41.6864 9.5798 41.6679C8.55391 41.5015 8.55391 41.5015 7.61914 41.7791Z" fill="#383838"/>
<path d="M24.7852 24.877C25.2086 25.2399 25.6085 25.5974 25.9964 25.9939C26.101 26.0997 26.2056 26.2054 26.3102 26.3111C26.4721 26.4753 26.6339 26.6396 26.7954 26.8042C26.9532 26.9648 27.1116 27.1249 27.2701 27.2848C27.3179 27.3339 27.3658 27.3829 27.415 27.4335C28.0251 28.0477 28.4674 28.1381 29.3086 28.1871C29.4653 28.1976 29.4653 28.1976 29.6253 28.2084C29.9705 28.2315 30.3159 28.2528 30.6612 28.2742C30.9009 28.2899 31.1406 28.3057 31.3803 28.3217C31.9467 28.3593 32.5131 28.3957 33.0796 28.4316C34.1551 28.4998 35.2304 28.5703 36.3056 28.641C36.6594 28.6641 37.0133 28.6866 37.3671 28.7089C37.5828 28.7228 37.7985 28.7368 38.0142 28.7508C38.1132 28.7569 38.2123 28.763 38.3143 28.7693C38.4493 28.7781 38.4493 28.7781 38.5869 28.7872C38.6654 28.7921 38.7438 28.7971 38.8246 28.8022C39.0137 28.8242 39.0137 28.8242 39.1973 28.916C39.1973 30.8245 39.1973 32.7329 39.1973 34.6992C38.7126 34.7598 38.2279 34.8204 37.7285 34.8828C36.4913 35.2036 35.4747 35.6851 34.5156 36.5352C34.4311 36.6067 34.4311 36.6067 34.3449 36.6797C33.4877 37.4602 32.9272 38.5643 32.5879 39.6562C32.5654 39.728 32.5429 39.7997 32.5198 39.8736C32.0899 41.5754 32.4654 43.3048 33.2774 44.8159C33.4141 45.0723 33.4141 45.0723 33.5059 45.3477C32.5543 45.5037 31.6004 45.6201 30.6426 45.7299C30.4846 45.7482 30.3267 45.7664 30.1687 45.7847C29.8403 45.8226 29.5119 45.8604 29.1835 45.8981C28.7628 45.9463 28.3421 45.995 27.9214 46.0438C27.5964 46.0814 27.2714 46.1189 26.9464 46.1562C26.7912 46.1741 26.6359 46.192 26.4807 46.21C26.2646 46.2351 26.0485 46.2598 25.8324 46.2845C25.7686 46.2919 25.7049 46.2994 25.6392 46.307C25.351 46.3397 25.0759 46.3574 24.7852 46.3574C24.7852 39.2689 24.7852 32.1803 24.7852 24.877Z" fill="#383838"/>
<path d="M41.217 36.3515C41.2975 36.3837 41.3779 36.4158 41.4608 36.449C42.0933 36.7301 42.5664 37.1509 43.0529 37.6366C43.1127 37.6953 43.1724 37.754 43.234 37.8145C44.2523 38.8887 44.5719 40.235 44.5667 41.6706C44.5198 43.2824 43.8425 44.5582 42.6807 45.6678C41.3677 46.7875 39.9034 47.024 38.2333 46.9286C36.9536 46.8142 35.7521 46.0884 34.883 45.164C33.9088 43.9831 33.4473 42.5863 33.5118 41.0618C33.6512 39.6512 34.1971 38.3315 35.2502 37.3612C36.934 35.999 39.1689 35.477 41.217 36.3515ZM38.4631 38.1874C38.2978 38.519 38.2575 38.7849 38.2616 39.1531C38.2622 39.2468 38.2628 39.3406 38.2634 39.4372C38.2649 39.5341 38.2664 39.631 38.268 39.7307C38.2688 39.8294 38.2697 39.928 38.2705 40.0296C38.2727 40.2723 38.2757 40.515 38.2795 40.7577C38.2124 40.7553 38.1453 40.7529 38.0761 40.7504C37.771 40.7409 37.4659 40.7349 37.1607 40.729C37.0023 40.7233 37.0023 40.7233 36.8407 40.7174C36.2125 40.6856 36.2125 40.6856 35.6819 40.9682C35.4969 41.2147 35.4969 41.2147 35.5199 41.5495C35.6288 41.8954 35.6789 41.9591 35.9846 42.1347C36.2414 42.1807 36.2414 42.1807 36.5224 42.1816C36.6248 42.1849 36.7272 42.1882 36.8326 42.1915C36.939 42.1936 37.0454 42.1957 37.155 42.1978C37.2628 42.2009 37.3706 42.2041 37.4817 42.2073C37.7476 42.2149 38.0135 42.2212 38.2795 42.2265C38.2799 42.2936 38.2803 42.3607 38.2806 42.4299C38.2837 42.7351 38.2902 43.0401 38.2967 43.3452C38.2972 43.4509 38.2978 43.5565 38.2983 43.6653C38.2938 44.2944 38.2938 44.2944 38.5846 44.824C38.8286 45.0093 38.8286 45.0093 39.163 44.9861C39.5088 44.8773 39.5747 44.8285 39.7482 44.5214C39.786 44.2552 39.786 44.2552 39.7751 43.9634C39.7743 43.8569 39.7734 43.7504 39.7724 43.6407C39.7701 43.53 39.7678 43.4192 39.7655 43.3051C39.7642 43.1929 39.763 43.0807 39.7617 42.9651C39.7584 42.6883 39.7539 42.4115 39.7482 42.1347C39.8186 42.1366 39.889 42.1385 39.9615 42.1405C40.2805 42.1481 40.5996 42.1529 40.9187 42.1576C41.0294 42.1607 41.1402 42.1638 41.2543 42.1669C41.3608 42.1681 41.4673 42.1693 41.577 42.1705C41.6751 42.1725 41.7731 42.1744 41.8742 42.1764C42.1986 42.1245 42.3014 42.022 42.5022 41.7675C42.6013 41.5471 42.6013 41.5471 42.5939 41.3085C42.4332 40.9677 42.4332 40.9677 42.135 40.7577C41.9551 40.7499 41.775 40.7479 41.5949 40.7488C41.4343 40.7492 41.4343 40.7492 41.2704 40.7497C41.1581 40.7504 41.0458 40.7512 40.9301 40.752C40.8171 40.7524 40.7041 40.7528 40.5877 40.7532C40.3079 40.7543 40.0281 40.7558 39.7482 40.7577C39.7502 40.6873 39.7521 40.617 39.7541 40.5445C39.7617 40.2254 39.7665 39.9064 39.7712 39.5873C39.7743 39.4766 39.7773 39.3658 39.7805 39.2517C39.7817 39.1452 39.7829 39.0387 39.7841 38.929C39.786 38.8309 39.7879 38.7328 39.7899 38.6318C39.7381 38.3073 39.6355 38.2046 39.3811 38.0038C38.9878 37.8526 38.7861 37.9255 38.4631 38.1874Z" fill="#383838"/>
<path d="M22.1804 0.0800781C22.2524 0.0838647 22.3243 0.0876514 22.3984 0.0915527C22.5347 0.345644 22.6704 0.600022 22.8058 0.854614C22.8681 0.970953 22.8681 0.970953 22.9316 1.08964C23.1481 1.49867 23.3523 1.90828 23.5355 2.3334C23.5875 2.4521 23.5875 2.4521 23.6406 2.57318C23.7063 2.7251 23.7698 2.87799 23.8308 3.03185C23.861 3.1011 23.8913 3.17035 23.9224 3.24169C23.9473 3.3027 23.9723 3.36371 23.9979 3.42656C24.3559 3.80585 25.1192 3.80803 25.6217 3.87531C25.7603 3.89477 25.8989 3.91425 26.0375 3.93375C26.253 3.96361 26.4686 3.99324 26.6841 4.02255C26.8943 4.05127 27.1042 4.08085 27.3142 4.11053C27.411 4.12331 27.411 4.12331 27.5098 4.13634C27.8261 4.18152 28.0024 4.22534 28.2734 4.40601C28.2585 4.74449 28.1608 4.91114 27.9239 5.13816C27.8112 5.23966 27.6978 5.3404 27.5839 5.44051C27.4618 5.55344 27.34 5.66658 27.2183 5.77991C27.0266 5.95687 26.8342 6.13221 26.638 6.30413C25.9065 6.90431 25.9065 6.90431 25.4781 7.71368C25.4626 8.16137 25.5813 8.56842 25.7031 8.99585C25.7381 9.19184 25.7711 9.38822 25.8014 9.585C25.8333 9.76161 25.8655 9.93815 25.8982 10.1146C25.9313 10.2937 25.9641 10.4729 25.9964 10.6521C26.0107 10.7288 26.0249 10.8055 26.0395 10.8846C26.0718 11.1178 26.0881 11.3311 26.0703 11.5662C26.0097 11.6267 25.9491 11.6873 25.8867 11.7498C25.4453 11.7221 25.1234 11.5678 24.7393 11.3575C24.6568 11.3128 24.6568 11.3128 24.5727 11.2672C24.3983 11.1725 24.2245 11.0768 24.0508 10.981C23.8769 10.886 23.7029 10.7913 23.5289 10.6967C23.3708 10.6105 23.2131 10.5239 23.0554 10.4372C22.9597 10.3857 22.8641 10.3341 22.7656 10.281C22.6719 10.2251 22.5782 10.1692 22.4816 10.1115C22.2263 9.98071 22.2263 9.98071 21.9941 10.0575C21.9155 10.101 21.8369 10.1444 21.7559 10.1892C21.6493 10.2438 21.5427 10.2985 21.433 10.3548C21.3101 10.4203 21.1873 10.4859 21.0645 10.5517C20.9301 10.6227 20.7956 10.6937 20.6611 10.7646C20.4505 10.8757 20.2401 10.9873 20.0302 11.1C19.8267 11.2092 19.6224 11.3166 19.4179 11.4238C19.3555 11.4578 19.293 11.4919 19.2287 11.5269C18.9501 11.6713 18.7704 11.7539 18.4539 11.7242C18.3924 11.7024 18.3309 11.6805 18.2676 11.658C18.2352 10.9144 18.3603 10.2244 18.4971 9.495C18.5795 9.05399 18.6579 8.61306 18.7266 8.16968C18.7388 8.09645 18.7509 8.02323 18.7635 7.94778C18.7891 7.67862 18.7608 7.48584 18.6084 7.26114C18.4426 7.07536 18.2683 6.90844 18.084 6.74109C18.0207 6.68085 17.9575 6.62061 17.8923 6.55855C17.5285 6.21438 17.1544 5.8827 16.7734 5.55777C16.4811 5.29534 16.1775 5.0182 15.9727 4.6814C16.0119 4.48693 16.0119 4.48693 16.0645 4.31421C16.6054 4.18648 17.1434 4.08591 17.6942 4.01228C17.7664 4.00236 17.8386 3.99243 17.9129 3.9822C18.1401 3.95103 18.3674 3.92033 18.5946 3.88965C18.7501 3.8684 18.9055 3.84713 19.0609 3.82582C19.439 3.77406 19.8171 3.72273 20.1953 3.67163C20.2192 3.59457 20.243 3.5175 20.2676 3.4381C20.3872 3.09711 20.5339 2.77548 20.6916 2.45102C20.7215 2.38907 20.7513 2.32712 20.7821 2.2633C20.8449 2.13331 20.9078 2.0034 20.971 1.87357C21.0676 1.67462 21.1634 1.4753 21.2592 1.27595C21.3205 1.14935 21.3818 1.02277 21.4432 0.89621C21.4718 0.836639 21.5004 0.777068 21.5298 0.715692C21.8323 0.096656 21.8323 0.096656 22.1804 0.0800781Z" fill="#383838"/>
<path d="M22.0312 23.959C21.7497 24.5509 21.3122 25.0298 20.8791 25.5154C20.7703 25.6411 20.6653 25.7703 20.565 25.9029C20.0245 26.6125 19.4158 27.0596 18.5225 27.1892C17.6832 27.2847 16.8377 27.3038 15.9939 27.3258C15.2011 27.3471 14.4107 27.3901 13.6193 27.4417C13.5258 27.4478 13.5258 27.4478 13.4304 27.454C13.1738 27.4707 12.9172 27.4876 12.6606 27.5045C12.0034 27.5479 11.3461 27.5884 10.6887 27.6286C10.3547 27.649 10.0207 27.6695 9.6867 27.69C9.5869 27.6962 9.5869 27.6962 9.48509 27.7024C8.93639 27.7361 8.3877 27.7701 7.83902 27.8041C7.30196 27.8374 6.76489 27.8705 6.22781 27.9035C5.91041 27.923 5.59302 27.9426 5.27563 27.9623C4.92557 27.984 4.57549 28.0054 4.22541 28.0268C4.12248 28.0333 4.01955 28.0397 3.9135 28.0463C3.43415 28.0754 2.95875 28.0974 2.47852 28.0899C2.70703 27.5337 3.20317 27.1115 3.615 26.6854C3.72084 26.5747 3.82534 26.4627 3.9284 26.3494C4.07904 26.184 4.23372 26.0234 4.38976 25.8631C4.43381 25.813 4.47786 25.7629 4.52324 25.7113C4.88297 25.3553 5.21599 25.2929 5.71327 25.2377C5.77798 25.2304 5.84269 25.223 5.90936 25.2155C6.61152 25.1378 7.31535 25.0785 8.01947 25.022C8.16306 25.0102 8.30663 24.9984 8.45021 24.9866C8.83516 24.9551 9.22014 24.9239 9.60513 24.8928C9.92796 24.8667 10.2508 24.8404 10.5736 24.8141C11.3351 24.752 12.0966 24.6902 12.8582 24.6287C13.6417 24.5653 14.4253 24.5015 15.2088 24.4375C15.8844 24.3823 16.56 24.3273 17.2357 24.2726C17.638 24.24 18.0403 24.2073 18.4426 24.1744C18.8203 24.1435 19.198 24.113 19.5757 24.0826C19.7138 24.0715 19.8519 24.0603 19.9899 24.0489C20.6714 23.9928 21.3469 23.945 22.0312 23.959Z" fill="#383838"/>
<path d="M26.0703 23.959C28.7836 24.2078 31.4958 24.4668 34.2071 24.736C34.6215 24.7771 35.036 24.8178 35.4506 24.8583C35.9617 24.9081 36.4727 24.9586 36.9838 25.0095C37.1757 25.0286 37.3677 25.0474 37.5596 25.0659C37.8247 25.0917 38.0897 25.1182 38.3547 25.1449C38.4324 25.1522 38.51 25.1596 38.59 25.1671C39.294 25.2396 39.7626 25.3847 40.2637 25.9043C40.3098 25.9507 40.3559 25.9971 40.4033 26.0449C40.4999 26.1423 40.596 26.2403 40.6917 26.3386C40.8388 26.4898 40.9871 26.6397 41.1358 26.7894C41.2295 26.8845 41.3233 26.9795 41.4169 27.0747C41.4613 27.1198 41.5058 27.165 41.5516 27.2115C41.8594 27.5282 41.8594 27.5282 41.8594 27.6309C40.4312 27.5608 39.0047 27.47 37.5779 27.3759C37.4598 27.3681 37.3417 27.3603 37.22 27.3523C36.7241 27.3196 36.2283 27.2868 35.7324 27.2538C35.0278 27.2069 34.3232 27.1605 33.6186 27.1147C33.0588 27.0783 32.499 27.0412 31.9393 27.0037C31.7025 26.988 31.4658 26.9725 31.2291 26.9573C30.8992 26.936 30.5693 26.9139 30.2395 26.8915C30.1424 26.8854 30.0453 26.8794 29.9452 26.8731C28.6511 26.7828 28.6511 26.7828 28.2484 26.3756C28.1988 26.3266 28.1492 26.2776 28.0981 26.2271C28.0472 26.1744 27.9963 26.1217 27.9439 26.0674C27.8627 25.986 27.8627 25.986 27.7799 25.9028C27.6666 25.7886 27.5537 25.6737 27.4414 25.5584C27.2688 25.3813 27.0946 25.2059 26.92 25.0308C26.8098 24.9194 26.6998 24.8079 26.5899 24.6962C26.5377 24.6435 26.4855 24.5908 26.4317 24.5366C26.0703 24.164 26.0703 24.164 26.0703 23.959Z" fill="#383838"/>
<path d="M8.62891 5.875C8.80082 5.90127 8.80082 5.90127 8.99609 5.9668C9.13702 6.20376 9.25509 6.42885 9.36902 6.67822C9.43113 6.80978 9.4934 6.94126 9.55584 7.07266C9.58283 7.13121 9.60981 7.18975 9.63762 7.25007C9.66826 7.31128 9.6989 7.37248 9.73047 7.43555C9.76902 7.51618 9.80756 7.59682 9.84728 7.6799C9.98875 7.91254 9.98875 7.91254 10.2394 7.98034C10.3302 7.99332 10.4211 8.0063 10.5147 8.01968C10.6132 8.03476 10.7117 8.04985 10.8132 8.0654C10.916 8.07906 11.0187 8.09273 11.1246 8.10681C11.2285 8.12225 11.3323 8.1377 11.4393 8.15361C11.6956 8.19147 11.9521 8.22742 12.209 8.26172C12.2686 8.47395 12.2686 8.47395 12.3008 8.7207C12.132 8.93341 11.9763 9.10139 11.7787 9.28296C11.7288 9.33112 11.6789 9.37928 11.6275 9.4289C11.4196 9.62757 11.2181 9.80914 10.9816 9.97359C10.794 10.0998 10.794 10.0998 10.7976 10.4189C10.8165 10.8159 10.8976 11.1989 10.9747 11.5879C11.0335 11.9526 11.0277 12.2993 11.0156 12.668C10.4608 12.6076 9.99097 12.2937 9.50958 12.0311C9.11078 11.8169 9.11078 11.8169 8.67229 11.7446C8.24841 11.9261 7.85078 12.1529 7.44935 12.3788C7.3822 12.4156 7.31505 12.4525 7.24586 12.4905C7.18532 12.5245 7.12479 12.5585 7.06242 12.5936C6.88477 12.668 6.88477 12.668 6.51758 12.668C6.50177 12.2615 6.51305 11.9083 6.61009 11.5126C6.83413 10.6849 6.83413 10.6849 6.62946 9.89147C6.39123 9.65576 6.14934 9.46344 5.875 9.27148C5.74772 9.16178 5.62131 9.05104 5.49634 8.93872C5.40925 8.86677 5.32215 8.79483 5.23242 8.7207C5.26271 8.56924 5.29301 8.41777 5.32422 8.26172C5.62056 8.21526 5.91702 8.16957 6.2135 8.12402C6.29722 8.11089 6.38094 8.09775 6.4672 8.08422C6.54855 8.0718 6.6299 8.05937 6.71372 8.04657C6.78823 8.03503 6.86275 8.0235 6.93952 8.01161C7.16799 7.98543 7.38938 7.98204 7.61914 7.98633C7.64068 7.91225 7.66221 7.83818 7.6844 7.76186C7.83027 7.35961 8.02364 6.99633 8.22729 6.62085C8.26587 6.5489 8.30445 6.47696 8.34419 6.40283C8.43871 6.22668 8.53376 6.05081 8.62891 5.875Z" fill="#383838"/>
<path d="M35.3418 5.875C35.463 5.875 35.5841 5.875 35.709 5.875C35.7276 5.93425 35.7461 5.99351 35.7653 6.05456C35.9875 6.71484 36.2285 7.38588 36.7188 7.89453C37.4248 8.23505 38.2407 8.25513 39.0137 8.26172C39.0807 8.42496 39.0807 8.42496 39.1055 8.62891C38.9697 8.79054 38.9697 8.79054 38.7666 8.9545C37.9837 9.56696 37.9837 9.56696 37.4871 10.3911C37.4677 10.835 37.5999 11.2376 37.7285 11.6582C37.7525 11.8412 37.7724 12.0249 37.7859 12.209C37.7928 12.2809 37.7996 12.3529 37.8067 12.427C37.8112 12.4762 37.8157 12.5255 37.8203 12.5762C37.5938 12.6591 37.4884 12.6817 37.2601 12.5927C37.1924 12.5531 37.1248 12.5136 37.0551 12.4729C36.9426 12.4097 36.9426 12.4097 36.8278 12.3452C36.6715 12.2547 36.5154 12.1639 36.3595 12.0727C35.919 11.8227 35.919 11.8227 35.4279 11.7407C34.9784 11.9092 34.5726 12.1473 34.1578 12.3868C34.091 12.424 34.0243 12.4612 33.9555 12.4994C33.8956 12.5339 33.8356 12.5685 33.7739 12.604C33.5574 12.6826 33.4444 12.6511 33.2305 12.5762C33.2427 12.4808 33.2548 12.3854 33.2674 12.2872C33.2838 12.1578 33.3002 12.0285 33.3165 11.8992C33.3245 11.8368 33.3325 11.7744 33.3407 11.7102C33.3572 11.5795 33.3723 11.4487 33.3862 11.3177C33.4141 11.1074 33.4141 11.1074 33.4681 10.8817C33.5413 10.5185 33.5752 10.2945 33.3653 9.97641C33.1615 9.76212 32.9497 9.56767 32.7256 9.37476C32.5764 9.24217 32.4282 9.10859 32.2809 8.97386C32.2145 8.91625 32.1481 8.85864 32.0796 8.79928C32.0131 8.71494 32.0131 8.71494 31.9453 8.62891C31.9702 8.42375 31.9702 8.42375 32.0371 8.26172C32.1335 8.2609 32.1335 8.2609 32.2318 8.26006C33.4873 8.25292 33.4873 8.25292 34.5398 7.67893C34.9049 7.12201 35.1433 6.5085 35.3418 5.875Z" fill="#383838"/>
<path d="M30.3841 12.4846C30.632 12.6498 30.8011 12.7676 30.9349 13.0353C30.9213 13.5709 30.8006 14.0837 30.6517 14.5954C30.6228 14.6977 30.6228 14.6977 30.5933 14.802C30.5302 15.0245 30.4662 15.2468 30.4021 15.469C30.3575 15.625 30.3131 15.781 30.2686 15.937C30.1757 16.2626 30.0823 16.5881 29.9885 16.9135C29.8686 17.3297 29.7498 17.7461 29.6314 18.1626C29.5398 18.4843 29.4477 18.8058 29.3554 19.1273C29.3114 19.2808 29.2676 19.4343 29.2239 19.5879C29.1627 19.8026 29.1009 20.0171 29.0388 20.2316C29.0122 20.3258 29.0122 20.3258 28.985 20.422C28.7067 21.375 28.7067 21.375 28.2728 21.6642C27.9117 21.7044 27.691 21.6927 27.3606 21.538C27.0703 21.1686 27.1239 20.8351 27.1713 20.3791C27.2697 19.9175 27.4019 19.4676 27.5366 19.0158C27.5748 18.8848 27.6128 18.7538 27.6507 18.6227C27.7504 18.2792 27.8515 17.9361 27.953 17.5931C28.0345 17.3168 28.115 17.0401 28.1955 16.7634C28.4147 16.0092 28.635 15.2553 28.8615 14.5032C28.919 14.3084 28.9735 14.113 29.0279 13.9173C29.0662 13.7846 29.1045 13.652 29.1428 13.5193C29.1592 13.4579 29.1756 13.3964 29.1925 13.3331C29.374 12.7186 29.7267 12.375 30.3841 12.4846Z" fill="#383838"/>
<path d="M14.5905 12.6895C14.8954 12.8021 15.0626 13.0479 15.2389 13.3102C15.3365 13.5565 15.4151 13.7845 15.4848 14.0381C15.5054 14.1089 15.5261 14.1797 15.5474 14.2527C15.6148 14.4851 15.6802 14.718 15.7455 14.951C15.7921 15.1136 15.8388 15.2761 15.8856 15.4387C15.9831 15.7785 16.0797 16.1187 16.1755 16.459C16.2983 16.8947 16.4229 17.3298 16.5481 17.7647C16.6445 18.1 16.7402 18.4355 16.8356 18.7711C16.8813 18.9316 16.9272 19.0921 16.9732 19.2525C17.0374 19.4768 17.1007 19.7013 17.1637 19.926C17.1922 20.0247 17.1922 20.0247 17.2213 20.1255C17.3233 20.4938 17.385 20.8226 17.3502 21.2047C17.185 21.4525 17.0671 21.6216 16.7994 21.7555C16.4873 21.7901 16.302 21.7838 16.0225 21.6356C15.6682 21.2593 15.5802 20.8302 15.4425 20.3394C15.4116 20.2341 15.3807 20.1288 15.3489 20.0203C15.2832 19.7957 15.2182 19.5709 15.1539 19.346C15.0572 19.0083 14.9583 18.6713 14.8588 18.3345C14.6944 17.7771 14.5327 17.219 14.3723 16.6605C14.3065 16.4318 14.2403 16.2031 14.1737 15.9746C14.0756 15.6381 13.9787 15.3012 13.882 14.9643C13.8522 14.8627 13.8223 14.761 13.7916 14.6563C13.6521 14.1654 13.5297 13.7295 13.5865 13.2184C13.8696 12.8025 14.1123 12.7078 14.5905 12.6895Z" fill="#383838"/>
<path d="M35.4451 14.6934C35.8008 14.7794 35.8008 14.7794 35.9787 14.8827C36.1357 15.1597 36.1524 15.3782 36.168 15.6974C36.0824 16.0037 35.951 16.2846 35.8166 16.5723C35.7394 16.7444 35.6623 16.9165 35.5851 17.0887C35.5449 17.1771 35.5046 17.2656 35.4631 17.3567C35.3064 17.7035 35.1563 18.053 35.0065 18.4028C34.859 18.7465 34.7093 19.0891 34.5596 19.4318C34.4833 19.6067 34.4075 19.7819 34.3321 19.9572C34.2208 20.2159 34.108 20.4739 33.995 20.7319C33.9618 20.8098 33.9286 20.8877 33.8944 20.968C33.6987 21.4101 33.5121 21.7203 33.1387 22.0314C32.8609 22.1147 32.7027 22.074 32.4043 22.0314C32.1137 21.8451 32.0517 21.7166 31.9596 21.3853C31.9403 20.891 32.1022 20.5616 32.309 20.1198C32.3673 19.9901 32.3673 19.9901 32.4269 19.8579C32.5518 19.5815 32.6788 19.3061 32.806 19.0308C32.888 18.8503 32.9699 18.6697 33.0516 18.4891C33.2136 18.1314 33.377 17.7744 33.5413 17.4177C33.7022 17.0671 33.8583 16.715 34.0105 16.3605C34.047 16.2765 34.0835 16.1925 34.1211 16.1059C34.1894 15.948 34.2568 15.7898 34.323 15.631C34.5399 15.1332 34.8146 14.5858 35.4451 14.6934Z" fill="#383838"/>
<path d="M9.36349 14.8709C9.79398 15.2213 9.98443 15.6138 10.1997 16.1101C10.2335 16.1858 10.2674 16.2616 10.3023 16.3396C10.4111 16.5839 10.5185 16.8289 10.6257 17.074C10.6998 17.2416 10.7739 17.4092 10.8482 17.5767C10.993 17.9043 11.1373 18.2322 11.2809 18.5603C11.4406 18.9247 11.6029 19.2878 11.7667 19.6504C11.8416 19.8185 11.9165 19.9867 11.9912 20.1549C12.0242 20.2272 12.0571 20.2994 12.0911 20.3738C12.2711 20.787 12.3499 21.1126 12.301 21.572C12.1182 21.8406 11.9844 21.9931 11.6642 22.0784C11.3147 22.1075 11.3147 22.1075 11.1076 22.031C10.6983 21.6036 10.4763 21.1552 10.2449 20.6146C10.2083 20.5313 10.1718 20.4479 10.1342 20.3621C10.0179 20.0964 9.90297 19.8302 9.78805 19.564C9.71164 19.3887 9.63514 19.2135 9.55856 19.0383C9.40948 18.697 9.26116 18.3554 9.11338 18.0135C8.98049 17.7065 8.84575 17.4006 8.70854 17.0955C8.6786 17.0285 8.64866 16.9616 8.61781 16.8926C8.56286 16.77 8.50746 16.6476 8.45148 16.5254C8.24492 16.0627 8.16212 15.7371 8.26193 15.2381C8.57636 14.8474 8.87719 14.7927 9.36349 14.8709Z" fill="#383838"/>
<path d="M22.1578 14.2861C22.2286 14.2816 22.2993 14.2771 22.3723 14.2725C22.6884 14.3448 22.7739 14.5138 22.9496 14.7795C22.9968 15.0512 22.9968 15.0512 22.9985 15.3552C23 15.4695 23.0014 15.5837 23.0029 15.7015C23.0026 15.8254 23.0021 15.9493 23.0016 16.0733C23.002 16.2012 23.0026 16.3291 23.0033 16.457C23.0042 16.7246 23.0038 16.9921 23.0025 17.2598C23.0009 17.6021 23.0031 17.9443 23.0063 18.2867C23.0083 18.5507 23.0082 18.8146 23.0074 19.0786C23.0073 19.2048 23.008 19.331 23.0093 19.4572C23.0194 20.5659 23.0194 20.5659 22.7366 20.8698C22.4103 21.0712 22.2251 21.0823 21.848 21.0217C21.5369 20.8255 21.4142 20.73 21.2972 20.3791C21.2877 20.2061 21.2836 20.0327 21.2824 19.8594C21.2816 19.7528 21.2807 19.6461 21.2798 19.5363C21.2794 19.421 21.279 19.3056 21.2786 19.1868C21.2778 19.009 21.2778 19.009 21.277 18.8277C21.276 18.5767 21.2755 18.3256 21.2752 18.0746C21.2747 17.7539 21.2725 17.4332 21.2699 17.1125C21.2677 16.8057 21.2676 16.4988 21.2671 16.1919C21.266 16.0772 21.2648 15.9624 21.2637 15.8442C21.2663 14.8373 21.2663 14.8373 21.5726 14.4123C21.7826 14.3073 21.9241 14.2962 22.1578 14.2861Z" fill="#383838"/>
</svg>
