<svg width="36" height="36" viewBox="0 0 36 36" fill="none" xmlns="http://www.w3.org/2000/svg">
<g clip-path="url(#clip0_673_2519)">
<path d="M13.4731 1.19536C13.6305 1.19147 13.6305 1.19147 13.7912 1.1875C14.289 1.19326 14.6003 1.25128 15.0304 1.50737C15.7112 2.24231 15.652 3.03525 15.6511 3.98534C15.6517 4.12592 15.6523 4.26651 15.6529 4.41135C15.6537 4.70815 15.6538 5.00495 15.6532 5.30174C15.6528 5.75481 15.6561 6.20774 15.6596 6.66079C15.6599 6.94963 15.66 7.23848 15.6599 7.52733C15.6612 7.66227 15.6625 7.7972 15.6638 7.93623C15.6579 8.80084 15.5721 9.46106 14.9293 10.0998C14.5548 10.3036 14.2478 10.3434 13.8246 10.3887C12.6638 10.5667 11.8717 10.9231 11.144 11.8653C9.80818 13.9679 9.65016 16.5665 9.42131 18.9844C9.56247 18.983 9.70362 18.9815 9.84906 18.98C10.3745 18.9749 10.9 18.9716 11.4255 18.969C11.6526 18.9676 11.8797 18.9656 12.1067 18.9632C12.4338 18.9598 12.7609 18.9582 13.088 18.957C13.189 18.9555 13.2899 18.9541 13.3939 18.9526C14.1389 18.9524 14.6467 19.0499 15.2221 19.5293C15.7271 20.1425 15.6305 20.8807 15.6315 21.6417C15.6325 21.8311 15.6325 21.8311 15.6336 22.0244C15.6356 22.4418 15.6366 22.8593 15.6374 23.2768C15.6382 23.5672 15.639 23.8576 15.6398 24.148C15.6413 24.7567 15.6421 25.3655 15.6426 25.9743C15.6434 26.7539 15.6467 27.5335 15.6507 28.3131C15.6534 28.9129 15.6541 29.5128 15.6543 30.1126C15.6547 30.4 15.6559 30.6874 15.6577 30.9748C15.6601 31.377 15.6598 31.7792 15.6589 32.1814C15.6602 32.2998 15.6615 32.4182 15.6629 32.5401C15.657 33.3613 15.5154 33.9334 14.9617 34.5725C14.4242 34.8306 13.8953 34.7954 13.3067 34.7935C13.1733 34.7947 13.0399 34.7959 12.9025 34.7971C12.4615 34.8004 12.0206 34.8005 11.5796 34.8003C11.2731 34.8013 10.9666 34.8024 10.6601 34.8036C10.0176 34.8055 9.37514 34.8057 8.73264 34.8049C7.90916 34.804 7.0858 34.8083 6.26235 34.814C5.62935 34.8177 4.99638 34.8181 4.36338 34.8176C4.05977 34.8178 3.75616 34.8192 3.45257 34.8217C3.02802 34.8248 2.60371 34.8234 2.17916 34.8209C2.0537 34.8228 1.92825 34.8247 1.799 34.8266C1.16588 34.818 0.924011 34.8004 0.416915 34.3862C0.325553 34.2691 0.234191 34.152 0.140061 34.0313C0.093655 33.9849 0.0472488 33.9385 -0.000563722 33.8907C-0.0146269 33.6844 -0.0189508 33.4774 -0.0193671 33.2706C-0.0199668 33.1366 -0.0205666 33.0026 -0.0211845 32.8645C-0.0211208 32.7162 -0.0210571 32.568 -0.0209914 32.4152C-0.0214637 32.2599 -0.021936 32.1046 -0.0224227 31.9446C-0.0237664 31.4273 -0.0240337 30.91 -0.0241843 30.3926C-0.0246361 30.0328 -0.0251092 29.673 -0.0256027 29.3132C-0.0264471 28.5561 -0.026711 27.799 -0.0266219 27.0419C-0.0265381 26.1725 -0.0280087 25.303 -0.0302418 24.4336C-0.0323213 23.5935 -0.0328069 22.7534 -0.0327234 21.9132C-0.0328882 21.558 -0.0335043 21.2028 -0.0345988 20.8476C-0.0399228 18.9389 -0.0123528 17.0765 0.280686 15.1875C0.312071 14.9819 0.312071 14.9819 0.344089 14.772C1.02684 10.4891 2.77254 6.31874 6.29563 3.60487C6.8484 3.209 7.42237 2.8639 8.01506 2.5313C8.14014 2.46078 8.26522 2.39027 8.39409 2.31762C9.95318 1.52854 11.7386 1.22048 13.4731 1.19536Z" fill="#058ACB"/>
<path d="M33.9698 1.1957C34.077 1.19138 34.1842 1.18707 34.2946 1.18262C34.8747 1.18242 35.1218 1.23725 35.5733 1.61318C35.6677 1.73064 35.7622 1.84811 35.8595 1.96914C35.9291 2.03875 35.9291 2.03875 36.0001 2.10976C36.0169 2.33467 36.024 2.56032 36.0272 2.78583C36.0295 2.92995 36.0318 3.07408 36.0341 3.22256C36.0403 3.8837 36.0461 4.54482 36.0493 5.20598C36.0517 5.5549 36.0555 5.90382 36.0609 6.25271C36.0686 6.75482 36.0717 7.25677 36.0737 7.75893C36.0769 7.91481 36.0801 8.07069 36.0834 8.2313C36.0801 9.43765 36.0801 9.43765 35.6527 9.86899C35.5353 9.9536 35.4179 10.0382 35.297 10.1254C35.2506 10.1718 35.2042 10.2182 35.1564 10.266C34.899 10.3044 34.6411 10.3389 34.3829 10.3715C33.4149 10.5313 32.6224 10.7759 31.9577 11.5283C30.4156 13.705 30.2436 16.4187 29.9532 18.9848C30.0937 18.9826 30.2341 18.9803 30.3788 18.9781C30.9024 18.9704 31.426 18.9656 31.9497 18.9616C32.1758 18.9595 32.4019 18.9566 32.6281 18.9529C32.9541 18.9478 33.2801 18.9454 33.6062 18.9436C33.7064 18.9414 33.8067 18.9392 33.9099 18.937C34.6803 18.9367 35.2375 19.0918 35.8091 19.6199C36.1061 20.163 36.0611 20.6904 36.0592 21.2998C36.0604 21.4346 36.0615 21.5693 36.0628 21.7081C36.0661 22.1537 36.0662 22.5992 36.066 23.0448C36.067 23.3544 36.0681 23.664 36.0693 23.9737C36.0712 24.6228 36.0714 25.2719 36.0706 25.921C36.0697 26.753 36.074 27.5849 36.0797 28.4168C36.0834 29.0564 36.0838 29.6958 36.0833 30.3354C36.0835 30.6421 36.0849 30.9489 36.0874 31.2556C36.0905 31.6845 36.0891 32.1132 36.0866 32.5421C36.0885 32.6689 36.0904 32.7957 36.0923 32.9263C36.0837 33.5625 36.0674 33.8085 35.6519 34.3181C35.5348 34.4092 35.4177 34.5003 35.297 34.5941C35.2506 34.6405 35.2042 34.6869 35.1564 34.7348C34.7321 34.7512 34.3109 34.7584 33.8865 34.7597C33.7532 34.7606 33.6199 34.7615 33.4825 34.7625C33.0392 34.7652 32.596 34.7669 32.1527 34.7683C32.0017 34.7688 31.8506 34.7694 31.695 34.77C30.8955 34.7729 30.0959 34.775 29.2964 34.7763C28.4696 34.7778 27.6429 34.7827 26.8161 34.7882C26.1813 34.7919 25.5465 34.7931 24.9117 34.7936C24.6069 34.7943 24.3022 34.7959 23.9974 34.7985C23.5708 34.8019 23.1444 34.8018 22.7178 34.8008C22.5286 34.8036 22.5286 34.8036 22.3356 34.8063C21.7733 34.8016 21.4522 34.7793 20.9572 34.4933C20.3211 33.7772 20.3501 33.0828 20.3543 32.1693C20.3539 32.0393 20.3534 31.9093 20.3529 31.7754C20.3516 31.3448 20.3524 30.9142 20.3534 30.4836C20.3532 30.1812 20.3529 29.8789 20.3526 29.5765C20.3522 28.9406 20.3528 28.3047 20.3541 27.6689C20.3557 26.8647 20.3547 26.0605 20.3531 25.2563C20.3269 10.1009 20.3269 10.1009 25.077 5.29799C25.2011 5.174 25.3253 5.05001 25.4532 4.92226C25.5557 4.80987 25.6581 4.69748 25.7636 4.58168C27.1177 3.12459 28.7561 2.23112 30.6564 1.68789C30.8123 1.64311 30.9682 1.59834 31.1288 1.5522C32.0734 1.31604 32.9995 1.21816 33.9698 1.1957Z" fill="#058ACB"/>
</g>
<defs>
<clipPath id="clip0_673_2519">
<rect width="36" height="36" fill="white"/>
</clipPath>
</defs>
</svg>
