<svg width="31" height="31" viewBox="0 0 31 31" fill="none" xmlns="http://www.w3.org/2000/svg">
<path d="M5.41926 12.0895C5.48037 12.0889 5.54148 12.0883 5.60444 12.0877C5.80475 12.086 6.00504 12.0851 6.20535 12.0844C6.34517 12.0838 6.48499 12.0831 6.62481 12.0824C6.91698 12.0811 7.20915 12.0804 7.50133 12.08C7.87604 12.0793 8.2507 12.0764 8.6254 12.0729C8.91372 12.0707 9.20204 12.07 9.49037 12.0699C9.62858 12.0695 9.76678 12.0685 9.90498 12.0669C10.0978 12.0649 10.2904 12.0651 10.4832 12.0659C10.5689 12.0642 10.5689 12.0642 10.6564 12.0625C10.8065 12.0644 10.9354 12.0691 11.0801 12.109C11.2321 12.2866 11.2321 12.2866 11.3223 12.4723C11.6681 12.8424 12.006 13.0085 12.5085 13.0387C13.0235 13.0757 13.0235 13.0757 13.2063 13.2855C13.3087 13.5035 13.3914 13.6907 13.3688 13.9347C13.3086 14.0736 13.2338 14.1406 13.1198 14.2395C12.7814 14.5654 12.6237 14.9569 12.5921 15.424C12.6018 16.2197 13.1343 16.7389 13.6673 17.2695C13.7592 17.3614 13.8497 17.4544 13.9402 17.5476C14.3946 18.0077 14.8589 18.3773 15.5293 18.4142C16.0565 18.3855 16.4823 18.1682 16.8358 17.7815C17.0137 17.6188 17.0137 17.6188 17.1537 17.6112C17.2342 17.645 17.2342 17.645 17.3164 17.6794C17.3612 17.6877 17.406 17.6961 17.4522 17.7047C17.6314 17.7519 17.7273 17.7916 17.8613 17.9215C17.9224 18.1664 17.9418 18.4012 17.9597 18.6521C18.0018 19.0933 18.187 19.3912 18.5274 19.6774C19.1201 20.1335 19.7721 20.1208 20.4951 20.1164C20.5711 20.1168 20.647 20.1173 20.7253 20.1178C21.462 20.1162 22.131 20.0601 22.6829 19.5201C23.0424 19.0648 23.098 18.4817 23.1289 17.9215C23.2488 17.8816 23.3687 17.8416 23.4922 17.8005C23.4922 19.9184 23.4922 22.0363 23.4922 24.2184C16.8986 24.2184 10.3051 24.2184 3.51173 24.2184C3.50798 22.3877 3.50423 20.557 3.50037 18.6708C3.49872 18.0925 3.49707 17.5142 3.49536 16.9184C3.49454 16.2128 3.49454 16.2128 3.49439 15.8827C3.49422 15.6518 3.49354 15.4209 3.49255 15.1901C3.49131 14.8956 3.49093 14.6012 3.49119 14.3067C3.49114 14.1986 3.49077 14.0905 3.49007 13.9824C3.48917 13.8364 3.48939 13.6904 3.48988 13.5444C3.48936 13.5021 3.48883 13.4599 3.48828 13.4163C3.49161 13.0524 3.59873 12.8189 3.84095 12.5518C3.89215 12.5056 3.94335 12.4594 3.9961 12.4118C4.03107 12.3781 4.06603 12.3443 4.10206 12.3096C4.49454 12.0807 4.97761 12.0906 5.41926 12.0895Z" fill="#383838"/>
<path d="M19.8803 2.13955C19.9291 2.13926 19.9779 2.13897 20.0282 2.13867C20.1312 2.13847 20.2342 2.13903 20.3372 2.14029C20.4947 2.14191 20.652 2.14031 20.8095 2.13837C20.9097 2.13857 21.0099 2.13896 21.1101 2.13955C21.1571 2.13894 21.2041 2.13833 21.2525 2.1377C21.4798 2.14262 21.593 2.16012 21.7659 2.31219C21.8671 2.50031 21.8883 2.61341 21.8901 2.82567C21.8915 2.88971 21.8929 2.95375 21.8944 3.01973C21.8949 3.11907 21.8949 3.11907 21.8953 3.22041C21.8969 3.35247 21.8989 3.48452 21.9015 3.61657C21.9018 3.67488 21.9022 3.7332 21.9026 3.79328C21.9043 3.94712 21.9043 3.94712 22.0391 4.05671C22.2052 4.11425 22.3708 4.16784 22.5386 4.21943C22.9881 4.36143 23.3896 4.53889 23.8 4.76979C24.0043 4.85541 24.0716 4.84753 24.2794 4.78328C24.3952 4.69567 24.3952 4.69567 24.4948 4.58082C24.5332 4.54031 24.5716 4.49981 24.6111 4.45807C24.69 4.37226 24.7689 4.28633 24.8476 4.20027C25.0203 4.01829 25.1406 3.89225 25.3789 3.80506C25.8165 3.82914 26.1249 4.2428 26.4163 4.53315C26.5043 4.62043 26.5934 4.70651 26.6826 4.79262C26.7384 4.84799 26.7942 4.90337 26.8517 4.96042C26.9027 5.01063 26.9537 5.06084 27.0063 5.11257C27.1434 5.29155 27.1735 5.40754 27.1856 5.63093C27.0489 5.96063 26.75 6.19057 26.4931 6.42916C26.347 6.56962 26.2339 6.68379 26.1488 6.86907C26.16 7.09852 26.2657 7.27042 26.3758 7.46626C26.5827 7.85278 26.7322 8.23293 26.8497 8.65504C26.9148 8.8914 26.9148 8.8914 27.0645 9.0821C27.2123 9.1006 27.2123 9.1006 27.3836 9.09866C27.4474 9.09991 27.5112 9.10116 27.5769 9.10244C27.7114 9.10401 27.8459 9.10512 27.9804 9.10575C28.0445 9.10716 28.1085 9.10856 28.1745 9.11001C28.233 9.11051 28.2915 9.11101 28.3518 9.11152C28.5753 9.15348 28.6699 9.21363 28.8204 9.38484C28.8512 9.56497 28.8629 9.71002 28.8606 9.89003C28.8609 9.93883 28.8612 9.98764 28.8615 10.0379C28.8617 10.1409 28.8611 10.2439 28.8599 10.3469C28.8582 10.5045 28.8598 10.6617 28.8618 10.8193C28.8616 10.9195 28.8612 11.0197 28.8606 11.1199C28.8612 11.1669 28.8618 11.2139 28.8624 11.2623C28.8575 11.4893 28.8401 11.6026 28.6882 11.7754C28.4998 11.8769 28.383 11.8996 28.1702 11.9042C28.1056 11.9061 28.041 11.9081 27.9745 11.9101C27.9077 11.9109 27.841 11.9118 27.7722 11.9127C27.7042 11.9145 27.6363 11.9163 27.5663 11.9181C27.399 11.9224 27.2318 11.9256 27.0645 11.9278C26.9156 12.2076 26.8117 12.4874 26.7126 12.7868C26.5841 13.1674 26.4336 13.5065 26.2171 13.8473C26.1391 14.0258 26.1615 14.1043 26.2169 14.2891C26.3045 14.405 26.3045 14.405 26.4193 14.5046C26.4598 14.543 26.5003 14.5813 26.5421 14.6208C26.6279 14.6998 26.7138 14.7786 26.7999 14.8574C26.9819 15.03 27.1079 15.1504 27.1951 15.3887C27.171 15.8263 26.7573 16.1346 26.467 16.4261C26.3797 16.5141 26.2936 16.6032 26.2075 16.6923C26.1522 16.7481 26.0968 16.8039 26.0397 16.8614C25.9895 16.9125 25.9393 16.9635 25.8876 17.0161C25.7086 17.1531 25.5926 17.1833 25.3692 17.1954C25.0395 17.0587 24.8096 16.7597 24.571 16.5029C24.4304 16.3567 24.3165 16.2436 24.1308 16.1588C23.903 16.1696 23.7324 16.2728 23.5377 16.3818C23.0964 16.617 22.6494 16.7879 22.1756 16.9454C21.9897 16.9938 21.9897 16.9938 21.918 17.0743C21.9114 17.1785 21.9086 17.283 21.9074 17.3874C21.906 17.4514 21.9045 17.5154 21.903 17.5814C21.9004 17.7166 21.8985 17.8519 21.8973 17.9872C21.8948 18.0837 21.8948 18.0837 21.8923 18.1821C21.8914 18.241 21.8905 18.2999 21.8896 18.3606C21.8466 18.5842 21.7868 18.6794 21.6153 18.8302C21.4352 18.8609 21.2901 18.8727 21.1101 18.8704C21.0613 18.8706 21.0125 18.8709 20.9622 18.8712C20.8592 18.8714 20.7562 18.8709 20.6532 18.8696C20.4957 18.868 20.3384 18.8696 20.1809 18.8715C20.0807 18.8713 19.9805 18.871 19.8803 18.8704C19.8333 18.871 19.7863 18.8716 19.7379 18.8722C19.5108 18.8673 19.3975 18.8499 19.2247 18.698C19.1233 18.5095 19.1005 18.3928 19.096 18.18C19.094 18.1154 19.0921 18.0508 19.0901 17.9843C19.0892 17.9175 19.0884 17.8507 19.0875 17.7819C19.0857 17.714 19.0839 17.6461 19.082 17.5761C19.0778 17.4088 19.0746 17.2416 19.0723 17.0743C18.7926 16.9254 18.5128 16.8214 18.2133 16.7224C17.8327 16.5939 17.4936 16.4434 17.1528 16.2269C16.9743 16.1489 16.8959 16.1713 16.711 16.2266C16.5952 16.3142 16.5952 16.3142 16.4955 16.4291C16.4572 16.4696 16.4188 16.5101 16.3793 16.5518C16.3003 16.6377 16.2215 16.7236 16.1428 16.8096C15.9701 16.9916 15.8498 17.1177 15.6115 17.2048C15.1738 17.1808 14.8655 16.7671 14.574 16.4768C14.486 16.3895 14.397 16.3034 14.3078 16.2173C14.252 16.1619 14.1962 16.1065 14.1387 16.0495C14.0877 15.9993 14.0367 15.9491 13.9841 15.8973C13.847 15.7184 13.8169 15.6024 13.8048 15.379C13.9414 15.0493 14.2404 14.8193 14.4973 14.5808C14.6435 14.4402 14.7566 14.3262 14.8414 14.1406C14.8306 13.9127 14.7273 13.7422 14.6184 13.5474C14.3832 13.1061 14.2123 12.6592 14.0548 12.1854C14.0063 11.9994 14.0063 11.9994 13.9259 11.9278C13.8216 11.9212 13.7171 11.9184 13.6127 11.9172C13.5487 11.9157 13.4847 11.9143 13.4188 11.9128C13.2835 11.9102 13.1482 11.9083 13.0129 11.9071C12.9165 11.9046 12.9165 11.9046 12.818 11.902C12.7591 11.9011 12.7002 11.9003 12.6395 11.8994C12.4159 11.8563 12.3207 11.7965 12.17 11.6251C12.1392 11.4449 12.1274 11.2999 12.1298 11.1199C12.1295 11.0711 12.1292 11.0223 12.1289 10.972C12.1287 10.869 12.1293 10.766 12.1305 10.663C12.1321 10.5054 12.1305 10.3482 12.1286 10.1906C12.1288 10.0904 12.1292 9.99023 12.1298 9.89003C12.1292 9.84303 12.1286 9.79604 12.1279 9.74762C12.1328 9.52058 12.1503 9.40727 12.3022 9.23448C12.4906 9.13303 12.6074 9.11031 12.8202 9.10575C12.917 9.10283 12.917 9.10283 13.0159 9.09984C13.0826 9.09898 13.1494 9.09812 13.2182 9.09724C13.2862 9.09545 13.3541 9.09365 13.4241 9.0918C13.5914 9.08753 13.7586 9.08433 13.9259 9.0821C14.0747 8.80235 14.1787 8.52253 14.2778 8.22309C14.4063 7.84251 14.5568 7.50337 14.7733 7.16258C14.8513 6.98411 14.8288 6.90564 14.7735 6.72078C14.6859 6.60493 14.6859 6.60493 14.5711 6.50531C14.5305 6.46695 14.49 6.42859 14.4483 6.38907C14.3625 6.3101 14.2766 6.23127 14.1905 6.15256C14.0085 5.97987 13.8825 5.85952 13.7953 5.62123C13.8194 5.18361 14.233 4.87529 14.5234 4.58381C14.6107 4.49581 14.6967 4.40674 14.7829 4.31758C14.8382 4.26178 14.8936 4.20597 14.9507 4.14848C15.0009 4.09745 15.0511 4.04643 15.1028 3.99386C15.2818 3.85677 15.3978 3.82664 15.6212 3.81453C15.9509 3.9512 16.1808 4.25018 16.4194 4.50703C16.56 4.65324 16.6739 4.76632 16.8595 4.85115C17.0874 4.84032 17.258 4.73711 17.4527 4.62812C17.894 4.39294 18.341 4.22202 18.8148 4.06452C19.0007 4.01606 19.0007 4.01606 19.0723 3.93562C19.0789 3.83139 19.0818 3.72691 19.083 3.62248C19.0844 3.55848 19.0859 3.49448 19.0874 3.42854C19.0899 3.29327 19.0918 3.15798 19.093 3.02269C19.0947 2.95837 19.0964 2.89406 19.0981 2.8278C19.099 2.76889 19.0999 2.70999 19.1008 2.64929C19.1889 2.19158 19.4609 2.13408 19.8803 2.13955ZM17.9068 7.91658C17.1163 8.7572 16.8603 9.7 16.8759 10.8186C16.89 11.2178 16.9743 11.562 17.1348 11.9278C17.1591 11.9839 17.1834 12.04 17.2084 12.0979C17.6523 13.0049 18.4352 13.6411 19.3751 13.9864C20.2319 14.2714 21.1699 14.2097 21.988 13.8336C23.0237 13.2959 23.6535 12.5501 24.0372 11.4434C24.2845 10.5456 24.0985 9.55015 23.6928 8.73774C23.1832 7.8612 22.3494 7.22223 21.3731 6.94783C21.2927 6.93094 21.212 6.91589 21.1309 6.90242C21.0828 6.8943 21.0346 6.88618 20.985 6.87782C19.8472 6.73035 18.7375 7.13544 17.9068 7.91658Z" fill="#383838"/>
<path d="M4.20556 25.4662C4.28891 25.4659 4.37226 25.4656 4.4556 25.4651C4.68405 25.4641 4.91249 25.4643 5.14093 25.4646C5.38755 25.4648 5.63416 25.4639 5.88077 25.4631C6.36369 25.4619 6.84662 25.4616 7.32955 25.4617C7.72215 25.4618 8.11476 25.4615 8.50736 25.4611C8.62049 25.461 8.73362 25.4608 8.84675 25.4607C8.90306 25.4607 8.95937 25.4606 9.01738 25.4605C10.0822 25.4594 11.147 25.4594 12.2118 25.4599C13.1854 25.4602 14.1591 25.4589 15.1328 25.4569C16.133 25.4549 17.1331 25.454 18.1333 25.4542C18.6947 25.4544 19.256 25.4541 19.8174 25.4526C20.2953 25.4513 20.7732 25.4511 21.2512 25.4522C21.4949 25.4528 21.7386 25.4528 21.9824 25.4516C22.2058 25.4505 22.4291 25.4507 22.6525 25.4521C22.7711 25.4525 22.8896 25.4514 23.0081 25.4502C23.534 25.4555 23.9537 25.5479 24.3486 25.9124C24.782 26.3705 24.8639 26.7605 24.8491 27.3834C24.7936 27.8928 24.5573 28.2231 24.1741 28.5494C23.7198 28.8457 23.3322 28.8463 22.799 28.8441C22.7156 28.8444 22.6323 28.8447 22.5489 28.8452C22.3205 28.8462 22.092 28.846 21.8636 28.8457C21.617 28.8456 21.3704 28.8464 21.1238 28.8472C20.6408 28.8485 20.1579 28.8487 19.675 28.8486C19.2824 28.8485 18.8898 28.8488 18.4972 28.8492C18.384 28.8493 18.2709 28.8495 18.1578 28.8496C18.1015 28.8497 18.0452 28.8497 17.9871 28.8498C16.9223 28.8509 15.8576 28.8509 14.7928 28.8505C13.8191 28.8501 12.8454 28.8514 11.8717 28.8534C10.8715 28.8554 9.87139 28.8563 8.87123 28.8561C8.30986 28.8559 7.74851 28.8562 7.18715 28.8578C6.70921 28.859 6.23128 28.8592 5.75334 28.8581C5.5096 28.8575 5.26588 28.8575 5.02214 28.8587C4.79875 28.8599 4.5754 28.8596 4.352 28.8582C4.23347 28.8578 4.11493 28.8589 3.9964 28.8601C3.47057 28.8549 3.05087 28.7624 2.65595 28.3979C2.2225 27.9398 2.14064 27.5498 2.1554 26.9269C2.21088 26.4175 2.44722 26.0872 2.8304 25.7609C3.2847 25.4646 3.67233 25.464 4.20556 25.4662Z" fill="#383838"/>
</svg>
