<svg width="29" height="29" viewBox="0 0 29 29" fill="none" xmlns="http://www.w3.org/2000/svg">
<g clip-path="url(#clip0_807_748)">
<path d="M8.04297 -0.00011708C8.30461 0.123818 8.4231 0.254967 8.55274 0.509649C8.57317 0.65552 8.57317 0.65552 8.57203 0.81217C8.57202 0.871116 8.572 0.930062 8.57199 0.990794C8.57111 1.05376 8.57024 1.11672 8.56933 1.18159C8.56909 1.24657 8.56885 1.31154 8.5686 1.37848C8.56765 1.58567 8.56552 1.79283 8.56336 2.00001C8.56251 2.14061 8.56173 2.28122 8.56104 2.42182C8.55931 2.76622 8.55598 3.11056 8.55274 3.45496C9.11348 3.45496 9.67422 3.45496 10.252 3.45496C10.2493 3.24629 10.2467 3.03762 10.244 2.82262C10.2422 2.62017 10.2408 2.41771 10.2395 2.21526C10.2384 2.07472 10.2368 1.93419 10.2349 1.79366C10.2321 1.59147 10.2308 1.38932 10.2298 1.18712C10.2281 1.09312 10.2281 1.09312 10.2263 0.997211C10.2262 0.646416 10.2405 0.435077 10.4785 0.169805C10.7743 -0.0599468 11.0819 -0.0439555 11.4414 -0.00011708C11.7031 0.123818 11.8215 0.254967 11.9512 0.509649C11.9716 0.65552 11.9716 0.65552 11.9705 0.81217C11.9705 0.871116 11.9704 0.930062 11.9704 0.990794C11.9696 1.05376 11.9687 1.11672 11.9678 1.18159C11.9675 1.24657 11.9673 1.31154 11.967 1.37848C11.9661 1.58567 11.964 1.79283 11.9618 2.00001C11.9609 2.14061 11.9602 2.28122 11.9595 2.42182C11.9577 2.76622 11.9544 3.11056 11.9512 3.45496C12.5119 3.45496 13.0727 3.45496 13.6504 3.45496C13.6478 3.24629 13.6451 3.03762 13.6424 2.82262C13.6407 2.62017 13.6393 2.41771 13.6379 2.21526C13.6368 2.07472 13.6353 1.93419 13.6333 1.79366C13.6305 1.59147 13.6293 1.38932 13.6283 1.18712C13.6265 1.09312 13.6265 1.09312 13.6247 0.997211C13.6246 0.646416 13.639 0.435077 13.877 0.169805C14.1728 -0.0599468 14.4804 -0.0439555 14.8398 -0.00011708C15.1015 0.123818 15.22 0.254967 15.3496 0.509649C15.37 0.65552 15.37 0.65552 15.3689 0.81217C15.3689 0.871116 15.3689 0.930062 15.3689 0.990794C15.368 1.05376 15.3671 1.11672 15.3662 1.18159C15.366 1.24657 15.3657 1.31154 15.3655 1.37848C15.3645 1.58567 15.3624 1.79283 15.3602 2.00001C15.3594 2.14061 15.3586 2.28122 15.3579 2.42182C15.3562 2.76622 15.3529 3.11056 15.3496 3.45496C15.9104 3.45496 16.4711 3.45496 17.0488 3.45496C17.0462 3.24629 17.0436 3.03762 17.0409 2.82262C17.0391 2.62017 17.0377 2.41771 17.0364 2.21526C17.0352 2.07472 17.0337 1.93419 17.0317 1.79366C17.029 1.59147 17.0277 1.38932 17.0267 1.18712C17.025 1.09312 17.025 1.09312 17.0232 0.997211C17.0231 0.646416 17.0374 0.435077 17.2754 0.169805C17.5712 -0.0599468 17.8788 -0.0439555 18.2383 -0.00011708C18.4999 0.123818 18.6184 0.254967 18.7481 0.509649C18.7685 0.65552 18.7685 0.65552 18.7673 0.81217C18.7673 0.871116 18.7673 0.930062 18.7673 0.990794C18.7664 1.05376 18.7655 1.11672 18.7646 1.18159C18.7644 1.24657 18.7642 1.31154 18.7639 1.37848C18.763 1.58567 18.7608 1.79283 18.7587 2.00001C18.7578 2.14061 18.757 2.28122 18.7563 2.42182C18.7546 2.76622 18.7513 3.11056 18.7481 3.45496C19.3088 3.45496 19.8695 3.45496 20.4473 3.45496C20.4446 3.24629 20.442 3.03762 20.4393 2.82262C20.4375 2.62017 20.4362 2.41771 20.4348 2.21526C20.4337 2.07472 20.4321 1.93419 20.4302 1.79366C20.4274 1.59147 20.4261 1.38932 20.4251 1.18712C20.4234 1.09312 20.4234 1.09312 20.4216 0.997211C20.4215 0.646416 20.4359 0.435077 20.6738 0.169805C20.9696 -0.0599468 21.2772 -0.0439555 21.6367 -0.00011708C21.8984 0.123818 22.0168 0.254967 22.1465 0.509649C22.1669 0.65552 22.1669 0.65552 22.1658 0.81217C22.1658 0.871116 22.1658 0.930062 22.1657 0.990794C22.1649 1.05376 22.164 1.11672 22.1631 1.18159C22.1628 1.24657 22.1626 1.31154 22.1624 1.37848C22.1614 1.58567 22.1593 1.79283 22.1571 2.00001C22.1563 2.14061 22.1555 2.28122 22.1548 2.42182C22.1529 2.76621 22.1501 3.11058 22.1465 3.45496C22.1819 3.45446 22.2174 3.45395 22.2539 3.45344C22.6232 3.44842 22.9926 3.445 23.362 3.44252C23.4998 3.44138 23.6376 3.43983 23.7753 3.43787C23.9736 3.43512 24.1718 3.43383 24.3701 3.43284C24.4315 3.43167 24.4929 3.4305 24.5562 3.42929C24.894 3.42919 25.1161 3.44012 25.375 3.68152C25.618 3.94615 25.5663 4.28631 25.5615 4.62428C25.5613 4.688 25.561 4.75171 25.5608 4.81736C25.5598 5.02051 25.5577 5.22362 25.5555 5.42676C25.5547 5.56464 25.5539 5.70252 25.5532 5.84039C25.5514 6.17807 25.5485 6.51573 25.5449 6.8534C25.5811 6.85289 25.6172 6.85239 25.6545 6.85187C26.0312 6.84686 26.4079 6.84344 26.7846 6.84095C26.9252 6.83981 27.0657 6.83827 27.2062 6.83631C27.4084 6.83355 27.6106 6.83227 27.8128 6.83127C27.8754 6.8301 27.9381 6.82893 28.0027 6.82773C28.3535 6.82763 28.5648 6.84198 28.8301 7.07996C29.0598 7.37577 29.0438 7.68338 29 8.04285C28.8761 8.30449 28.7449 8.42297 28.4902 8.55262C28.3444 8.57305 28.3444 8.57305 28.1877 8.57191C28.0993 8.57189 28.0993 8.57189 28.0091 8.57187C27.9146 8.57055 27.9146 8.57055 27.8183 8.56921C27.7208 8.56885 27.7208 8.56885 27.6214 8.56848C27.4142 8.56753 27.2071 8.5654 26.9999 8.56324C26.8593 8.56238 26.7187 8.56161 26.5781 8.56091C26.2337 8.55919 25.8893 8.55586 25.5449 8.55262C25.5449 9.11336 25.5449 9.6741 25.5449 10.2518C25.7536 10.2492 25.9623 10.2466 26.1773 10.2439C26.3797 10.2421 26.5822 10.2407 26.7846 10.2394C26.9252 10.2383 27.0657 10.2367 27.2062 10.2347C27.4084 10.232 27.6106 10.2307 27.8128 10.2297C27.8754 10.2285 27.9381 10.2274 28.0027 10.2262C28.3535 10.2261 28.5648 10.2404 28.8301 10.4784C29.0598 10.7742 29.0438 11.0818 29 11.4413C28.8761 11.7029 28.7449 11.8214 28.4902 11.9511C28.3444 11.9715 28.3444 11.9715 28.1877 11.9703C28.0993 11.9703 28.0993 11.9703 28.0091 11.9703C27.9146 11.969 27.9146 11.969 27.8183 11.9676C27.7208 11.9673 27.7208 11.9673 27.6214 11.9669C27.4142 11.966 27.2071 11.9638 26.9999 11.9617C26.8593 11.9608 26.7187 11.96 26.5781 11.9594C26.2337 11.9576 25.8893 11.9543 25.5449 11.9511C25.5449 12.5118 25.5449 13.0725 25.5449 13.6503C25.7536 13.6476 25.9623 13.645 26.1773 13.6423C26.3797 13.6405 26.5822 13.6392 26.7846 13.6378C26.9252 13.6367 27.0657 13.6351 27.2062 13.6332C27.4084 13.6304 27.6106 13.6291 27.8128 13.6281C27.8754 13.627 27.9381 13.6258 28.0027 13.6246C28.3535 13.6245 28.5648 13.6389 28.8301 13.8768C29.0598 14.1726 29.0438 14.4803 29 14.8397C28.8761 15.1014 28.7449 15.2199 28.4902 15.3495C28.3444 15.3699 28.3444 15.3699 28.1877 15.3688C28.0993 15.3688 28.0993 15.3688 28.0091 15.3687C27.9146 15.3674 27.9146 15.3674 27.8183 15.3661C27.7533 15.3658 27.6883 15.3656 27.6214 15.3654C27.4142 15.3644 27.2071 15.3623 26.9999 15.3601C26.8593 15.3593 26.7187 15.3585 26.5781 15.3578C26.2337 15.3561 25.8893 15.3527 25.5449 15.3495C25.5449 15.9102 25.5449 16.471 25.5449 17.0487C25.7536 17.0461 25.9623 17.0435 26.1773 17.0407C26.3797 17.039 26.5822 17.0376 26.7846 17.0363C26.9252 17.0351 27.0657 17.0336 27.2062 17.0316C27.4084 17.0289 27.6106 17.0276 27.8128 17.0266C27.8754 17.0254 27.9381 17.0242 28.0027 17.023C28.3535 17.0229 28.5648 17.0373 28.8301 17.2753C29.0598 17.5711 29.0438 17.8787 29 18.2382C28.8761 18.4998 28.7449 18.6183 28.4902 18.7479C28.3444 18.7684 28.3444 18.7684 28.1877 18.7672C28.0993 18.7672 28.0993 18.7672 28.0091 18.7672C27.9146 18.7659 27.9146 18.7659 27.8183 18.7645C27.7533 18.7643 27.6883 18.764 27.6214 18.7638C27.4142 18.7628 27.2071 18.7607 26.9999 18.7585C26.8593 18.7577 26.7187 18.7569 26.5781 18.7562C26.2337 18.7545 25.8893 18.7512 25.5449 18.7479C25.5449 19.3087 25.5449 19.8694 25.5449 20.4471C25.7536 20.4445 25.9623 20.4419 26.1773 20.4392C26.3797 20.4374 26.5822 20.436 26.7846 20.4347C26.9252 20.4336 27.0657 20.432 27.2062 20.4301C27.4084 20.4273 27.6106 20.426 27.8128 20.425C27.8754 20.4239 27.9381 20.4227 28.0027 20.4215C28.3535 20.4214 28.5648 20.4357 28.8301 20.6737C29.0598 20.9695 29.0438 21.2771 29 21.6366C28.8761 21.8982 28.7449 22.0167 28.4902 22.1464C28.3444 22.1668 28.3444 22.1668 28.1877 22.1657C28.0993 22.1656 28.0993 22.1656 28.0091 22.1656C27.9146 22.1643 27.9146 22.1643 27.8183 22.163C27.7533 22.1627 27.6883 22.1625 27.6214 22.1622C27.4142 22.1613 27.2071 22.1591 26.9999 22.157C26.8593 22.1561 26.7187 22.1554 26.5781 22.1547C26.2337 22.1528 25.8893 22.15 25.5449 22.1464C25.5454 22.1818 25.5459 22.2172 25.5464 22.2537C25.5515 22.6231 25.5549 22.9925 25.5574 23.3619C25.5585 23.4997 25.5601 23.6374 25.562 23.7752C25.5648 23.9735 25.5661 24.1717 25.5671 24.37C25.5682 24.4314 25.5694 24.4928 25.5706 24.5561C25.5707 24.8939 25.5598 25.116 25.3184 25.3749C25.0537 25.6178 24.7136 25.5662 24.3756 25.5614C24.3119 25.5612 24.2482 25.5609 24.1825 25.5607C23.9794 25.5597 23.7763 25.5576 23.5731 25.5554C23.4352 25.5546 23.2974 25.5538 23.1595 25.5531C22.8218 25.5512 22.4842 25.5484 22.1465 25.5448C22.147 25.5809 22.1475 25.6171 22.148 25.6543C22.153 26.0311 22.1564 26.4078 22.1589 26.7845C22.1601 26.925 22.1616 27.0656 22.1636 27.2061C22.1663 27.4083 22.1676 27.6104 22.1686 27.8126C22.1698 27.8753 22.171 27.938 22.1722 28.0026C22.1723 28.3533 22.1579 28.5647 21.9199 28.83C21.6241 29.0597 21.3165 29.0437 20.957 28.9999C20.6954 28.8759 20.5769 28.7448 20.4473 28.4901C20.4268 28.3442 20.4268 28.3442 20.428 28.1876C20.428 28.1286 20.428 28.0697 20.428 28.009C20.4293 27.9145 20.4293 27.9145 20.4307 27.8182C20.4309 27.7532 20.4312 27.6882 20.4314 27.6213C20.4324 27.4141 20.4345 27.2069 20.4366 26.9998C20.4375 26.8592 20.4383 26.7185 20.439 26.5779C20.4407 26.2335 20.444 25.8892 20.4473 25.5448C19.8865 25.5448 19.3258 25.5448 18.7481 25.5448C18.7507 25.7535 18.7533 25.9621 18.756 26.1771C18.7578 26.3796 18.7592 26.5821 18.7605 26.7845C18.7616 26.925 18.7632 27.0656 18.7651 27.2061C18.7679 27.4083 18.7692 27.6104 18.7702 27.8126C18.7713 27.8753 18.7725 27.938 18.7737 28.0026C18.7738 28.3533 18.7595 28.5647 18.5215 28.83C18.2257 29.0597 17.9181 29.0437 17.5586 28.9999C17.297 28.8759 17.1785 28.7448 17.0488 28.4901C17.0284 28.3442 17.0284 28.3442 17.0295 28.1876C17.0296 28.1286 17.0296 28.0697 17.0296 28.009C17.0309 27.9145 17.0309 27.9145 17.0322 27.8182C17.0325 27.7532 17.0327 27.6882 17.033 27.6213C17.0339 27.4141 17.036 27.2069 17.0382 26.9998C17.0391 26.8592 17.0398 26.7185 17.0405 26.5779C17.0423 26.2335 17.0456 25.8892 17.0488 25.5448C16.4881 25.5448 15.9273 25.5448 15.3496 25.5448C15.3522 25.7535 15.3549 25.9621 15.3576 26.1771C15.3593 26.3796 15.3607 26.5821 15.3621 26.7845C15.3632 26.925 15.3647 27.0656 15.3667 27.2061C15.3695 27.4083 15.3707 27.6104 15.3717 27.8126C15.3729 27.8753 15.3741 27.938 15.3753 28.0026C15.3754 28.3533 15.361 28.5647 15.1231 28.83C14.8272 29.0597 14.5196 29.0437 14.1602 28.9999C13.8985 28.8759 13.78 28.7448 13.6504 28.4901C13.63 28.3442 13.63 28.3442 13.6311 28.1876C13.6311 28.1286 13.6311 28.0697 13.6311 28.009C13.6325 27.9145 13.6325 27.9145 13.6338 27.8182C13.634 27.7532 13.6343 27.6882 13.6345 27.6213C13.6355 27.4141 13.6376 27.2069 13.6398 26.9998C13.6406 26.8592 13.6414 26.7185 13.6421 26.5779C13.6438 26.2335 13.6472 25.8892 13.6504 25.5448C13.0897 25.5448 12.5289 25.5448 11.9512 25.5448C11.9538 25.7535 11.9564 25.9621 11.9591 26.1771C11.9609 26.3796 11.9623 26.5821 11.9636 26.7845C11.9648 26.925 11.9663 27.0656 11.9683 27.2061C11.971 27.4083 11.9723 27.6104 11.9733 27.8126C11.9745 27.8753 11.9756 27.938 11.9768 28.0026C11.9769 28.3533 11.9626 28.5647 11.7246 28.83C11.4288 29.0597 11.1212 29.0437 10.7617 28.9999C10.5001 28.8759 10.3816 28.7448 10.252 28.4901C10.2315 28.3442 10.2315 28.3442 10.2327 28.1876C10.2327 28.1286 10.2327 28.0697 10.2327 28.009C10.234 27.9145 10.234 27.9145 10.2354 27.8182C10.2356 27.7532 10.2358 27.6882 10.2361 27.6213C10.237 27.4141 10.2392 27.2069 10.2413 26.9998C10.2422 26.8592 10.243 26.7185 10.2437 26.5779C10.2454 26.2335 10.2487 25.8892 10.252 25.5448C9.69122 25.5448 9.13047 25.5448 8.55274 25.5448C8.55537 25.7535 8.558 25.9621 8.5607 26.1771C8.56247 26.3796 8.56385 26.5821 8.56518 26.7845C8.56632 26.925 8.56787 27.0656 8.56983 27.2061C8.57258 27.4083 8.57386 27.6104 8.57486 27.8126C8.57603 27.8753 8.5772 27.938 8.57841 28.0026C8.57851 28.3533 8.56415 28.5647 8.32618 28.83C8.03036 29.0597 7.72276 29.0437 7.36329 28.9999C7.10164 28.8759 6.98316 28.7448 6.85352 28.4901C6.83309 28.3442 6.83309 28.3442 6.83423 28.1876C6.83424 28.1286 6.83426 28.0697 6.83427 28.009C6.83558 27.9145 6.83558 27.9145 6.83693 27.8182C6.83717 27.7532 6.83741 27.6882 6.83765 27.6213C6.8386 27.4141 6.84074 27.2069 6.8429 26.9998C6.84375 26.8592 6.84453 26.7185 6.84522 26.5779C6.8471 26.2336 6.84994 25.8892 6.85352 25.5448C6.81809 25.5453 6.78265 25.5458 6.74614 25.5463C6.37677 25.5513 6.00741 25.5548 5.63801 25.5572C5.50023 25.5584 5.36244 25.5599 5.22466 25.5619C5.02641 25.5646 4.8282 25.5659 4.62993 25.5669C4.5685 25.5681 4.50707 25.5693 4.44378 25.5705C4.10601 25.5706 3.88387 25.5596 3.625 25.3182C3.38204 25.0536 3.43369 24.7135 3.43849 24.3755C3.43873 24.3118 3.43897 24.2481 3.43922 24.1824C3.44017 23.9793 3.4423 23.7761 3.44446 23.573C3.44532 23.4351 3.44609 23.2972 3.44679 23.1594C3.44866 22.8217 3.4515 22.484 3.45508 22.1464C3.41894 22.1469 3.38279 22.1474 3.34555 22.1479C2.96883 22.1529 2.59212 22.1563 2.21538 22.1588C2.07484 22.16 1.93431 22.1615 1.79378 22.1635C1.5916 22.1662 1.38945 22.1675 1.18725 22.1685C1.12457 22.1697 1.0619 22.1708 0.997333 22.172C0.646538 22.1721 0.435199 22.1578 0.169927 21.9198C-0.0598247 21.624 -0.0438335 21.3164 4.99003e-06 20.9569C0.12394 20.6953 0.255089 20.5768 0.509771 20.4471C0.655642 20.4267 0.655642 20.4267 0.812292 20.4279C0.900711 20.4279 0.900711 20.4279 0.990916 20.4279C1.05388 20.4288 1.11684 20.4297 1.18171 20.4306C1.24669 20.4308 1.31166 20.431 1.3786 20.4313C1.58579 20.4322 1.79295 20.4344 2.00013 20.4365C2.14073 20.4374 2.28134 20.4382 2.42194 20.4389C2.76635 20.4406 3.11068 20.4439 3.45508 20.4471C3.45508 19.8864 3.45508 19.3257 3.45508 18.7479C3.14208 18.7519 3.14208 18.7519 2.82274 18.7559C2.62029 18.7577 2.41784 18.759 2.21538 18.7604C2.07484 18.7615 1.93431 18.7631 1.79378 18.765C1.5916 18.7678 1.38945 18.7691 1.18725 18.7701C1.12457 18.7712 1.0619 18.7724 0.997333 18.7736C0.646538 18.7737 0.435199 18.7593 0.169927 18.5214C-0.0598247 18.2256 -0.0438335 17.918 4.99003e-06 17.5585C0.12394 17.2968 0.255089 17.1784 0.509771 17.0487C0.655642 17.0283 0.655642 17.0283 0.812292 17.0294C0.900711 17.0294 0.900711 17.0294 0.990916 17.0295C1.05388 17.0303 1.11684 17.0312 1.18171 17.0321C1.24669 17.0324 1.31166 17.0326 1.3786 17.0328C1.58579 17.0338 1.79295 17.0359 2.00013 17.0381C2.14073 17.0389 2.28134 17.0397 2.42194 17.0404C2.76635 17.0421 3.11068 17.0455 3.45508 17.0487C3.45508 16.488 3.45508 15.9272 3.45508 15.3495C3.14208 15.3534 3.14208 15.3534 2.82274 15.3575C2.62029 15.3592 2.41784 15.3606 2.21538 15.3619C2.07484 15.3631 1.93431 15.3646 1.79378 15.3666C1.5916 15.3693 1.38945 15.3706 1.18725 15.3716C1.12457 15.3728 1.0619 15.374 0.997333 15.3752C0.646538 15.3753 0.435199 15.3609 0.169927 15.1229C-0.0598247 14.8271 -0.0438335 14.5195 4.99003e-06 14.16C0.12394 13.8984 0.255089 13.7799 0.509771 13.6503C0.655642 13.6298 0.655642 13.6298 0.812292 13.631C0.900711 13.631 0.900711 13.631 0.990916 13.631C1.05388 13.6319 1.11684 13.6328 1.18171 13.6337C1.27917 13.634 1.27917 13.634 1.3786 13.6344C1.58579 13.6354 1.79295 13.6375 2.00013 13.6397C2.14073 13.6405 2.28134 13.6413 2.42194 13.642C2.76635 13.6437 3.11068 13.647 3.45508 13.6503C3.45508 13.0895 3.45508 12.5288 3.45508 11.9511C3.24641 11.9537 3.03774 11.9563 2.82274 11.959C2.62029 11.9608 2.41784 11.9622 2.21538 11.9635C2.07484 11.9646 1.93431 11.9662 1.79378 11.9681C1.5916 11.9709 1.38945 11.9722 1.18725 11.9732C1.12457 11.9743 1.0619 11.9755 0.997333 11.9767C0.646538 11.9768 0.435199 11.9625 0.169927 11.7245C-0.0598247 11.4287 -0.0438335 11.1211 4.99003e-06 10.7616C0.12394 10.5 0.255089 10.3815 0.509771 10.2518C0.655642 10.2314 0.655642 10.2314 0.812292 10.2325C0.900711 10.2326 0.900711 10.2326 0.990916 10.2326C1.05388 10.2335 1.11684 10.2343 1.18171 10.2352C1.27917 10.2356 1.27917 10.2356 1.3786 10.236C1.58579 10.2369 1.79295 10.2391 2.00013 10.2412C2.14073 10.2421 2.28134 10.2428 2.42194 10.2435C2.76635 10.2453 3.11068 10.2486 3.45508 10.2518C3.45508 9.69109 3.45508 9.13035 3.45508 8.55262C3.24641 8.55525 3.03774 8.55787 2.82274 8.56058C2.62029 8.56235 2.41784 8.56372 2.21538 8.56506C2.07484 8.5662 1.93431 8.56775 1.79378 8.56971C1.5916 8.57246 1.38945 8.57374 1.18725 8.57474C1.12457 8.57591 1.0619 8.57708 0.997333 8.57829C0.646538 8.57839 0.435199 8.56403 0.169927 8.32605C-0.0598247 8.03024 -0.0438335 7.72264 4.99003e-06 7.36316C0.12394 7.10152 0.255089 6.98304 0.509771 6.8534C0.655642 6.83296 0.655642 6.83296 0.812292 6.83411C0.900711 6.83413 0.900711 6.83413 0.990916 6.83415C1.05388 6.83502 1.11684 6.8359 1.18171 6.8368C1.27917 6.83716 1.27917 6.83716 1.3786 6.83753C1.58579 6.83848 1.79295 6.84062 2.00013 6.84278C2.14073 6.84363 2.28134 6.84441 2.42194 6.8451C2.76633 6.84697 3.11071 6.84982 3.45508 6.8534C3.45433 6.80025 3.45433 6.80025 3.45356 6.74602C3.44854 6.37665 3.44513 6.00729 3.44264 5.63789C3.4415 5.5001 3.43995 5.36232 3.43799 5.22454C3.43524 5.02629 3.43396 4.82808 3.43296 4.62981C3.43179 4.56838 3.43062 4.50695 3.42941 4.44365C3.42931 4.10589 3.44024 3.88375 3.68165 3.62488C3.94627 3.38192 4.28643 3.43356 4.6244 3.43837C4.68812 3.43861 4.75183 3.43885 4.81748 3.4391C5.02063 3.44005 5.22375 3.44218 5.42688 3.44434C5.56476 3.44519 5.70264 3.44597 5.84052 3.44666C6.17819 3.44854 6.51586 3.45138 6.85352 3.45496C6.85302 3.41882 6.85251 3.38267 6.852 3.34543C6.84698 2.96871 6.84356 2.592 6.84107 2.21526C6.83994 2.07472 6.83839 1.93419 6.83643 1.79366C6.83368 1.59147 6.83239 1.38932 6.83139 1.18712C6.82964 1.09312 6.82964 1.09312 6.82785 0.997211C6.82775 0.646416 6.84211 0.435077 7.08008 0.169805C7.37589 -0.0599468 7.6835 -0.0439555 8.04297 -0.00011708ZM7.02344 7.19324C6.85763 7.54878 6.82916 7.89078 6.83232 8.27771C6.8321 8.33338 6.83187 8.38905 6.83164 8.4464C6.8311 8.63176 6.83176 8.81709 6.83243 9.00245C6.83229 9.13581 6.83208 9.26917 6.83181 9.40253C6.83127 9.76389 6.83181 10.1252 6.83256 10.4866C6.83314 10.8266 6.833 11.1666 6.83289 11.5066C6.83271 12.1803 6.83337 12.8539 6.83448 13.5276C6.83556 14.1807 6.83596 14.8338 6.83564 15.487C6.8353 16.199 6.83531 16.911 6.83595 17.623C6.83629 17.9996 6.8365 18.3763 6.83635 18.7529C6.83624 19.1069 6.8367 19.4609 6.8376 19.8148C6.83784 19.9447 6.83789 20.0746 6.83773 20.2045C6.83755 20.3818 6.83806 20.5591 6.83875 20.7364C6.83854 20.7878 6.83833 20.8392 6.83811 20.8922C6.84063 21.2579 6.85614 21.5656 7.10486 21.8525C7.4724 22.1663 7.78891 22.1547 8.25059 22.1539C8.30606 22.1541 8.36154 22.1542 8.41869 22.1543C8.60474 22.1547 8.7908 22.1546 8.97685 22.1546C9.11018 22.1548 9.2435 22.155 9.37683 22.1552C9.73914 22.1557 10.1014 22.1558 10.4638 22.1558C10.728 22.1559 10.9923 22.1561 11.2565 22.1562C11.9671 22.1567 12.6777 22.1569 13.3883 22.1569C13.4287 22.1569 13.469 22.1569 13.5106 22.1569C13.551 22.1569 13.5914 22.1569 13.633 22.1569C14.2876 22.1568 14.9422 22.1574 15.5968 22.1582C16.2692 22.159 16.9415 22.1594 17.6139 22.1593C17.9913 22.1593 18.3687 22.1595 18.7461 22.1601C19.101 22.1606 19.4559 22.1606 19.8108 22.1602C19.9411 22.1602 20.0713 22.1603 20.2016 22.1606C20.3794 22.1611 20.5572 22.1608 20.735 22.1604C20.8124 22.1608 20.8124 22.1608 20.8912 22.1613C21.2575 22.1593 21.5652 22.1442 21.8527 21.895C22.1664 21.5275 22.1548 21.211 22.1541 20.7493C22.1542 20.6938 22.1543 20.6384 22.1544 20.5812C22.1548 20.3951 22.1548 20.2091 22.1547 20.023C22.1549 19.8897 22.1551 19.7564 22.1553 19.6231C22.1558 19.2607 22.1559 18.8984 22.156 18.5361C22.156 18.2719 22.1562 18.0076 22.1563 17.7434C22.1568 17.0328 22.157 16.3221 22.157 15.6115C22.157 15.5712 22.157 15.5309 22.157 15.4893C22.157 15.4489 22.157 15.4085 22.157 15.3669C22.157 14.7123 22.1575 14.0577 22.1583 13.4031C22.1591 12.7307 22.1595 12.0583 22.1595 11.386C22.1594 11.0086 22.1596 10.6312 22.1602 10.2538C22.1607 9.89887 22.1607 9.54397 22.1603 9.18907C22.1603 9.0588 22.1604 8.92854 22.1608 8.79828C22.1612 8.62047 22.1609 8.44267 22.1605 8.26485C22.1609 8.18754 22.1609 8.18754 22.1614 8.10866C22.1595 7.75445 22.1228 7.46425 21.9447 7.15076C21.6086 6.84047 21.1587 6.82864 20.7222 6.8322C20.6665 6.83198 20.6108 6.83175 20.5535 6.83152C20.3681 6.83098 20.1828 6.83164 19.9974 6.83231C19.8641 6.83217 19.7307 6.83196 19.5974 6.83168C19.236 6.83115 18.8746 6.83168 18.5133 6.83244C18.1733 6.83301 17.8333 6.83287 17.4932 6.83277C16.8196 6.83259 16.146 6.83325 15.4723 6.83436C14.8192 6.83543 14.1661 6.83583 13.5129 6.83552C12.8009 6.83517 12.0889 6.83519 11.3769 6.83583C11.0002 6.83617 10.6236 6.83638 10.247 6.83623C9.893 6.83612 9.53902 6.83658 9.18504 6.83748C9.05515 6.83772 8.92525 6.83777 8.79535 6.83761C8.61805 6.83742 8.44075 6.83794 8.26345 6.83863C8.21206 6.83842 8.16067 6.8382 8.10772 6.83798C7.69772 6.84082 7.31682 6.87541 7.02344 7.19324Z" fill="#383838"/>
<path d="M8.55273 8.55273C9.11348 8.55273 9.67422 8.55273 10.252 8.55273C10.2547 8.73213 10.2575 8.91152 10.2604 9.09635C10.2634 9.27088 10.2667 9.44541 10.2699 9.61993C10.2721 9.74084 10.2741 9.86176 10.2758 9.98268C10.2784 10.1569 10.2817 10.3311 10.2851 10.5053C10.2858 10.559 10.2864 10.6127 10.2871 10.668C10.2955 11.0456 10.3062 11.365 10.5635 11.6609C10.794 11.8568 10.9497 11.8539 11.2445 11.8501C11.4284 11.8341 11.5293 11.7898 11.668 11.668C11.8602 11.4071 11.8999 11.1535 11.9062 10.8354C11.9073 10.7844 11.9084 10.7334 11.9096 10.6809C11.9105 10.6266 11.9115 10.5723 11.9125 10.5163C11.9136 10.4602 11.9148 10.404 11.916 10.3461C11.9197 10.1672 11.9231 9.98834 11.9264 9.80945C11.9288 9.68794 11.9313 9.56644 11.9338 9.44493C11.9399 9.14754 11.9455 8.85014 11.9512 8.55273C12.5119 8.55273 13.0727 8.55273 13.6504 8.55273C13.6504 9.80506 13.6504 11.0574 13.6504 12.3477C12.1353 13.0911 12.1353 13.0911 11.6576 13.3236C11.5327 13.3854 11.4078 13.4473 11.283 13.5092C11.2181 13.5405 11.1532 13.5718 11.0864 13.604C10.6408 13.8229 10.6408 13.8229 10.3652 14.2168C10.3164 14.4727 10.335 14.7084 10.4325 14.9496C10.5827 15.1205 10.7001 15.2149 10.929 15.2564C11.4176 15.2869 11.8027 15.0675 12.2251 14.8518C12.305 14.8119 12.3849 14.7721 12.4648 14.7323C12.6315 14.6491 12.7978 14.5652 12.9638 14.4806C13.1761 14.3726 13.3891 14.2664 13.6026 14.1607C13.7675 14.0789 13.9319 13.9961 14.0962 13.9132C14.1746 13.8737 14.2531 13.8344 14.3318 13.7954C14.4418 13.7408 14.5511 13.6849 14.6603 13.6288C14.7225 13.5973 14.7846 13.5659 14.8487 13.5335C15.0737 13.3803 15.1983 13.2083 15.2781 12.9475C15.2973 12.7578 15.303 12.5692 15.3046 12.3787C15.3052 12.3365 15.3057 12.2944 15.3063 12.251C15.3081 12.1153 15.3095 11.9796 15.3109 11.8439C15.3119 11.7598 15.313 11.6757 15.3141 11.5917C15.318 11.2808 15.3214 10.9699 15.3248 10.6591C15.333 9.96397 15.3412 9.26888 15.3496 8.55273C17.0318 8.55273 18.7141 8.55273 20.4473 8.55273C20.4473 9.11348 20.4473 9.67422 20.4473 10.252C20.2679 10.2547 20.0885 10.2575 19.9036 10.2604C19.7291 10.2634 19.5546 10.2667 19.3801 10.2699C19.2592 10.2721 19.1382 10.2741 19.0173 10.2758C18.8431 10.2784 18.6689 10.2817 18.4947 10.2851C18.441 10.2858 18.3873 10.2864 18.332 10.2871C17.9544 10.2955 17.635 10.3062 17.3391 10.5635C17.1432 10.794 17.1461 10.9497 17.1499 11.2445C17.1659 11.4284 17.2102 11.5293 17.332 11.668C18.114 12.2442 20.0052 11.9413 20.4473 11.9512C20.4473 14.7549 20.4473 17.5586 20.4473 20.4473C19.8865 20.4473 19.3258 20.4473 18.748 20.4473C18.7453 20.2679 18.7425 20.0885 18.7396 19.9036C18.7366 19.7291 18.7333 19.5546 18.7301 19.3801C18.7279 19.2592 18.7259 19.1382 18.7242 19.0173C18.7216 18.8431 18.7183 18.6689 18.7149 18.4947C18.7139 18.4142 18.7139 18.4142 18.7129 18.332C18.7045 17.9544 18.6938 17.635 18.4365 17.3391C18.2082 17.1451 18.052 17.142 17.7593 17.1471C17.5381 17.1702 17.4323 17.2318 17.2754 17.3887C17.1014 17.7493 17.0792 18.1117 17.0765 18.5058C17.0755 18.5616 17.0745 18.6175 17.0734 18.675C17.0704 18.8516 17.0684 19.0281 17.0665 19.2047C17.0646 19.3252 17.0627 19.4457 17.0607 19.5661C17.0557 19.8598 17.0523 20.1535 17.0488 20.4473C16.4881 20.4473 15.9273 20.4473 15.3496 20.4473C15.3496 19.1949 15.3496 17.9426 15.3496 16.6523C16.8647 15.9089 16.8647 15.9089 17.3424 15.6764C17.4673 15.6146 17.5922 15.5527 17.717 15.4908C17.7819 15.4595 17.8468 15.4282 17.9136 15.396C18.3592 15.1771 18.3592 15.1771 18.6348 14.7832C18.6836 14.5273 18.665 14.2916 18.5675 14.0504C18.4173 13.8795 18.2999 13.7851 18.071 13.7436C17.5824 13.7131 17.1973 13.9325 16.7749 14.1482C16.695 14.1881 16.6151 14.2279 16.5352 14.2677C16.3685 14.3509 16.2022 14.4348 16.0362 14.5194C15.8239 14.6274 15.6109 14.7336 15.3974 14.8393C15.2325 14.9211 15.0681 15.0039 14.9038 15.0868C14.8254 15.1263 14.7469 15.1656 14.6682 15.2046C14.5582 15.2592 14.4489 15.3151 14.3397 15.3712C14.2465 15.4184 14.2465 15.4184 14.1513 15.4665C13.9263 15.6197 13.8017 15.7917 13.7219 16.0525C13.7027 16.2422 13.697 16.4308 13.6954 16.6213C13.6948 16.6635 13.6943 16.7056 13.6937 16.749C13.6919 16.8847 13.6905 17.0204 13.6891 17.1561C13.6881 17.2402 13.687 17.3243 13.6859 17.4083C13.682 17.7192 13.6786 18.0301 13.6752 18.3409C13.667 19.036 13.6588 19.7311 13.6504 20.4473C11.9682 20.4473 10.2859 20.4473 8.55273 20.4473C8.55273 19.8865 8.55273 19.3258 8.55273 18.748C8.73213 18.7453 8.91152 18.7425 9.09635 18.7396C9.27088 18.7366 9.44541 18.7333 9.61993 18.7301C9.74084 18.7279 9.86176 18.7259 9.98268 18.7242C10.1569 18.7216 10.3311 18.7183 10.5053 18.7149C10.559 18.7142 10.6127 18.7136 10.668 18.7129C11.0456 18.7045 11.365 18.6938 11.6609 18.4365C11.8549 18.2082 11.858 18.052 11.8529 17.7593C11.8298 17.5381 11.7682 17.4323 11.6113 17.2754C10.6415 16.9521 9.57481 17.0715 8.55273 17.0488C8.55273 14.2451 8.55273 11.4414 8.55273 8.55273Z" fill="#383838"/>
</g>
<defs>
<clipPath id="clip0_807_748">
<rect width="29" height="29" fill="white"/>
</clipPath>
</defs>
</svg>
