<svg width="31" height="31" viewBox="0 0 31 31" fill="none" xmlns="http://www.w3.org/2000/svg">
<g clip-path="url(#clip0_807_105)">
<path d="M28.7826 7.97731C28.992 8.15676 29.1091 8.30948 29.1458 8.58704C29.1457 8.65001 29.1456 8.71298 29.1455 8.77786C29.1459 8.85081 29.1463 8.92375 29.1466 8.99891C29.1461 9.07964 29.1456 9.16037 29.145 9.2411C29.1451 9.32702 29.1453 9.41295 29.1455 9.49887C29.1459 9.73497 29.1452 9.97106 29.1443 10.2072C29.1435 10.4618 29.1438 10.7164 29.1439 10.971C29.144 11.4121 29.1434 11.8532 29.1424 12.2944C29.1409 12.9321 29.1405 13.5699 29.1402 14.2077C29.1398 15.2425 29.1386 16.2772 29.1369 17.312C29.1352 18.3172 29.1339 19.3224 29.1332 20.3276C29.1331 20.3896 29.1331 20.4515 29.133 20.5154C29.1328 20.8262 29.1326 21.1369 29.1323 21.4477C29.1305 24.0265 29.1273 26.6052 29.1232 29.1839C29.1616 29.1826 29.2001 29.1813 29.2397 29.18C29.4153 29.1749 29.5909 29.1718 29.7665 29.1687C29.827 29.1667 29.8875 29.1647 29.9498 29.1626C30.3216 29.1576 30.5366 29.1759 30.8185 29.426C31.0641 29.7423 31.047 30.0711 31.0002 30.4553C30.8685 30.7334 30.7304 30.869 30.4552 31.0003C30.2829 31.0174 30.124 31.0248 29.9519 31.0233C29.9011 31.0236 29.8504 31.0238 29.7981 31.0241C29.6273 31.0249 29.4566 31.0243 29.2858 31.0237C29.1624 31.024 29.039 31.0243 28.9156 31.0247C28.576 31.0256 28.2364 31.0253 27.8967 31.0249C27.5307 31.0246 27.1646 31.0254 26.7986 31.026C26.1227 31.027 25.4468 31.0271 24.771 31.0268C24.1466 31.0265 23.5222 31.0266 22.8979 31.0269C22.8141 31.027 22.7304 31.027 22.6467 31.0271C22.5206 31.0271 22.3945 31.0272 22.2684 31.0273C21.0955 31.0279 19.9226 31.0282 18.7498 31.0277C18.7056 31.0277 18.6613 31.0277 18.6158 31.0277C18.2566 31.0275 17.8974 31.0274 17.5383 31.0272C16.1371 31.0266 14.736 31.0271 13.3348 31.0285C11.7612 31.0301 10.1875 31.0309 8.61376 31.0304C8.44603 31.0304 8.27829 31.0303 8.11056 31.0303C8.06926 31.0303 8.02796 31.0303 7.9854 31.0303C7.36142 31.0301 6.73745 31.0306 6.11347 31.0314C5.40401 31.0323 4.69454 31.0323 3.98508 31.0313C3.62292 31.0308 3.26077 31.0307 2.89862 31.0316C2.56731 31.0324 2.23602 31.0321 1.90471 31.031C1.78464 31.0307 1.66457 31.0309 1.5445 31.0315C1.38166 31.0323 1.21889 31.0316 1.05605 31.0306C1.0091 31.0312 0.962159 31.0317 0.913791 31.0323C0.6006 31.0281 0.423202 30.9556 0.181794 30.7581C-0.0638022 30.4419 -0.0467081 30.113 0.000153711 29.7288C0.131355 29.4518 0.266605 29.3075 0.545075 29.1839C0.773835 29.1618 1.00047 29.1668 1.23001 29.1725C1.29218 29.1733 1.35434 29.1741 1.41839 29.175C1.57133 29.1771 1.7242 29.1801 1.87711 29.1839C1.87688 29.1402 1.87666 29.0965 1.87643 29.0515C1.87108 27.9888 1.86707 26.9261 1.86456 25.8634C1.86331 25.3494 1.86161 24.8355 1.85884 24.3216C1.85642 23.8736 1.85486 23.4257 1.85432 22.9777C1.854 22.7405 1.85326 22.5034 1.8515 22.2662C1.84985 22.0429 1.84935 21.8195 1.84971 21.5962C1.84962 21.4754 1.84831 21.3545 1.84697 21.2337C1.85003 20.5702 1.85003 20.5702 2.11929 20.2835C2.43037 20.0521 2.73529 20.0345 3.11382 20.0264C3.19014 20.0245 3.26646 20.0225 3.34509 20.0206C3.38527 20.0196 3.42545 20.0187 3.46686 20.0177C4.17381 20.001 4.87594 19.9682 5.58012 19.8996C6.66806 19.7958 6.66806 19.7958 7.02359 20.0413C7.26523 20.309 7.33392 20.4541 7.33361 20.8107C7.33373 20.921 7.33373 20.921 7.33386 21.0335C7.33364 21.1154 7.33342 21.1973 7.3332 21.2792C7.33318 21.3651 7.33319 21.451 7.33323 21.537C7.33324 21.7706 7.33288 22.0043 7.33246 22.238C7.33209 22.482 7.33205 22.726 7.33198 22.9701C7.33179 23.4324 7.33129 23.8947 7.33069 24.357C7.33001 24.8832 7.32968 25.4095 7.32937 25.9357C7.32874 27.0184 7.32763 28.1011 7.32632 29.1839C7.92574 29.1839 8.52515 29.1839 9.14273 29.1839C9.14051 28.9021 9.13829 28.6203 9.136 28.33C9.12898 27.3994 9.12428 26.4688 9.12077 25.5381C9.11859 24.9738 9.11561 24.4095 9.11076 23.8452C9.10653 23.3533 9.1038 22.8614 9.10285 22.3695C9.1023 22.1091 9.10101 21.8487 9.09792 21.5883C9.09503 21.343 9.09416 21.0978 9.09479 20.8524C9.09468 20.7626 9.09384 20.6728 9.09221 20.583C9.07906 19.8214 9.07906 19.8214 9.34613 19.5054C9.52728 19.3298 9.68854 19.2379 9.9367 19.1785C10.0414 19.1518 10.0414 19.1518 10.1483 19.1245C10.2223 19.1073 10.2963 19.0902 10.3726 19.0725C10.4899 19.0429 10.6071 19.0132 10.7243 18.9832C10.8043 18.9628 10.8843 18.9425 10.9644 18.9225C11.3757 18.8191 11.7804 18.6958 12.1852 18.5692C12.2488 18.5495 12.3125 18.5298 12.378 18.5095C12.6948 18.4109 13.0098 18.3091 13.3226 18.1984C13.6035 18.1179 13.8469 18.1355 14.1227 18.2362C14.3387 18.3786 14.4764 18.5388 14.5919 18.7698C14.5977 18.9063 14.5993 19.043 14.5992 19.1797C14.5993 19.2437 14.5993 19.2437 14.5994 19.3089C14.5995 19.4524 14.5992 19.596 14.5988 19.7395C14.5988 19.8421 14.5988 19.9448 14.5988 20.0474C14.5989 20.3266 14.5985 20.6058 14.5981 20.885C14.5977 21.1765 14.5977 21.4681 14.5976 21.7596C14.5974 22.312 14.5969 22.8644 14.5963 23.4168C14.5956 24.0455 14.5953 24.6742 14.595 25.303C14.5944 26.5966 14.5933 27.8902 14.5919 29.1839C15.1914 29.1839 15.7908 29.1839 16.4084 29.1839C16.4078 29.0345 16.4073 28.8851 16.4067 28.7312C16.4018 27.3253 16.3982 25.9194 16.3958 24.5134C16.3946 23.7906 16.3929 23.0678 16.3901 22.3449C16.3877 21.7149 16.3861 21.085 16.3856 20.455C16.3853 20.1214 16.3845 19.7878 16.3827 19.4542C16.3811 19.1402 16.3806 18.8262 16.381 18.5122C16.3809 18.397 16.3804 18.2817 16.3795 18.1665C16.3783 18.0091 16.3786 17.8518 16.3792 17.6944C16.3785 17.6488 16.3778 17.6032 16.3771 17.5562C16.3806 17.2463 16.4552 17.0709 16.6505 16.8323C16.7985 16.7276 16.7985 16.7276 16.9653 16.6433C17.0591 16.5947 17.0591 16.5947 17.1547 16.5451C17.2219 16.5112 17.289 16.4774 17.3582 16.4425C17.5008 16.3682 17.6433 16.2937 17.7856 16.2188C17.8219 16.1997 17.8583 16.1806 17.8958 16.1609C18.2806 15.9576 18.6544 15.7365 19.027 15.5116C19.0903 15.4737 19.1535 15.4357 19.2187 15.3967C19.4827 15.237 19.7438 15.076 19.996 14.8981C20.3806 14.6272 20.6728 14.4562 21.1573 14.4975C21.438 14.559 21.5985 14.6761 21.7746 14.8981C21.892 15.1505 21.8821 15.3733 21.8794 15.6484C21.8796 15.7063 21.8797 15.7641 21.8799 15.8238C21.8802 16.0178 21.8792 16.2118 21.8782 16.4058C21.8781 16.5448 21.8782 16.6839 21.8783 16.8229C21.8783 17.2006 21.8773 17.5782 21.876 17.9558C21.8749 18.3504 21.8747 18.745 21.8745 19.1396C21.874 19.8019 21.8729 20.4643 21.8713 21.1266C21.8696 21.8088 21.8683 22.491 21.8676 23.1731C21.8675 23.2152 21.8675 23.2573 21.8674 23.3006C21.8672 23.5116 21.8669 23.7226 21.8667 23.9336C21.8648 25.6837 21.8616 27.4338 21.8576 29.1839C22.457 29.1839 23.0564 29.1839 23.674 29.1839C23.673 28.9725 23.6721 28.7612 23.6711 28.5435C23.6627 26.6055 23.6564 24.6674 23.6523 22.7294C23.6518 22.4754 23.6513 22.2213 23.6507 21.9673C23.6506 21.9167 23.6505 21.8662 23.6504 21.8141C23.6485 20.9953 23.6452 20.1766 23.6413 19.3578C23.6373 18.5176 23.635 17.6774 23.6341 16.8373C23.6335 16.3188 23.6317 15.8005 23.6282 15.2821C23.626 14.9265 23.6253 14.571 23.6259 14.2155C23.6261 14.0104 23.6255 13.8053 23.6235 13.6002C23.6213 13.3776 23.6219 13.1552 23.623 12.9326C23.6218 12.868 23.6205 12.8035 23.6193 12.737C23.6249 12.3366 23.7027 12.1299 23.989 11.8463C24.0249 11.8133 24.0608 11.7803 24.0978 11.7464C24.1592 11.6829 24.2204 11.6191 24.2811 11.555C24.3396 11.4962 24.3984 11.4377 24.4573 11.3793C24.4886 11.3481 24.5199 11.3169 24.5521 11.2847C24.7246 11.1139 24.9004 10.9501 25.0855 10.7927C25.2863 10.6217 25.455 10.4351 25.6252 10.2341C25.7341 10.1099 25.8486 9.99563 25.9672 9.88075C26.2057 9.64594 26.4132 9.39199 26.6226 9.13125C26.8032 8.9108 26.9936 8.70049 27.1862 8.49054C27.2857 8.37932 27.376 8.2666 27.4657 8.1476C27.8448 7.73856 28.3127 7.73364 28.7826 7.97731Z" fill="#383838"/>
<path d="M26.5235 -0.0263063C26.5654 -0.0269164 26.6073 -0.0275264 26.6504 -0.028155C26.7883 -0.0298742 26.9261 -0.0302349 27.064 -0.0304305C27.1602 -0.0310146 27.2565 -0.0316257 27.3528 -0.0322625C27.5545 -0.0333487 27.7561 -0.0336868 27.9578 -0.033579C28.2155 -0.0335606 28.4731 -0.0360401 28.7308 -0.0391685C28.9296 -0.0411937 29.1284 -0.0415564 29.3273 -0.0414605C29.4222 -0.041674 29.5172 -0.0424732 29.6122 -0.0438822C30.4461 -0.055099 30.4461 -0.055099 30.7209 0.1692C30.9725 0.433618 31.0153 0.660367 31.0176 1.0219C31.0182 1.08397 31.0182 1.08397 31.0188 1.14729C31.0199 1.2838 31.0202 1.42029 31.0203 1.5568C31.0207 1.65196 31.0211 1.74713 31.0215 1.84229C31.0223 2.0417 31.0225 2.24111 31.0224 2.44052C31.0224 2.69556 31.0241 2.95056 31.0261 3.20559C31.0275 3.40215 31.0277 3.59869 31.0277 3.79525C31.0278 3.88925 31.0283 3.98325 31.0293 4.07724C31.0305 4.20898 31.0301 4.34062 31.0294 4.47236C31.0296 4.54719 31.0297 4.62202 31.0299 4.69912C30.9858 5.00134 30.8531 5.19359 30.6138 5.37953C30.3262 5.50595 30.0359 5.48679 29.7285 5.4493C29.4493 5.31706 29.3189 5.17812 29.1836 4.90438C29.1526 4.68939 29.1526 4.68939 29.1419 4.46163C29.138 4.38569 29.134 4.30974 29.1299 4.2315C29.1276 4.17382 29.1254 4.11615 29.123 4.05672C28.5598 4.65757 28.5598 4.65757 28.0128 5.2731C27.893 5.41067 27.7701 5.54524 27.6472 5.68013C27.4623 5.88459 27.2858 6.09304 27.1136 6.30831C26.8166 6.67574 26.4936 7.01668 26.1697 7.36031C25.9964 7.54438 25.8285 7.73232 25.6635 7.92389C25.2024 8.45097 24.7195 8.95595 24.2244 9.45096C24.1276 9.54784 24.0314 9.64519 23.9351 9.74257C23.5881 10.0915 23.2349 10.4171 22.8485 10.7228C22.7123 10.8322 22.5834 10.9463 22.4553 11.065C22.0364 11.4408 21.5816 11.7732 21.1308 12.1095C21.0641 12.1593 21.0641 12.1593 20.996 12.2101C18.5597 14.0219 15.821 15.4134 12.957 16.4083C12.8641 16.4406 12.8641 16.4406 12.7694 16.4735C10.0501 17.4067 7.09513 17.9957 4.21531 17.9905C4.10501 17.9906 4.10501 17.9906 3.99247 17.9907C3.83837 17.9908 3.68426 17.9907 3.53015 17.9904C3.29635 17.9901 3.06256 17.9904 2.82876 17.9908C2.67791 17.9907 2.52705 17.9907 2.3762 17.9905C2.27304 17.9907 2.27304 17.9907 2.16781 17.9909C0.597131 17.9864 0.597132 17.9864 0.206207 17.6597C-0.0254057 17.3952 -0.0514612 17.1116 -0.0381092 16.7687C0.0243983 16.4752 0.19071 16.2877 0.423797 16.1055C0.633482 16.0357 0.792866 16.039 1.01409 16.041C1.05549 16.0413 1.09688 16.0416 1.13954 16.0419C1.22973 16.0425 1.31991 16.0433 1.4101 16.0442C1.55482 16.0455 1.69954 16.0463 1.84427 16.047C2.25594 16.0491 2.66761 16.0515 3.07927 16.0554C4.3877 16.0673 5.66366 16.0333 6.96286 15.8634C7.03716 15.8538 7.03716 15.8538 7.11297 15.8441C7.36677 15.8108 7.61896 15.7714 7.87106 15.7271C7.94478 15.7144 8.01849 15.7017 8.09443 15.6886C12.2802 14.9445 16.2391 13.2777 19.6777 10.7774C19.7215 10.7457 19.7653 10.714 19.8104 10.6814C20.5618 10.1353 21.2631 9.53978 21.9496 8.91442C22.0335 8.83893 22.1177 8.76387 22.2033 8.69046C22.549 8.39351 22.8718 8.07674 23.1932 7.75386C23.2452 7.70208 23.2972 7.65029 23.3508 7.59694C23.6192 7.32815 23.8791 7.05561 24.1266 6.76748C24.2551 6.61788 24.3883 6.47268 24.5215 6.32723C24.8233 5.99589 25.1199 5.66089 25.41 5.31922C25.7459 4.92422 26.0874 4.53714 26.4416 4.15846C26.6248 3.96146 26.798 3.75989 26.966 3.54964C27.2247 3.22712 27.5038 2.92691 27.7881 2.62716C27.8224 2.59097 27.8567 2.55479 27.892 2.5175C27.9221 2.48591 27.9523 2.45432 27.9833 2.42178C28.1456 2.244 28.3011 2.0604 28.457 1.87703C28.3874 1.87647 28.3177 1.8759 28.246 1.87532C27.9867 1.8729 27.7274 1.86891 27.4681 1.86447C27.3561 1.86276 27.244 1.86148 27.132 1.86062C26.9705 1.85932 26.8091 1.8565 26.6477 1.85338C26.5979 1.85331 26.5481 1.85323 26.4969 1.85316C26.1745 1.84501 25.9888 1.7869 25.7324 1.5743C25.4868 1.25809 25.5039 0.929268 25.5508 0.545001C25.7613 0.100424 26.047 -0.0219362 26.5235 -0.0263063Z" fill="#383838"/>
</g>
<defs>
<clipPath id="clip0_807_105">
<rect width="31" height="31" fill="white"/>
</clipPath>
</defs>
</svg>
