<svg width="40" height="39" viewBox="0 0 40 39" fill="none" xmlns="http://www.w3.org/2000/svg">
<path d="M5.11617 21.3281C5.15995 21.3404 5.20373 21.3528 5.24884 21.3655C5.41944 21.4038 5.56792 21.4148 5.74245 21.4163C5.80584 21.4171 5.86922 21.4178 5.93453 21.4186C6.00341 21.419 6.07229 21.4195 6.14325 21.4199C6.2528 21.4211 6.2528 21.4211 6.36457 21.4222C6.60586 21.4246 6.84715 21.4265 7.08845 21.4284C7.2558 21.43 7.42314 21.4316 7.59049 21.4332C8.03087 21.4374 8.47125 21.4412 8.91164 21.4448C9.36105 21.4487 9.81045 21.4529 10.2599 21.4571C11.1416 21.4653 12.0233 21.473 12.9051 21.4805C12.9091 21.5304 12.913 21.5803 12.9171 21.6318C12.9356 21.8609 12.9546 22.0899 12.9737 22.319C12.9799 22.3975 12.9862 22.476 12.9926 22.5569C13.1157 24.0197 13.6423 25.373 14.585 26.5078C14.6393 26.5734 14.6935 26.639 14.7494 26.7066C15.9946 28.1473 17.7712 29.0024 19.667 29.1616C21.5538 29.2847 23.348 28.6726 24.8175 27.498C24.8762 27.4521 24.9349 27.4061 24.9953 27.3588C26.4353 26.1634 27.2404 24.3017 27.4138 22.4707C27.4274 22.2996 27.4406 22.1286 27.4537 21.9575C27.4606 21.8682 27.4674 21.7789 27.4744 21.6869C27.4822 21.5847 27.4822 21.5847 27.4902 21.4805C27.5833 21.4797 27.6763 21.4789 27.7722 21.4781C28.6487 21.4706 29.5251 21.4628 30.4015 21.4546C30.8521 21.4504 31.3027 21.4463 31.7533 21.4426C32.188 21.439 32.6228 21.435 33.0575 21.4307C33.2235 21.4292 33.3894 21.4278 33.5554 21.4265C33.7876 21.4246 34.0198 21.4223 34.252 21.4199C34.3209 21.4195 34.3898 21.4191 34.4607 21.4186C34.5558 21.4175 34.5558 21.4175 34.6528 21.4163C34.7077 21.4159 34.7626 21.4154 34.8192 21.4149C34.9802 21.4039 35.1241 21.3718 35.2791 21.3281C35.2885 21.7334 35.2955 22.1386 35.3001 22.5439C35.302 22.6817 35.3046 22.8195 35.3079 22.9572C35.3125 23.1556 35.3147 23.3539 35.3164 23.5523C35.3183 23.6136 35.3203 23.675 35.3223 23.7382C35.3225 24.0446 35.3007 24.1897 35.1286 24.4521C34.8149 24.6574 34.5808 24.6553 34.2133 24.6493C34.1475 24.6499 34.0817 24.6506 34.0139 24.6512C33.804 24.6529 33.5942 24.6522 33.3844 24.6511C33.1753 24.6508 32.9663 24.6511 32.7573 24.6527C32.6275 24.6536 32.4977 24.6534 32.3679 24.652C31.892 24.6542 31.4739 24.7253 31.0833 25.0205C30.7875 25.384 30.6162 25.7609 30.454 26.1984C30.4163 26.2961 30.4163 26.2961 30.3778 26.3958C30.3284 26.5241 30.2796 26.6526 30.2315 26.7813C30.1867 26.901 30.1413 27.0203 30.0951 27.1394C29.9393 27.5425 29.8452 27.8423 29.9868 28.2662C30.2815 28.9248 30.776 29.3686 31.2892 29.8594C31.4222 29.9883 31.555 30.1175 31.6876 30.2468C31.7697 30.3267 31.852 30.4062 31.9347 30.4854C32.1542 30.697 32.2814 30.8231 32.3392 31.1257C32.2351 31.8261 31.2789 32.4901 30.7884 32.9778C30.6341 33.1312 30.4803 33.2851 30.3265 33.439C30.2285 33.5367 30.1305 33.6343 30.0325 33.7319C29.9635 33.801 29.9635 33.801 29.8932 33.8714C29.5001 34.2612 29.5001 34.2612 29.1606 34.3154C28.4027 34.2179 27.7459 33.2336 27.2441 32.7072C26.6638 32.1064 26.6638 32.1064 25.8742 31.9108C25.4255 31.94 25.0381 32.0965 24.6314 32.2778C24.5681 32.3054 24.5048 32.333 24.4396 32.3614C24.2596 32.4404 24.0803 32.5208 23.9012 32.6016C23.8177 32.6384 23.7342 32.6752 23.6482 32.7131C23.2222 32.9111 22.9711 33.0966 22.7497 33.5214C22.6512 33.8334 22.6596 34.126 22.6612 34.4511C22.66 34.5905 22.6588 34.7298 22.6575 34.8692C22.6562 35.0878 22.6555 35.3064 22.6561 35.5251C22.6563 35.7368 22.6541 35.9485 22.6516 36.1602C22.6524 36.2254 22.6532 36.2905 22.654 36.3576C22.649 36.662 22.6235 36.8325 22.4659 37.0988C22.0914 37.3272 21.7429 37.3011 21.312 37.296C21.2236 37.2961 21.1353 37.2963 21.0442 37.2965C20.8575 37.2964 20.6709 37.2954 20.4842 37.2935C20.1986 37.2909 19.9132 37.2919 19.6276 37.2934C19.4461 37.2929 19.2647 37.2922 19.0832 37.2912C18.9979 37.2916 18.9125 37.2919 18.8246 37.2923C18.4872 37.2872 18.2372 37.2775 17.9292 37.134C17.7334 36.8615 17.7409 36.6107 17.7463 36.2879C17.7457 36.224 17.7451 36.1601 17.7444 36.0943C17.7427 35.8901 17.7434 35.686 17.7445 35.4818C17.7448 35.279 17.7445 35.0762 17.7429 34.8734C17.742 34.7474 17.7422 34.6214 17.7437 34.4954C17.7412 33.9725 17.6283 33.5143 17.3502 33.0678C17.1449 32.8714 16.9589 32.7866 16.6945 32.6825C16.5989 32.6443 16.5032 32.606 16.4076 32.5676C16.3587 32.5484 16.3099 32.5291 16.2596 32.5092C16.1148 32.4503 15.9731 32.3869 15.8313 32.3213C15.0093 31.9349 15.0093 31.9349 14.1239 31.9565C13.5033 32.2228 13.0271 32.7771 12.5695 33.2559C12.5093 33.318 12.4492 33.3802 12.3872 33.4442C12.2661 33.5698 12.1461 33.6965 12.0275 33.8245C11.6113 34.2555 11.6113 34.2555 11.2594 34.3508C10.9927 34.2764 10.908 34.2188 10.7092 34.0393C10.6556 33.9911 10.6019 33.9428 10.5467 33.8931C10.1447 33.5224 9.7509 33.1438 9.36029 32.7611C9.25396 32.6574 9.14701 32.5544 9.03948 32.452C8.88281 32.3026 8.72822 32.1514 8.57393 31.9996C8.52573 31.9545 8.47754 31.9093 8.42789 31.8628C8.19748 31.6319 8.06421 31.4722 8.0508 31.1388C8.09341 30.8554 8.11334 30.754 8.31024 30.5568C8.38355 30.4814 8.38355 30.4814 8.45834 30.4045C8.5146 30.3503 8.57085 30.2961 8.62881 30.2402C8.69176 30.1782 8.75471 30.1161 8.81957 30.0522C9.10052 29.7771 9.38303 29.5037 9.66835 29.233C10.0897 28.8223 10.4312 28.4859 10.4721 27.8726C10.4681 27.3088 10.1507 26.7782 9.9179 26.2771C9.82096 26.0608 9.7391 25.8391 9.65492 25.6176C9.4661 25.1639 9.27378 24.9432 8.81185 24.7481C8.48028 24.6607 8.17489 24.6599 7.83358 24.6615C7.69378 24.6604 7.55398 24.6591 7.41418 24.6578C7.19515 24.6566 6.97616 24.6559 6.75713 24.6564C6.54477 24.6566 6.33255 24.6545 6.12021 24.652C6.05474 24.6528 5.98927 24.6536 5.92182 24.6544C5.61979 24.6494 5.47009 24.6413 5.2271 24.452C5.07733 24.1424 5.07762 23.8916 5.08634 23.5523C5.08677 23.4886 5.0872 23.4249 5.08765 23.3592C5.08935 23.1566 5.09319 22.9541 5.09708 22.7516C5.09861 22.6139 5.10001 22.4762 5.10125 22.3384C5.10461 22.0016 5.10988 21.6649 5.11617 21.3281Z" fill="#383838"/>
<path d="M13.7451 21.4805C18.0038 21.4805 22.2625 21.4805 26.6503 21.4805C26.6503 23.4058 26.1861 25.0699 24.8379 26.4968C23.5028 27.7574 21.8528 28.4481 20.0068 28.4121C18.1541 28.3327 16.5777 27.5598 15.2962 26.2269C14.1056 24.8565 13.7451 23.2646 13.7451 21.4805Z" fill="#383838"/>
<path d="M22.5408 2.9333C22.5866 2.97071 22.6324 3.00812 22.6795 3.04667C22.7598 3.10322 22.8402 3.15978 22.9229 3.21805C23.6531 3.93021 23.9026 4.889 23.9237 5.87886C23.9335 7.21419 23.692 8.53668 22.7395 9.5552C21.8506 10.3274 20.858 10.5827 19.7014 10.5115C18.7569 10.3654 17.9226 9.94636 17.3408 9.17523C16.4584 7.84745 16.2589 6.34753 16.5706 4.79862C16.8527 3.83997 17.3957 3.14272 18.2652 2.64647C19.5241 2.03764 21.4018 2.06449 22.5408 2.9333Z" fill="#383838"/>
<path d="M15.807 13.1016C15.9911 13.3333 16.1326 13.572 16.2715 13.8329C16.3169 13.918 16.3623 14.003 16.4091 14.0906C16.4582 14.1831 16.5073 14.2755 16.5563 14.3679C16.6076 14.464 16.6589 14.5601 16.7102 14.6562C16.7894 14.8043 16.8685 14.9525 16.9475 15.1007C17.2036 15.581 17.462 16.06 17.7209 16.5388C17.8087 16.7014 17.8964 16.8639 17.9842 17.0265C18.073 17.1908 18.1618 17.3552 18.2506 17.5195C18.4384 17.867 18.6261 18.2146 18.8138 18.5621C18.8764 18.678 18.8764 18.678 18.9403 18.7962C19.2722 19.4107 19.6013 20.0266 19.9306 20.6426C18.469 20.6426 17.0074 20.6426 15.5016 20.6426C15.4638 19.6622 15.4638 19.6622 15.4252 18.6621C15.3748 18.5616 15.3244 18.461 15.2725 18.3574C15.1198 18.3542 14.967 18.3543 14.8143 18.3574C14.6723 18.4991 14.7196 18.7344 14.7138 18.9242C14.7109 19.0138 14.708 19.1033 14.705 19.1955C14.7017 19.3101 14.6984 19.4247 14.695 19.5428C14.684 19.9058 14.673 20.2687 14.6616 20.6426C13.7292 20.6426 12.7969 20.6426 11.8362 20.6426C11.8116 18.394 11.881 16.4758 13.4398 14.7012C13.4851 14.6487 13.5304 14.5963 13.577 14.5423C14.1804 13.8916 14.9871 13.4259 15.807 13.1016Z" fill="#383838"/>
<path d="M24.5121 13.1016C25.1785 13.3428 25.7181 13.647 26.2685 14.0918C26.3338 14.1435 26.3992 14.1953 26.4665 14.2486C27.6023 15.2014 28.3646 16.6718 28.4987 18.1501C28.5191 18.5623 28.511 18.9732 28.502 19.3857C28.4957 19.8005 28.4894 20.2153 28.483 20.6426C27.5758 20.6426 26.6686 20.6426 25.7339 20.6426C25.7005 19.5857 25.7005 19.5857 25.6906 19.2525C25.6876 19.1663 25.6847 19.08 25.6817 18.9912C25.6789 18.9026 25.6761 18.8141 25.6732 18.7228C25.6715 18.5133 25.6715 18.5133 25.5812 18.3574C25.4425 18.2863 25.4425 18.2863 25.2758 18.2812C25.175 18.3567 25.0742 18.4321 24.9703 18.5098C24.9451 19.2136 24.9199 19.9174 24.894 20.6426C23.4324 20.6426 21.9708 20.6426 20.465 20.6426C20.8419 19.8907 21.2199 19.1442 21.6199 18.405C21.6695 18.3131 21.7191 18.2212 21.7686 18.1292C21.8949 17.8951 22.0213 17.661 22.1478 17.427C22.2638 17.2123 22.3796 16.9976 22.4954 16.7828C22.6709 16.4575 22.8465 16.1323 23.0222 15.8072C23.1864 15.5032 23.3503 15.1992 23.514 14.895C23.5886 14.7562 23.6632 14.6175 23.7379 14.4788C23.8321 14.3038 23.9263 14.1287 24.0203 13.9535C24.0625 13.8752 24.1047 13.7968 24.1482 13.716C24.1854 13.6468 24.2226 13.5777 24.2609 13.5064C24.3594 13.3301 24.3594 13.3301 24.5121 13.1016Z" fill="#383838"/>
<path d="M29.1237 15.2217C29.189 15.2214 29.2544 15.2212 29.3217 15.2209C29.4609 15.2205 29.6 15.2204 29.7392 15.2204C29.9489 15.2202 30.1585 15.2188 30.3682 15.2174C31.745 15.2127 33.0318 15.3031 34.0777 16.3063C34.9224 17.2438 35.2807 18.3209 35.3078 19.562C35.3098 19.6176 35.3118 19.6732 35.3139 19.7305C35.3148 20.0132 35.2889 20.1705 35.1342 20.4103C34.8593 20.6779 34.6767 20.652 34.299 20.6513C34.2453 20.6514 34.1917 20.6514 34.1364 20.6514C33.9587 20.6513 33.7811 20.6507 33.6034 20.6501C33.4803 20.65 33.3573 20.6499 33.2342 20.6498C32.9101 20.6495 32.586 20.6488 32.2618 20.6479C31.9312 20.6471 31.6005 20.6468 31.2699 20.6464C30.6209 20.6456 29.9719 20.6443 29.323 20.6427C29.3219 20.5317 29.3219 20.5317 29.3208 20.4185C29.3177 20.1372 29.3127 19.856 29.3071 19.5748C29.305 19.4543 29.3034 19.3339 29.3023 19.2134C29.2913 18.0682 29.1263 17.0189 28.647 15.9668C28.5523 15.7518 28.4782 15.5343 28.4066 15.3107C28.5651 15.1526 28.9053 15.222 29.1237 15.2217Z" fill="#383838"/>
<path d="M9.52624 15.2268C9.59487 15.2269 9.6635 15.227 9.73421 15.2271C9.95125 15.2275 10.1683 15.2285 10.3853 15.2294C10.5334 15.2298 10.6814 15.2302 10.8295 15.2305C11.1905 15.2313 11.5515 15.2326 11.9126 15.2342C11.9126 15.5682 11.8433 15.7161 11.7026 16.015C11.1604 17.2207 11.0768 18.4403 11.0296 19.7474C11.0247 19.8774 11.0247 19.8774 11.0196 20.0101C11.0116 20.2209 11.0038 20.4316 10.9962 20.6424C10.2846 20.6495 9.57307 20.6549 8.86147 20.6582C8.53104 20.6598 8.20064 20.6619 7.87022 20.6654C7.55136 20.6687 7.23252 20.6705 6.91365 20.6713C6.79198 20.6719 6.67032 20.673 6.54867 20.6746C6.37826 20.6768 6.20796 20.6771 6.03754 20.677C5.94054 20.6777 5.84355 20.6784 5.74362 20.679C5.45474 20.6359 5.36875 20.5648 5.19271 20.3377C4.90253 19.7588 5.08643 18.63 5.26698 18.0341C5.66279 16.9743 6.28381 16.1064 7.33084 15.6151C8.0627 15.2985 8.73702 15.222 9.52624 15.2268Z" fill="#383838"/>
<path d="M10.112 7.37728C10.8819 7.35016 11.5466 7.48713 12.1457 7.99052C12.7421 8.63317 12.7871 9.39941 12.7736 10.2302C12.7435 10.9702 12.5171 11.6559 11.9888 12.1877C11.3945 12.7275 10.8373 12.8354 10.0419 12.8203C9.41234 12.7657 8.95944 12.5236 8.53375 12.0604C7.93554 11.2683 7.81231 10.3554 7.90615 9.39196C7.99754 8.74545 8.19932 8.2781 8.70527 7.84591C9.1606 7.55629 9.57464 7.411 10.112 7.37728Z" fill="#383838"/>
<path d="M31.6843 7.85787C32.1396 8.25914 32.4086 8.77483 32.4706 9.38007C32.5206 10.3517 32.4679 11.2724 31.82 12.0539C31.3004 12.5877 30.816 12.7969 30.0675 12.8251C29.4116 12.8116 28.8702 12.6674 28.378 12.2205C27.7127 11.4793 27.5301 10.5189 27.5813 9.54913C27.6786 8.79553 27.8811 8.28918 28.4768 7.80521C29.3923 7.15923 30.7863 7.21581 31.6843 7.85787Z" fill="#383838"/>
<path d="M19.0141 12.7207C19.7953 12.7207 20.5765 12.7207 21.3813 12.7207C21.2214 13.1196 21.0197 13.3944 20.7609 13.7324C20.4749 14.1459 20.4023 14.5065 20.465 15.0059C20.5647 15.4234 20.688 15.8331 20.8134 16.2437C20.8797 16.4612 20.9448 16.679 21.0094 16.8971C21.0385 16.9928 21.0677 17.0886 21.0978 17.1872C21.1822 17.5843 21.0897 17.8284 20.9014 18.178C20.8672 18.2421 20.833 18.3061 20.7977 18.3722C20.744 18.4709 20.744 18.4709 20.6893 18.5717C20.6532 18.639 20.6171 18.7063 20.58 18.7756C20.4912 18.9412 20.4019 19.1064 20.3123 19.2715C20.2367 19.2715 20.1611 19.2715 20.0832 19.2715C19.9389 19.0318 19.7984 18.7901 19.6584 18.5479C19.6177 18.4803 19.577 18.4127 19.5351 18.3431C19.1792 17.7201 19.1792 17.7201 19.2685 17.3156C19.2854 17.2572 19.3022 17.1988 19.3195 17.1387C19.3411 17.0576 19.3626 16.9765 19.3847 16.893C19.4771 16.5543 19.5746 16.2171 19.6736 15.8802C19.7162 15.7348 19.7579 15.5892 19.7995 15.4436C19.8246 15.3577 19.8497 15.2718 19.8756 15.1833C20.0123 14.5514 19.8697 14.1699 19.5486 13.6348C19.409 13.429 19.266 13.2273 19.1176 13.0278C19.0141 12.873 19.0141 12.873 19.0141 12.7207Z" fill="#383838"/>
</svg>
