<svg width="354" height="110" viewBox="0 0 354 110" fill="none" xmlns="http://www.w3.org/2000/svg">
<g clip-path="url(#clip0_467_3996)">
<path d="M132.331 32.8984C132.207 32.8984 132.13 32.8215 132.1 32.6674L126.645 0.910489C126.614 0.787221 126.66 0.725586 126.784 0.725586H131.961C132.084 0.725586 132.161 0.787221 132.192 0.910489L135.15 21.8044L138.201 0.910489C138.232 0.787221 138.325 0.725586 138.479 0.725586H142.639C142.762 0.725586 142.839 0.787221 142.87 0.910489L145.875 21.8044L148.879 0.910489C148.91 0.787221 148.987 0.725586 149.111 0.725586H154.242C154.396 0.725586 154.457 0.787221 154.426 0.910489L148.926 32.6674C148.895 32.729 148.849 32.7905 148.787 32.8521C148.725 32.8831 148.695 32.8984 148.695 32.8984H143.101C143.009 32.8984 142.932 32.8215 142.87 32.6674L140.513 16.0724L138.155 32.6674C138.124 32.8215 138.047 32.8984 137.924 32.8984H132.331Z" fill="#004F75"/>
<path d="M161.956 32.8984C161.833 32.8984 161.771 32.8215 161.771 32.6674L161.818 0.910489C161.818 0.787221 161.879 0.725586 162.003 0.725586H176.841C176.964 0.725586 177.026 0.802629 177.026 0.956713V6.13395C177.026 6.25724 176.964 6.31886 176.841 6.31886H167.365V13.53H176.841C176.964 13.53 177.026 13.5917 177.026 13.7149L177.072 18.9384C177.072 19.0617 177.01 19.1233 176.887 19.1233H167.365V27.2128H176.887C177.01 27.2128 177.072 27.2897 177.072 27.4438V32.7136C177.072 32.8368 177.01 32.8984 176.887 32.8984H161.956Z" fill="#004F75"/>
<path d="M185.99 32.8984C185.867 32.8984 185.805 32.8215 185.805 32.6674L185.897 0.910489C185.897 0.787221 185.959 0.725586 186.082 0.725586H194.957C196.714 0.725586 198.286 1.15702 199.673 2.0199C201.059 2.85196 202.153 3.96137 202.955 5.34813C203.756 6.73489 204.156 8.24491 204.156 9.87822C204.156 11.2034 203.848 12.436 203.232 13.5763C202.646 14.7165 201.937 15.641 201.105 16.3498C201.999 17.2435 202.693 18.2758 203.186 19.4469C203.679 20.6179 203.925 21.8506 203.925 23.1449C203.925 24.9324 203.494 26.5657 202.631 28.0449C201.768 29.5241 200.597 30.7105 199.118 31.6042C197.669 32.467 196.051 32.8984 194.264 32.8984H185.99ZM191.444 13.4838H194.957C196.036 13.4838 196.899 13.114 197.546 12.3744C198.224 11.604 198.563 10.7719 198.563 9.87822C198.563 8.89209 198.209 8.0446 197.5 7.33583C196.791 6.59622 195.944 6.22642 194.957 6.22642H191.444V13.4838ZM191.398 27.259H194.264C195.373 27.259 196.329 26.8583 197.13 26.0571C197.931 25.225 198.332 24.2543 198.332 23.1449C198.332 22.0355 197.931 21.0802 197.13 20.2789C196.329 19.4777 195.373 19.0771 194.264 19.0771H191.444L191.398 27.259Z" fill="#004F75"/>
<path d="M220.376 33.3609C218.681 33.3609 217.14 32.9448 215.753 32.1127C214.397 31.2499 213.319 30.1098 212.517 28.6922C211.716 27.2746 211.315 25.6875 211.315 23.931L211.362 9.50859C211.362 7.81367 211.747 6.27282 212.517 4.88604C213.319 3.46848 214.397 2.34366 215.753 1.5116C217.14 0.648723 218.681 0.217285 220.376 0.217285C222.071 0.217285 223.596 0.633314 224.952 1.46537C226.308 2.29743 227.387 3.42225 228.188 4.83983C228.989 6.22659 229.39 7.78285 229.39 9.50859V11.635C229.39 11.7582 229.328 11.8199 229.205 11.8199H224.028C223.904 11.8199 223.843 11.7582 223.843 11.635V9.50859C223.843 8.49164 223.504 7.61335 222.826 6.87374C222.179 6.13413 221.362 5.76432 220.376 5.76432C219.266 5.76432 218.419 6.14954 217.833 6.91997C217.248 7.65958 216.955 8.52246 216.955 9.50859V23.931C216.955 25.0711 217.279 25.9957 217.926 26.7044C218.604 27.4133 219.42 27.7675 220.376 27.7675C221.362 27.7675 222.179 27.3824 222.826 26.6121C223.504 25.8107 223.843 24.917 223.843 23.931V21.8045C223.843 21.6813 223.904 21.6196 224.028 21.6196H229.251C229.374 21.6196 229.436 21.6813 229.436 21.8045V23.931C229.436 25.6875 229.02 27.2746 228.188 28.6922C227.387 30.1098 226.308 31.2499 224.952 32.1127C223.596 32.9448 222.071 33.3609 220.376 33.3609Z" fill="#004F75"/>
<path d="M245.99 33.3609C244.325 33.3609 242.801 32.9448 241.413 32.1127C240.058 31.2499 238.963 30.1251 238.131 28.7384C237.299 27.3208 236.883 25.7644 236.883 24.0695L236.929 9.41615C236.929 7.7212 237.331 6.18036 238.131 4.7936C238.963 3.40684 240.074 2.29743 241.459 1.46537C242.847 0.633314 244.358 0.217285 245.99 0.217285C247.654 0.217285 249.165 0.633314 250.52 1.46537C251.877 2.29743 252.956 3.40684 253.755 4.7936C254.587 6.18036 255.004 7.7212 255.004 9.41615L255.05 24.0695C255.05 25.7644 254.634 27.3208 253.802 28.7384C253.002 30.1251 251.907 31.2499 250.52 32.1127C249.165 32.9448 247.654 33.3609 245.99 33.3609ZM245.99 27.7675C246.915 27.7675 247.717 27.3977 248.393 26.6581C249.102 25.8878 249.458 25.025 249.458 24.0695L249.411 9.41615C249.411 8.3992 249.088 7.5363 248.44 6.82751C247.793 6.11872 246.978 5.76432 245.99 5.76432C245.034 5.76432 244.218 6.11872 243.54 6.82751C242.863 7.5055 242.524 8.36837 242.524 9.41615V24.0695C242.524 25.0866 242.863 25.9648 243.54 26.7044C244.218 27.4133 245.034 27.7675 245.99 27.7675Z" fill="#004F75"/>
<path d="M263.604 32.8984C263.357 32.8984 263.234 32.7906 263.234 32.5748L263.188 1.09539C263.188 0.848854 263.311 0.725586 263.557 0.725586H267.718L275.53 18.9384L275.297 1.09539C275.297 0.848854 275.437 0.725586 275.713 0.725586H280.29C280.476 0.725586 280.569 0.848854 280.569 1.09539L280.616 32.6211C280.616 32.8061 280.537 32.8984 280.383 32.8984H276.315L268.317 15.8875L268.643 32.5286C268.643 32.7752 268.503 32.8984 268.227 32.8984H263.604Z" fill="#004F75"/>
<path d="M294.429 32.8984C294.306 32.8984 294.229 32.8215 294.199 32.6674L287.819 0.910489C287.789 0.787221 287.851 0.725586 288.005 0.725586H293.228C293.351 0.725586 293.428 0.787221 293.46 0.910489L297.249 22.0817L300.947 0.910489C300.979 0.787221 301.056 0.725586 301.179 0.725586H306.356C306.509 0.725586 306.572 0.787221 306.542 0.910489L300.254 32.6674C300.224 32.8215 300.147 32.8984 300.024 32.8984H294.429Z" fill="#004F75"/>
<path d="M321.522 33.3609C319.858 33.3609 318.333 32.9448 316.945 32.1127C315.59 31.2499 314.495 30.1251 313.663 28.7384C312.831 27.3208 312.415 25.7644 312.415 24.0695L312.462 9.41615C312.462 7.7212 312.861 6.18036 313.663 4.7936C314.495 3.40684 315.604 2.29743 316.992 1.46537C318.379 0.633314 319.888 0.217285 321.522 0.217285C323.186 0.217285 324.697 0.633314 326.052 1.46537C327.407 2.29743 328.486 3.40684 329.288 4.7936C330.12 6.18036 330.536 7.7212 330.536 9.41615L330.582 24.0695C330.582 25.7644 330.166 27.3208 329.334 28.7384C328.532 30.1251 327.437 31.2499 326.052 32.1127C324.697 32.9448 323.186 33.3609 321.522 33.3609ZM321.522 27.7675C322.447 27.7675 323.247 27.3977 323.925 26.6581C324.634 25.8878 324.988 25.025 324.988 24.0695L324.943 9.41615C324.943 8.3992 324.618 7.5363 323.972 6.82751C323.326 6.11872 322.507 5.76432 321.522 5.76432C320.567 5.76432 319.751 6.11872 319.072 6.82751C318.393 7.5055 318.054 8.36837 318.054 9.41615V24.0695C318.054 25.0866 318.393 25.9648 319.072 26.7044C319.751 27.4133 320.567 27.7675 321.522 27.7675Z" fill="#004F75"/>
<path d="M342.295 32.8984C342.204 32.8984 342.158 32.8368 342.158 32.7136L342.204 19.5856L336.01 0.910489C335.978 0.787221 336.024 0.725586 336.147 0.725586H341.279C341.433 0.725586 341.526 0.787221 341.556 0.910489L344.977 13.3451L348.443 0.910489C348.476 0.787221 348.552 0.725586 348.676 0.725586H353.852C353.975 0.725586 354.022 0.787221 353.991 0.910489L347.75 19.4007L347.797 32.7136C347.797 32.8368 347.736 32.8984 347.611 32.8984H342.295Z" fill="#004F75"/>
<path d="M182.663 76.2888C180.968 76.2888 179.427 75.8727 178.04 75.0406C176.684 74.1778 175.606 73.0375 174.804 71.6198C174.003 70.2024 173.603 68.6154 173.603 66.8586L173.649 52.4364C173.649 50.7415 174.034 49.2007 174.804 47.8137C175.606 46.3963 176.684 45.2713 178.04 44.4395C179.427 43.5764 180.968 43.145 182.663 43.145C184.358 43.145 185.883 43.5611 187.239 44.3932C188.595 45.2251 189.674 46.3501 190.475 47.7675C191.276 49.1544 191.677 50.7106 191.677 52.4364V54.5627C191.677 54.6859 191.615 54.7475 191.492 54.7475H186.314C186.191 54.7475 186.13 54.6859 186.13 54.5627V52.4364C186.13 51.4193 185.791 50.5411 185.113 49.8015C184.465 49.0619 183.649 48.6921 182.663 48.6921C181.553 48.6921 180.706 49.0772 180.12 49.8478C179.535 50.5874 179.242 51.4502 179.242 52.4364V66.8586C179.242 67.9989 179.566 68.9233 180.213 69.6323C180.891 70.341 181.707 70.6954 182.663 70.6954C183.649 70.6954 184.465 70.3103 185.113 69.5398C185.791 68.7385 186.13 67.8448 186.13 66.8586V64.7323C186.13 64.6091 186.191 64.5475 186.314 64.5475H191.538C191.661 64.5475 191.723 64.6091 191.723 64.7323V66.8586C191.723 68.6154 191.307 70.2024 190.475 71.6198C189.674 73.0375 188.595 74.1778 187.239 75.0406C185.883 75.8727 184.358 76.2888 182.663 76.2888Z" fill="#004F75"/>
<path d="M232.014 76.3912C231.86 76.3912 231.783 76.3142 231.783 76.1601L231.876 44.4033C231.876 44.2799 231.937 44.2183 232.061 44.2183L240.704 44.172C242.401 44.1414 243.942 44.5419 245.327 45.374C246.745 46.2061 247.87 47.3309 248.702 48.7485C249.534 50.1352 249.95 51.676 249.95 53.3709V66.6377C249.95 68.4251 249.518 70.0584 248.656 71.5377C247.793 72.986 246.638 74.1416 245.188 75.0044C243.739 75.8673 242.108 76.3142 240.288 76.3449L232.014 76.3912ZM237.422 70.7055H240.288C241.429 70.7055 242.384 70.3048 243.154 69.5036C243.956 68.7024 244.358 67.7471 244.358 66.6377V53.3247C244.358 52.3387 243.986 51.4912 243.247 50.7823C242.538 50.0427 241.692 49.6885 240.704 49.7191L237.468 49.7654L237.422 70.7055Z" fill="#004F75"/>
<path d="M324.722 76.3438C324.631 76.3438 324.585 76.2822 324.585 76.159L324.631 63.031L318.437 44.3559C318.404 44.2325 318.451 44.1709 318.574 44.1709H323.706C323.86 44.1709 323.953 44.2325 323.983 44.3559L327.404 56.7905L330.87 44.3559C330.902 44.2325 330.979 44.1709 331.102 44.1709H336.279C336.402 44.1709 336.448 44.2325 336.418 44.3559L330.177 62.846L330.224 76.159C330.224 76.2822 330.161 76.3438 330.038 76.3438H324.722Z" fill="#004F75"/>
<path d="M213.29 43.153C213.366 43.1627 213.429 43.1983 213.476 43.2455L213.477 43.245C213.478 43.2464 213.479 43.248 213.48 43.2492C213.487 43.2566 213.494 43.2643 213.5 43.2722C213.51 43.285 213.517 43.2947 213.519 43.2975C213.525 43.3066 213.53 43.3147 213.533 43.3198C213.538 43.3301 213.544 43.3405 213.548 43.3487C213.557 43.3659 213.567 43.3875 213.578 43.4112C213.6 43.4591 213.63 43.5262 213.666 43.609C213.739 43.7754 213.84 44.0113 213.962 44.2986C214.205 44.8734 214.532 45.6575 214.881 46.5124L215.387 47.7319C215.546 48.1124 215.691 48.4604 215.816 48.7584C215.942 49.0566 216.046 49.3044 216.123 49.484C216.161 49.5738 216.192 49.6463 216.215 49.699C216.227 49.7255 216.236 49.7467 216.243 49.7625C216.251 49.7797 216.254 49.786 216.254 49.786C216.274 49.8262 216.428 50.1939 216.677 50.7908C216.931 51.3993 217.292 52.2668 217.733 53.329C218.174 54.391 218.695 55.648 219.271 57.0361L221.132 61.5291V61.5296C222.441 64.7002 223.998 68.4036 225.228 71.3207C225.842 72.7765 226.378 74.0435 226.757 74.9411C226.946 75.3911 227.098 75.7512 227.202 76.0003C227.254 76.1247 227.295 76.2221 227.322 76.2893C227.336 76.3225 227.346 76.3497 227.354 76.3694C227.358 76.379 227.362 76.3887 227.365 76.3973C227.366 76.4013 227.369 76.408 227.371 76.4157C227.372 76.4192 227.375 76.4266 227.377 76.4357C227.378 76.4403 227.381 76.4513 227.382 76.4578C227.382 76.4585 227.382 76.4594 227.382 76.4601C227.382 76.4608 227.382 76.4617 227.382 76.4624C227.384 76.4682 227.386 76.4785 227.387 76.4908C227.389 76.5143 227.392 76.5612 227.376 76.617C227.334 76.7569 227.222 76.812 227.173 76.8294C227.129 76.8448 227.09 76.8478 227.078 76.8487C227.03 76.8524 226.941 76.8501 226.807 76.8476C226.513 76.842 225.883 76.8304 224.542 76.8304C223.472 76.8304 222.948 76.8418 222.686 76.8473C222.564 76.8501 222.479 76.8525 222.427 76.8492C222.403 76.8478 222.343 76.8436 222.28 76.8146C222.201 76.7781 222.156 76.7197 222.154 76.7167C222.142 76.7028 222.134 76.6907 222.132 76.6874C222.129 76.6821 222.126 76.6779 222.124 76.6751C222.121 76.6695 222.118 76.6644 222.116 76.6612C222.112 76.6544 222.108 76.6467 222.105 76.6395C222.097 76.6244 222.086 76.6042 222.074 76.5796C222.049 76.5301 222.013 76.4587 221.968 76.3681C221.878 76.1861 221.749 75.9229 221.589 75.5917C221.268 74.9293 220.82 73.993 220.302 72.885C219.265 70.6697 217.947 67.7647 216.8 64.9889C215.656 62.2192 214.608 59.6873 213.841 57.8401C213.457 56.9164 213.144 56.1643 212.925 55.6392C212.865 55.4946 212.811 55.3677 212.765 55.2589C212.717 55.3505 212.663 55.4551 212.601 55.5741C212.303 56.1482 211.837 57.0503 211.158 58.3675C209.83 60.9408 207.689 65.0977 204.402 71.4871L215.819 71.5239L216.03 71.5246L216.111 71.7184L218.061 76.392L218.244 76.8304H205.451C202.906 76.8304 200.592 76.8285 198.915 76.8255C198.077 76.8241 197.397 76.8225 196.927 76.8206C196.692 76.8197 196.509 76.8187 196.385 76.8178C196.323 76.8174 196.274 76.8171 196.241 76.8164C196.225 76.8162 196.211 76.816 196.201 76.8155C196.196 76.8155 196.19 76.815 196.183 76.8148C196.18 76.8146 196.172 76.8143 196.162 76.8132C196.159 76.8127 196.144 76.8108 196.126 76.8064C196.115 76.8036 196.083 76.7932 196.064 76.7848C196.02 76.7599 195.908 76.624 195.882 76.4985C195.884 76.4659 195.892 76.4208 195.895 76.4083C195.897 76.4015 195.901 76.3908 195.902 76.3867C195.905 76.379 195.908 76.3732 195.909 76.3708C195.911 76.3657 195.913 76.3611 195.914 76.359C195.917 76.3536 195.919 76.3476 195.922 76.3418C195.928 76.3297 195.937 76.3127 195.948 76.2916C195.969 76.2491 196.001 76.1868 196.042 76.1059C196.124 75.9439 196.245 75.7063 196.402 75.4014C196.714 74.7912 197.165 73.911 197.722 72.8257C198.837 70.6555 200.375 67.6654 202.068 64.3785C205.447 57.8043 208.994 50.8945 209.945 49.0185C210.897 47.1409 211.958 45.0785 212.297 44.4327L212.297 44.4316C212.472 44.102 212.639 43.8089 212.766 43.6009C212.829 43.4981 212.885 43.4105 212.93 43.3487C212.951 43.3205 212.978 43.2845 213.008 43.2548C213.019 43.2443 213.055 43.2078 213.11 43.1818C213.137 43.1688 213.203 43.142 213.29 43.153ZM227.387 76.514L227.386 76.4861C227.385 76.4764 227.383 76.4678 227.382 76.4615C227.384 76.4736 227.386 76.4978 227.387 76.514Z" fill="#004F75" stroke="#004F75" stroke-width="0.632884"/>
<path d="M155.408 43.0027C155.484 43.0122 155.547 43.0478 155.594 43.0949L155.594 43.0945C155.596 43.0959 155.597 43.0975 155.598 43.0989C155.605 43.1061 155.612 43.1138 155.618 43.1217C155.628 43.1347 155.635 43.1442 155.637 43.1472C155.643 43.1561 155.648 43.1644 155.65 43.1693C155.657 43.1798 155.662 43.19 155.666 43.1981C155.675 43.2153 155.685 43.237 155.696 43.2607C155.718 43.3088 155.748 43.3757 155.784 43.4585C155.857 43.6249 155.958 43.8608 156.08 44.1481C156.323 44.7229 156.65 45.5072 156.999 46.3621L157.506 47.5816C157.664 47.9619 157.809 48.3101 157.935 48.6081C158.06 48.9061 158.164 49.1538 158.241 49.3335C158.279 49.4232 158.31 49.4958 158.333 49.5488C158.345 49.5753 158.354 49.5964 158.361 49.612C158.369 49.6292 158.372 49.6357 158.372 49.6357C158.392 49.6757 158.546 50.0436 158.795 50.6403C159.049 51.2488 159.41 52.1162 159.851 53.1785C160.292 54.2405 160.814 55.4977 161.389 56.8856L163.25 61.3786V61.379C164.559 64.5497 166.116 68.2531 167.346 71.1702C167.961 72.6259 168.496 73.8932 168.875 74.7906C169.064 75.2406 169.216 75.6009 169.32 75.8498C169.372 75.9742 169.413 76.0716 169.44 76.1387C169.454 76.172 169.465 76.1992 169.472 76.2189C169.476 76.2285 169.48 76.2382 169.483 76.2468C169.484 76.2508 169.487 76.2575 169.49 76.2652C169.49 76.2687 169.493 76.2761 169.495 76.2852C169.496 76.2898 169.499 76.3007 169.5 76.3075C169.5 76.3082 169.5 76.3089 169.5 76.3096C169.5 76.3105 169.5 76.3112 169.5 76.3119C169.502 76.3179 169.503 76.3279 169.505 76.3403C169.507 76.3637 169.51 76.4107 169.493 76.4665C169.452 76.6064 169.34 76.6617 169.291 76.6789C169.247 76.6945 169.208 76.6973 169.196 76.6982C169.149 76.7022 169.059 76.6998 168.925 76.697C168.631 76.6915 168.001 76.6798 166.66 76.6798C165.59 76.6798 165.066 76.6912 164.804 76.6968C164.682 76.6996 164.597 76.7019 164.545 76.6987C164.521 76.6973 164.461 76.6931 164.398 76.664C164.319 76.6275 164.275 76.5692 164.272 76.5662C164.26 76.5522 164.252 76.5404 164.25 76.5369C164.247 76.5318 164.244 76.5274 164.242 76.5246C164.239 76.5192 164.236 76.5141 164.234 76.5109C164.231 76.5039 164.226 76.4962 164.223 76.489C164.215 76.4739 164.204 76.4537 164.192 76.429C164.166 76.3795 164.131 76.3084 164.086 76.2175C163.996 76.0355 163.867 75.7724 163.707 75.4412C163.386 74.7787 162.938 73.8425 162.419 72.7347C161.383 70.5191 160.065 67.6144 158.918 64.8384C157.774 62.0687 156.726 59.5368 155.959 57.6896C155.575 56.7659 155.263 56.0137 155.043 55.4887C154.982 55.3443 154.929 55.2172 154.883 55.1086C154.836 55.2 154.781 55.3046 154.719 55.4236C154.421 55.9977 153.955 56.8998 153.276 58.2172C151.948 60.7905 149.807 64.9472 146.52 71.3366L157.937 71.3733L158.148 71.374L158.228 71.5679L160.179 76.2415L160.362 76.6798H147.569C145.024 76.6798 142.71 76.678 141.033 76.6752C140.195 76.6736 139.515 76.6719 139.045 76.6701C138.81 76.6692 138.627 76.6685 138.503 76.6673C138.441 76.6668 138.393 76.6666 138.36 76.6661C138.343 76.6659 138.33 76.6654 138.319 76.6652C138.314 76.665 138.308 76.6647 138.301 76.6643C138.298 76.664 138.29 76.6638 138.28 76.6626C138.277 76.6622 138.262 76.6603 138.244 76.6561C138.233 76.6531 138.201 76.6429 138.182 76.6343C138.138 76.6094 138.026 76.4734 138 76.3479C138.002 76.3154 138.01 76.2703 138.013 76.2577C138.015 76.251 138.019 76.2403 138.02 76.2361C138.023 76.2287 138.026 76.2226 138.027 76.2206C138.029 76.2152 138.031 76.2108 138.032 76.2085C138.035 76.2031 138.038 76.1971 138.04 76.1915C138.046 76.1792 138.055 76.1622 138.066 76.1411C138.087 76.0985 138.119 76.0362 138.16 75.9553C138.242 75.7933 138.364 75.5558 138.52 75.2508C138.832 74.6407 139.283 73.7604 139.84 72.6754C140.955 70.5049 142.493 67.5149 144.186 64.228C147.565 57.6538 151.112 50.7439 152.063 48.8679C153.016 46.9906 154.076 44.9279 154.415 44.2822L154.416 44.2811C154.59 43.9515 154.757 43.6584 154.884 43.4503C154.947 43.3476 155.003 43.26 155.048 43.1981C155.069 43.17 155.096 43.134 155.126 43.1042C155.137 43.094 155.173 43.0575 155.228 43.0315C155.256 43.0182 155.322 42.9915 155.408 43.0027ZM169.505 76.3635L169.503 76.3358C169.503 76.3258 169.501 76.3175 169.5 76.311C169.502 76.3233 169.504 76.3475 169.505 76.3635Z" fill="#004F75" stroke="#004F75" stroke-width="0.632884"/>
<path d="M292.537 76.3438C292.413 76.3438 292.351 76.2668 292.351 76.1127L292.444 44.3559C292.444 44.2325 292.506 44.1709 292.629 44.1709H298.268C298.392 44.1709 298.499 44.2325 298.591 44.3559L302.799 55.5937L307.006 44.3559C307.096 44.2325 307.206 44.1709 307.329 44.1709H313.014C313.137 44.1709 313.2 44.2325 313.2 44.3559L313.291 76.1127C313.291 76.2668 313.23 76.3438 313.107 76.3438H307.882C307.759 76.3438 307.698 76.2668 307.698 76.1127L307.652 52.5377L302.799 64.7001L297.992 52.5377L297.945 76.1127C297.945 76.2668 297.883 76.3438 297.759 76.3438H292.537Z" fill="#004F75"/>
<g filter="url(#filter0_d_467_3996)">
<path d="M284.74 70.0201C283.178 72.281 281.151 74.0501 278.662 75.3276C276.17 76.6048 273.502 77.171 270.659 77.026C267.772 76.8786 265.134 76.0205 262.747 74.4518C260.358 72.8828 258.505 70.8309 257.187 68.2952C257.096 68.1207 257.01 67.945 256.927 67.7685L261.738 67.4434C262.247 68.2025 262.859 68.9142 263.57 69.5785C265.643 71.4717 268.081 72.4898 270.882 72.6325C272.963 72.7387 274.899 72.348 276.688 71.4606C278.478 70.5731 279.947 69.3075 281.095 67.6637L284.74 70.0201Z" fill="#058ACB"/>
<mask id="mask0_467_3996" style="mask-type:luminance" maskUnits="userSpaceOnUse" x="255" y="65" width="31" height="14">
<path d="M285.827 65.4463H255.29V78.5807H285.827V65.4463Z" fill="white"/>
<path d="M284.742 70.0201C283.18 72.281 281.153 74.0501 278.664 75.3276C276.172 76.6048 273.504 77.171 270.661 77.026C267.774 76.8786 265.136 76.0205 262.749 74.4518C260.359 72.8828 258.507 70.8309 257.189 68.2952C257.098 68.1207 257.012 67.945 256.929 67.7685L261.74 67.4434C262.249 68.2025 262.86 68.9142 263.572 69.5785C265.645 71.4717 268.083 72.4898 270.884 72.6325C272.964 72.7387 274.901 72.348 276.69 71.4606C278.48 70.5731 279.949 69.3075 281.097 67.6637L284.742 70.0201Z" fill="black"/>
</mask>
<g mask="url(#mask0_467_3996)">
<path d="M284.741 70.0201L285.262 70.3799L285.633 69.8427L285.085 69.4885L284.741 70.0201ZM256.928 67.7685L256.884 67.1369L255.956 67.1997L256.356 68.0402L256.928 67.7685ZM261.739 67.4433L262.264 67.09L262.06 66.7871L261.695 66.8118L261.739 67.4433ZM263.571 69.5784L263.138 70.0408L263.141 70.0433L263.145 70.0459L263.571 69.5784ZM281.096 67.6636L281.438 67.132L280.927 66.8008L280.576 67.3013L281.096 67.6636ZM284.741 70.0201L284.22 69.6603C282.719 71.8335 280.773 73.5336 278.372 74.7643L278.663 75.3275L278.951 75.8905C281.533 74.5665 283.639 72.7282 285.262 70.3799L284.741 70.0201ZM278.663 75.3275L278.372 74.7643C275.983 75.9897 273.426 76.5334 270.693 76.3937L270.66 77.0259L270.627 77.6579C273.582 77.8085 276.359 77.2195 278.951 75.8905L278.663 75.3275ZM270.66 77.0259L270.693 76.3937C267.917 76.2521 265.388 75.4288 263.094 73.9227L262.748 74.4517L262.399 74.9805C264.884 76.6119 267.629 77.505 270.627 77.6579L270.66 77.0259ZM262.748 74.4517L263.094 73.9227C260.798 72.4132 259.017 70.4429 257.75 68.0034L257.188 68.2952L256.628 68.5871C257.995 71.2187 259.921 73.3525 262.399 74.9805L262.748 74.4517ZM257.188 68.2952L257.75 68.0034C257.662 67.8356 257.578 67.6666 257.499 67.4967L256.928 67.7685L256.356 68.0402C256.442 68.2229 256.532 68.4053 256.628 68.5871L257.188 68.2952ZM256.928 67.7685L256.97 68.4L261.781 68.0746L261.739 67.4433L261.695 66.8118L256.884 67.1369L256.928 67.7685ZM261.739 67.4433L261.214 67.7963C261.753 68.598 262.395 69.346 263.138 70.0408L263.571 69.5784L264.003 69.1159C263.324 68.4825 262.746 67.807 262.264 67.09L261.739 67.4433ZM263.571 69.5784L263.145 70.0459C265.326 72.0378 267.903 73.1143 270.851 73.2646L270.883 72.6324L270.916 72.0004C268.261 71.8649 265.962 70.9052 263.998 69.111L263.571 69.5784ZM270.883 72.6324L270.851 73.2646C273.035 73.376 275.079 72.965 276.971 72.0274L276.689 71.4605L276.408 70.8933C274.718 71.7306 272.891 72.1013 270.916 72.0004L270.883 72.6324ZM276.689 71.4605L276.971 72.0274C278.856 71.0925 280.406 69.7565 281.615 68.026L281.096 67.6636L280.576 67.3013C279.49 68.8583 278.103 70.0533 276.408 70.8933L276.689 71.4605ZM281.096 67.6636L280.752 68.1952L284.399 70.5516L284.741 70.0201L285.085 69.4885L281.438 67.132L281.096 67.6636Z" fill="#058ACB"/>
</g>
<path d="M271.023 44.1759C273.912 44.1675 276.592 44.8822 279.06 46.3203C281.529 47.7582 283.49 49.7076 284.943 52.1686C286.394 54.5869 287.126 57.2625 287.133 60.1951C287.135 60.7051 287.095 61.4277 287.012 62.363L273.305 62.4026L259.598 62.4421C259.698 62.9646 259.828 63.4706 259.989 63.9599H255.428C255.147 62.777 255.005 61.5528 255.003 60.2876C254.994 57.355 255.707 54.6752 257.146 52.2484C258.585 49.7792 260.535 47.8186 262.994 46.3666C265.456 44.9143 268.131 44.1842 271.023 44.1759ZM271.034 48.5108C269.163 48.5164 267.338 48.968 265.556 49.8654C263.773 50.7208 262.332 51.9148 261.23 53.4482C260.131 54.9388 259.582 56.5556 259.587 58.2982L282.537 58.2322C282.533 56.4896 281.975 54.876 280.866 53.3915C279.757 51.8646 278.307 50.6789 276.52 49.834C274.776 48.9464 272.947 48.5054 271.034 48.5108Z" fill="#004F75"/>
<mask id="mask1_467_3996" style="mask-type:luminance" maskUnits="userSpaceOnUse" x="254" y="43" width="34" height="22">
<path d="M287.775 43.4785H254.305V64.6302H287.775V43.4785Z" fill="white"/>
<path d="M271.022 44.1759C273.911 44.1675 276.591 44.8822 279.059 46.3203C281.528 47.7582 283.489 49.7076 284.942 52.1686C286.393 54.5869 287.125 57.2625 287.132 60.1951C287.134 60.7051 287.094 61.4277 287.011 62.363L273.304 62.4026L259.597 62.4421C259.697 62.9646 259.827 63.4706 259.988 63.9599H255.427C255.146 62.777 255.004 61.5528 255.002 60.2876C254.993 57.355 255.706 54.6752 257.145 52.2484C258.584 49.7792 260.534 47.8186 262.993 46.3666C265.455 44.9143 268.13 44.1842 271.022 44.1759ZM271.033 48.5108C269.162 48.5164 267.337 48.968 265.555 49.8654C263.772 50.7208 262.331 51.9148 261.229 53.4482C260.13 54.9388 259.581 56.5556 259.586 58.2982L282.536 58.2322C282.532 56.4896 281.974 54.876 280.865 53.3915C279.756 51.8646 278.306 50.6789 276.519 49.834C274.775 48.9464 272.946 48.5054 271.033 48.5108Z" fill="black"/>
</mask>
<g mask="url(#mask1_467_3996)">
<path d="M284.942 52.1692L284.396 52.4907L284.398 52.4928V52.4949L284.942 52.1692ZM287.011 62.3636L287.013 62.9966L287.592 62.9949L287.64 62.4192L287.011 62.3636ZM259.597 62.4427L259.595 61.8097L258.832 61.8121L258.976 62.561L259.597 62.4427ZM259.988 63.9605V64.5934H260.862L260.59 63.7631L259.988 63.9605ZM255.427 63.9605L254.811 64.1064L254.927 64.5934H255.427V63.9605ZM257.145 52.249L257.689 52.5718L257.691 52.5697V52.5676L257.145 52.249ZM265.554 49.866L265.829 50.4367L265.833 50.4341L265.838 50.4313L265.554 49.866ZM261.229 53.4488L261.738 53.8246L261.74 53.8212L261.742 53.8177L261.229 53.4488ZM259.585 58.2988L258.953 58.3007V58.9334L259.588 58.9317L259.585 58.2988ZM282.536 58.2328L282.538 58.8655L283.171 58.8639L283.168 58.2309L282.536 58.2328ZM280.865 53.3921L280.354 53.7642L280.356 53.7677L280.358 53.7709L280.865 53.3921ZM276.518 49.8346L276.233 50.3988L276.239 50.4029L276.249 50.4067L276.518 49.8346ZM271.021 44.1765V44.8094C273.801 44.8012 276.37 45.4872 278.74 46.8676L279.059 46.3209L279.377 45.774C276.809 44.2787 274.02 43.5349 271.019 43.5435L271.021 44.1765ZM279.059 46.3209L278.74 46.8676C281.116 48.2513 282.999 50.1231 284.396 52.4907L284.942 52.1692L285.486 51.8475C283.98 49.2933 281.941 47.2662 279.377 45.774L279.059 46.3209ZM284.942 52.1692L284.398 52.4949C285.79 54.8116 286.49 57.3744 286.499 60.1976L287.131 60.1957L287.766 60.1938C287.757 57.152 286.997 54.3637 285.483 51.8434L284.942 52.1692ZM287.131 60.1957L286.499 60.1976C286.502 60.6787 286.462 61.379 286.381 62.3081L287.011 62.3636L287.64 62.4192C287.724 61.4778 287.766 60.7326 287.766 60.1938L287.131 60.1957ZM287.011 62.3636L287.008 61.7307L273.301 61.7702L273.304 62.4032L273.306 63.0361L287.013 62.9966L287.011 62.3636ZM273.304 62.4032L273.301 61.7702L259.595 61.8097L259.597 62.4427L259.599 63.0756L273.306 63.0361L273.304 62.4032ZM259.597 62.4427L258.976 62.561C259.081 63.11 259.218 63.6423 259.388 64.158L259.988 63.9605L260.59 63.7631C260.438 63.2999 260.313 62.8206 260.22 62.3241L259.597 62.4427ZM259.988 63.9605V63.3276H255.427V63.9605V64.5934H259.988V63.9605ZM255.427 63.9605L256.043 63.8145C255.773 62.6807 255.636 61.5053 255.634 60.2864L255.002 60.2882L254.367 60.2901C254.372 61.6017 254.518 62.8743 254.811 64.1064L255.427 63.9605ZM255.002 60.2882L255.634 60.2864C255.625 57.4632 256.313 54.8962 257.689 52.5718L257.145 52.249L256.601 51.9263C255.102 54.4555 254.36 57.2482 254.367 60.2901L255.002 60.2882ZM257.145 52.249L257.691 52.5676C259.076 50.1919 260.947 48.3094 263.316 46.9122L262.993 46.3672L262.672 45.8221C260.118 47.3292 258.091 49.3677 256.599 51.9305L257.145 52.249ZM262.993 46.3672L263.316 46.9122C265.678 45.5178 268.244 44.8173 271.021 44.8094V44.1765L271.019 43.5435C268.018 43.5521 265.231 44.312 262.672 45.8221L262.993 46.3672ZM271.033 48.5114L271.031 47.8787C269.055 47.8843 267.133 48.3622 265.268 49.301L265.554 49.866L265.838 50.4313C267.539 49.5748 269.269 49.1494 271.035 49.1443L271.033 48.5114ZM265.554 49.866L265.28 49.2956C263.407 50.1945 261.88 51.4559 260.715 53.0797L261.229 53.4488L261.742 53.8177C262.779 52.3749 264.137 51.2483 265.829 50.4367L265.554 49.866ZM261.229 53.4488L260.72 53.0727C259.544 54.6654 258.946 56.4133 258.953 58.3007L259.585 58.2988L260.218 58.2969C260.213 56.6992 260.713 55.2134 261.738 53.8246L261.229 53.4488ZM259.585 58.2988L259.588 58.9317L282.538 58.8655L282.536 58.2328L282.534 57.5999L259.583 57.6659L259.585 58.2988ZM282.536 58.2328L283.168 58.2309C283.164 56.3435 282.557 54.5991 281.372 53.0132L280.865 53.3921L280.358 53.7709C281.39 55.1539 281.899 56.6369 281.904 58.2344L282.536 58.2328ZM280.865 53.3921L281.376 53.0202C280.203 51.4031 278.668 50.1505 276.79 49.2624L276.518 49.8346L276.249 50.4067C277.946 51.2086 279.308 52.3275 280.354 53.7642L280.865 53.3921ZM276.518 49.8346L276.807 49.2705C274.973 48.3387 273.046 47.8729 271.031 47.8787L271.033 48.5114L271.035 49.1443C272.844 49.1392 274.575 49.5555 276.233 50.3988L276.518 49.8346Z" fill="#004F75"/>
</g>
</g>
<path d="M28.5283 51.1034L57.2128 0V51.1034L42.7197 76.2399L28.5283 51.1034Z" fill="#058ACB"/>
<path d="M85.8964 51.1034L57.2119 0V51.1034L71.7052 76.2399L85.8964 51.1034Z" fill="#058ACB"/>
<path d="M0 0.0722656H38.7238C34.5721 7.52011 25.061 24.0765 23.7022 27.9263C22.4651 31.4315 22.3939 37.3116 22.872 40.5323L0 0.0722656Z" fill="#004F75"/>
<path d="M109.529 0.0722656H70.8047C74.9562 7.52011 84.4675 24.0765 85.8261 27.9263C87.0634 31.4315 87.1345 37.3116 86.6566 40.5323L109.529 0.0722656Z" fill="#004F75"/>
<path d="M36.3262 102.431V92.2451H38.4806C39.4724 92.2451 40.2423 92.4673 40.7894 92.9119C41.341 93.3522 41.6166 93.9881 41.6166 94.8195C41.6166 95.9389 41.1269 96.7044 40.1474 97.116C40.9047 97.2229 41.4893 97.5007 41.9007 97.9493C42.3123 98.3939 42.518 98.9783 42.518 99.7026C42.518 100.275 42.3904 100.764 42.1352 101.172C41.8802 101.579 41.5139 101.892 41.0365 102.11C40.5591 102.324 39.9891 102.431 39.3265 102.431H36.3262ZM37.2645 96.8259H38.314C39.0877 96.8259 39.6823 96.6611 40.0981 96.332C40.5137 95.9987 40.7215 95.5252 40.7215 94.912C40.7215 94.2905 40.5137 93.8152 40.0981 93.486C39.6823 93.1567 39.0877 92.9921 38.314 92.9921H37.2645V96.8259ZM37.2645 101.666H39.0794C39.8738 101.666 40.4849 101.495 40.9131 101.153C41.3452 100.808 41.5611 100.316 41.5611 99.6779C41.5611 99.0401 41.3431 98.5441 40.9068 98.1901C40.4747 97.8321 39.8655 97.6529 39.0794 97.6529H37.2645V101.666ZM48.1474 102.629C46.9745 102.629 46.0917 102.308 45.499 101.666C44.9105 101.024 44.6162 100.063 44.6162 98.7828V92.2451H45.5546V98.579C45.5546 99.6286 45.7687 100.413 46.1966 100.931C46.6287 101.446 47.279 101.703 48.1474 101.703C49.0116 101.703 49.6578 101.446 50.0859 100.931C50.518 100.413 50.7342 99.6286 50.7342 98.579V92.2451H51.6786V98.7828C51.6786 100.063 51.3822 101.024 50.7897 101.666C50.2012 102.308 49.3203 102.629 48.1474 102.629ZM54.8443 102.431V92.2451H55.7827V102.431H54.8443ZM59.1007 102.431V92.2451H60.0391V101.604H64.3047V102.431H59.1007ZM68.1455 102.431V93.0972H65.0404V92.2451H72.2015V93.0972H69.0838V102.431H68.1455ZM77.7172 102.431V92.2451H82.8719V93.0723H78.2853L78.6556 92.7946V97.4679L78.2853 96.9122H82.5881V97.7394H78.2853L78.6556 97.1839V102.431H77.7172ZM89.9106 102.629C89.1986 102.629 88.5318 102.493 87.9105 102.221C87.2889 101.95 86.7436 101.573 86.2743 101.092C85.8053 100.606 85.4369 100.044 85.1693 99.4062C84.906 98.7642 84.7744 98.0769 84.7744 97.3445C84.7744 96.6077 84.906 95.9204 85.1693 95.2825C85.4369 94.6445 85.8053 94.0848 86.2743 93.6032C86.7436 93.1176 87.2889 92.739 87.9105 92.4673C88.5318 92.1958 89.1986 92.0601 89.9106 92.0601C90.6225 92.0601 91.2894 92.1958 91.9107 92.4673C92.5322 92.739 93.0775 93.1176 93.5468 93.6032C94.0159 94.0848 94.3822 94.6445 94.6455 95.2825C94.9131 95.9204 95.0469 96.6077 95.0469 97.3445C95.0469 98.0769 94.9131 98.7642 94.6455 99.4062C94.3822 100.044 94.0159 100.606 93.5468 101.092C93.0775 101.573 92.5322 101.95 91.9107 102.221C91.2894 102.493 90.6225 102.629 89.9106 102.629ZM89.9106 101.721C90.491 101.721 91.03 101.61 91.5281 101.388C92.026 101.166 92.4622 100.855 92.8367 100.456C93.2153 100.057 93.5096 99.5914 93.7195 99.0606C93.9294 98.5297 94.0345 97.9577 94.0345 97.3445C94.0345 96.7311 93.9294 96.1591 93.7195 95.6282C93.5096 95.0973 93.2153 94.6322 92.8367 94.2331C92.4622 93.8338 92.026 93.523 91.5281 93.3008C91.03 93.0786 90.491 92.9675 89.9106 92.9675C89.3302 92.9675 88.7891 93.0786 88.287 93.3008C87.7889 93.523 87.3528 93.8338 86.9782 94.2331C86.6037 94.6322 86.3094 95.0973 86.0954 95.6282C85.8855 96.1591 85.7806 96.7311 85.7806 97.3445C85.7806 97.9577 85.8855 98.5297 86.0954 99.0606C86.3094 99.5914 86.6037 100.057 86.9782 100.456C87.3528 100.855 87.7889 101.166 88.287 101.388C88.7891 101.61 89.3302 101.721 89.9106 101.721ZM97.7446 102.431V92.2451H100.387C101.054 92.2451 101.63 92.3604 102.115 92.5909C102.601 92.8213 102.976 93.1527 103.239 93.5848C103.506 94.0128 103.64 94.5253 103.64 95.1219C103.64 95.6693 103.527 96.153 103.301 96.5728C103.079 96.9884 102.761 97.3259 102.35 97.5851C101.943 97.8403 101.457 97.9967 100.893 98.0544L104.282 102.431H103.091L99.8435 98.1408H98.6829V102.431H97.7446ZM98.6829 97.3259H100.164C100.683 97.3259 101.13 97.2373 101.504 97.0605C101.879 96.8833 102.167 96.6323 102.368 96.3074C102.574 95.978 102.677 95.5912 102.677 95.1466C102.677 94.4799 102.455 93.9572 102.01 93.5786C101.566 93.1999 100.951 93.0107 100.164 93.0107H98.6829V97.3259ZM109.549 102.431V92.2451H110.487V101.604H114.753V102.431H109.549ZM117.097 102.431V92.2451H122.227V93.0723H118.035V96.9122H122.079V97.7394H118.035V101.604H122.227V102.431H117.097ZM124.049 102.431L128.061 92.2451H128.932L132.938 102.431H131.926L130.685 99.184H126.308L125.055 102.431H124.049ZM126.623 98.3567H130.364L128.494 93.4798L126.623 98.3567ZM135.267 102.431V92.2451H137.91C138.576 92.2451 139.152 92.3604 139.638 92.5909C140.124 92.8213 140.498 93.1527 140.762 93.5848C141.029 94.0128 141.163 94.5253 141.163 95.1219C141.163 95.6693 141.05 96.153 140.823 96.5728C140.601 96.9884 140.284 97.3259 139.873 97.5851C139.465 97.8403 138.979 97.9967 138.416 98.0544L141.805 102.431H140.613L137.366 98.1408H136.206V102.431H135.267ZM136.206 97.3259H137.687C138.206 97.3259 138.652 97.2373 139.027 97.0605C139.401 96.8833 139.69 96.6323 139.891 96.3074C140.097 95.978 140.2 95.5912 140.2 95.1466C140.2 94.4799 139.978 93.9572 139.533 93.5786C139.088 93.1999 138.473 93.0107 137.687 93.0107H136.206V97.3259ZM143.9 102.431V92.2451H144.839L150.308 100.832V92.2451H151.247V102.431H150.308L144.839 93.8563V102.431H143.9ZM154.571 102.431V92.2451H159.701V93.0723H155.51V96.9122H159.553V97.7394H155.51V101.604H159.701V102.431H154.571ZM162.445 102.431V92.2451H165.087C165.753 92.2451 166.33 92.3604 166.815 92.5909C167.301 92.8213 167.676 93.1527 167.939 93.5848C168.206 94.0128 168.34 94.5253 168.34 95.1219C168.34 95.6693 168.227 96.153 168.001 96.5728C167.778 96.9884 167.461 97.3259 167.05 97.5851C166.643 97.8403 166.157 97.9967 165.593 98.0544L168.982 102.431H167.791L164.543 98.1408H163.383V102.431H162.445ZM163.383 97.3259H164.865C165.383 97.3259 165.83 97.2373 166.204 97.0605C166.579 96.8833 166.867 96.6323 167.068 96.3074C167.274 95.978 167.377 95.5912 167.377 95.1466C167.377 94.4799 167.155 93.9572 166.71 93.5786C166.266 93.1999 165.651 93.0107 164.865 93.0107H163.383V97.3259ZM173.621 102.629C173.094 102.629 172.631 102.551 172.232 102.394C171.833 102.234 171.493 102.042 171.213 101.82C170.938 101.594 170.716 101.374 170.547 101.159C170.382 100.946 170.267 100.785 170.201 100.678L170.738 99.9866C170.812 100.102 170.923 100.258 171.072 100.456C171.224 100.649 171.417 100.847 171.652 101.048C171.886 101.246 172.168 101.415 172.498 101.555C172.827 101.69 173.207 101.758 173.64 101.758C174.051 101.758 174.426 101.684 174.763 101.536C175.105 101.388 175.378 101.168 175.584 100.876C175.79 100.583 175.893 100.221 175.893 99.789C175.893 99.4269 175.821 99.1203 175.677 98.8693C175.537 98.6141 175.341 98.3979 175.09 98.221C174.839 98.0441 174.551 97.8877 174.226 97.7517C173.905 97.6118 173.568 97.476 173.214 97.3445C172.967 97.2497 172.708 97.1385 172.436 97.0109C172.168 96.8794 171.917 96.7167 171.683 96.5233C171.448 96.3257 171.257 96.087 171.109 95.8072C170.964 95.5273 170.892 95.1898 170.892 94.7947C170.892 94.4244 170.962 94.0746 171.102 93.7452C171.242 93.4161 171.438 93.126 171.689 92.8747C171.94 92.6198 172.24 92.4201 172.59 92.276C172.94 92.1319 173.327 92.0601 173.751 92.0601C174.158 92.0601 174.533 92.1279 174.874 92.2637C175.216 92.3955 175.514 92.5642 175.769 92.7699C176.029 92.9717 176.228 93.1816 176.368 93.3996L175.887 94.0479C175.771 93.8584 175.611 93.6773 175.405 93.5044C175.199 93.3317 174.957 93.1918 174.677 93.0846C174.401 92.9735 174.094 92.918 173.757 92.918C173.337 92.918 172.979 93.0086 172.683 93.1897C172.39 93.3708 172.168 93.6053 172.016 93.8935C171.864 94.1773 171.788 94.4779 171.788 94.7947C171.788 95.0829 171.847 95.3276 171.967 95.5294C172.086 95.7312 172.245 95.9018 172.442 96.0417C172.64 96.1777 172.856 96.2948 173.09 96.3936C173.329 96.4924 173.568 96.5851 173.806 96.6716C174.206 96.8196 174.588 96.9782 174.954 97.1469C175.325 97.3115 175.654 97.5091 175.942 97.7394C176.23 97.9658 176.459 98.2436 176.628 98.5729C176.796 98.8981 176.881 99.293 176.881 99.7581C176.881 100.367 176.737 100.886 176.449 101.314C176.16 101.742 175.771 102.069 175.282 102.295C174.792 102.518 174.239 102.629 173.621 102.629ZM179.79 103.931L179.555 103.734C179.629 103.647 179.697 103.542 179.759 103.419C179.82 103.296 179.872 103.162 179.913 103.018C179.958 102.878 179.985 102.736 179.993 102.592C179.841 102.567 179.715 102.499 179.617 102.388C179.518 102.273 179.468 102.139 179.468 101.987C179.468 101.801 179.528 101.651 179.648 101.536C179.767 101.421 179.921 101.363 180.111 101.363C180.308 101.363 180.469 101.429 180.592 101.561C180.715 101.688 180.777 101.871 180.777 102.11C180.777 102.419 180.683 102.744 180.493 103.086C180.304 103.427 180.069 103.709 179.79 103.931ZM186.742 102.431V92.2451H188.897C189.888 92.2451 190.658 92.4673 191.205 92.9119C191.757 93.3522 192.033 93.9881 192.033 94.8195C192.033 95.9389 191.543 96.7044 190.563 97.116C191.321 97.2229 191.905 97.5007 192.317 97.9493C192.728 98.3939 192.934 98.9783 192.934 99.7026C192.934 100.275 192.806 100.764 192.551 101.172C192.296 101.579 191.93 101.892 191.453 102.11C190.975 102.324 190.405 102.431 189.743 102.431H186.742ZM187.681 96.8259H188.73C189.504 96.8259 190.098 96.6611 190.514 96.332C190.93 95.9987 191.138 95.5252 191.138 94.912C191.138 94.2905 190.93 93.8152 190.514 93.486C190.098 93.1567 189.504 92.9921 188.73 92.9921H187.681V96.8259ZM187.681 101.666H189.495C190.29 101.666 190.901 101.495 191.329 101.153C191.761 100.808 191.977 100.316 191.977 99.6779C191.977 99.0401 191.759 98.5441 191.323 98.1901C190.891 97.8321 190.282 97.6529 189.495 97.6529H187.681V101.666ZM194.186 102.431L198.199 92.2451H199.07L203.076 102.431H202.064L200.823 99.184H196.446L195.193 102.431H194.186ZM196.761 98.3567H200.502L198.631 93.4798L196.761 98.3567ZM209.85 102.629C209.089 102.629 208.381 102.495 207.726 102.228C207.072 101.96 206.5 101.588 206.01 101.11C205.524 100.629 205.146 100.067 204.874 99.4248C204.603 98.7828 204.467 98.0892 204.467 97.3445C204.467 96.5995 204.603 95.9059 204.874 95.264C205.146 94.622 205.524 94.0623 206.01 93.5848C206.5 93.1032 207.07 92.7288 207.72 92.4612C208.375 92.1937 209.084 92.0601 209.85 92.0601C210.488 92.0601 211.087 92.1547 211.646 92.3439C212.206 92.5291 212.7 92.7843 213.128 93.1095L212.683 93.8935C212.321 93.6013 211.902 93.377 211.424 93.2206C210.947 93.0642 210.44 92.9859 209.905 92.9859C209.259 92.9859 208.667 93.0972 208.127 93.3194C207.592 93.5416 207.128 93.8503 206.732 94.2454C206.337 94.6403 206.031 95.1033 205.812 95.6345C205.599 96.1653 205.491 96.7353 205.491 97.3445C205.491 97.9535 205.599 98.5234 205.812 99.0543C206.031 99.5854 206.337 100.048 206.732 100.443C207.128 100.838 207.592 101.147 208.127 101.369C208.667 101.592 209.259 101.703 209.905 101.703C210.44 101.703 210.947 101.625 211.424 101.468C211.902 101.312 212.321 101.087 212.683 100.795L213.128 101.579C212.704 101.9 212.212 102.155 211.653 102.345C211.097 102.534 210.496 102.629 209.85 102.629ZM215.328 102.431V92.2451H216.267V96.9122L220.835 92.2451H222.02L217.082 97.2887L222.539 102.431H221.218L216.267 97.8073V102.431H215.328ZM224.637 102.431V92.2451H229.767V93.0723H225.575V96.9122H229.619V97.7394H225.575V101.604H229.767V102.431H224.637ZM232.51 102.431V92.2451H234.807C235.527 92.2451 236.199 92.3748 236.819 92.6342C237.445 92.8933 237.991 93.2555 238.456 93.7206C238.921 94.1815 239.283 94.7208 239.548 95.3381C239.811 95.9555 239.943 96.6242 239.943 97.3445C239.943 98.0604 239.813 98.7273 239.553 99.3446C239.295 99.962 238.93 100.503 238.46 100.968C237.996 101.429 237.452 101.789 236.826 102.049C236.203 102.304 235.532 102.431 234.807 102.431H232.51ZM233.449 101.592H234.721C235.32 101.592 235.876 101.485 236.387 101.271C236.901 101.053 237.349 100.752 237.733 100.369C238.119 99.9824 238.421 99.5317 238.635 99.0173C238.849 98.4988 238.955 97.9391 238.955 97.3382C238.955 96.7374 238.849 96.1797 238.635 95.6651C238.421 95.1508 238.119 94.7001 237.733 94.3133C237.349 93.9263 236.901 93.626 236.387 93.4119C235.873 93.1939 235.318 93.0846 234.721 93.0846H233.449V101.592ZM245.366 102.431V92.2451H247.521C248.511 92.2451 249.28 92.4673 249.829 92.9119C250.38 93.3522 250.656 93.9881 250.656 94.8195C250.656 95.9389 250.166 96.7044 249.187 97.116C249.943 97.2229 250.528 97.5007 250.94 97.9493C251.351 98.3939 251.558 98.9783 251.558 99.7026C251.558 100.275 251.43 100.764 251.175 101.172C250.919 101.579 250.554 101.892 250.075 102.11C249.599 102.324 249.029 102.431 248.365 102.431H245.366ZM246.303 96.8259H247.353C248.127 96.8259 248.722 96.6611 249.136 96.332C249.552 95.9987 249.761 95.5252 249.761 94.912C249.761 94.2905 249.552 93.8152 249.136 93.486C248.722 93.1567 248.127 92.9921 247.353 92.9921H246.303V96.8259ZM246.303 101.666H248.118C248.913 101.666 249.524 101.495 249.952 101.153C250.384 100.808 250.601 100.316 250.601 99.6779C250.601 99.0401 250.382 98.5441 249.945 98.1901C249.513 97.8321 248.904 97.6529 248.118 97.6529H246.303V101.666ZM256.242 102.431V98.0172L252.741 92.2451H253.871L256.711 97.0172L259.552 92.2451H260.686L257.181 98.0172V102.431H256.242ZM266.113 102.431V92.2451H267.052V102.431H266.113ZM270.369 102.431V92.2451H271.308L276.777 100.832V92.2451H277.717V102.431H276.777L271.308 93.8563V102.431H270.369ZM281.04 102.431V92.2451H283.337C284.057 92.2451 284.729 92.3748 285.35 92.6342C285.975 92.8933 286.521 93.2555 286.986 93.7206C287.451 94.1815 287.816 94.7208 288.079 95.3381C288.341 95.9555 288.474 96.6242 288.474 97.3445C288.474 98.0604 288.343 98.7273 288.085 99.3446C287.825 99.962 287.463 100.503 286.993 100.968C286.528 101.429 285.982 101.789 285.357 102.049C284.734 102.304 284.062 102.431 283.337 102.431H281.04ZM281.979 101.592H283.251C283.853 101.592 284.408 101.485 284.917 101.271C285.433 101.053 285.882 100.752 286.263 100.369C286.651 99.9824 286.951 99.5317 287.165 99.0173C287.379 98.4988 287.486 97.9391 287.486 97.3382C287.486 96.7374 287.379 96.1797 287.165 95.6651C286.951 95.1508 286.651 94.7001 286.263 94.3133C285.882 93.9263 285.433 93.626 284.917 93.4119C284.404 93.1939 283.848 93.0846 283.251 93.0846H281.979V101.592ZM294.54 102.629C293.366 102.629 292.486 102.308 291.893 101.666C291.302 101.024 291.01 100.063 291.01 98.7828V92.2451H291.949V98.579C291.949 99.6286 292.162 100.413 292.59 100.931C293.022 101.446 293.671 101.703 294.54 101.703C295.405 101.703 296.051 101.446 296.479 100.931C296.911 100.413 297.127 99.6286 297.127 98.579V92.2451H298.071V98.7828C298.071 100.063 297.776 101.024 297.183 101.666C296.595 102.308 295.714 102.629 294.54 102.629ZM303.54 102.629C303.013 102.629 302.55 102.551 302.15 102.394C301.75 102.234 301.411 102.042 301.132 101.82C300.856 101.594 300.635 101.374 300.465 101.159C300.3 100.946 300.186 100.785 300.119 100.678L300.656 99.9866C300.73 100.102 300.842 100.258 300.99 100.456C301.141 100.649 301.337 100.847 301.569 101.048C301.804 101.246 302.087 101.415 302.415 101.555C302.745 101.69 303.126 101.758 303.559 101.758C303.97 101.758 304.344 101.684 304.681 101.536C305.023 101.388 305.297 101.168 305.502 100.876C305.709 100.583 305.811 100.221 305.811 99.789C305.811 99.4269 305.739 99.1203 305.595 98.8693C305.455 98.6141 305.26 98.3979 305.009 98.221C304.758 98.0441 304.47 97.8877 304.144 97.7517C303.824 97.6118 303.487 97.476 303.131 97.3445C302.885 97.2497 302.627 97.1385 302.355 97.0109C302.087 96.8794 301.836 96.7167 301.602 96.5233C301.367 96.3257 301.176 96.087 301.027 95.8072C300.883 95.5273 300.811 95.1898 300.811 94.7947C300.811 94.4244 300.881 94.0746 301.021 93.7452C301.16 93.4161 301.355 93.126 301.606 92.8747C301.857 92.6198 302.159 92.4201 302.508 92.276C302.859 92.1319 303.245 92.0601 303.67 92.0601C304.077 92.0601 304.451 92.1279 304.793 92.2637C305.135 92.3955 305.432 92.5642 305.688 92.7699C305.948 92.9717 306.146 93.1816 306.288 93.3996L305.804 94.0479C305.69 93.8584 305.53 93.6773 305.323 93.5044C305.118 93.3317 304.874 93.1918 304.595 93.0846C304.319 92.9735 304.012 92.918 303.675 92.918C303.257 92.918 302.899 93.0086 302.601 93.1897C302.308 93.3708 302.087 93.6053 301.934 93.8935C301.783 94.1773 301.706 94.4779 301.706 94.7947C301.706 95.0829 301.767 95.3276 301.885 95.5294C302.004 95.7312 302.162 95.9018 302.359 96.0417C302.557 96.1777 302.773 96.2948 303.008 96.3936C303.247 96.4924 303.487 96.5851 303.724 96.6716C304.124 96.8196 304.507 96.9782 304.872 97.1469C305.244 97.3115 305.572 97.5091 305.86 97.7394C306.148 97.9658 306.378 98.2436 306.546 98.5729C306.715 98.8981 306.799 99.293 306.799 99.7581C306.799 100.367 306.655 100.886 306.367 101.314C306.078 101.742 305.69 102.069 305.2 102.295C304.709 102.518 304.156 102.629 303.54 102.629ZM310.98 102.431V93.0972H307.877V92.2451H315.036V93.0972H311.919V102.431H310.98ZM317.382 102.431V92.2451H320.024C320.692 92.2451 321.268 92.3604 321.754 92.5909C322.24 92.8213 322.614 93.1527 322.876 93.5848C323.144 94.0128 323.279 94.5253 323.279 95.1219C323.279 95.6693 323.165 96.153 322.939 96.5728C322.716 96.9884 322.4 97.3259 321.989 97.5851C321.579 97.8403 321.094 97.9967 320.531 98.0544L323.92 102.431H322.728L319.481 98.1408H318.321V102.431H317.382ZM318.321 97.3259H319.801C320.32 97.3259 320.768 97.2373 321.143 97.0605C321.517 96.8833 321.805 96.6323 322.005 96.3074C322.212 95.978 322.314 95.5912 322.314 95.1466C322.314 94.4799 322.093 93.9572 321.647 93.5786C321.203 93.1999 320.589 93.0107 319.801 93.0107H318.321V97.3259ZM327.344 102.431V98.0172L323.843 92.2451H324.973L327.813 97.0172L330.654 92.2451H331.79L328.283 98.0172V102.431H327.344Z" fill="black"/>
</g>
<defs>
<filter id="filter0_d_467_3996" x="238.545" y="43.5435" width="65.0426" height="65.7819" filterUnits="userSpaceOnUse" color-interpolation-filters="sRGB">
<feFlood flood-opacity="0" result="BackgroundImageFix"/>
<feColorMatrix in="SourceAlpha" type="matrix" values="0 0 0 0 0 0 0 0 0 0 0 0 0 0 0 0 0 0 127 0" result="hardAlpha"/>
<feOffset dy="15.8221"/>
<feGaussianBlur stdDeviation="7.91105"/>
<feComposite in2="hardAlpha" operator="out"/>
<feColorMatrix type="matrix" values="0 0 0 0 0 0 0 0 0 0 0 0 0 0 0 0 0 0 0.1 0"/>
<feBlend mode="normal" in2="BackgroundImageFix" result="effect1_dropShadow_467_3996"/>
<feBlend mode="normal" in="SourceGraphic" in2="effect1_dropShadow_467_3996" result="shape"/>
</filter>
<clipPath id="clip0_467_3996">
<rect width="354" height="109.477" fill="white"/>
</clipPath>
</defs>
</svg>
